<svg id="base" xmlns="http://www.w3.org/2000/svg" viewBox="0 0 225 223.55">
  <defs>
    <style>
      .cls-1 {
        fill: #7c1933;
      }

      .cls-2 {
        fill: #f1f1f1;
      }

      .cls-3 {
        fill: #985e24;
      }

      .cls-16, .cls-4 {
        fill: #040000;
      }

      .cls-4, .cls-5 {
        opacity: 0.1;
      }

      .cls-12, .cls-16, .cls-17, .cls-4, .cls-5, .cls-8 {
        isolation: isolate;
      }

      .cls-5, .cls-8 {
        fill: #fff;
      }

      .cls-6 {
        fill: #10738c;
      }

      .cls-7 {
        fill: #162344;
      }

      .cls-16, .cls-8 {
        opacity: 0.2;
      }

      .cls-9 {
        fill: #96539d;
      }

      .cls-10 {
        fill: #1dab77;
      }

      .cls-11 {
        fill: #f5aa33;
      }

      .cls-12, .cls-13 {
        fill: #bf3d1f;
      }

      .cls-12 {
        opacity: 0.3;
      }

      .cls-14 {
        fill: #081f38;
      }

      .cls-15 {
        fill: #f49e3a;
      }

      .cls-17 {
        fill: #e5e5e5;
        opacity: 0.6;
      }
       #yellow:hover {
  fill: Salmon !important;
}
#blue:hover {
  fill: SpringGreen !important;
}

#red:hover {
  fill: SeaGreen !important;
}
#green:hover {
  fill: MistyRose  !important;
}
#purple:hover {
  fill: Indigo !important;
}

#newBadge hover { cursor: pointer;}
    </style>
  </defs>
  <title>画板 1</title>
  <g id="Alien_Invasion" data-name="Alien Invasion">
    <path id="red" class="cls-1" d="M225,223.55H-.36V-.35H225Z"/>
    <g id="Alien_Invasion-2" data-name="Alien Invasion-2">
      <path class="cls-2" d="M77.38,209.22c-.12-.32-.23-.64-.34-.95s-.22-.63-.34-1H73.31l-.69,1.9H71.53l.81-2.18c.25-.67.5-1.31.74-1.91s.48-1.18.72-1.73.49-1.09.75-1.62h1c.26.53.51,1.08.75,1.62s.48,1.13.72,1.73.49,1.24.74,1.91l.81,2.18Zm-1-2.76c-.23-.62-.46-1.23-.69-1.81s-.46-1.14-.71-1.68q-.37.81-.72,1.68c-.22.58-.45,1.19-.67,1.81Z"/>
      <path class="cls-2" d="M84.06,208.32v.9H79.55v-7.44h1v6.54Z"/>
      <path class="cls-2" d="M85.16,201.78h1v7.44h-1Z"/>
      <path class="cls-2" d="M88.07,209.22v-7.44h4.58v.89H89.12v2.21h3.14v.87H89.12v2.58h3.8v.89Z"/>
      <path class="cls-2" d="M99.39,209.22l-.55-.89-.67-1c-.23-.35-.48-.71-.74-1.08s-.51-.71-.76-1.05l-.74-1a8.56,8.56,0,0,0-.66-.79v5.81h-1v-7.44h.83c.34.35.7.77,1.09,1.25s.77,1,1.14,1.47.74,1,1.07,1.49.62.92.85,1.3v-5.51h1v7.44Z"/>
      <path class="cls-2" d="M104.62,201.78h1v7.44h-1Z"/>
      <path class="cls-2" d="M112.67,209.22l-.55-.89c-.2-.33-.43-.67-.66-1l-.74-1.08c-.26-.36-.51-.71-.77-1.05s-.49-.67-.73-1-.46-.56-.66-.79v5.81h-1v-7.44h.83c.34.35.7.77,1.09,1.25s.77,1,1.15,1.47.73,1,1.07,1.49.62.92.85,1.3v-5.51h1v7.44Z"/>
      <path class="cls-2" d="M121.46,201.78c-.27.78-.53,1.51-.78,2.18s-.49,1.31-.73,1.91-.48,1.18-.71,1.72-.47,1.1-.72,1.63h-1c-.25-.53-.49-1.08-.72-1.63s-.48-1.12-.72-1.72-.49-1.24-.74-1.91-.51-1.4-.78-2.18h1.16c.39,1.13.77,2.22,1.15,3.26s.76,2,1.15,3c.4-.91.79-1.89,1.16-2.94s.76-2.14,1.14-3.27Z"/>
      <path class="cls-2" d="M126.84,209.22c-.12-.32-.24-.64-.35-.95l-.33-1h-3.4l-.68,1.9H121c.28-.78.56-1.51.81-2.18s.5-1.31.74-1.91.48-1.18.72-1.73.48-1.09.74-1.62h1c.26.53.51,1.08.74,1.62s.48,1.13.72,1.73.49,1.24.74,1.91l.82,2.18Zm-1-2.76-.68-1.81c-.23-.58-.47-1.14-.71-1.68q-.37.81-.72,1.68c-.23.58-.45,1.19-.68,1.81Z"/>
      <path class="cls-2" d="M130.92,208.48c1.09,0,1.64-.37,1.64-1.12a1.07,1.07,0,0,0-.15-.58,1.31,1.31,0,0,0-.39-.42,3.15,3.15,0,0,0-.57-.31l-.67-.26a5.28,5.28,0,0,1-.78-.31,2.72,2.72,0,0,1-.64-.42,1.76,1.76,0,0,1-.43-.58,2,2,0,0,1-.16-.8,1.88,1.88,0,0,1,.68-1.53,2.85,2.85,0,0,1,1.85-.55,5.11,5.11,0,0,1,1.23.15,2.64,2.64,0,0,1,.82.32l-.34.84a2.77,2.77,0,0,0-.67-.27,3.76,3.76,0,0,0-1-.13,2.76,2.76,0,0,0-.57.06,1.49,1.49,0,0,0-.45.19,1.08,1.08,0,0,0-.31.33.86.86,0,0,0-.11.47,1.08,1.08,0,0,0,.12.5,1,1,0,0,0,.33.36,3.1,3.1,0,0,0,.5.29c.19.09.41.17.64.26l.89.38a3,3,0,0,1,.7.47,1.94,1.94,0,0,1,.46.64,2.1,2.1,0,0,1,.16.89,1.76,1.76,0,0,1-.72,1.51,3.38,3.38,0,0,1-2,.52,5.66,5.66,0,0,1-.82-.06,5,5,0,0,1-.67-.13L129,209l-.33-.15L129,208a4.93,4.93,0,0,0,.75.31A4.39,4.39,0,0,0,130.92,208.48Z"/>
      <path class="cls-2" d="M134.93,201.78h1v7.44h-1Z"/>
      <path class="cls-2" d="M137.54,205.49a4.6,4.6,0,0,1,.28-1.68,3.35,3.35,0,0,1,.78-1.22,3.2,3.2,0,0,1,1.15-.74,3.88,3.88,0,0,1,1.39-.25,4,4,0,0,1,1.37.25,3.41,3.41,0,0,1,1.13.74,3.46,3.46,0,0,1,.77,1.22,5,5,0,0,1,0,3.37,3.56,3.56,0,0,1-.77,1.22,3.41,3.41,0,0,1-1.13.74,4,4,0,0,1-1.37.24,4.15,4.15,0,0,1-1.39-.24,3.2,3.2,0,0,1-1.15-.74,3.49,3.49,0,0,1-.78-1.22A4.62,4.62,0,0,1,137.54,205.49Zm1.1,0a4.25,4.25,0,0,0,.17,1.23,2.82,2.82,0,0,0,.49.94,2.3,2.3,0,0,0,.78.6,2.49,2.49,0,0,0,1,.21,2.46,2.46,0,0,0,1-.21,2.18,2.18,0,0,0,.78-.6,2.82,2.82,0,0,0,.49-.94,4.53,4.53,0,0,0,0-2.46,2.82,2.82,0,0,0-.49-.94,2,2,0,0,0-.78-.59,2.46,2.46,0,0,0-1-.21,2.49,2.49,0,0,0-1,.21,2.27,2.27,0,0,0-.78.59,2.82,2.82,0,0,0-.49.94A4.25,4.25,0,0,0,138.64,205.49Z"/>
      <path class="cls-2" d="M151.39,209.22l-.54-.89-.67-1-.74-1.08-.76-1.05-.74-1c-.24-.33-.46-.56-.66-.79v5.81h-1v-7.44h.84c.34.35.7.77,1.08,1.25s.77,1,1.15,1.47.74,1,1.07,1.49.62.92.85,1.3v-5.51h1v7.44Z"/>
    </g>
    <g id="Alien_Invasion-3" data-name="Alien Invasion-3">
      <g id="Ground">
        <path id="yellow" class="cls-3" d="M214,187.92H12.92v-53.6H214Z"/>
        <path class="cls-4" d="M69.87,151.9c0,1.41-2.47,2.56-5.52,2.56s-5.52-1.15-5.52-2.56,2.48-2.56,5.52-2.56S69.87,150.49,69.87,151.9Z"/>
        <path class="cls-4" d="M193.93,160.86c0,1.42-2.47,2.56-5.52,2.56s-5.51-1.14-5.51-2.56,2.47-2.56,5.51-2.56S193.93,159.45,193.93,160.86Z"/>
        <path class="cls-4" d="M150,149.34c0,1.41-2.47,2.56-5.52,2.56s-5.52-1.15-5.52-2.56,2.47-2.56,5.52-2.56S150,147.93,150,149.34Z"/>
        <path class="cls-4" d="M193.93,142.5c0,1.42-2.47,2.56-5.52,2.56s-5.51-1.14-5.51-2.56,2.47-2.56,5.51-2.56S193.93,141.09,193.93,142.5Z"/>
        <path class="cls-4" d="M41.82,146c0,1.95-3.41,3.53-7.61,3.53s-7.6-1.58-7.6-3.53,3.4-3.53,7.6-3.53S41.82,144.08,41.82,146Z"/>
        <path class="cls-4" d="M108.82,160.86c0,1-1.73,1.8-3.88,1.8s-3.88-.8-3.88-1.8,1.74-1.8,3.88-1.8S108.82,159.87,108.82,160.86Z"/>
        <path class="cls-4" d="M161.47,162.66c0,1-1.73,1.8-3.88,1.8s-3.88-.8-3.88-1.8,1.74-1.8,3.88-1.8S161.47,161.67,161.47,162.66Z"/>
        <path class="cls-4" d="M94.2,146c0,1.95-3.4,3.53-7.6,3.53S79,148,79,146s3.41-3.53,7.61-3.53S94.2,144.08,94.2,146Z"/>
        <g>
          <path class="cls-3" d="M24.27,136,31,107.77l7.52-2.14L46.91,85h4.74s3.71,20.46,3.71,22.82v15.41l5.08,1.4,2.67,15.56Z"/>
          <path class="cls-5" d="M38.55,105.63,31,107.77,24.27,136l10.6,1.13c-.33-2.23-1.55-10.8-1.16-11.68S36,115.56,36,115.56l5.86-9.34L48.13,85H46.91Z"/>
        </g>
        <g>
          <polygon class="cls-3" points="62.87 134.27 73.81 115.56 82.96 116.16 86.5 131.13 92.48 134.27 96.12 139.69 65.91 142.5 60.66 138.11 62.87 134.27"/>
          <polygon class="cls-5" points="74.87 141.67 74.87 141.67 72.92 138.07 78.99 133.96 72.92 125.38 76.97 115.76 76.97 115.76 73.81 115.56 62.87 134.27 60.66 138.11 65.91 142.5 74.87 141.67"/>
        </g>
      </g>
      <g id="Aliens">
        <g>
          <path id="blue" class="cls-6" d="M172.71,150.49a12.43,12.43,0,0,1-1.89-2.08,7.94,7.94,0,0,0,1.3,2.3c.7.81.74.42,1,.85s-.59.7-1,.1a18.57,18.57,0,0,1-1.33-2.28c-.32-.7-.06,1.52.07,1.84s.48.46.45.74-1.12.46-1.12-.39a7.49,7.49,0,0,0-1-3.45,6.93,6.93,0,0,1-1.06-2.29c0-.29-2.72-4.58-3.45-8.32-.61-3.1-.83-7-2.5-10.68a82.59,82.59,0,0,1-.17,15c-1.9,21,8.31,18.08,8.31,18.08s0-.82.59-.62.84.74.52,1.09-2.9-.06-3.9,0,2.27.78,3,.91.41-.52,1.05-.29.73,1.45-1.44,1a11.09,11.09,0,0,1-5.63-2.61c-1.26-1.3-6.59-11.24-7.27-15.57s-3.74-3.07-3.79-3h0s-3.11-1.23-3.78,3-6,14.27-7.28,15.57a11.18,11.18,0,0,1-5.62,2.61c-2.18.42-2.08-.81-1.45-1s.34.42,1.06.29,4-.84,3-.91-3.57.36-3.89,0-.07-.9.52-1.09.58.62.58.62,10.21,2.93,8.31-18.08a82.59,82.59,0,0,1-.16-15c-1.7,3.66-1.92,7.62-2.53,10.73-.73,3.74-3.44,8-3.45,8.32a6.93,6.93,0,0,1-1.06,2.29,7.49,7.49,0,0,0-1,3.45c0,.85-1.1.68-1.12.39s.32-.43.45-.74.39-2.54.07-1.84a18.57,18.57,0,0,1-1.33,2.28c-.4.6-1.25.34-1-.1s.28,0,1-.85a7.94,7.94,0,0,0,1.3-2.3,12.43,12.43,0,0,1-1.89,2.08c-.63.49-1.14.27-.84-.26s.5.06,1.09-.39a4.7,4.7,0,0,0,1.35-1.94c.25-.65,1.72-1.76,1.72-1.76,3.1-5.36,1.8-9.59,4.25-19,1.7-6.51,4.09-9.45,5.4-10.65A7.72,7.72,0,0,1,148,115h10.91a7.66,7.66,0,0,1,.9,1.54c1.31,1.21,3.67,4.16,5.36,10.61,2.45,9.4,1.15,13.64,4.25,19,0,0,1.47,1.1,1.72,1.75a4.7,4.7,0,0,0,1.35,1.94c.59.45.8-.14,1.09.39S173.34,151,172.71,150.49ZM165.6,97.7c-1.28-5.92-12-6.12-12.17-6.12h0c-.2,0-10.89.2-12.17,6.12s3.58,14,8.17,18.5c3.19,3.17,3.88,2.48,4,1.77.12.71.81,1.4,4-1.77C162,111.65,166.89,103.68,165.6,97.7Z"/>
          <path class="cls-4" d="M159.58,116.14a6.34,6.34,0,0,0-.7-1.14h-11a8.85,8.85,0,0,0-.65,1.06C148.79,117.76,153.92,122.38,159.58,116.14Z"/>
          <g>
            <path class="cls-7" d="M150.81,103.9c1.8,2.09,2.16,4.7.82,5.85s-3.9.39-5.69-1.7-2.16-4.7-.81-5.84S149,101.82,150.81,103.9Z"/>
            <path class="cls-7" d="M156,103.9c-1.8,2.09-2.16,4.7-.82,5.85s3.9.39,5.69-1.7,2.16-4.7.82-5.84S157.83,101.82,156,103.9Z"/>
            <path class="cls-8" d="M148.88,103.29c-.09.21-.6.2-1.13,0s-.89-.58-.8-.79.59-.2,1.13,0S149,103.08,148.88,103.29Z"/>
            <path class="cls-8" d="M159.7,102.42c.12.2-.17.61-.66.92s-1,.41-1.11.22.17-.61.66-.92S159.57,102.23,159.7,102.42Z"/>
          </g>
        </g>
        <g>
          <path id="purple" class="cls-9" d="M131.79,131.22a8.43,8.43,0,0,1-1.36-1.5,5.93,5.93,0,0,0,.94,1.66c.5.58.53.3.71.61s-.44.51-.73.08a15.41,15.41,0,0,1-1-1.65c-.22-.5,0,1.1.05,1.33s.35.33.33.53-.81.33-.8-.28a5.44,5.44,0,0,0-.72-2.48,5.3,5.3,0,0,1-.77-1.65c0-.22-2-3.3-2.48-6-.44-2.23-.59-5.06-1.8-7.68A59.84,59.84,0,0,1,124,125c-1.37,15.13,6,13,6,13s0-.59.42-.45.6.53.37.79-2.08,0-2.81,0,1.64.56,2.15.65.3-.37.76-.21.53,1.05-1,.74a8,8,0,0,1-4-1.88c-.92-.93-4.75-8.09-5.25-11.2s-2.68-2.22-2.72-2.2h0s-2.24-.89-2.72,2.2-4.33,10.27-5.24,11.2a8,8,0,0,1-4,1.88c-1.57.31-1.5-.58-1-.74s.24.3.76.21,2.87-.6,2.15-.65-2.57.26-2.81,0,0-.65.38-.79.41.45.41.45,7.36,2.11,6-13a59.36,59.36,0,0,1-.12-10.83c-1.22,2.63-1.37,5.48-1.81,7.72-.53,2.7-2.49,5.78-2.49,6a5.06,5.06,0,0,1-.76,1.65A5.28,5.28,0,0,0,106,132c0,.61-.79.49-.81.28s.24-.31.33-.54.28-1.82,0-1.32a13.17,13.17,0,0,1-1,1.65c-.29.43-.9.24-.72-.08s.2,0,.71-.61a5.93,5.93,0,0,0,.94-1.66,8.79,8.79,0,0,1-1.36,1.5c-.46.35-.82.19-.61-.19s.36.05.79-.28a3.47,3.47,0,0,0,1-1.39c.18-.47,1.23-1.27,1.23-1.27,2.23-3.86,1.3-6.91,3.07-13.68,1.22-4.68,2.94-6.8,3.88-7.66a5.12,5.12,0,0,1,.64-1.08H122a5.31,5.31,0,0,1,.65,1.1c1,.88,2.65,3,3.86,7.64,1.77,6.77.83,9.82,3.06,13.68,0,0,1.06.8,1.24,1.27a3.38,3.38,0,0,0,1,1.39c.43.33.58-.1.79.28S132.25,131.57,131.79,131.22Zm-5.12-38c-.92-4.26-8.62-4.41-8.76-4.41h0c-.14,0-7.84.15-8.76,4.41s2.58,10,5.88,13.32c2.3,2.28,2.79,1.79,2.89,1.27.09.52.59,1,2.88-1.27,3.29-3.29,6.8-9,5.87-13.33Z"/>
          <path class="cls-4" d="M122.34,106.49a4.33,4.33,0,0,0-.51-.82h-7.91a5.35,5.35,0,0,0-.47.76C114.57,107.65,118.26,111,122.34,106.49Z"/>
          <g>
            <path class="cls-7" d="M116,97.68c1.29,1.49,1.55,3.38.58,4.2s-2.8.28-4.1-1.22-1.55-3.38-.58-4.21S114.73,96.18,116,97.68Z"/>
            <path class="cls-7" d="M119.79,97.68c-1.3,1.49-1.56,3.38-.59,4.2s2.8.28,4.1-1.22,1.55-3.38.58-4.21S121.08,96.18,119.79,97.68Z"/>
            <path class="cls-8" d="M114.63,97.23c-.06.16-.43.15-.81,0s-.65-.42-.58-.57.43-.15.81,0S114.7,97.08,114.63,97.23Z"/>
            <path class="cls-8" d="M122.42,96.61c.09.14-.12.43-.47.66s-.71.29-.8.16.12-.44.47-.66S122.33,96.47,122.42,96.61Z"/>
          </g>
        </g>
        <g>
          <path id="green" class="cls-10" d="M205.14,131.22a8.43,8.43,0,0,1-1.36-1.5,5.93,5.93,0,0,0,.94,1.66c.5.58.53.3.7.61s-.43.51-.72.08a13.94,13.94,0,0,1-1-1.65c-.22-.5,0,1.1,0,1.33s.35.33.33.53-.81.33-.8-.28a5.44,5.44,0,0,0-.72-2.48,5.3,5.3,0,0,1-.77-1.65c0-.22-2-3.3-2.48-6-.44-2.23-.59-5.06-1.8-7.68a59.84,59.84,0,0,1-.12,10.79c-1.37,15.13,6,13,6,13s0-.59.41-.45.61.53.38.79-2.08,0-2.81,0,1.64.56,2.15.65.3-.37.76-.21.53,1.05-1,.74a8,8,0,0,1-4-1.88c-.92-.93-4.75-8.09-5.25-11.2s-2.68-2.22-2.72-2.2h0s-2.24-.89-2.72,2.2-4.33,10.27-5.25,11.2a8,8,0,0,1-4,1.88c-1.57.31-1.5-.58-1-.74s.24.3.76.21,2.87-.6,2.15-.65-2.58.26-2.81,0,0-.65.38-.79.41.45.41.45,7.36,2.11,6-13a60.27,60.27,0,0,1-.12-10.83c-1.22,2.63-1.38,5.48-1.81,7.72-.53,2.7-2.49,5.78-2.49,6a5.06,5.06,0,0,1-.76,1.65,5.28,5.28,0,0,0-.72,2.48c0,.61-.79.49-.81.28s.24-.31.33-.54.28-1.82,0-1.32a13.17,13.17,0,0,1-1,1.65c-.29.43-.9.24-.72-.08s.2,0,.71-.61a5.93,5.93,0,0,0,.94-1.66,8.79,8.79,0,0,1-1.36,1.5c-.46.35-.82.19-.61-.19s.36.05.79-.28a3.47,3.47,0,0,0,1-1.39c.18-.47,1.23-1.27,1.23-1.27,2.23-3.86,1.3-6.91,3.07-13.68,1.22-4.68,2.94-6.8,3.88-7.66a5.12,5.12,0,0,1,.64-1.08h7.85a5.31,5.31,0,0,1,.65,1.1c1,.88,2.65,3,3.86,7.64,1.77,6.77.83,9.82,3.06,13.68,0,0,1.06.8,1.24,1.27a3.38,3.38,0,0,0,1,1.39c.43.33.58-.1.79.28S205.59,131.57,205.14,131.22Zm-5.12-38c-.92-4.26-8.62-4.41-8.76-4.41h0c-.14,0-7.84.15-8.76,4.41s2.58,10,5.88,13.32c2.3,2.28,2.79,1.79,2.89,1.27.09.52.58,1,2.88-1.27,3.29-3.29,6.85-9,5.85-13.33Z"/>
          <path class="cls-4" d="M195.69,106.49a4.33,4.33,0,0,0-.51-.82H187.3a5.35,5.35,0,0,0-.47.76C187.92,107.65,191.61,111,195.69,106.49Z"/>
          <g>
            <path class="cls-7" d="M189.38,97.68c1.29,1.49,1.55,3.38.58,4.2s-2.8.28-4.1-1.22-1.55-3.38-.58-4.21S188.08,96.18,189.38,97.68Z"/>
            <path class="cls-7" d="M193.14,97.68c-1.3,1.49-1.56,3.38-.59,4.2s2.8.28,4.1-1.22,1.55-3.38.58-4.21S194.43,96.18,193.14,97.68Z"/>
            <path class="cls-8" d="M188,97.23c-.06.16-.43.15-.81,0s-.65-.42-.58-.57.43-.15.81,0S188.05,97.08,188,97.23Z"/>
            <path class="cls-8" d="M195.77,96.61c.09.14-.12.43-.47.66s-.71.29-.8.16.12-.44.47-.66S195.68,96.47,195.77,96.61Z"/>
          </g>
        </g>
      </g>
      <g id="Asteroids">
        <g>
          <g>
            <path class="cls-11" d="M100.91,38.75l-4.62,1.13-1.35.33-2.13.52a.68.68,0,0,1-.84-.46.66.66,0,0,1,.52-.78h0l.64-.16L96,38.64l3.12-.77a.67.67,0,0,0,.53-.78.68.68,0,0,0-.84-.46l-3.12.76-2.85.7-4.39,1.07a3,3,0,1,0,1.42,5.73l7.24-1.77c.64-.16.46-.91-.19-.75l-2.24.54a.64.64,0,0,1-.38-1.22l.07,0,.89-.22,1.35-.33L101.22,40a.67.67,0,0,0,.53-.78h0A.68.68,0,0,0,100.91,38.75Z"/>
            <path class="cls-12" d="M90.91,41.59A2.42,2.42,0,1,1,88,39.84h0A2.41,2.41,0,0,1,90.91,41.59Z"/>
            <path class="cls-13" d="M90.13,41.78a1.86,1.86,0,1,1-2.26-1.41,1.87,1.87,0,0,1,2.26,1.41h0Z"/>
          </g>
          <path class="cls-11" d="M103.66,37a.42.42,0,0,1-.3.5h0l-2.1.51a.39.39,0,0,1-.49-.28v0h0a.4.4,0,0,1,.29-.49h0l2.11-.52A.42.42,0,0,1,103.66,37Z"/>
          <path class="cls-11" d="M99.72,41a.36.36,0,0,1-.26.43l-1.85.45a.35.35,0,0,1-.43-.25h0a.36.36,0,0,1,.26-.44h0l1.84-.45A.38.38,0,0,1,99.72,41Z"/>
          <path class="cls-11" d="M104.87,39.38a.28.28,0,0,1-.2.34l-1.44.35a.28.28,0,0,1-.34-.2h0a.28.28,0,0,1,.2-.34h0l1.43-.35A.29.29,0,0,1,104.87,39.38Z"/>
        </g>
        <g>
          <g>
            <path class="cls-11" d="M76.44,18.31l-6.5,1.58-1.9.46-3,.74a1,1,0,0,1-1.18-.64,1,1,0,0,1,.74-1.11h0l.9-.22,4-1,4.39-1.07a.91.91,0,0,0,.81-1,.9.9,0,0,0-1-.81,1,1,0,0,0-.25.06l-4.4,1.07-4,1-6.18,1.5A4.37,4.37,0,0,0,55.43,24h0a4.4,4.4,0,0,0,5.45,3l10.19-2.48c.9-.23.65-1.29-.27-1.07l-3.15.77a.9.9,0,0,1-1.18-.51.91.91,0,0,1,.5-1.18,1.14,1.14,0,0,1,.25-.06l1.25-.3,1.9-.47,6.5-1.58a.91.91,0,0,0,.81-1,.9.9,0,0,0-1-.81,1,1,0,0,0-.25.06Z"/>
            <path class="cls-12" d="M62.36,22.3a3.41,3.41,0,1,1-4.14-2.48h0a3.41,3.41,0,0,1,4.13,2.47Z"/>
            <path class="cls-13" d="M61.26,22.57a2.64,2.64,0,1,1-3.2-1.93h0A2.65,2.65,0,0,1,61.26,22.57Z"/>
          </g>
          <path class="cls-11" d="M80.31,15.87a.59.59,0,0,1-.43.7l-3,.72a.57.57,0,0,1-.7-.41h0a.57.57,0,0,1,.41-.7h0l3-.72A.59.59,0,0,1,80.31,15.87Z"/>
          <path class="cls-11" d="M74.76,21.48a.5.5,0,0,1-.36.61h0l-2.59.63a.51.51,0,0,1-.62-.37h0a.5.5,0,0,1,.36-.61h0l2.6-.63a.5.5,0,0,1,.61.36Z"/>
          <path class="cls-11" d="M82,19.19a.41.41,0,0,1-.29.48l-2,.49a.4.4,0,0,1-.48-.29h0a.4.4,0,0,1,.29-.48l2-.49A.41.41,0,0,1,82,19.19Z"/>
        </g>
        <g>
          <g>
            <path class="cls-11" d="M100.1,66.45,89.76,69l-3,.74L82,70.87a1.44,1.44,0,0,1-1-2.71,1.37,1.37,0,0,1,.29-.07l1.43-.35,6.38-1.55,7-1.71a1.5,1.5,0,0,0,1.19-1.76h0a1.53,1.53,0,0,0-1.88-1l-7,1.7L82,65l-9.82,2.39c-3.91,1-6.37,4.6-5.5,8.14s4.76,5.64,8.67,4.69l16.2-4c1.44-.35,1-2-.42-1.69l-5,1.22A1.44,1.44,0,0,1,85,73.12a1.36,1.36,0,0,1,.49-.12l2-.49,3-.73,10.34-2.52a1.44,1.44,0,0,0,1.16-1.67,1.43,1.43,0,0,0-1.67-1.16l-.18,0Z"/>
            <path class="cls-12" d="M77.71,72.81a5.43,5.43,0,1,1,0-.08Z"/>
            <path class="cls-13" d="M76,73.23a4.2,4.2,0,1,1-5.09-3.06h0a4.17,4.17,0,0,1,5.08,3Z"/>
          </g>
          <path class="cls-11" d="M106.25,62.58a.93.93,0,0,1-.68,1.11h0l-4.72,1.15a.92.92,0,0,1-1.12-.66h0a.93.93,0,0,1,.67-1.12h0l4.72-1.15A.92.92,0,0,1,106.25,62.58Z"/>
          <path class="cls-11" d="M97.44,71.49a.8.8,0,0,1-.57,1h0l-4.12,1a.8.8,0,0,1-1-.57v0h0a.8.8,0,0,1,.55-1h0l4.13-1a.82.82,0,0,1,1,.59Z"/>
          <path class="cls-11" d="M109,67.85a.63.63,0,0,1-.46.76l-3.22.79a.63.63,0,0,1-.76-.46h0a.62.62,0,0,1,.44-.76h0l3.22-.79A.64.64,0,0,1,109,67.85Z"/>
        </g>
      </g>
      <g id="Planets">
        <g>
          <path class="cls-14" d="M179.63,40.23a16.38,16.38,0,0,1-8.09,21.7l-.15.07a16.58,16.58,0,0,1-21.89-8.19,16.4,16.4,0,0,1,8.06-21.73l.18-.08A16.57,16.57,0,0,1,179.63,40.23Z"/>
          <path class="cls-5" d="M179.63,40.23a16.54,16.54,0,0,0-16.41-9.6h-.8a16.79,16.79,0,0,0-2.22.45.84.84,0,0,0,1.08.35L162.5,31l.37.81-3.81,1.71a.84.84,0,1,0,.57,1.58l.13-.06,3.8-1.71,1.36-.61a.84.84,0,0,1,.69,1.53l-1.35.61h0l-3.59,1.61a.83.83,0,0,0-.43,1.09v0a.84.84,0,0,0,1.11.42L165,36.35l1.57-.7,2.19-1a.84.84,0,0,1,.69,1.53l-1.37.62-2.38,1.07-2.78,1.25a.83.83,0,0,0-.42,1.1h0a.85.85,0,0,0,1.12.42l2.77-1.25,1.15-.52a.85.85,0,0,1,1.12.42.83.83,0,0,1-.3,1l-4.36,2a.82.82,0,0,0-.44,1.07l0,0a.84.84,0,0,0,1.11.41l3.06-1.37,2.1-.95,1.87-.84a.84.84,0,0,1,1.11.42.82.82,0,0,1-.38,1.08l0,0L171,42.8,168.43,44l-2.58,1.16a.84.84,0,0,0,.62,1.56l.07,0,2.58-1.16,1-.47a.83.83,0,0,1,.78,1.47L167.74,48a.84.84,0,0,0-.42,1.1h0a.84.84,0,0,0,1.11.42l2-.91,3.14-1.41,1-.46a.84.84,0,1,1,.83,1.46l-.13.06-2.06.93-2.1.94-3.06,1.38a.83.83,0,0,0-.42,1.1h0a.84.84,0,0,0,1.11.42h0l3.05-1.37,1.36-.61a.83.83,0,0,1,.69,1.52h0l-1.35.61h0l-1.78.8a.84.84,0,0,0,.62,1.56l.07,0,1.79-.8,2.87-1.3a.84.84,0,0,1,.7,1.53l-.59.26h0L171,57.48a.83.83,0,0,0-.43,1.09v0a.84.84,0,0,0,1.11.42l2.87-1.3.58,1.27-1.78.81a.83.83,0,0,0-.42,1.1h0a1,1,0,0,0,.11.17,15.44,15.44,0,0,0,2.28-1.66h0l.21-.18.13-.13.23-.21.13-.12.28-.28h0A16.34,16.34,0,0,0,179.63,40.23Z"/>
        </g>
        <g>
          <path class="cls-15" d="M201.15,51.13a5.24,5.24,0,0,1-9.6-4.21l0,0a5.24,5.24,0,0,1,9.58,4.25Z"/>
          <path class="cls-16" d="M201.15,51.13A5.19,5.19,0,0,0,200,45.24H200a6.07,6.07,0,0,0-.57-.43.26.26,0,0,0,.14.33l.4.18-.12.25L198.59,45a.26.26,0,1,0-.22.48l1.22.54.43.19a.26.26,0,1,1-.22.48l-.43-.19h0L198.23,46a.26.26,0,0,0-.34.13h0a.27.27,0,0,0,.13.35l1.15.51.5.22.69.3a.26.26,0,0,1,.14.35h0a.28.28,0,0,1-.36.13l-.43-.19-.76-.34-.88-.39a.28.28,0,0,0-.36.13.26.26,0,0,0,.13.34h0l.88.39.37.17a.27.27,0,0,1,.1.37.27.27,0,0,1-.28.13l-1.38-.61a.27.27,0,0,0-.29-.25.28.28,0,0,0-.24.2.26.26,0,0,0,.13.34h0l1,.43.67.3.59.26a.27.27,0,0,1,.15.34h0a.26.26,0,0,1-.35.14h0l-.44-.2-.82-.36-.82-.37a.26.26,0,0,0-.34.13h0a.27.27,0,0,0,.13.35l.82.36.33.15a.27.27,0,0,1,.15.34h0a.27.27,0,0,1-.32.14l-1-.44a.27.27,0,0,0-.23.48h0l.65.29,1,.44.33.15a.27.27,0,0,1,.15.34h0a.28.28,0,0,1-.36.13l-.65-.29-.67-.3-1-.43a.28.28,0,0,0-.36.13h0a.26.26,0,0,0,.13.34h0l1,.43.43.19a.27.27,0,0,1,.15.34h0a.28.28,0,0,1-.36.13l-.43-.19h0l-.57-.25a.27.27,0,0,0-.35.13.26.26,0,0,0,.13.34h0l.56.25.92.41a.26.26,0,0,1-.22.48l-.19-.08h0l-1.64-.73a.26.26,0,0,0-.34.13h0a.27.27,0,0,0,.13.35l.92.4-.18.41-.57-.26a.26.26,0,0,0-.34.13h0V54a5.31,5.31,0,0,0,.88.19h.44A5.26,5.26,0,0,0,201.15,51.13Z"/>
        </g>
      </g>
      <g id="Clouds">
        <path class="cls-17" d="M62.74,59.72H54.86a3.71,3.71,0,0,0-1.46-5,3.62,3.62,0,0,0-1.82-.46H18a3.72,3.72,0,1,0-.39,7.43h8.28a3.69,3.69,0,0,0-.46,1.78,3.73,3.73,0,0,0,3.72,3.72H62.74a3.72,3.72,0,0,0,.39-7.43Z"/>
        <path class="cls-17" d="M195.58,18.42h-3.84a1.9,1.9,0,0,0,.22-.87,1.81,1.81,0,0,0-1.81-1.81H173.81a1.81,1.81,0,0,0,0,3.62h3.84a1.74,1.74,0,0,0-.23.87,1.82,1.82,0,0,0,1.82,1.8h16.34a1.81,1.81,0,1,0,.27-3.61A1.22,1.22,0,0,0,195.58,18.42Z"/>
        <path class="cls-17" d="M148.29,38.71h-3.7a1.77,1.77,0,0,0,.21-.84,1.74,1.74,0,0,0-1.74-1.74H127.29a1.75,1.75,0,1,0-.26,3.49,1.13,1.13,0,0,0,.26,0H131a1.77,1.77,0,0,0-.21.84,1.74,1.74,0,0,0,1.74,1.74H148.3a1.75,1.75,0,1,0,.26-3.49h-.27Z"/>
        <path class="cls-17" d="M188.57,58.16h-3.71a1.78,1.78,0,0,0,.22-.84,1.75,1.75,0,0,0-1.76-1.74H167.57a1.74,1.74,0,1,0,0,3.48h3.7a1.78,1.78,0,0,0-.22.84,1.75,1.75,0,0,0,1.75,1.75h15.77a1.75,1.75,0,1,0,.26-3.49Z"/>
      </g>
    </g>
  </g>
</svg>
