<svg id="base" xmlns="http://www.w3.org/2000/svg" viewBox="0 0 225 223.55">
  <defs>
    <style>
      .cls-1 {
        fill: #323355;
      }

      .cls-2 {
        fill: #3a3a59;
      }

      .cls-3 {
        fill: #085482;
      }

      .cls-4 {
        fill: silver;
      }

      .cls-5 {
        fill: #e9e8e8;
      }

      .cls-6 {
        fill: #aeadad;
      }

      .cls-7 {
        fill: #040000;
      }

      .cls-7, .cls-75 {
        opacity: 0.1;
      }

      .cls-15, .cls-16, .cls-17, .cls-18, .cls-19, .cls-20, .cls-21, .cls-22, .cls-23, .cls-24, .cls-25, .cls-26, .cls-27, .cls-28, .cls-29, .cls-30, .cls-31, .cls-32, .cls-33, .cls-34, .cls-35, .cls-36, .cls-37, .cls-38, .cls-39, .cls-40, .cls-41, .cls-42, .cls-43, .cls-44, .cls-45, .cls-46, .cls-47, .cls-48, .cls-49, .cls-50, .cls-51, .cls-52, .cls-53, .cls-54, .cls-55, .cls-56, .cls-57, .cls-58, .cls-59, .cls-60, .cls-61, .cls-62, .cls-63, .cls-64, .cls-65, .cls-66, .cls-67, .cls-68, .cls-69, .cls-7, .cls-70, .cls-71, .cls-72, .cls-73, .cls-74, .cls-75 {
        isolation: isolate;
      }

      .cls-8 {
        fill: #c0bfbf;
      }

      .cls-9 {
        fill: #fff;
      }

      .cls-10 {
        fill: #01375b;
      }

      .cls-11 {
        fill: #ec6849;
      }

      .cls-12 {
        fill: #f0efef;
      }

      .cls-13 {
        fill: #fad0a0;
      }

      .cls-14, .cls-28 {
        opacity: 0.57;
      }

      .cls-15, .cls-16, .cls-17, .cls-18, .cls-19, .cls-20, .cls-21, .cls-22, .cls-23, .cls-24, .cls-25, .cls-26, .cls-27, .cls-28, .cls-29, .cls-30, .cls-31, .cls-32, .cls-33, .cls-34, .cls-35, .cls-36, .cls-37, .cls-38, .cls-39, .cls-40, .cls-41, .cls-42, .cls-43, .cls-44, .cls-45, .cls-46, .cls-47, .cls-48, .cls-49, .cls-50, .cls-51, .cls-52, .cls-53, .cls-54, .cls-55, .cls-56, .cls-57, .cls-58, .cls-59, .cls-60, .cls-61, .cls-62, .cls-63, .cls-64, .cls-65, .cls-66, .cls-67, .cls-68, .cls-69, .cls-70, .cls-71, .cls-72, .cls-73, .cls-74, .cls-75 {
        fill: #f6c73f;
      }

      .cls-15 {
        opacity: 0.7;
      }

      .cls-16 {
        opacity: 0.69;
      }

      .cls-17 {
        opacity: 0.68;
      }

      .cls-18 {
        opacity: 0.67;
      }

      .cls-19 {
        opacity: 0.66;
      }

      .cls-20 {
        opacity: 0.65;
      }

      .cls-21 {
        opacity: 0.64;
      }

      .cls-22, .cls-76 {
        opacity: 0.63;
      }

      .cls-23 {
        opacity: 0.62;
      }

      .cls-24 {
        opacity: 0.61;
      }

      .cls-25 {
        opacity: 0.6;
      }

      .cls-26 {
        opacity: 0.59;
      }

      .cls-27 {
        opacity: 0.58;
      }

      .cls-29 {
        opacity: 0.56;
      }

      .cls-30 {
        opacity: 0.55;
      }

      .cls-31 {
        opacity: 0.54;
      }

      .cls-32 {
        opacity: 0.53;
      }

      .cls-33 {
        opacity: 0.52;
      }

      .cls-34 {
        opacity: 0.51;
      }

      .cls-35 {
        opacity: 0.5;
      }

      .cls-36 {
        opacity: 0.49;
      }

      .cls-37 {
        opacity: 0.48;
      }

      .cls-38 {
        opacity: 0.47;
      }

      .cls-39 {
        opacity: 0.46;
      }

      .cls-40 {
        opacity: 0.45;
      }

      .cls-41 {
        opacity: 0.44;
      }

      .cls-42 {
        opacity: 0.43;
      }

      .cls-43 {
        opacity: 0.42;
      }

      .cls-44 {
        opacity: 0.41;
      }

      .cls-45 {
        opacity: 0.4;
      }

      .cls-46 {
        opacity: 0.39;
      }

      .cls-47 {
        opacity: 0.38;
      }

      .cls-48 {
        opacity: 0.37;
      }

      .cls-49 {
        opacity: 0.36;
      }

      .cls-50 {
        opacity: 0.35;
      }

      .cls-51 {
        opacity: 0.34;
      }

      .cls-52 {
        opacity: 0.33;
      }

      .cls-53 {
        opacity: 0.32;
      }

      .cls-54 {
        opacity: 0.31;
      }

      .cls-55 {
        opacity: 0.3;
      }

      .cls-56 {
        opacity: 0.29;
      }

      .cls-57 {
        opacity: 0.28;
      }

      .cls-58 {
        opacity: 0.27;
      }

      .cls-59 {
        opacity: 0.26;
      }

      .cls-60 {
        opacity: 0.25;
      }

      .cls-61 {
        opacity: 0.24;
      }

      .cls-62 {
        opacity: 0.23;
      }

      .cls-63 {
        opacity: 0.22;
      }

      .cls-64 {
        opacity: 0.21;
      }

      .cls-65 {
        opacity: 0.2;
      }

      .cls-66 {
        opacity: 0.19;
      }

      .cls-67 {
        opacity: 0.18;
      }

      .cls-68 {
        opacity: 0.17;
      }

      .cls-69 {
        opacity: 0.16;
      }

      .cls-70 {
        opacity: 0.15;
      }

      .cls-71 {
        opacity: 0.14;
      }

      .cls-72 {
        opacity: 0.13;
      }

      .cls-73 {
        opacity: 0.12;
      }

      .cls-74 {
        opacity: 0.11;
      }

      .cls-77 {
        fill: #eeeb64;
      }

      .cls-78 {
        fill: #f1f1f1;
      }
      #blue:hover {
  fill: Teal !important;
}
#light_blue:hover {
  fill: BlueViolet  !important;
}
#light_light_blue:hover {
  fill: DeepPink  !important;
}
#white:hover {
  fill: Crimson  !important;
}

    </style>
  </defs>
  <title>画板 1</title>
  <g id="Space_Suit" data-name="Space Suit">
    <g id="Background">
      <path id="blue" class="cls-1" d="M225,223.55H-.41V-.35H225Z"/>
      <path id="light_blue" data-name="light blue" class="cls-2" d="M187.24,111.6c0,41.12-33.55,74.45-74.95,74.45S37.35,152.72,37.35,111.6,70.9,37.16,112.29,37.16,187.24,70.49,187.24,111.6Z"/>
    </g>
    <g id="Space_Suit-2" data-name="Space Suit-2">
      <g id="Planets">
        <path id="light_light_blue" data-name="light light blue" class="cls-3" d="M198.4,131.42a45.87,45.87,0,1,1-46.17-45.57h.3a45.72,45.72,0,0,1,45.87,45.57Z"/>
        <g>
          <g>
            <path class="cls-4" d="M86.73,54.86A14.5,14.5,0,0,1,66.4,53.07,14.28,14.28,0,0,1,68.1,33l.1-.08a14.5,14.5,0,0,1,20.33,1.79,14.28,14.28,0,0,1-1.7,20.11Z"/>
            <path class="cls-5" d="M88.53,34.67a14.48,14.48,0,0,0-22.94,1c3,0,7,.24,8.69,1,3,1.36,8,.6,8.88.23.56-.23,5,1.63,8.21,3.06A14.3,14.3,0,0,0,88.53,34.67Z"/>
            <path class="cls-6" d="M80,47.39s-6.42,1.39-7.68,1.43c-.82,0-5.87-2.49-9.29-4.25a14.24,14.24,0,0,0,3.35,8.5,14.47,14.47,0,0,0,24.16-3.18l-5.69-1Z"/>
          </g>
          <path class="cls-7" d="M87,54.6l.09-.08.2-.18a.47.47,0,0,1,.1-.1l.18-.17.1-.1.17-.18.1-.1.17-.18.09-.1a1.63,1.63,0,0,0,.17-.2l.08-.09.18-.21.06-.08.21-.26h0A15.13,15.13,0,0,0,90,50.93h0l.18-.32h0c.06-.1.11-.21.17-.32h0l.17-.33h0a14.34,14.34,0,0,0,.85-10h0c-.1-.36-.21-.71-.34-1.06h0l-.11-.29v-.09l-.1-.25a.31.31,0,0,0,0-.1,1.6,1.6,0,0,0-.1-.23v-.12a2,2,0,0,1-.1-.21l-.07-.13-.1-.2-.07-.13a1.28,1.28,0,0,0-.11-.2L90,36.84l-.11-.19-.08-.13-.11-.19-.09-.13-.08-.2-.08-.13-.13-.18-.09-.13-.14-.19-.09-.1-.15-.21-.08-.1-.24-.29a14.43,14.43,0,0,0-9.41-5L74.46,57.88a14.47,14.47,0,0,0,12.27-3Z"/>
        </g>
      </g>
      <g id="Astronot">
        <path class="cls-8" d="M82.07,128.44a15.12,15.12,0,0,1-19.76,8h0a15,15,0,0,1-8.05-19.63h0L67.05,86.62c3.24-7.63,10.49-7.46,18.17-4.24h0c7.68,3.21,13,7.8,9.8,15.43Z"/>
        <path id="white" class="cls-9" d="M77.64,130.14l-11.19,26.4-8.75-3.66s8.72-23.14,8.53-25.11c-1.56,1.24-12.12,23.61-12.12,23.61l-8.75-3.66,11.18-26.4L67,125.68l.21.09Zm10-28.75L79,97.76l-8.68-3.62S59.5,91.81,46.19,115.91l8,5.64s6.24-9.85,6.21-9.47-4,9.38-4,9.38L67,125.91h0l10.66,4.46s3.73-9.1,4-9.38-2.48,11-2.48,11l9.62,1.71c8-26.27-1.18-32.31-1.18-32.31ZM85.36,82.61a11,11,0,1,0-8.6,20.27h0a11,11,0,1,0,8.59-20.27Z"/>
        <path id="blue-2" class="cls-10" d="M89.39,96.22A9,9,0,0,1,77.6,101h0a8.94,8.94,0,0,1-4.85-11.68l0-.07a9,9,0,0,1,11.79-4.79h0a8.93,8.93,0,0,1,4.86,11.66Zm-11.1-7.53A.55.55,0,0,0,78,88h0a.57.57,0,0,0-.74.29h0l-1,2.4a.56.56,0,0,0,.3.73h0a.57.57,0,0,0,.74-.29h0Zm-1.49-.48a.43.43,0,0,0-.22-.56h0a.43.43,0,0,0-.56.23l-.77,1.81a.43.43,0,0,0,.23.56h0A.44.44,0,0,0,76,90Z"/>
        <polygon class="cls-10" points="77.19 131.2 56.09 122.38 56.55 121.32 77.64 130.14 77.19 131.2"/>
        <polygon class="cls-10" points="78.65 119.96 73.05 117.62 75.34 112.22 80.94 114.56 78.65 119.96"/>
        <polygon class="cls-10" points="82.76 110.26 77.16 107.92 77.73 106.57 83.33 108.91 82.76 110.26"/>
        <polygon class="cls-11" points="72.06 107.38 66.45 105.03 67.6 102.33 73.2 104.67 72.06 107.38"/>
        <polygon class="cls-12" points="71.39 108.95 65.79 106.61 66.46 105.01 72.06 107.36 71.39 108.95"/>
        <path class="cls-13" d="M90.28,105.05s-2.44,1.7-1,3.7,2.4,1,2.4,1A36.28,36.28,0,0,0,90.28,105.05Z"/>
        <path id="blue-3" class="cls-10" d="M53.14,153a2.73,2.73,0,0,1-3.57,1.45l-3.65-1.53a2.7,2.7,0,0,1-1.46-3.54h0A2.74,2.74,0,0,1,48,147.94l3.65,1.52A2.7,2.7,0,0,1,53.14,153Zm12.58,5.26a2.71,2.71,0,0,0-1.45-3.55h0l-3.65-1.52A2.73,2.73,0,0,0,57,154.6l0,0h0a2.71,2.71,0,0,0,1.45,3.55h0l3.65,1.53a2.73,2.73,0,0,0,3.57-1.45ZM47.42,116.8s-1.74,2.43-1.48,3.5,3.25,4.87,5.08,3.18,1.26-1.93.87-2,.31-1.31.31-1.31Zm33.86,15.53s-.37,1.34-.72,1.14-.93-.44-.87,2.05,4.9,1.95,5.85,1.38S87,133.41,87,133.41Z"/>
      </g>
      <g id="Comets">
        <g class="cls-14">
          <path class="cls-15" d="M122.35,59.56a1.82,1.82,0,1,1-1.83-1.81h0a1.81,1.81,0,0,1,1.82,1.8Z"/>
          <path class="cls-16" d="M122.6,59.33a1.82,1.82,0,1,1-1.84-1.8h0a1.81,1.81,0,0,1,1.82,1.8Z"/>
          <path class="cls-17" d="M122.84,59.11A1.81,1.81,0,1,1,121,57.32h0A1.8,1.8,0,0,1,122.84,59.11Z"/>
          <path class="cls-17" d="M123.09,58.89a1.8,1.8,0,1,1-1.81-1.79h0A1.8,1.8,0,0,1,123.09,58.89Z"/>
          <path class="cls-18" d="M123.33,58.67a1.79,1.79,0,1,1-1.8-1.78h0A1.8,1.8,0,0,1,123.33,58.67Z"/>
          <path class="cls-19" d="M123.58,58.45a1.79,1.79,0,1,1-1.8-1.78h0a1.78,1.78,0,0,1,1.79,1.77Z"/>
          <path class="cls-20" d="M123.82,58.22A1.78,1.78,0,1,1,122,56.46a1.78,1.78,0,0,1,1.82,1.76Z"/>
          <path class="cls-21" d="M124.07,58a1.78,1.78,0,1,1-1.8-1.76h0A1.78,1.78,0,0,1,124.07,58Z"/>
          <path class="cls-21" d="M124.31,57.78A1.77,1.77,0,1,1,122.55,56a1.77,1.77,0,0,1,1.76,1.78Z"/>
          <path class="cls-22" d="M124.56,57.56a1.76,1.76,0,1,1-1.77-1.75h0a1.75,1.75,0,0,1,1.76,1.74Z"/>
          <path class="cls-23" d="M124.8,57.34A1.75,1.75,0,1,1,123,55.6h0a1.74,1.74,0,0,1,1.75,1.73Z"/>
          <ellipse class="cls-24" cx="123.3" cy="57.12" rx="1.75" ry="1.74"/>
          <path class="cls-24" d="M125.29,56.89a1.74,1.74,0,1,1-1.76-1.72h0a1.72,1.72,0,0,1,1.74,1.72Z"/>
          <path class="cls-25" d="M125.54,56.67A1.74,1.74,0,1,1,123.73,55h.08A1.73,1.73,0,0,1,125.54,56.67Z"/>
          <path class="cls-26" d="M125.78,56.45A1.73,1.73,0,1,1,124,54.74h0A1.72,1.72,0,0,1,125.78,56.45Z"/>
          <path class="cls-27" d="M126,56.23a1.72,1.72,0,1,1-1.73-1.71h0A1.72,1.72,0,0,1,126,56.23Z"/>
          <ellipse class="cls-28" cx="124.56" cy="56.01" rx="1.71" ry="1.7"/>
          <ellipse class="cls-28" cx="124.81" cy="55.79" rx="1.71" ry="1.69"/>
          <ellipse class="cls-29" cx="125.07" cy="55.56" rx="1.7" ry="1.69"/>
          <path class="cls-30" d="M127,55.34a1.7,1.7,0,1,1-1.72-1.68h0A1.69,1.69,0,0,1,127,55.34Z"/>
          <path class="cls-31" d="M127.25,55.12a1.69,1.69,0,1,1-1.71-1.67h0A1.69,1.69,0,0,1,127.25,55.12Z"/>
          <path class="cls-32" d="M127.5,54.9a1.68,1.68,0,1,1-1.69-1.67h0A1.69,1.69,0,0,1,127.5,54.9Z"/>
          <ellipse class="cls-32" cx="126.07" cy="54.68" rx="1.67" ry="1.66"/>
          <ellipse class="cls-33" cx="126.32" cy="54.46" rx="1.67" ry="1.65"/>
          <ellipse class="cls-34" cx="126.58" cy="54.23" rx="1.66" ry="1.65"/>
          <path class="cls-35" d="M128.48,54a1.65,1.65,0,1,1-1.66-1.64h0A1.63,1.63,0,0,1,128.48,54Z"/>
          <path class="cls-36" d="M128.72,53.79a1.65,1.65,0,1,1-1.67-1.63h0A1.65,1.65,0,0,1,128.72,53.79Z"/>
          <path class="cls-36" d="M129,53.57a1.64,1.64,0,1,1-1.65-1.63h0A1.63,1.63,0,0,1,129,53.56Z"/>
          <path class="cls-37" d="M129.21,53.35a1.63,1.63,0,1,1-1.64-1.62h0A1.63,1.63,0,0,1,129.21,53.35Z"/>
          <path class="cls-38" d="M129.46,53.13a1.63,1.63,0,1,1-1.64-1.62h0a1.63,1.63,0,0,1,1.63,1.61Z"/>
          <path class="cls-39" d="M129.7,52.9a1.62,1.62,0,1,1-1.64-1.6h0A1.61,1.61,0,0,1,129.7,52.9Z"/>
          <path class="cls-39" d="M130,52.68a1.61,1.61,0,1,1-1.62-1.6h0A1.6,1.6,0,0,1,130,52.67Z"/>
          <path class="cls-40" d="M130.19,52.46a1.61,1.61,0,1,1-1.63-1.59h0a1.59,1.59,0,0,1,1.6,1.58Z"/>
          <path class="cls-41" d="M130.44,52.24a1.6,1.6,0,1,1-1.61-1.59h0A1.6,1.6,0,0,1,130.44,52.24Z"/>
          <path class="cls-42" d="M130.68,52a1.59,1.59,0,1,1-1.6-1.58h0A1.6,1.6,0,0,1,130.68,52Z"/>
          <ellipse class="cls-43" cx="129.34" cy="51.8" rx="1.58" ry="1.57"/>
          <path class="cls-43" d="M131.17,51.57A1.58,1.58,0,1,1,129.58,50h0A1.57,1.57,0,0,1,131.17,51.57Z"/>
          <path class="cls-44" d="M131.42,51.35a1.57,1.57,0,1,1-1.58-1.56h0a1.56,1.56,0,0,1,1.57,1.55Z"/>
          <path class="cls-45" d="M131.66,51.13a1.56,1.56,0,1,1-1.57-1.55h0a1.54,1.54,0,0,1,1.56,1.54Z"/>
          <path class="cls-46" d="M131.91,50.91a1.56,1.56,0,1,1-1.57-1.55h0A1.56,1.56,0,0,1,131.91,50.91Z"/>
          <path class="cls-47" d="M132.15,50.69a1.55,1.55,0,1,1-1.56-1.54h0a1.54,1.54,0,0,1,1.55,1.53Z"/>
          <path class="cls-47" d="M132.4,50.47a1.55,1.55,0,1,1-1.56-1.54h0A1.54,1.54,0,0,1,132.4,50.47Z"/>
          <path class="cls-48" d="M132.64,50.24a1.54,1.54,0,1,1-1.56-1.52h0a1.52,1.52,0,0,1,1.53,1.51Z"/>
          <path class="cls-49" d="M132.89,50a1.53,1.53,0,1,1-1.54-1.52h0A1.53,1.53,0,0,1,132.89,50Z"/>
          <path class="cls-50" d="M133.13,49.8a1.52,1.52,0,1,1-1.53-1.51h0a1.52,1.52,0,0,1,1.52,1.5Z"/>
          <path class="cls-51" d="M133.38,49.58a1.52,1.52,0,1,1-1.53-1.51h0A1.52,1.52,0,0,1,133.38,49.58Z"/>
          <path class="cls-51" d="M133.62,49.36a1.51,1.51,0,1,1-1.52-1.5h0a1.5,1.5,0,0,1,1.51,1.49Z"/>
          <path class="cls-52" d="M133.87,49.14a1.51,1.51,0,1,1-1.52-1.5h0A1.5,1.5,0,0,1,133.87,49.14Z"/>
          <path class="cls-53" d="M134.11,48.91a1.5,1.5,0,1,1-1.52-1.48h0A1.49,1.49,0,0,1,134.11,48.91Z"/>
          <path class="cls-54" d="M134.36,48.69a1.49,1.49,0,1,1-1.5-1.48h0A1.49,1.49,0,0,1,134.36,48.69Z"/>
          <path class="cls-54" d="M134.6,48.47A1.48,1.48,0,1,1,133.11,47h0a1.47,1.47,0,0,1,1.48,1.46Z"/>
          <path class="cls-55" d="M134.85,48.25a1.48,1.48,0,1,1-1.49-1.47h0a1.47,1.47,0,0,1,1.48,1.46Z"/>
          <path class="cls-56" d="M135.09,48a1.47,1.47,0,1,1-1.48-1.46h0A1.46,1.46,0,0,1,135.09,48Z"/>
          <path class="cls-57" d="M135.34,47.81a1.47,1.47,0,1,1-1.48-1.46h0a1.46,1.46,0,0,1,1.46,1.46Z"/>
          <path class="cls-58" d="M135.58,47.58a1.46,1.46,0,1,1-1.48-1.44h0A1.45,1.45,0,0,1,135.58,47.58Z"/>
          <path class="cls-58" d="M135.83,47.36a1.45,1.45,0,1,1-1.46-1.44h0a1.43,1.43,0,0,1,1.45,1.43Z"/>
          <path class="cls-59" d="M136.07,47.14a1.44,1.44,0,1,1-1.45-1.43h0a1.43,1.43,0,0,1,1.44,1.42Z"/>
          <path class="cls-60" d="M136.32,46.92a1.44,1.44,0,1,1-1.45-1.43h0a1.43,1.43,0,0,1,1.44,1.4Z"/>
          <path class="cls-61" d="M136.56,46.7a1.43,1.43,0,1,1-1.44-1.42h0A1.43,1.43,0,0,1,136.56,46.7Z"/>
          <ellipse class="cls-62" cx="135.39" cy="46.47" rx="1.42" ry="1.41"/>
          <path class="cls-62" d="M137.05,46.25a1.42,1.42,0,1,1-1.44-1.4h0A1.42,1.42,0,0,1,137.05,46.25Z"/>
          <path class="cls-63" d="M137.3,46a1.41,1.41,0,1,1-1.42-1.4h0A1.42,1.42,0,0,1,137.3,46Z"/>
          <path class="cls-64" d="M137.54,45.81a1.4,1.4,0,1,1-1.41-1.39h0a1.39,1.39,0,0,1,1.4,1.38Z"/>
          <path class="cls-65" d="M137.79,45.59a1.4,1.4,0,1,1-1.41-1.39h0a1.39,1.39,0,0,1,1.4,1.38Z"/>
          <path class="cls-66" d="M138,45.37A1.39,1.39,0,1,1,136.59,44h.06A1.38,1.38,0,0,1,138,45.37Z"/>
          <path class="cls-66" d="M138.28,45.14a1.38,1.38,0,1,1-1.39-1.37h0A1.38,1.38,0,0,1,138.28,45.14Z"/>
          <path class="cls-67" d="M138.52,44.92a1.38,1.38,0,1,1-1.4-1.36h0A1.38,1.38,0,0,1,138.52,44.92Z"/>
          <path class="cls-68" d="M138.77,44.7a1.37,1.37,0,1,1-1.38-1.36h0a1.36,1.36,0,0,1,1.37,1.35Z"/>
          <path class="cls-69" d="M139,44.48a1.36,1.36,0,1,1-1.37-1.35h0A1.34,1.34,0,0,1,139,44.47Z"/>
          <path class="cls-69" d="M139.26,44.26a1.36,1.36,0,1,1-1.37-1.35h0a1.34,1.34,0,0,1,1.36,1.34Z"/>
          <path class="cls-70" d="M139.5,44a1.35,1.35,0,1,1-1.36-1.34h0A1.34,1.34,0,0,1,139.5,44Z"/>
          <path class="cls-71" d="M139.75,43.81a1.34,1.34,0,1,1-1.35-1.33h0A1.34,1.34,0,0,1,139.75,43.81Z"/>
          <path class="cls-72" d="M140,43.59a1.33,1.33,0,1,1-1.34-1.32h0A1.33,1.33,0,0,1,140,43.59Z"/>
          <path class="cls-73" d="M140.24,43.37a1.33,1.33,0,1,1-1.34-1.32h0A1.33,1.33,0,0,1,140.24,43.37Z"/>
          <path class="cls-73" d="M140.48,43.15a1.32,1.32,0,1,1-1.33-1.31h0A1.32,1.32,0,0,1,140.48,43.15Z"/>
          <path class="cls-74" d="M140.73,42.93a1.32,1.32,0,1,1-1.33-1.31h0a1.31,1.31,0,0,1,1.32,1.3Z"/>
          <path class="cls-75" d="M141,42.71a1.31,1.31,0,1,1-1.32-1.3h0a1.3,1.3,0,0,1,1.3,1.3Z"/>
        </g>
        <g class="cls-76">
          <path class="cls-15" d="M152,51.83a1.15,1.15,0,1,1-1.16-1.14h0A1.14,1.14,0,0,1,152,51.82Z"/>
          <path class="cls-16" d="M152.12,51.69A1.14,1.14,0,1,1,151,50.56h0A1.14,1.14,0,0,1,152.12,51.69Z"/>
          <path class="cls-17" d="M152.27,51.55a1.14,1.14,0,1,1-1.15-1.13h0a1.14,1.14,0,0,1,1.13,1.13Z"/>
          <path class="cls-17" d="M152.43,51.41a1.14,1.14,0,1,1-1.16-1.12h0A1.13,1.13,0,0,1,152.43,51.41Z"/>
          <path class="cls-18" d="M152.58,51.27a1.13,1.13,0,1,1-1.14-1.12h0a1.12,1.12,0,0,1,1.13,1.11Z"/>
          <path class="cls-19" d="M152.74,51.13A1.13,1.13,0,1,1,151.61,50a1.14,1.14,0,0,1,1.13,1.13Z"/>
          <path class="cls-20" d="M152.89,51a1.12,1.12,0,1,1-1.13-1.11h0a1.11,1.11,0,0,1,1.12,1.1Z"/>
          <path class="cls-21" d="M153,50.85a1.12,1.12,0,1,1-1.14-1.1h0A1.11,1.11,0,0,1,153,50.85Z"/>
          <path class="cls-21" d="M153.2,50.71a1.11,1.11,0,1,1-2.22,0h0a1.11,1.11,0,1,1,2.22,0Z"/>
          <path class="cls-22" d="M153.35,50.57a1.11,1.11,0,1,1-1.13-1.09h0a1.1,1.1,0,0,1,1.11,1.09Z"/>
          <path class="cls-23" d="M153.5,50.44a1.1,1.1,0,1,1-1.1-1.1,1.1,1.1,0,0,1,1.1,1.1Z"/>
          <path class="cls-24" d="M153.66,50.3a1.1,1.1,0,1,1-1.11-1.09h0a1.09,1.09,0,0,1,1.1,1.08Z"/>
          <path class="cls-24" d="M153.81,50.16a1.09,1.09,0,1,1-1.09-1.09h0a1.08,1.08,0,0,1,1.09,1.07Z"/>
          <path class="cls-25" d="M154,50a1.09,1.09,0,1,1-1.1-1.08h0A1.09,1.09,0,0,1,154,50Z"/>
          <path class="cls-26" d="M154.12,49.88A1.09,1.09,0,1,1,153,48.8a1.09,1.09,0,0,1,1.12,1.08Z"/>
          <path class="cls-27" d="M154.27,49.74a1.08,1.08,0,1,1-1.09-1.07h0a1.07,1.07,0,0,1,1.08,1.06Z"/>
          <path class="cls-28" d="M154.43,49.6a1.08,1.08,0,1,1-1.09-1.07h0a1.07,1.07,0,0,1,1.08,1.06Z"/>
          <path class="cls-28" d="M154.58,49.46a1.07,1.07,0,1,1-1.08-1.06h0A1.07,1.07,0,0,1,154.58,49.46Z"/>
          <path class="cls-29" d="M154.74,49.32a1.07,1.07,0,1,1-1.08-1.06h0a1.05,1.05,0,0,1,1.07,1.05Z"/>
          <path class="cls-30" d="M154.89,49.18a1.07,1.07,0,1,1-1.14-1h.08A1.06,1.06,0,0,1,154.89,49.18Z"/>
          <path class="cls-31" d="M155,49a1.06,1.06,0,0,1-2.12.12,1.06,1.06,0,0,1,1-1.12H154A1.06,1.06,0,0,1,155,49Z"/>
          <path class="cls-32" d="M155.2,48.9a1.06,1.06,0,1,1-.95-.95A1.06,1.06,0,0,1,155.2,48.9Z"/>
          <path class="cls-32" d="M155.35,48.76a1.05,1.05,0,1,1-1.1-1h.1A1,1,0,0,1,155.35,48.76Z"/>
          <path class="cls-33" d="M155.5,48.62a1,1,0,1,1-1-1A1,1,0,0,1,155.5,48.62Z"/>
          <path class="cls-34" d="M155.66,48.49a1,1,0,1,1-1-1A1,1,0,0,1,155.66,48.49Z"/>
          <path class="cls-35" d="M155.81,48.35a1,1,0,1,1-1-1A1,1,0,0,1,155.81,48.35Z"/>
          <path class="cls-36" d="M156,48.21a1,1,0,1,1-1-1A1,1,0,0,1,156,48.21Z"/>
          <path class="cls-36" d="M156.12,48.07a1,1,0,1,1-1-1A1,1,0,0,1,156.12,48.07Z"/>
          <path class="cls-37" d="M156.27,47.93a1,1,0,1,1-1-1A1,1,0,0,1,156.27,47.93Z"/>
          <path class="cls-38" d="M156.43,47.79a1,1,0,1,1-1-1A1,1,0,0,1,156.43,47.79Z"/>
          <path class="cls-39" d="M156.58,47.65a1,1,0,1,1-1-1A1,1,0,0,1,156.58,47.65Z"/>
          <path class="cls-39" d="M156.74,47.51a1,1,0,1,1-1-1A1,1,0,0,1,156.74,47.51Z"/>
          <path class="cls-40" d="M156.89,47.37a1,1,0,1,1-1-1A1,1,0,0,1,156.89,47.37Z"/>
          <path class="cls-41" d="M157,47.23a1,1,0,1,1-1-1A1,1,0,0,1,157,47.23Z"/>
          <path class="cls-42" d="M157.2,47.09a1,1,0,1,1-1-1A1,1,0,0,1,157.2,47.09Z"/>
          <path class="cls-43" d="M157.35,47a1,1,0,1,1-1-1A1,1,0,0,1,157.35,47Z"/>
          <path class="cls-43" d="M157.51,46.81a1,1,0,1,1-1-1A1,1,0,0,1,157.51,46.81Z"/>
          <path class="cls-44" d="M157.66,46.68a1,1,0,1,1-1-1A1,1,0,0,1,157.66,46.68Z"/>
          <path class="cls-45" d="M157.81,46.54a1,1,0,1,1-1-1A1,1,0,0,1,157.81,46.54Z"/>
          <path class="cls-46" d="M158,46.4a1,1,0,1,1-1-1A1,1,0,0,1,158,46.4Z"/>
          <path class="cls-47" d="M158.12,46.26a1,1,0,1,1-1-1A1,1,0,0,1,158.12,46.26Z"/>
          <path class="cls-47" d="M158.27,46.12a1,1,0,1,1-1-1A1,1,0,0,1,158.27,46.12Z"/>
          <path class="cls-48" d="M158.43,46a1,1,0,1,1-1-1A1,1,0,0,1,158.43,46Z"/>
          <path class="cls-49" d="M158.58,45.84a1,1,0,1,1-1-1A1,1,0,0,1,158.58,45.84Z"/>
          <path class="cls-50" d="M158.74,45.7a1,1,0,1,1-1-1A1,1,0,0,1,158.74,45.7Z"/>
          <path class="cls-51" d="M158.89,45.56a1,1,0,1,1-1.06-.94h.11A1,1,0,0,1,158.89,45.56Z"/>
          <path class="cls-51" d="M159,45.42a1,1,0,1,1-1-.94h0a.94.94,0,0,1,.94.94Z"/>
          <path class="cls-52" d="M159.2,45.28a1,1,0,1,1-1-.93h0a.94.94,0,0,1,.95.93Z"/>
          <path class="cls-53" d="M159.35,45.14a.94.94,0,1,1-.95-.93h0A.94.94,0,0,1,159.35,45.14Z"/>
          <path class="cls-54" d="M159.51,45a.94.94,0,1,1-1-.92h0a.93.93,0,0,1,.94.92Z"/>
          <path class="cls-54" d="M159.66,44.87a.93.93,0,1,1-.93-.93h0A.93.93,0,0,1,159.66,44.87Z"/>
          <path class="cls-55" d="M159.81,44.73a.93.93,0,1,1-.94-.92h0A.92.92,0,0,1,159.81,44.73Z"/>
          <path class="cls-56" d="M160,44.59a.93.93,0,1,1-.94-.92h0a.92.92,0,0,1,.93.91Z"/>
          <path class="cls-57" d="M160.12,44.45a.92.92,0,1,1-.93-.91h0A.93.93,0,0,1,160.12,44.45Z"/>
          <path class="cls-58" d="M160.27,44.31a.91.91,0,1,1-.91-.91.91.91,0,0,1,.91.91Z"/>
          <path class="cls-58" d="M160.43,44.17a.91.91,0,1,1-.91-.91.9.9,0,0,1,.91.89Z"/>
          <path class="cls-59" d="M160.58,44a.91.91,0,1,1-.92-.9h0A.9.9,0,0,1,160.58,44Z"/>
          <path class="cls-60" d="M160.74,43.89a.91.91,0,1,1-.81-.81A.91.91,0,0,1,160.74,43.89Z"/>
          <path class="cls-61" d="M160.89,43.75a.9.9,0,1,1-.91-.89h0a.89.89,0,0,1,.9.88Z"/>
          <path class="cls-62" d="M161,43.61a.89.89,0,1,1-.89-.89h0A.89.89,0,0,1,161,43.61Z"/>
          <path class="cls-62" d="M161.2,43.47a.89.89,0,1,1-.9-.88h0A.89.89,0,0,1,161.2,43.47Z"/>
          <path class="cls-63" d="M161.35,43.33a.89.89,0,0,1-1,.79.87.87,0,0,1-.79-.79.89.89,0,0,1,1-.79A.87.87,0,0,1,161.35,43.33Z"/>
          <path class="cls-64" d="M161.51,43.19a.88.88,0,1,1-.89-.87h0A.89.89,0,0,1,161.51,43.19Z"/>
          <path class="cls-65" d="M161.66,43.06a.88.88,0,1,1-.88-.88.87.87,0,0,1,.88.88Z"/>
          <path class="cls-66" d="M161.81,42.92a.87.87,0,1,1-.87-.87h0A.87.87,0,0,1,161.81,42.92Z"/>
          <path class="cls-66" d="M162,42.78a.87.87,0,1,1-.88-.86h0A.87.87,0,0,1,162,42.78Z"/>
          <path class="cls-67" d="M162.12,42.64a.87.87,0,1,1-.88-.86h0a.87.87,0,0,1,.86.86Z"/>
          <path class="cls-68" d="M162.28,42.5a.86.86,0,1,1-.86-.86.87.87,0,0,1,.86.86Z"/>
          <path class="cls-69" d="M162.43,42.36a.86.86,0,1,1-.87-.85h0a.85.85,0,0,1,.86.84Z"/>
          <path class="cls-69" d="M162.58,42.22a.85.85,0,1,1-.85-.85.85.85,0,0,1,.85.85Z"/>
          <path class="cls-70" d="M162.74,42.08a.85.85,0,1,1-.86-.84h0A.85.85,0,0,1,162.74,42.08Z"/>
          <path class="cls-71" d="M162.89,41.94a.84.84,0,1,1-.84-.84h0A.86.86,0,0,1,162.89,41.94Z"/>
          <path class="cls-72" d="M163,41.8a.84.84,0,1,1-.85-.83h0a.83.83,0,0,1,.83.83Z"/>
          <path class="cls-73" d="M163.2,41.66a.84.84,0,1,1-.85-.83h0a.83.83,0,0,1,.84.82Z"/>
          <path class="cls-73" d="M163.35,41.52a.83.83,0,1,1-.84-.82h0A.84.84,0,0,1,163.35,41.52Z"/>
          <path class="cls-74" d="M163.51,41.38a.83.83,0,1,1-.84-.82h0a.82.82,0,0,1,.83.81Z"/>
          <path class="cls-75" d="M163.66,41.24a.82.82,0,1,1-.83-.81h0A.82.82,0,0,1,163.66,41.24Z"/>
        </g>
        <g>
          <path class="cls-15" d="M129.89,28.15a1.48,1.48,0,1,1-1.49-1.47h0a1.47,1.47,0,0,1,1.48,1.46Z"/>
          <path class="cls-16" d="M130.09,28a1.48,1.48,0,1,1-1.49-1.47h0A1.46,1.46,0,0,1,130.09,28Z"/>
          <path class="cls-17" d="M130.29,27.79a1.47,1.47,0,1,1-1.48-1.46h0A1.47,1.47,0,0,1,130.29,27.79Z"/>
          <path class="cls-17" d="M130.49,27.61A1.47,1.47,0,1,1,129,26.15a1.46,1.46,0,0,1,1.49,1.43Z"/>
          <path class="cls-18" d="M130.69,27.43A1.46,1.46,0,1,1,129.2,26h0A1.47,1.47,0,0,1,130.69,27.43Z"/>
          <path class="cls-19" d="M130.89,27.25a1.46,1.46,0,1,1-1.47-1.45h0a1.45,1.45,0,0,1,1.46,1.44Z"/>
          <path class="cls-20" d="M131.09,27.07a1.45,1.45,0,1,1-1.46-1.44h0a1.43,1.43,0,0,1,1.45,1.43Z"/>
          <ellipse class="cls-21" cx="129.84" cy="26.89" rx="1.44" ry="1.43"/>
          <path class="cls-21" d="M131.48,26.71A1.44,1.44,0,1,1,130,25.28h0A1.43,1.43,0,0,1,131.48,26.71Z"/>
          <path class="cls-22" d="M131.68,26.53a1.43,1.43,0,1,1-1.44-1.42h0A1.43,1.43,0,0,1,131.68,26.53Z"/>
          <path class="cls-23" d="M131.88,26.35a1.43,1.43,0,1,1-1.44-1.42h0A1.43,1.43,0,0,1,131.88,26.35Z"/>
          <path class="cls-24" d="M132.08,26.17a1.42,1.42,0,1,1-1.43-1.41h0a1.41,1.41,0,0,1,1.42,1.4Z"/>
          <path class="cls-24" d="M132.28,26a1.42,1.42,0,1,1-1.43-1.41h0A1.41,1.41,0,0,1,132.28,26Z"/>
          <path class="cls-25" d="M132.48,25.81a1.41,1.41,0,1,1-1.42-1.4h0A1.42,1.42,0,0,1,132.48,25.81Z"/>
          <ellipse class="cls-26" cx="131.28" cy="25.63" rx="1.4" ry="1.39"/>
          <path class="cls-27" d="M132.88,25.45a1.4,1.4,0,1,1-1.41-1.39h0a1.39,1.39,0,0,1,1.4,1.38Z"/>
          <path class="cls-28" d="M133.08,25.27a1.4,1.4,0,1,1-1.41-1.39h0a1.39,1.39,0,0,1,1.4,1.38Z"/>
          <path class="cls-28" d="M133.28,25.09a1.39,1.39,0,1,1-1.4-1.38h0a1.38,1.38,0,0,1,1.39,1.37Z"/>
          <path class="cls-29" d="M133.47,24.91a1.38,1.38,0,1,1-1.38-1.38,1.37,1.37,0,0,1,1.38,1.36Z"/>
          <path class="cls-30" d="M133.67,24.73a1.38,1.38,0,1,1-1.39-1.37h0a1.36,1.36,0,0,1,1.37,1.35Z"/>
          <path class="cls-31" d="M133.87,24.54a1.37,1.37,0,1,1-1.38-1.36h0A1.38,1.38,0,0,1,133.87,24.54Z"/>
          <path class="cls-32" d="M134.07,24.36A1.37,1.37,0,1,1,132.69,23h0a1.36,1.36,0,0,1,1.36,1.36Z"/>
          <path class="cls-32" d="M134.27,24.18a1.36,1.36,0,1,1-1.37-1.35h0a1.34,1.34,0,0,1,1.36,1.34Z"/>
          <path class="cls-33" d="M134.47,24a1.36,1.36,0,1,1-1.38-1.34h0A1.36,1.36,0,0,1,134.47,24Z"/>
          <path class="cls-34" d="M134.67,23.82a1.35,1.35,0,1,1-1.37-1.33h0a1.34,1.34,0,0,1,1.35,1.33Z"/>
          <path class="cls-35" d="M134.87,23.64a1.35,1.35,0,1,1-1.37-1.33h0A1.34,1.34,0,0,1,134.87,23.64Z"/>
          <path class="cls-36" d="M135.07,23.46a1.34,1.34,0,1,1-1.36-1.32h0a1.34,1.34,0,0,1,1.34,1.32Z"/>
          <path class="cls-36" d="M135.27,23.28a1.34,1.34,0,1,1-1.4-1.28h.06A1.33,1.33,0,0,1,135.27,23.28Z"/>
          <path class="cls-37" d="M135.47,23.1a1.33,1.33,0,1,1-1.35-1.31h0A1.33,1.33,0,0,1,135.47,23.1Z"/>
          <path class="cls-38" d="M135.66,22.92a1.32,1.32,0,1,1-1.33-1.31h0A1.32,1.32,0,0,1,135.66,22.92Z"/>
          <path class="cls-39" d="M135.86,22.74a1.32,1.32,0,1,1-1.34-1.3h0A1.31,1.31,0,0,1,135.86,22.74Z"/>
          <path class="cls-39" d="M136.06,22.56a1.31,1.31,0,1,1-1.32-1.3h0a1.3,1.3,0,0,1,1.31,1.29Z"/>
          <path class="cls-40" d="M136.26,22.38a1.31,1.31,0,1,1-1.33-1.29h0A1.31,1.31,0,0,1,136.26,22.38Z"/>
          <path class="cls-41" d="M136.46,22.2a1.3,1.3,0,1,1-1.31-1.29h0a1.29,1.29,0,0,1,1.3,1.28Z"/>
          <path class="cls-42" d="M136.66,22a1.3,1.3,0,1,1-1.32-1.28h0A1.29,1.29,0,0,1,136.66,22Z"/>
          <path class="cls-43" d="M136.86,21.84a1.29,1.29,0,1,1-1.3-1.28h0a1.28,1.28,0,0,1,1.29,1.27Z"/>
          <path class="cls-43" d="M137.06,21.66a1.29,1.29,0,1,1-1.31-1.27h0A1.29,1.29,0,0,1,137.06,21.66Z"/>
          <path class="cls-44" d="M137.26,21.48A1.28,1.28,0,1,1,136,20.21h0A1.27,1.27,0,0,1,137.26,21.48Z"/>
          <path class="cls-45" d="M137.46,21.3a1.28,1.28,0,1,1-1.27-1.3,1.25,1.25,0,0,1,1.27,1.25Z"/>
          <path class="cls-46" d="M137.66,21.12a1.27,1.27,0,1,1-1.28-1.26h0a1.25,1.25,0,0,1,1.27,1.25Z"/>
          <path class="cls-47" d="M137.85,20.94a1.26,1.26,0,1,1-1.27-1.25h0a1.25,1.25,0,0,1,1.26,1.24Z"/>
          <path class="cls-47" d="M138.05,20.76a1.26,1.26,0,1,1-1.28-1.24h0A1.25,1.25,0,0,1,138.05,20.76Z"/>
          <path class="cls-48" d="M138.25,20.58A1.25,1.25,0,1,1,137,19.34h0a1.25,1.25,0,0,1,1.25,1.23Z"/>
          <path class="cls-49" d="M138.45,20.4a1.25,1.25,0,1,1-1.27-1.23h0A1.24,1.24,0,0,1,138.45,20.4Z"/>
          <path class="cls-50" d="M138.65,20.22A1.24,1.24,0,1,1,137.39,19h0a1.23,1.23,0,0,1,1.24,1.22Z"/>
          <path class="cls-51" d="M138.85,20a1.24,1.24,0,1,1-1.26-1.22h0A1.23,1.23,0,0,1,138.85,20Z"/>
          <path class="cls-51" d="M139.05,19.86a1.23,1.23,0,1,1-1.24-1.22h0A1.23,1.23,0,0,1,139.05,19.86Z"/>
          <path class="cls-52" d="M139.25,19.68A1.23,1.23,0,1,1,138,18.47a1.23,1.23,0,0,1,1.25,1.21Z"/>
          <path class="cls-53" d="M139.45,19.5a1.22,1.22,0,1,1-1.23-1.21h0A1.22,1.22,0,0,1,139.45,19.5Z"/>
          <path class="cls-54" d="M139.65,19.32a1.21,1.21,0,1,1-1.22-1.2h0A1.22,1.22,0,0,1,139.65,19.32Z"/>
          <path class="cls-54" d="M139.85,19.14a1.21,1.21,0,1,1-1.22-1.2h0A1.22,1.22,0,0,1,139.85,19.14Z"/>
          <path class="cls-55" d="M140,19a1.2,1.2,0,1,1-1.21-1.19h0A1.19,1.19,0,0,1,140,19Z"/>
          <path class="cls-56" d="M140.24,18.78a1.19,1.19,0,1,1-1.19-1.19,1.19,1.19,0,0,1,1.19,1.19Z"/>
          <path class="cls-57" d="M140.44,18.6a1.19,1.19,0,1,1-1.2-1.18h0a1.18,1.18,0,0,1,1.19,1.17Z"/>
          <path class="cls-58" d="M140.64,18.42a1.18,1.18,0,1,1-1.18-1.18h0a1.17,1.17,0,0,1,1.18,1.16Z"/>
          <path class="cls-58" d="M140.84,18.24a1.18,1.18,0,1,1-1.19-1.17h0a1.17,1.17,0,0,1,1.18,1.16Z"/>
          <path class="cls-59" d="M141,18.06a1.17,1.17,0,1,1-1.17-1.17h0A1.16,1.16,0,0,1,141,18Z"/>
          <path class="cls-60" d="M141.24,17.88a1.17,1.17,0,1,1-1.18-1.16h0a1.16,1.16,0,0,1,1.17,1.15Z"/>
          <path class="cls-61" d="M141.44,17.7a1.16,1.16,0,1,1-1.17-1.15h0a1.14,1.14,0,0,1,1.16,1.14Z"/>
          <path class="cls-62" d="M141.64,17.52a1.16,1.16,0,0,1-2.31,0,1.16,1.16,0,0,1,2.31,0Z"/>
          <path class="cls-62" d="M141.84,17.34a1.15,1.15,0,1,1-1.16-1.14h0A1.15,1.15,0,0,1,141.84,17.34Z"/>
          <path class="cls-63" d="M142,17.16A1.15,1.15,0,1,1,140.86,16h0A1.15,1.15,0,0,1,142,17.16Z"/>
          <path class="cls-64" d="M142.23,17a1.14,1.14,0,1,1-1.15-1.13h0A1.15,1.15,0,0,1,142.23,17Z"/>
          <path class="cls-65" d="M142.43,16.8a1.13,1.13,0,1,1-1.13-1.13,1.12,1.12,0,0,1,1.13,1.11Z"/>
          <path class="cls-66" d="M142.63,16.62a1.13,1.13,0,1,1-1.14-1.12h0a1.12,1.12,0,0,1,1.13,1.11Z"/>
          <path class="cls-66" d="M142.83,16.44a1.12,1.12,0,1,1-1.12-1.12h0A1.12,1.12,0,0,1,142.83,16.44Z"/>
          <path class="cls-67" d="M143,16.26a1.12,1.12,0,1,1-1.13-1.11h0A1.13,1.13,0,0,1,143,16.26Z"/>
          <path class="cls-68" d="M143.23,16.08A1.11,1.11,0,1,1,142.09,15h0A1.11,1.11,0,0,1,143.23,16.08Z"/>
          <path class="cls-69" d="M143.43,15.9a1.11,1.11,0,0,1-2.21,0,1.11,1.11,0,0,1,2.21,0Z"/>
          <path class="cls-69" d="M143.63,15.72a1.1,1.1,0,1,1-1.1-1.1,1.1,1.1,0,0,1,1.1,1.1Z"/>
          <path class="cls-70" d="M143.83,15.54a1.1,1.1,0,1,1-1.11-1.09h0a1.09,1.09,0,0,1,1.1,1.08Z"/>
          <path class="cls-71" d="M144,15.36a1.09,1.09,0,1,1-1.09-1.09h0A1.09,1.09,0,0,1,144,15.36Z"/>
          <path class="cls-72" d="M144.23,15.18a1.09,1.09,0,1,1-1.1-1.08h0a1.08,1.08,0,0,1,1.09,1.07Z"/>
          <path class="cls-73" d="M144.42,15a1.08,1.08,0,1,1-1.08-1.08h0A1.07,1.07,0,0,1,144.42,15Z"/>
          <path class="cls-73" d="M144.62,14.82a1.07,1.07,0,1,1-1.07-1.07,1.07,1.07,0,0,1,1.07,1.07Z"/>
          <path class="cls-74" d="M144.82,14.64a1.07,1.07,0,1,1-1.08-1.06h0A1.07,1.07,0,0,1,144.82,14.64Z"/>
          <path class="cls-75" d="M145,14.46a1.06,1.06,0,1,1-1.06-1.06H144A1.06,1.06,0,0,1,145,14.46Z"/>
        </g>
      </g>
      <g id="Starts">
        <polygon class="cls-77" points="15.36 63.65 14.39 59.98 10.59 59.58 14.29 58.62 14.69 54.84 15.65 58.52 19.46 58.92 15.76 59.88 15.36 63.65"/>
        <polygon class="cls-77" points="40.77 163.32 39.81 159.64 36.01 159.24 39.7 158.28 40.11 154.51 41.07 158.18 44.88 158.58 41.18 159.54 40.77 163.32"/>
        <polygon class="cls-77" points="22.2 31.29 21.87 30.02 20.56 29.88 21.84 29.55 21.97 28.25 22.31 29.52 23.62 29.65 22.34 29.99 22.2 31.29"/>
        <polygon class="cls-77" points="45.04 25.18 45.44 24.19 44.64 23.46 45.64 23.86 46.37 23.07 45.97 24.07 46.77 24.79 45.77 24.39 45.04 25.18"/>
        <polygon class="cls-77" points="86.1 33.71 86.59 32.49 85.62 31.61 86.84 32.09 87.73 31.13 87.25 32.34 88.22 33.23 86.99 32.74 86.1 33.71"/>
        <polygon class="cls-77" points="119.84 55.42 120.33 54.21 119.35 53.32 120.58 53.81 121.47 52.84 120.98 54.06 121.95 54.94 120.73 54.46 119.84 55.42"/>
        <polygon class="cls-77" points="68.15 20.48 68.48 19.66 67.82 19.06 68.65 19.39 69.25 18.73 68.92 19.56 69.58 20.16 68.75 19.83 68.15 20.48"/>
        <polygon class="cls-77" points="137.34 156.49 137.01 155.22 135.7 155.08 136.97 154.75 137.11 153.45 137.45 154.72 138.76 154.85 137.48 155.19 137.34 156.49"/>
        <polygon class="cls-77" points="160.18 150.38 160.58 149.39 159.78 148.66 160.78 149.06 161.51 148.27 161.11 149.26 161.91 149.99 160.91 149.59 160.18 150.38"/>
        <polygon class="cls-77" points="201.24 158.91 201.73 157.69 200.76 156.81 201.98 157.29 202.88 156.33 202.38 157.54 203.36 158.43 202.13 157.94 201.24 158.91"/>
        <polygon class="cls-77" points="211.88 93.54 212.37 92.33 211.4 91.44 212.63 91.93 213.52 90.96 213.03 92.18 214 93.06 212.78 92.58 211.88 93.54"/>
        <polygon class="cls-77" points="183.29 145.68 183.62 144.86 182.96 144.26 183.79 144.59 184.4 143.93 184.06 144.76 184.72 145.36 183.89 145.03 183.29 145.68"/>
        <polygon class="cls-77" points="115.39 22.07 116.1 20.31 114.69 19.02 116.46 19.73 117.75 18.33 117.05 20.09 118.45 21.37 116.68 20.67 115.39 22.07"/>
        <polygon class="cls-77" points="174.01 187.74 174.72 185.97 173.31 184.69 175.08 185.4 176.37 184 175.66 185.76 177.07 187.04 175.3 186.34 174.01 187.74"/>
        <polygon class="cls-77" points="162.34 29.58 163.05 27.82 161.64 26.54 163.41 27.24 164.7 25.84 164 27.61 165.41 28.89 163.63 28.18 162.34 29.58"/>
        <polygon class="cls-77" points="23.74 187.74 24.45 185.97 23.04 184.69 24.82 185.4 26.11 184 25.4 185.76 26.81 187.04 25.03 186.34 23.74 187.74"/>
        <polygon class="cls-77" points="202.18 29.58 202.89 27.82 201.48 26.54 203.25 27.24 204.54 25.84 203.83 27.61 205.24 28.89 203.47 28.18 202.18 29.58"/>
        <polygon class="cls-77" points="192.47 60.04 193.18 58.28 191.76 57 193.54 57.7 194.83 56.3 194.12 58.06 195.53 59.35 193.76 58.64 192.47 60.04"/>
        <polygon class="cls-77" points="33.61 65.2 34.1 63.98 33.13 63.1 34.35 63.59 35.24 62.62 34.76 63.84 35.73 64.72 34.5 64.23 33.61 65.2"/>
        <polygon class="cls-77" points="22.8 149.56 23.29 148.34 22.32 147.46 23.55 147.94 24.44 146.97 23.95 148.19 24.92 149.08 23.7 148.59 22.8 149.56"/>
        <polygon class="cls-77" points="15.51 90.02 16 88.8 15.02 87.91 16.25 88.4 17.14 87.43 16.65 88.65 17.63 89.54 16.4 89.05 15.51 90.02"/>
      </g>
    </g>
    <g id="Space_Suit-3" data-name="Space Suit-3">
      <path class="cls-78" d="M86.78,208.48c1.1,0,1.65-.37,1.65-1.12a1.07,1.07,0,0,0-.15-.58,1.56,1.56,0,0,0-.39-.42,3.15,3.15,0,0,0-.57-.31l-.68-.26a6.67,6.67,0,0,1-.78-.31,2.72,2.72,0,0,1-.64-.42,1.73,1.73,0,0,1-.42-.58,1.82,1.82,0,0,1-.16-.8,1.87,1.87,0,0,1,.67-1.53,2.85,2.85,0,0,1,1.85-.55,5.19,5.19,0,0,1,1.24.15,2.64,2.64,0,0,1,.82.32l-.34.84a2.84,2.84,0,0,0-.68-.27,3.76,3.76,0,0,0-1-.13,2.6,2.6,0,0,0-.56.06,1.54,1.54,0,0,0-.46.19.86.86,0,0,0-.3.33,1,1,0,0,0-.12.47,1.08,1.08,0,0,0,.12.5,1,1,0,0,0,.34.36,3.1,3.1,0,0,0,.5.29l.63.26c.33.13.62.25.89.38a2.83,2.83,0,0,1,.71.47,1.94,1.94,0,0,1,.46.64,2.1,2.1,0,0,1,.16.89,1.76,1.76,0,0,1-.72,1.51,3.38,3.38,0,0,1-2,.52,5.52,5.52,0,0,1-.81-.06,5,5,0,0,1-.67-.13,4.24,4.24,0,0,1-.5-.18l-.33-.15.31-.86a7.12,7.12,0,0,0,.76.31A4.19,4.19,0,0,0,86.78,208.48Z"/>
      <path class="cls-78" d="M92.79,201.7a4.23,4.23,0,0,1,2.43.6,2,2,0,0,1,.85,1.78,2.33,2.33,0,0,1-.24,1.1,1.84,1.84,0,0,1-.67.74,3,3,0,0,1-1.06.41,6.76,6.76,0,0,1-1.42.13h-.83v2.76h-1v-7.34a5.6,5.6,0,0,1,1-.14C92.15,201.71,92.48,201.7,92.79,201.7Zm.08.91a8.34,8.34,0,0,0-1,0v2.92h.79a5.61,5.61,0,0,0,1-.07,2.41,2.41,0,0,0,.73-.24,1.17,1.17,0,0,0,.46-.45A1.49,1.49,0,0,0,95,204a1.23,1.23,0,0,0-.62-1.15,1.78,1.78,0,0,0-.67-.23A6,6,0,0,0,92.87,202.61Z"/>
      <path class="cls-78" d="M101.84,209.22c-.12-.32-.24-.64-.34-.95s-.22-.63-.34-1h-3.4l-.68,1.9H96l.8-2.17c.25-.67.5-1.31.74-1.91s.48-1.18.72-1.73.49-1.09.75-1.63h1c.26.54.51,1.09.75,1.63s.48,1.13.72,1.73.49,1.24.74,1.91l.81,2.18Zm-1-2.76c-.23-.62-.46-1.23-.69-1.81s-.46-1.14-.71-1.68q-.37.81-.72,1.68c-.22.58-.45,1.19-.67,1.81Z"/>
      <path class="cls-78" d="M107,209.38a3.94,3.94,0,0,1-1.44-.25,3.18,3.18,0,0,1-1.12-.76,3.43,3.43,0,0,1-.72-1.22,5,5,0,0,1-.25-1.66,4.47,4.47,0,0,1,.29-1.66,3.46,3.46,0,0,1,.77-1.22,3.19,3.19,0,0,1,1.13-.75,3.85,3.85,0,0,1,1.39-.26,4.76,4.76,0,0,1,.84.07,3.61,3.61,0,0,1,.65.15,4.13,4.13,0,0,1,.45.17l.23.13-.3.86-.28-.14-.42-.15a4.05,4.05,0,0,0-.5-.12,4.47,4.47,0,0,0-1.63.2,2.15,2.15,0,0,0-.81.59,2.55,2.55,0,0,0-.52.94,4,4,0,0,0-.18,1.24,4.59,4.59,0,0,0,.16,1.22,2.6,2.6,0,0,0,.47.94,2.21,2.21,0,0,0,.78.61,2.6,2.6,0,0,0,1.1.21,4,4,0,0,0,1.2-.15,4.44,4.44,0,0,0,.72-.27l.27.86a1.74,1.74,0,0,1-.27.14,4,4,0,0,1-.49.15c-.19.05-.42.09-.68.13A5.89,5.89,0,0,1,107,209.38Z"/>
      <path class="cls-78" d="M110.51,209.22v-7.45h4.58v.9h-3.53v2.21h3.14v.87h-3.14v2.58h3.8v.89Z"/>
      <path class="cls-78" d="M120.93,208.48c1.1,0,1.64-.37,1.64-1.12a1.18,1.18,0,0,0-.14-.58,1.34,1.34,0,0,0-.4-.42,2.63,2.63,0,0,0-.57-.31l-.67-.26a5.28,5.28,0,0,1-.78-.31,2.72,2.72,0,0,1-.64-.42,1.76,1.76,0,0,1-.43-.58,1.84,1.84,0,0,1-.15-.8,1.87,1.87,0,0,1,.67-1.53,2.85,2.85,0,0,1,1.85-.55,5.19,5.19,0,0,1,1.24.15,2.59,2.59,0,0,1,.81.32l-.33.84a2.84,2.84,0,0,0-.68-.27,3.76,3.76,0,0,0-1-.13,2.76,2.76,0,0,0-.57.06,1.49,1.49,0,0,0-.45.19,1.08,1.08,0,0,0-.31.33,1.12,1.12,0,0,0-.11.47,1.08,1.08,0,0,0,.12.5,1.14,1.14,0,0,0,.33.36,3.2,3.2,0,0,0,.51.29l.63.26c.32.13.62.25.89.38a2.77,2.77,0,0,1,.7.47,1.64,1.64,0,0,1,.46.64,2.08,2.08,0,0,1,.17.89,1.76,1.76,0,0,1-.72,1.51,3.38,3.38,0,0,1-2,.52,5.66,5.66,0,0,1-.82-.06A4.3,4.3,0,0,1,119,209l-.33-.15L119,208a6.21,6.21,0,0,0,.75.31A4.26,4.26,0,0,0,120.93,208.48Z"/>
      <path class="cls-78" d="M127.73,209.38a3.24,3.24,0,0,1-1.27-.22,2.51,2.51,0,0,1-.89-.62,2.43,2.43,0,0,1-.51-.93,3.51,3.51,0,0,1-.17-1.16v-4.68h1v4.56a2.16,2.16,0,0,0,.5,1.62,1.73,1.73,0,0,0,1.29.51,2.24,2.24,0,0,0,.73-.12A1.52,1.52,0,0,0,129,208a1.73,1.73,0,0,0,.37-.66,3.06,3.06,0,0,0,.13-1v-4.56h1.05v4.68a4.17,4.17,0,0,1-.17,1.16,2.41,2.41,0,0,1-1.4,1.55A3.32,3.32,0,0,1,127.73,209.38Z"/>
      <path class="cls-78" d="M132.39,201.77h1.05v7.45h-1.05Z"/>
      <path class="cls-78" d="M140.31,201.77v.91H138v6.54h-1v-6.54h-2.36v-.91Z"/>
    </g>
  </g>
</svg>
