<svg id="图层_1" data-name="图层 1" xmlns="http://www.w3.org/2000/svg" xmlns:xlink="http://www.w3.org/1999/xlink" viewBox="0 0 1920 1080">
  <defs>
    <style>
      .cls-1 {
        fill: none;
      }

      .cls-2 {
        fill: #26002a;
      }

      .cls-11, .cls-12, .cls-3, .cls-5, .cls-6, .cls-7, .cls-8 {
        isolation: isolate;
      }

      .cls-3 {
        font-size: 42px;
        fill: #f2f2f2;
      }

      .cls-12, .cls-3 {
        font-family: Krungthep;
      }

      .cls-4 {
        clip-path: url(#clip-path);
      }

      .cls-5, .cls-6, .cls-7, .cls-8 {
        opacity: 0.5;
      }

      .cls-5 {
        fill: url(#未命名的渐变);
      }

      .cls-6 {
        fill: url(#未命名的渐变_2);
      }

      .cls-7 {
        fill: url(#未命名的渐变_3);
      }

      .cls-8 {
        fill: url(#未命名的渐变_4);
      }

      .cls-9 {
        fill: url(#未命名的渐变_5);
      }

      .cls-10, .cls-12 {
        fill: #fff;
      }

      .cls-12 {
        font-size: 39.26px;
        letter-spacing: 0.35em;
      }
      #green:hover {
  fill: Salmon  !important;
}
#newBadge hover { cursor: pointer;}
    </style>
    <clipPath id="clip-path">
      <rect class="cls-1" width="1920" height="1081"/>
    </clipPath>
    <radialGradient id="未命名的渐变" cx="1464.82" cy="35.14" r="727.95" gradientTransform="matrix(1, 0, 0, -1, -1.49, 1079)" gradientUnits="userSpaceOnUse">
      <stop offset="0" stop-color="#e90068"/>
      <stop offset="0.17" stop-color="#b50051"/>
      <stop offset="0.39" stop-color="#750034"/>
      <stop offset="0.59" stop-color="#43001e"/>
      <stop offset="0.76" stop-color="#1e000e"/>
      <stop offset="0.9" stop-color="#080004"/>
      <stop offset="0.99"/>
    </radialGradient>
    <radialGradient id="未命名的渐变_2" data-name="未命名的渐变 2" cx="302.95" cy="-71.92" r="961.1" gradientTransform="matrix(1, 0, 0, -1, -1.49, 1079)" gradientUnits="userSpaceOnUse">
      <stop offset="0" stop-color="#2accff"/>
      <stop offset="0.21" stop-color="#1e91b6"/>
      <stop offset="0.42" stop-color="#135e75"/>
      <stop offset="0.61" stop-color="#0b3543"/>
      <stop offset="0.78" stop-color="#05181e"/>
      <stop offset="0.91" stop-color="#010608"/>
      <stop offset="0.99"/>
    </radialGradient>
    <radialGradient id="未命名的渐变_3" data-name="未命名的渐变 3" cx="975.53" cy="816.79" r="728.31" gradientTransform="matrix(1, 0, 0, -1, -1.49, 1079)" gradientUnits="userSpaceOnUse">
      <stop offset="0" stop-color="#e9e400"/>
      <stop offset="0.17" stop-color="#b5b100"/>
      <stop offset="0.39" stop-color="#757200"/>
      <stop offset="0.59" stop-color="#434100"/>
      <stop offset="0.76" stop-color="#1e1e00"/>
      <stop offset="0.9" stop-color="#080800"/>
      <stop offset="0.99"/>
    </radialGradient>
    <radialGradient id="未命名的渐变_4" data-name="未命名的渐变 4" cx="1774.38" cy="1050.75" r="728.42" gradientTransform="matrix(1, 0, 0, -1, -1.49, 1079)" gradientUnits="userSpaceOnUse">
      <stop offset="0" stop-color="#3fff81"/>
      <stop offset="0.21" stop-color="#2db65c"/>
      <stop offset="0.42" stop-color="#1d753b"/>
      <stop offset="0.61" stop-color="#104322"/>
      <stop offset="0.78" stop-color="#071e0f"/>
      <stop offset="0.91" stop-color="#020804"/>
      <stop offset="0.99"/>
    </radialGradient>
    <radialGradient id="未命名的渐变_5" data-name="未命名的渐变 5" cx="960" cy="540.5" r="692.1" gradientUnits="userSpaceOnUse">
      <stop offset="0"/>
      <stop offset="0.17" stop-color="#010302"/>
      <stop offset="0.3" stop-color="#030d06"/>
      <stop offset="0.42" stop-color="#071d0f"/>
      <stop offset="0.53" stop-color="#0d351b"/>
      <stop offset="0.64" stop-color="#14532a"/>
      <stop offset="0.74" stop-color="#1e783c"/>
      <stop offset="0.84" stop-color="#28a353"/>
      <stop offset="0.93" stop-color="#35d56c"/>
      <stop offset="1" stop-color="#3fff81"/>
    </radialGradient>
  </defs>
  <title>画板 1</title>
  <g>
    <g id="background">
      <rect class="cls-2" width="1920" height="1080"/>
      <text class="cls-3" transform="translate(101.17 115.95)">YOUT PLANET</text>
    </g>
    <g id="abstract_element" data-name="abstract element">
      <g>
        <g class="cls-4">
          <g>
            <ellipse class="cls-5" cx="1465.63" cy="1043.86" rx="729.57" ry="727.75"/>
            <ellipse class="cls-6" cx="301.46" cy="1150.92" rx="963.37" ry="960.98"/>
            <ellipse class="cls-7" cx="975.57" cy="262.21" rx="729.57" ry="727.75"/>
            <ellipse class="cls-8" cx="1775.67" cy="28.25" rx="729.57" ry="727.75"/>
          </g>
        </g>
        <path id="green" class="cls-9" d="M960,116.24c234.31,0,424.26,190,424.26,424.26S1194.31,964.76,960,964.76s-424.26-190-424.26-424.26S725.69,116.24,960,116.24Z"/>
      </g>
    </g>
    <g id="icon">
      <g>
        <g>
          <g>
            <path class="cls-10" d="M1667.24,957.15a5.68,5.68,0,0,0-5.83,5.49c0,1.21.83,3.2,2.53,6.07,1.2,2,2.38,3.72,2.43,3.79l.35.49a.64.64,0,0,0,.9.1.47.47,0,0,0,.1-.1l.35-.49c0-.07,1.23-1.76,2.43-3.79,1.7-2.87,2.52-4.86,2.52-6.07A5.67,5.67,0,0,0,1667.24,957.15Zm.6,8.24a2.86,2.86,0,1,1,2.39-3.27,2.87,2.87,0,0,1-2.39,3.27Z"/>
            <path class="cls-10" d="M1667.24,978c-7.5,0-13.6-5.74-13.6-12.81s6.1-12.81,13.6-12.81,13.6,5.75,13.6,12.81S1674.74,978,1667.24,978Zm0-23.82c-6.45,0-11.69,4.94-11.69,11s5.24,11,11.69,11,11.69-4.93,11.69-11-5.24-11-11.69-11Z"/>
          </g>
          <g>
            <path class="cls-10" d="M1753.69,969.4a.59.59,0,0,1-.21.54l-1.92,1.81a1.36,1.36,0,0,1-.34.23,1.48,1.48,0,0,1-.41.12h-.28a6.54,6.54,0,0,1-.89-.09,7.25,7.25,0,0,1-1.51-.44,13.83,13.83,0,0,1-2-1,15.87,15.87,0,0,1-2.41-1.92,15,15,0,0,1-1.68-1.8,12.28,12.28,0,0,1-1.07-1.59,8.79,8.79,0,0,1-.61-1.32,8.68,8.68,0,0,1-.27-1,2.54,2.54,0,0,1-.06-.67V962a1.28,1.28,0,0,1,.13-.39,1,1,0,0,1,.25-.32l1.93-1.82a.66.66,0,0,1,.46-.19.5.5,0,0,1,.33.1,1,1,0,0,1,.25.25l1.55,2.78a.6.6,0,0,1,.07.47.83.83,0,0,1-.24.44l-.71.67a.14.14,0,0,0,0,.09.17.17,0,0,0,0,.1,2.16,2.16,0,0,0,.26.65,5.28,5.28,0,0,0,.53.8,9.36,9.36,0,0,0,1,1.09,10,10,0,0,0,1.16,1,6.59,6.59,0,0,0,.85.51,1.91,1.91,0,0,0,.52.19h.37l.83-.79a.83.83,0,0,1,.6-.22.92.92,0,0,1,.4.08h0l2.8,1.56a.71.71,0,0,1,.36.45Z"/>
            <path class="cls-10" d="M1746.85,978.48c-7.5,0-13.6-5.74-13.6-12.81s6.1-12.81,13.6-12.81,13.6,5.75,13.6,12.81S1754.35,978.48,1746.85,978.48Zm0-23.82c-6.45,0-11.69,4.94-11.69,11s5.24,11,11.69,11,11.69-4.94,11.69-11S1753.3,954.66,1746.85,954.66Z"/>
          </g>
          <g>
            <g>
              <path class="cls-10" d="M1832.12,968.64a1.72,1.72,0,0,1-.22.83l-4.24-4.86,4.2-3.76a1.78,1.78,0,0,1,.26.92Z"/>
              <path class="cls-10" d="M1825.4,965.49l5.84-5.23a1.59,1.59,0,0,0-.8-.21h-10.08a1.59,1.59,0,0,0-.8.21Z"/>
              <path class="cls-10" d="M1827,965.17l-1.35,1.22a.45.45,0,0,1-.56,0l-1.35-1.22-4.29,4.92a1.55,1.55,0,0,0,.88.27h10.08a1.55,1.55,0,0,0,.88-.27Z"/>
              <path class="cls-10" d="M1818.94,960.85a1.78,1.78,0,0,0-.26.92v6.87a1.83,1.83,0,0,0,.22.83l4.24-4.86Z"/>
            </g>
            <path class="cls-10" d="M1825.4,978c-7.5,0-13.6-5.74-13.6-12.81s6.1-12.81,13.6-12.81,13.6,5.75,13.6,12.81S1832.9,978,1825.4,978Zm0-23.82c-6.45,0-11.69,4.94-11.69,11s5.24,11,11.69,11,11.69-4.93,11.69-11-5.24-11-11.69-11Z"/>
          </g>
        </g>
        <rect class="cls-10" x="536" y="796.27" width="24.41" height="7"/>
      </g>
    </g>
    <g id="text">
      <g id="MAKE_YOUR_PAGE_AWESOME" data-name="MAKE YOUR PAGE AWESOME" class="cls-11">
        <text class="cls-12" transform="translate(180.34 528.33)">The cosmos is also </text>
        <text class="cls-12" transform="translate(180.34 616.75)">within us, we&apos;re </text>
        <text class="cls-12" transform="translate(180.34 705.16)">made of star-stuff. </text>
        <text class="cls-12" transform="translate(180.34 793.58)">We are a way for the </text>
        <text class="cls-12" transform="translate(180.34 882)">cosmos, to know itself.</text>
      </g>
      <g class="cls-11">
        <text class="cls-3" transform="translate(1006.37 101.16)"><tspan xml:space="preserve">HOME     PLANET    ABOUT    CONTACT</tspan></text>
      </g>
    </g>
  </g>
</svg>
