<svg id="base" xmlns="http://www.w3.org/2000/svg" viewBox="0 0 225 223.55">
  <defs>
    <style>
      .cls-1 {
        fill: #002c38;
      }

      .cls-2 {
        fill: #161616;
        opacity: 0.9;
        isolation: isolate;
      }

      .cls-3 {
        opacity: 0.2;
      }

      .cls-4 {
        fill: #fff;
      }

      .cls-5 {
        fill: #cd7212;
      }

      .cls-6 {
        fill: #cd920f;
      }

      .cls-7 {
        fill: #cdc295;
      }

      .cls-8 {
        fill: #bf7919;
      }

      .cls-9 {
        fill: #f5a62a;
      }

      .cls-10 {
        fill: #988d73;
      }

      .cls-11 {
        fill: #bcb28b;
      }

      .cls-12 {
        fill: #eb5b33;
      }

      .cls-13 {
        fill: #ed7341;
      }

      .cls-14 {
        fill: #f08a70;
      }

      .cls-15 {
        fill: #f5a968;
      }

      .cls-16 {
        fill: #72c3bb;
      }

      .cls-17 {
        fill: #54af49;
      }

      .cls-18 {
        fill: #54b047;
      }

      .cls-19 {
        fill: #f1f1f1;
      }
      #green:hover {
  fill: Teal !important;
}
#black:hover {
  fill: LightCoral  !important;
}

#newBadge hover { cursor: pointer;}
    </style>
  </defs>
  <title>画板 1</title>
  <g id="Black_Hole" data-name="Black Hole">
    <g id="Background">
      <path id="green" class="cls-1" d="M225,223.55H-.41V-.35H225Z"/>
    </g>
    <g id="Black_Hole-2" data-name="Black Hole-2">
      <path id="black" class="cls-2" d="M204.39,99.45c0,49.59-40.46,89.79-90.39,89.79S23.61,149,23.61,99.45,64.08,9.67,114,9.67,204.39,49.87,204.39,99.45ZM114,24.94c-41.43,0-75,33.36-75,74.51S72.57,174,114,174s75-33.36,75-74.52S155.44,24.94,114,24.94Zm0,14.67a59.85,59.85,0,1,0,60.25,59.84C174.25,66.4,147.28,39.61,114,39.61Zm0,16.59a43.25,43.25,0,1,0,43.55,43.25A43.25,43.25,0,0,0,114,56.2ZM114,72a27.47,27.47,0,1,0,27.65,27.46A27.47,27.47,0,0,0,114,72Z"/>
      <g id="Clouds">
        <g class="cls-3">
          <path class="cls-4" d="M91.9,34.25a4.28,4.28,0,0,1-4.3,4.26H47.54a4.28,4.28,0,0,1-4.29-4.26h0A4.27,4.27,0,0,1,47.54,30H87.6a4.28,4.28,0,0,1,4.3,4.27Z"/>
          <path class="cls-4" d="M109.48,40.07a4.28,4.28,0,0,1-4.29,4.26H65.12a4.28,4.28,0,0,1-4.29-4.26h0a4.28,4.28,0,0,1,4.29-4.27h40.07a4.28,4.28,0,0,1,4.29,4.27Z"/>
        </g>
        <g class="cls-3">
          <path class="cls-4" d="M184.31,161.68a4.29,4.29,0,0,1-4.24,4.32H140a4.28,4.28,0,0,1-4.3-4.27h0a4.28,4.28,0,0,1,4.3-4.26h40a4.28,4.28,0,0,1,4.29,4.26Z"/>
          <path class="cls-4" d="M201.9,167.51a4.28,4.28,0,0,1-4.3,4.26H157.54a4.28,4.28,0,0,1-4.29-4.26h0a4.28,4.28,0,0,1,4.29-4.27H197.6a4.28,4.28,0,0,1,4.3,4.27Z"/>
        </g>
        <g class="cls-3">
          <path class="cls-4" d="M193.12,51.88A3.12,3.12,0,0,1,190,55H160.76a3.12,3.12,0,0,1-3.13-3.11h0a3.12,3.12,0,0,1,3.13-3.11H190a3.13,3.13,0,0,1,3.13,3.11Z"/>
          <path class="cls-4" d="M205.94,56.13a3.12,3.12,0,0,1-3.13,3.11H173.58a3.12,3.12,0,0,1-3.13-3.11h0A3.12,3.12,0,0,1,173.56,53h29.25a3.12,3.12,0,0,1,3.13,3.11h0Z"/>
        </g>
        <g class="cls-3">
          <path class="cls-4" d="M61.4,105.23a3.13,3.13,0,0,1-3.14,3.11H29a3.12,3.12,0,0,1-3.13-3.11h0A3.12,3.12,0,0,1,29,102.12H58.26A3.13,3.13,0,0,1,61.4,105.23Z"/>
          <path class="cls-4" d="M74.22,109.48a3.12,3.12,0,0,1-3.13,3.11H41.86a3.12,3.12,0,0,1-3.13-3.11h0a3.12,3.12,0,0,1,3.13-3.11H71.09a3.12,3.12,0,0,1,3.13,3.11Z"/>
        </g>
      </g>
      <g id="Planets">
        <g>
          <path class="cls-5" d="M81,123.85a8.39,8.39,0,1,1-8.45-8.33h.06A8.38,8.38,0,0,1,81,123.85Z"/>
          <path class="cls-6" d="M65.78,119.07H79.52a8.62,8.62,0,0,0-2.42-2.28H68.2A8.48,8.48,0,0,0,65.78,119.07Z"/>
          <path class="cls-7" d="M64.26,123.85a8.58,8.58,0,0,0,.15,1.6H80.88a8.59,8.59,0,0,0,.16-1.6v-.68H64.29C64.27,123.4,64.26,123.62,64.26,123.85Z"/>
          <path class="cls-8" d="M64.29,123.16H81a8.28,8.28,0,0,0-1.48-4.09H65.78A8.3,8.3,0,0,0,64.29,123.16Z"/>
          <path class="cls-9" d="M64.41,125.45a8.44,8.44,0,0,0,1.7,3.63H79.18a8.21,8.21,0,0,0,1.7-3.63Z"/>
        </g>
        <g>
          <path class="cls-10" d="M89.56,86a5,5,0,1,1-5-5A5,5,0,0,1,89.56,86Z"/>
          <path class="cls-7" d="M80.43,83.16h8.22a5.12,5.12,0,0,0-1.45-1.37H81.88A5,5,0,0,0,80.43,83.16Z"/>
          <path class="cls-7" d="M79.52,86a5.55,5.55,0,0,0,.09,1h9.85a4.78,4.78,0,0,0,.1-1v-.41h-10A2.1,2.1,0,0,0,79.52,86Z"/>
          <path class="cls-11" d="M79.54,85.6h10a5,5,0,0,0-.89-2.44H80.43A4.89,4.89,0,0,0,79.54,85.6Z"/>
          <path class="cls-11" d="M79.61,87a5,5,0,0,0,1,2.17h7.82a4.85,4.85,0,0,0,1-2.17Z"/>
        </g>
        <g>
          <path class="cls-10" d="M77.42,170.35a17.65,17.65,0,1,1-17.77-17.53h.13a17.58,17.58,0,0,1,17.64,17.52Z"/>
          <path class="cls-7" d="M45.34,160.3H74.22a17.58,17.58,0,0,0-5.08-4.79H50.42A17.58,17.58,0,0,0,45.34,160.3Z"/>
          <path class="cls-7" d="M42.13,170.35a17.25,17.25,0,0,0,.34,3.36H77.09a17.24,17.24,0,0,0,.33-3.36,9.45,9.45,0,0,0-.07-1.43H42.21C42.17,169.39,42.13,169.87,42.13,170.35Z"/>
          <path class="cls-11" d="M42.21,168.89H77.35a17.41,17.41,0,0,0-3.13-8.59H45.34A17.21,17.21,0,0,0,42.21,168.89Z"/>
          <path class="cls-11" d="M42.47,173.71A17.21,17.21,0,0,0,46,181.33H73.52a17.5,17.5,0,0,0,3.57-7.62Z"/>
        </g>
        <g>
          <ellipse class="cls-12" cx="128.86" cy="152.65" rx="7.66" ry="7.61"/>
          <path class="cls-13" d="M122.59,148.28h12.54a7.79,7.79,0,0,0-2.2-2.08H124.8A7.69,7.69,0,0,0,122.59,148.28Z"/>
          <path class="cls-7" d="M121.2,152.65a7.83,7.83,0,0,0,.14,1.45h15a7.07,7.07,0,0,0,.15-1.45V152H121.23Q121.2,152.33,121.2,152.65Z"/>
          <path class="cls-14" d="M121.23,152h15.26a7.52,7.52,0,0,0-1.36-3.73H122.59A7.52,7.52,0,0,0,121.23,152Z"/>
          <path class="cls-15" d="M121.34,154.11a7.59,7.59,0,0,0,1.55,3.31h11.94a7.58,7.58,0,0,0,1.55-3.32h-15Z"/>
        </g>
        <g>
          <path class="cls-16" d="M154,95a12.63,12.63,0,1,1-12.72-12.54h.09A12.59,12.59,0,0,1,154,95Z"/>
          <path class="cls-17" d="M133.52,92.38s1-.23,2.24,1.32.88,1.39,2,1.67,1.92.83,1.68,1.35-.52,1.43-.76,2.14-.88.16-1.24.56a5,5,0,0,0-1.24,2.07c-.56,1.43-.72,2.1-.32,2.62s.12.79-.28.2a5.33,5.33,0,0,1-1.12-3.3,6.78,6.78,0,0,0-1.2-4c-.72-1.15-1.24-.79-.72-2.22S132.65,92.23,133.52,92.38Z"/>
          <path class="cls-18" d="M129.32,91.11a1.41,1.41,0,0,1,.35.75c0,.66.08.24.74.76s1.41,1,1.45.82a9.61,9.61,0,0,1-.64-1.64c-.13-.61-.06.51-.65-.26s-.35-1.38.42-1,.88,0,1.33-1.25a3.61,3.61,0,0,1,1.59-1.93c.35-.26.39-.84.68-.68s.84-.25.84-.67-.84-.66-2-.85A12.63,12.63,0,0,0,129.32,91.11Z"/>
          <path class="cls-17" d="M146.44,94.46a1.92,1.92,0,0,1-2.43-.35c-1.16-1.19-1.29-1.12-1.32-1.74a4.05,4.05,0,0,1,.51-1.86c.2-.29.62-1.22,1.2-1.22s2.37.09,2.92.64,1.84.51,2.39.58.23,1.35,1,2.28,1.72.9.72,2-.62.94-.88,2.42a4.56,4.56,0,0,1-1.81,3c-.45.13-.26-.45-.94-1.71a3.13,3.13,0,0,1-.51-2.48C147.32,94.85,146.72,94.33,146.44,94.46Z"/>
          <path class="cls-17" d="M151.6,92.22c.3.42.18-.11.43-.83s-.41-.79-.77-1.58.73.34,1.48.32a.33.33,0,0,0,.19-.06,12.13,12.13,0,0,0-1.43-2.47c0,.42,0,.7-.3.26a1.79,1.79,0,0,1-.4-1.13,12.89,12.89,0,0,0-2.92-2.44.51.51,0,0,1-.41.41c-.75.14-1.12.38-.8-.1.18-.28.49-.42.61-.64a12.18,12.18,0,0,0-2-.86.48.48,0,0,0,.32.51c.73.34,1,.84.3,1s-.76-.85-1.34-1.09-1.68,0-1.12.63,1.41.51,1.48,1.25-.94,1-1.14,1-.17.82-.17.82.83,1.06,1.29.46.24-1.79,2-.82,2.53.51,2.89,1.46.21,1.36.75,2.19A13.16,13.16,0,0,0,151.6,92.22Z"/>
          <path class="cls-18" d="M135.65,83.81a1.35,1.35,0,0,0,.86.11c.64-.17.47.39.61.68s.56,0,.66-.54a1.21,1.21,0,0,1,.53-1,.54.54,0,0,0,.2-.31A13.29,13.29,0,0,0,135.65,83.81Z"/>
          <path class="cls-17" d="M142,107.55a10,10,0,0,0-1.33-.8c-1.33-.7-.26-1.14-.73-1.52s-1.57-.25-1.33.19a2,2,0,0,1,.31,1.37.75.75,0,0,0,.19.57,12.05,12.05,0,0,0,2.24.21Z"/>
          <path class="cls-17" d="M150.4,103.74c-.8.29-2.11,1.21-2.92,1.26a3.49,3.49,0,0,0-2.59.93c-1.14.83-.3.61-.91,1.09a1.77,1.77,0,0,0-.34.33A12.66,12.66,0,0,0,150.4,103.74Z"/>
        </g>
      </g>
      <g id="Stars">
        <path class="cls-4" d="M124.71,150.38a2.12,2.12,0,1,1-2.14-2.1h0a2.1,2.1,0,0,1,2.12,2.1Z"/>
        <path class="cls-4" d="M108.12,11.82A2.12,2.12,0,1,1,106,9.72h0a2.1,2.1,0,0,1,2.12,2.1Z"/>
        <path class="cls-4" d="M74.73,46.31a1.11,1.11,0,1,1-1.12-1.1h0a1.1,1.1,0,0,1,1.11,1.09Z"/>
        <circle class="cls-4" cx="89.49" cy="70.03" r="1.1"/>
        <circle class="cls-4" cx="196.89" cy="74.39" r="1.1"/>
        <path class="cls-4" d="M186.86,38a1.1,1.1,0,1,1-1.1-1.1,1.1,1.1,0,0,1,1.1,1.1Z"/>
        <path class="cls-4" d="M33.06,200.81a1.1,1.1,0,1,1-1.1-1.1,1.1,1.1,0,0,1,1.1,1.1Z"/>
        <path class="cls-4" d="M114.88,188.26a1.11,1.11,0,1,1-1.12-1.1h0a1.1,1.1,0,0,1,1.11,1.09Z"/>
        <path class="cls-4" d="M119.6,59.13A1.11,1.11,0,1,1,118.49,58a1.11,1.11,0,0,1,1.11,1.13Z"/>
        <path class="cls-4" d="M181.65,171.1a1.11,1.11,0,1,1-1.12-1.1h0a1.1,1.1,0,0,1,1.11,1.09Z"/>
        <circle class="cls-4" cx="36.82" cy="17.12" r="1.1"/>
        <path class="cls-4" d="M77.45,48.5a.69.69,0,1,1-.69-.69A.69.69,0,0,1,77.45,48.5Z"/>
        <circle class="cls-4" cx="125.42" cy="97.49" r="1.1"/>
        <circle class="cls-4" cx="191.87" cy="81.6" r="1.1"/>
        <path class="cls-4" d="M129.25,99.68a.7.7,0,1,1-.71-.69h0a.69.69,0,0,1,.69.69Z"/>
        <path class="cls-4" d="M28.14,174.46a1.11,1.11,0,1,1-1.12-1.1h0a1.1,1.1,0,0,1,1.11,1.09Z"/>
        <circle class="cls-4" cx="30.17" cy="176.65" r="0.69"/>
        <path class="cls-4" d="M177.82,199.71a1.1,1.1,0,1,1-1.11-1.09h0A1.11,1.11,0,0,1,177.82,199.71Z"/>
        <circle class="cls-4" cx="179.85" cy="201.91" r="0.69"/>
        <path class="cls-4" d="M36.41,23.81a.69.69,0,1,1-.69-.69h0A.69.69,0,0,1,36.41,23.81Z"/>
      </g>
    </g>
    <g id="Black_Hole-3" data-name="Black Hole-3">
      <path class="cls-19" d="M83.4,209.29h-1l-.53,0a3.55,3.55,0,0,1-.47-.09v-7.22l.47-.08.53-.06h1a7.09,7.09,0,0,1,1.22.1,3.16,3.16,0,0,1,1,.32,1.93,1.93,0,0,1,.66.61,1.76,1.76,0,0,1,.23.93,1.55,1.55,0,0,1-.29,1,1.75,1.75,0,0,1-.78.59,2.21,2.21,0,0,1,1,.61,1.64,1.64,0,0,1,.39,1.18,1.87,1.87,0,0,1-.83,1.68A4.74,4.74,0,0,1,83.4,209.29Zm-1-4.38h1.1a4.57,4.57,0,0,0,.74,0,2.1,2.1,0,0,0,.6-.19,1.18,1.18,0,0,0,.4-.37,1.13,1.13,0,0,0,0-1.11,1,1,0,0,0-.42-.36,1.94,1.94,0,0,0-.62-.19,3.84,3.84,0,0,0-.76-.07h-1Zm0,.84v2.62h1a6.51,6.51,0,0,0,.88-.06,2.35,2.35,0,0,0,.73-.21,1.27,1.27,0,0,0,.5-.42,1.17,1.17,0,0,0,.19-.68,1.34,1.34,0,0,0-.14-.62,1.05,1.05,0,0,0-.41-.4,1.8,1.8,0,0,0-.63-.21,4.54,4.54,0,0,0-.82-.07Z"/>
      <path class="cls-19" d="M92.85,208.32v.9H88.33v-7.44h1v6.54Z"/>
      <path class="cls-19" d="M99.26,209.22c-.12-.32-.24-.64-.34-.95s-.22-.63-.34-1h-3.4l-.68,1.9H93.41l.81-2.18c.25-.67.5-1.31.74-1.91s.48-1.18.72-1.73.49-1.09.75-1.62h1c.26.53.51,1.08.75,1.62s.47,1.13.72,1.73.49,1.24.74,1.91l.81,2.18Zm-1-2.76c-.23-.62-.46-1.23-.69-1.81s-.46-1.14-.71-1.68q-.37.81-.72,1.68c-.22.58-.45,1.19-.67,1.81Z"/>
      <path class="cls-19" d="M104.45,209.38a3.94,3.94,0,0,1-1.44-.25,3.18,3.18,0,0,1-1.12-.76,3.43,3.43,0,0,1-.72-1.22,5,5,0,0,1-.25-1.66,4.46,4.46,0,0,1,.28-1.66,3.74,3.74,0,0,1,.78-1.22,3.19,3.19,0,0,1,1.13-.75,3.85,3.85,0,0,1,1.39-.26,4.76,4.76,0,0,1,.84.07,3.61,3.61,0,0,1,.65.15,4.13,4.13,0,0,1,.45.17l.23.13-.3.86-.28-.14-.42-.15a4.7,4.7,0,0,0-.51-.12,2.53,2.53,0,0,0-.55,0,2.61,2.61,0,0,0-1.07.2,2.39,2.39,0,0,0-.82.59,2.87,2.87,0,0,0-.51.94,4,4,0,0,0-.18,1.24,4.22,4.22,0,0,0,.16,1.22,2.6,2.6,0,0,0,.47.94,2.21,2.21,0,0,0,.78.61,2.6,2.6,0,0,0,1.1.21,4,4,0,0,0,1.2-.15,4.44,4.44,0,0,0,.72-.27l.27.86a1.74,1.74,0,0,1-.27.14,4,4,0,0,1-.49.15c-.19.05-.42.09-.68.13A5.89,5.89,0,0,1,104.45,209.38Z"/>
      <path class="cls-19" d="M113.48,201.78l-.76.81c-.28.29-.57.6-.88.91l-.91.92-.86.84a10.84,10.84,0,0,1,1,.79c.34.32.68.65,1,1s.65.73.94,1.1a11.06,11.06,0,0,1,.73,1.06h-1.23a10.43,10.43,0,0,0-.75-1c-.28-.34-.58-.67-.89-1a6.93,6.93,0,0,0-1-.87,7.85,7.85,0,0,0-.93-.67v3.53h-1v-7.44h1V205c.25-.23.53-.5.83-.8l.9-.89.84-.87.66-.72Z"/>
      <path class="cls-19" d="M122,201.78h1v7.44h-1v-3.44h-3.67v3.44h-1v-7.44h1v3.1H122Z"/>
      <path class="cls-19" d="M124.56,205.49a4.41,4.41,0,0,1,.29-1.68,3.46,3.46,0,0,1,.77-1.22,3.2,3.2,0,0,1,1.15-.74,3.88,3.88,0,0,1,1.39-.25,4,4,0,0,1,1.37.25,3.17,3.17,0,0,1,1.13.74,3.46,3.46,0,0,1,.77,1.22,5,5,0,0,1,0,3.37,3.46,3.46,0,0,1-.77,1.22,3.17,3.17,0,0,1-1.13.74,4,4,0,0,1-1.37.24,4.15,4.15,0,0,1-1.39-.24,3.2,3.2,0,0,1-1.15-.74,3.56,3.56,0,0,1-.77-1.22A4.43,4.43,0,0,1,124.56,205.49Zm1.1,0a3.67,3.67,0,0,0,.18,1.23,2.35,2.35,0,0,0,.49.94,2.18,2.18,0,0,0,.78.6,2.49,2.49,0,0,0,2,0,2.15,2.15,0,0,0,.77-.6,2.65,2.65,0,0,0,.49-.94,3.67,3.67,0,0,0,.18-1.23,4.26,4.26,0,0,0-.18-1.23,2.82,2.82,0,0,0-.49-.94,2.12,2.12,0,0,0-.77-.59,2.49,2.49,0,0,0-2,0,2,2,0,0,0-.78.59,2.65,2.65,0,0,0-.49.94A4.26,4.26,0,0,0,125.66,205.49Z"/>
      <path class="cls-19" d="M137.79,208.32v.9h-4.51v-7.44h1.05v6.54Z"/>
      <path class="cls-19" d="M138.89,209.22v-7.44h4.58v.89h-3.53v2.21h3.14v.87h-3.14v2.58h3.8v.89Z"/>
    </g>
  </g>
</svg>
