<svg id="base" xmlns="http://www.w3.org/2000/svg" viewBox="0 0 225 223.55">
  <defs>
    <style>
      .cls-1 {
        fill: #191919;
      }

      .cls-2 {
        fill: #f1f1f1;
      }

      .cls-3 {
        fill: #3a8fcb;
      }

      .cls-4 {
        fill: #54af49;
      }

      .cls-5, .cls-6, .cls-7 {
        opacity: 0.8;
      }

      .cls-15, .cls-6 {
        fill: #ededec;
      }

      .cls-12, .cls-14, .cls-6, .cls-7, .cls-9 {
        isolation: isolate;
      }

      .cls-7 {
        fill: #fff;
      }

      .cls-8 {
        fill: #f8e28e;
      }

      .cls-12, .cls-14, .cls-9 {
        fill: #040000;
      }

      .cls-9 {
        opacity: 0.9;
      }

      .cls-10 {
        fill: #7e8b8c;
      }

      .cls-11 {
        fill: #bcbcbc;
      }

      .cls-12 {
        opacity: 0.2;
      }

      .cls-13 {
        fill: #353535;
      }

      .cls-14 {
        opacity: 0.1;
      }
      #yellow:hover {
  fill: Salmon !important;
}
#gray:hover {
  fill: SpringGreen !important;
}
#green:hover {
  fill: Brown !important;
}
#blue:hover {
  fill: DarkSlateBlue !important;
}

#white:hover {
  fill: SeaGreen !important;
}

#black:hover {
  fill: PaleVioletRed !important;
}

#newBadge hover { cursor: pointer;}


    </style>
  </defs>
  <title>画板 1</title>
  <g id="Earth_In_Space" data-name="Earth In Space">
    <path id="black" class="cls-1" d="M225,223.55H-.25V0H225Z"/>
    <g id="Earth_In_Space-2" data-name="Earth In Space-2">
      <path class="cls-2" d="M72.57,209.25v-7.44h4.58v.89H73.62v2.21h3.14v.87H73.62v2.57h3.8v.9Z"/>
      <path class="cls-2" d="M83.94,209.25c-.12-.33-.24-.64-.35-.95l-.33-1h-3.4l-.68,1.9H78.09L78.9,207c.25-.67.5-1.3.74-1.9s.48-1.18.72-1.73.49-1.08.74-1.62h1c.26.54.51,1.08.74,1.62s.48,1.13.72,1.73.49,1.23.74,1.9.53,1.4.81,2.19Zm-1-2.76c-.23-.63-.46-1.23-.68-1.81s-.47-1.14-.71-1.68q-.37.81-.72,1.68c-.23.58-.45,1.18-.68,1.81Z"/>
      <path class="cls-2" d="M89.77,206.13c.11.15.26.33.43.57s.36.49.55.77.37.58.56.88a9.59,9.59,0,0,1,.47.9H90.63c-.14-.28-.3-.55-.47-.83s-.34-.55-.51-.8-.35-.49-.52-.71-.32-.42-.46-.58H87.15v2.91H86.1v-7.33a5.62,5.62,0,0,1,1-.15h1a4.18,4.18,0,0,1,2.41.59,2,2,0,0,1,.82,1.76,2.08,2.08,0,0,1-.39,1.27A2.4,2.4,0,0,1,89.77,206.13Zm-1.59-3.48h-1v2.8h.75a8.34,8.34,0,0,0,1,0,2.35,2.35,0,0,0,.73-.21,1.1,1.1,0,0,0,.46-.42,1.42,1.42,0,0,0,.16-.73,1.28,1.28,0,0,0-.16-.69,1.16,1.16,0,0,0-.44-.44,1.69,1.69,0,0,0-.65-.23,4.8,4.8,0,0,0-.85-.08Z"/>
      <path class="cls-2" d="M97.91,201.81v.9H95.55v6.54h-1v-6.54H92.14v-.9Z"/>
      <path class="cls-2" d="M103.72,201.81h1v7.44h-1v-3.44h-3.66v3.44H99v-7.44h1v3.1h3.66Z"/>
      <path class="cls-2" d="M109.13,201.81h1.05v7.44h-1.05Z"/>
      <path class="cls-2" d="M117.17,209.25c-.15-.27-.34-.57-.54-.9s-.43-.67-.67-1-.48-.71-.74-1.08l-.76-1.06c-.25-.34-.5-.66-.74-1a8.89,8.89,0,0,0-.65-.79v5.81h-1v-7.44h.83c.34.36.7.77,1.09,1.25s.76,1,1.14,1.47.74,1,1.07,1.49.62.91.85,1.29v-5.5h1v7.44Z"/>
      <path class="cls-2" d="M124.15,208.5c1.09,0,1.64-.37,1.64-1.11a1.2,1.2,0,0,0-.14-.59,1.42,1.42,0,0,0-.4-.41,2.63,2.63,0,0,0-.57-.31l-.67-.26a6.67,6.67,0,0,1-.78-.31,2.72,2.72,0,0,1-.64-.42,1.91,1.91,0,0,1-.43-.58,1.84,1.84,0,0,1-.15-.8,1.87,1.87,0,0,1,.67-1.53,2.86,2.86,0,0,1,1.85-.54,5.1,5.1,0,0,1,1.23.14,2.64,2.64,0,0,1,.82.32l-.33.85a2.71,2.71,0,0,0-.68-.28,3.76,3.76,0,0,0-1-.13,2.76,2.76,0,0,0-.57.06,1.51,1.51,0,0,0-.45.2,1,1,0,0,0-.31.32,1.12,1.12,0,0,0-.11.47,1.08,1.08,0,0,0,.12.5,1.14,1.14,0,0,0,.33.36,3.1,3.1,0,0,0,.5.29l.64.26c.32.12.62.25.89.38a2.92,2.92,0,0,1,.7.46,1.94,1.94,0,0,1,.46.64,2.31,2.31,0,0,1,.16.9,1.74,1.74,0,0,1-.72,1.5,3.35,3.35,0,0,1-2,.53,5.66,5.66,0,0,1-.82-.06,2.48,2.48,0,0,1-.66-.14,5.08,5.08,0,0,1-.51-.17l-.33-.16.32-.86a4.09,4.09,0,0,0,.75.31A3.73,3.73,0,0,0,124.15,208.5Z"/>
      <path class="cls-2" d="M130.15,201.73a4.23,4.23,0,0,1,2.43.6,2,2,0,0,1,.84,1.78,2.44,2.44,0,0,1-.23,1.1,1.84,1.84,0,0,1-.67.74,3.12,3.12,0,0,1-1.06.41,7.5,7.5,0,0,1-1.42.13h-.83v2.76h-1.05v-7.33a5.62,5.62,0,0,1,1-.15C129.51,201.75,129.85,201.73,130.15,201.73Zm.08.92h-1v2.92H130a6.73,6.73,0,0,0,1-.07,2.41,2.41,0,0,0,.73-.24,1,1,0,0,0,.46-.46,1.46,1.46,0,0,0,.16-.74,1.32,1.32,0,0,0-.17-.7,1.21,1.21,0,0,0-.45-.45,1.92,1.92,0,0,0-.66-.23A5.9,5.9,0,0,0,130.23,202.65Z"/>
      <path class="cls-2" d="M139.2,209.25c-.12-.33-.24-.64-.35-.95l-.33-1h-3.4l-.68,1.9h-1.09l.81-2.19c.25-.67.5-1.3.74-1.9s.48-1.18.72-1.73.49-1.08.75-1.62h1c.26.54.51,1.08.74,1.62s.48,1.13.72,1.73.49,1.23.74,1.9.53,1.4.81,2.19Zm-1-2.76c-.23-.63-.46-1.23-.68-1.81s-.47-1.14-.71-1.68q-.37.81-.72,1.68c-.23.58-.45,1.18-.68,1.81Z"/>
      <path class="cls-2" d="M144.38,209.41a3.75,3.75,0,0,1-1.44-.26,3,3,0,0,1-1.11-.75,3.43,3.43,0,0,1-.72-1.22,4.93,4.93,0,0,1-.26-1.66,4.47,4.47,0,0,1,.29-1.66,3.52,3.52,0,0,1,.77-1.21,3.26,3.26,0,0,1,1.14-.76,3.83,3.83,0,0,1,1.38-.25,5.93,5.93,0,0,1,.84.06,3.61,3.61,0,0,1,.65.15l.45.17.23.13-.3.86-.28-.14-.42-.15a4.05,4.05,0,0,0-.5-.12h-.56a2.79,2.79,0,0,0-1.07.2,2.26,2.26,0,0,0-.81.59,2.55,2.55,0,0,0-.52.94,4.32,4.32,0,0,0-.17,1.24,4.46,4.46,0,0,0,.15,1.21,2.6,2.6,0,0,0,.47.94,2.16,2.16,0,0,0,.79.61,2.55,2.55,0,0,0,1.09.21,4,4,0,0,0,1.2-.15,6.93,6.93,0,0,0,.72-.26l.27.85a1.74,1.74,0,0,1-.27.14,4,4,0,0,1-.49.15,5.1,5.1,0,0,1-.68.13A5.89,5.89,0,0,1,144.38,209.41Z"/>
      <path class="cls-2" d="M147.86,209.25v-7.44h4.57v.89h-3.52v2.21H152v.87h-3.13v2.57h3.79v.9Z"/>
    </g>
    <g id="Earth_In_Space-3" data-name="Earth In Space-3">
      <g id="Earth">
        <path id="blue" class="cls-3" d="M172.3,111.78c0,32.84-26.83,59.47-59.93,59.47s-59.92-26.63-59.92-59.47S79.28,52.3,112.37,52.3,172.3,78.93,172.3,111.78Z"/>
        <path id="green" class="cls-4" d="M75.33,99.28S80.08,98.15,86,105.5s4.17,6.59,9.49,7.91,9.11,4,8,6.4S101,126.6,99.82,130s-4.18.75-5.89,2.64-3.23,3-5.88,9.79-3.42,10-1.52,12.44.57,3.77-1.33.94-5.7-8.29-5.32-15.64-2.27-13.37-5.69-18.84-5.89-3.77-3.42-10.55S71.2,98.53,75.33,99.28Zm-19.89-6a7,7,0,0,1,1.62,3.57c.08,3.12.38,1.1,3.53,3.6s6.68,4.63,6.88,3.87a45,45,0,0,1-3-7.78c-.62-2.9-.31,2.44-3.08-1.22s-1.69-6.56,2-4.57,4.15,0,6.3-6a17.12,17.12,0,0,1,7.53-9.15c1.69-1.22,1.84-4,3.23-3.2s4-1.22,4-3.21c0-1.67-4-3.12-9.27-4a59.62,59.62,0,0,0-19.74,28Zm85.08,22.92c-.29,5.19-.78,5.8,2.44,11.75s2.31,8.69,4.46,8.08,7.37-7,8.6-14-.61-6.4,4.15-11.45.15-4.87-3.38-9.29-2-10.52-4.61-10.83-8.76-.15-11.37-2.75-11.06-3-13.83-3-4.76,4.42-5.68,5.79a19.62,19.62,0,0,0-2.46,8.85c.15,2.9.77,2.59,6.3,8.24a9.11,9.11,0,0,0,11.52,1.67c1.34-.77,4.15,1.74,3.86,6.89Zm20.6-17.64c1.42,2,.89-.53,2-3.93s-2-3.77-3.63-7.51,3.47,1.6,7,1.53a1.47,1.47,0,0,0,.9-.31,58.87,58.87,0,0,0-6.77-11.71c.2,2,.18,3.32-1.43,1.27a8.59,8.59,0,0,1-1.91-5.37A59.81,59.81,0,0,0,143.42,61a2.4,2.4,0,0,1-1.94,1.9c-3.57.68-5.3,1.83-3.8-.46.87-1.33,2.31-2,2.88-3A59.59,59.59,0,0,0,131,55.26a2.23,2.23,0,0,0,1.51,2.42c3.46,1.6,4.61,4,1.38,4.92s-3.57-4-6.33-5.15-8-.08-5.31,3,6.69,2.39,7,5.93-4.49,4.81-5.41,4.81-.81,3.88-.81,3.88,3.92,5,6.11,2.18,1.15-8.47,9.45-3.89,12,2.42,13.71,6.93,1,6.45,3.55,10.38c.06,0,3.86,5.86,5.27,7.84ZM85.45,58.65a6.62,6.62,0,0,0,4.11.52c3-.8,2.19,1.83,2.88,3.2s2.65-.23,3.11-2.57.55-2.85,2.53-4.54a2.39,2.39,0,0,0,1-1.46A60,60,0,0,0,85.45,58.65Zm30,112.52a52.64,52.64,0,0,0-6.27-3.81c-6.34-3.32-1.27-5.38-3.46-7.21s-7.49-1.14-6.34.92,1.5,2.51,1.5,6.52a3.77,3.77,0,0,0,.89,2.71,61.16,61.16,0,0,0,10.63.95c1,0,2,0,3-.08Zm40-18.07c-3.82,1.41-10,5.76-13.88,6-5.84.35-6.92.42-12.29,4.38s-1.39,2.9-4.31,5.19a11.07,11.07,0,0,0-1.63,1.58A59.94,59.94,0,0,0,155.45,153.1Z"/>
      </g>
      <g id="Clouds">
        <g class="cls-5">
          <path id="white" class="cls-6" d="M89.56,170.35c-22.42-8.37-42.06-20.08-55.28-33s-18.54-25.59-14.77-35.54,16.1-16,34.71-17.09,41.05,3,63.47,11.35,42.06,20.08,55.29,33,18.53,25.59,14.76,35.55-16.1,16-34.7,17.08S112,178.72,89.56,170.35Zm27.88-73.58C71.49,79.62,27.91,82,20.29,102.13s23.57,50.41,69.52,67.56,89.53,14.74,97.15-5.36S163.39,113.92,117.44,96.77Zm38.71-31.1C155.08,47.21,149,35,138.93,31.23s-22.75,1.46-35.81,14.65a113.16,113.16,0,0,0-7.89,8.93h.17a1.19,1.19,0,0,1,.41-.11H96a1.12,1.12,0,0,1,.4-.1c14.4-17.83,30.14-27,42.22-22.51,20.26,7.56,22.68,50.81,5.4,96.41S96.22,205,76,197.41C61.86,192.15,56.41,169.58,60.23,141l-.07-.12-.15-.22a1,1,0,0,1-.1-.17h0a1.05,1.05,0,0,1-.27-.44,122.75,122.75,0,0,0-1.15,23.77c1.07,18.46,7.18,30.69,17.21,34.44s22.76-1.46,35.82-14.65,24.79-32.61,33.22-54.87S157.21,84,156.15,65.67Z"/>
          <path id="gray" class="cls-7" d="M90.8,40.28s-1-2.06,0-3.53a3.92,3.92,0,0,1,4.52-1.59,3.33,3.33,0,0,1,1.12-3.31,4.93,4.93,0,0,1,5.38-.22l.7-.08s-.18-2.76,3.16-1.87c0,0,2.19-4.78,6-.72h0l5.67,1.19h0s2.15-1.19,2.43.85-.28,1.71-.28,1.71a4.57,4.57,0,0,1,5.12,2.16,4.4,4.4,0,0,1-1,5.41Zm13,142.79a2.37,2.37,0,0,0-.51,2.91,2.46,2.46,0,0,0,2.75,1.16s-.3-.18-.15.92,1.31.45,1.31.45h0l3,.65h0a1.78,1.78,0,0,0,3.21-.39c1.8.47,1.7-1,1.7-1h.38a2.64,2.64,0,0,0,2.89-.12,1.77,1.77,0,0,0,.6-1.78,2.11,2.11,0,0,0,2.43-.85,2.06,2.06,0,0,0,0-1.9ZM159,168.64a2.69,2.69,0,0,0,1.93,2.71A2.77,2.77,0,0,0,164,170.1s-.38.1.61.85,1.41-.67,1.41-.67h0l2.93-1.89h0c3.36.13,2.24-2.84,2.24-2.84,1.81-1,.54-2.13.54-2.13l.27-.33a3,3,0,0,0,2.2-2.38,2,2,0,0,0-.95-1.88,2.35,2.35,0,0,0,1.25-2.6c-.19-1.07-1.52-1.5-1.52-1.5ZM168.31,71a3.74,3.74,0,0,0,2.06-7s.13.52,1.2-.86-.95-2-.95-2h0L168,57.12h0c.18-4.67-4-3.12-4-3.12-1.47-2.51-3-.75-3-.75l-.47-.37a4.14,4.14,0,0,0-3.35-3.07,2.85,2.85,0,0,0-2.66,1.33,3.3,3.3,0,0,0-3.66-1.74c-1.51.26-2.13,2.11-2.13,2.11Zm-118,71.26a3.78,3.78,0,0,0-3.83,2.67,3.82,3.82,0,0,0,1.77,4.33s-.14-.53-1.2.86.94,1.94.94,1.94h0l2.67,4.08h0c-.18,4.68,4,3.12,4,3.12,1.46,2.51,3,.75,3,.75l.46.38a4.17,4.17,0,0,0,3.35,3.06,2.83,2.83,0,0,0,2.66-1.32,3.34,3.34,0,0,0,3.66,1.74c1.51-.27,2.13-2.12,2.13-2.12Zm134.88-19.84a3.42,3.42,0,0,0,5.85-3.18s-.26.42,1.33.21.65-1.85.65-1.85h0l.93-4.31h0c3.13-2.89-.56-4.56-.56-4.56.68-2.54-1.45-2.4-1.45-2.4l-.06-.54a3.73,3.73,0,0,0-.17-4.1,2.59,2.59,0,0,0-2.56-.84,2.79,2.79,0,0,0-4-3.45ZM39.59,99.32a3.42,3.42,0,0,0-5.85,3.17s.26-.42-1.32-.21-.66,1.85-.66,1.85h0l-.92,4.32h0c-3.14,2.88.55,4.56.55,4.56-.68,2.54,1.45,2.4,1.45,2.4l.06.53a3.73,3.73,0,0,0,.17,4.1,2.59,2.59,0,0,0,2.56.85,2.79,2.79,0,0,0,4,3.45ZM66.1,58a2.08,2.08,0,0,0-1.49-2.1,2.14,2.14,0,0,0-2.41,1s.3-.07-.48-.66-1.08.52-1.08.52h0l-2.27,1.46h0c-2.61-.1-1.74,2.2-1.74,2.2-1.4.81-.42,1.66-.42,1.66l-.21.25a2.28,2.28,0,0,0-1.7,1.84,1.56,1.56,0,0,0,.7,1.41,1.81,1.81,0,0,0-1,2c.14.83,1.17,1.17,1.17,1.17Z"/>
        </g>
      </g>
      <g id="Moon">
        <path id="yellow" class="cls-8" d="M60.2,32.5A10.31,10.31,0,1,1,49.81,22.27h.09A10.26,10.26,0,0,1,60.2,32.49Z"/>
        <path class="cls-9" d="M49.56,22.28a10.2,10.2,0,0,0-5.5,18.64,10.2,10.2,0,0,0,5.5-18.64Z"/>
      </g>
      <g id="Satellite">
        <g>
          <path class="cls-10" d="M194.41,74.16l-3.68,1.56a1.61,1.61,0,0,1-2.09-.84l-5.7-13.28a1.57,1.57,0,0,1,.82-2.06h0L187.46,58a1.61,1.61,0,0,1,2.09.84l5.7,13.28A1.57,1.57,0,0,1,194.41,74.16ZM183.92,59.85a1.24,1.24,0,0,0-.66,1.62L189,74.75a1.23,1.23,0,0,0,1.62.64h0l3.69-1.56a1.23,1.23,0,0,0,.66-1.6h0l-5.71-13.28a1.23,1.23,0,0,0-1.62-.64h0Z"/>
          <polygon class="cls-10" points="191.68 75.09 191.33 75.24 184.59 59.57 184.94 59.42 191.68 75.09"/>
          <polygon class="cls-10" points="194.01 74.11 193.66 74.26 186.92 58.58 187.28 58.43 194.01 74.11"/>
          <polygon class="cls-10" points="189.52 59.64 183.56 62.16 183.43 61.84 189.38 59.32 189.52 59.64"/>
          <polygon class="cls-10" points="190.22 61.26 184.26 63.78 184.12 63.45 190.08 60.93 190.22 61.26"/>
          <polygon class="cls-10" points="190.93 62.92 184.97 65.44 184.83 65.12 190.79 62.6 190.93 62.92"/>
          <polygon class="cls-10" points="191.64 64.56 185.68 67.08 185.54 66.76 191.5 64.24 191.64 64.56"/>
          <polygon class="cls-10" points="192.33 66.17 186.37 68.7 186.23 68.38 192.19 65.85 192.33 66.17"/>
          <polygon class="cls-10" points="193.05 67.84 187.09 70.36 186.95 70.04 192.91 67.52 193.05 67.84"/>
          <polygon class="cls-10" points="193.89 69.81 187.93 72.33 187.79 72 193.75 69.48 193.89 69.81"/>
          <polygon class="cls-10" points="194.73 71.77 188.77 74.29 188.63 73.97 194.59 71.44 194.73 71.77"/>
        </g>
        <g>
          <path class="cls-10" d="M203.34,94.94l-3.68,1.55a1.58,1.58,0,0,1-2.09-.83h0l-5.71-13.28a1.58,1.58,0,0,1,.84-2.07l3.69-1.56a1.59,1.59,0,0,1,2.08.83l5.71,13.28A1.59,1.59,0,0,1,203.34,94.94Zm-10.5-14.31a1.24,1.24,0,0,0-.65,1.61l5.71,13.28a1.22,1.22,0,0,0,1.61.65h0l3.68-1.56a1.23,1.23,0,0,0,.66-1.6h0l-5.7-13.28a1.25,1.25,0,0,0-1.62-.65Z"/>
          <polygon class="cls-10" points="200.6 95.87 200.25 96.02 193.52 80.35 193.87 80.2 200.6 95.87"/>
          <polygon class="cls-10" points="202.94 94.89 202.58 95.03 195.85 79.36 196.2 79.21 202.94 94.89"/>
          <polygon class="cls-10" points="198.45 80.42 192.49 82.94 192.35 82.62 198.31 80.1 198.45 80.42"/>
          <polygon class="cls-10" points="199.14 82.03 193.18 84.56 193.04 84.23 199 81.71 199.14 82.03"/>
          <polygon class="cls-10" points="199.86 83.7 193.9 86.22 193.76 85.9 199.72 83.38 199.86 83.7"/>
          <polygon class="cls-10" points="200.56 85.34 194.6 87.86 194.47 87.54 200.42 85.02 200.56 85.34"/>
          <polygon class="cls-10" points="201.26 86.95 195.3 89.47 195.16 89.15 201.12 86.63 201.26 86.95"/>
          <polygon class="cls-10" points="201.97 88.62 196.01 91.14 195.87 90.82 201.83 88.3 201.97 88.62"/>
          <polygon class="cls-10" points="202.81 90.58 196.86 93.1 196.72 92.78 202.68 90.26 202.81 90.58"/>
          <polygon class="cls-10" points="203.66 92.55 197.7 95.07 197.56 94.74 203.52 92.22 203.66 92.55"/>
        </g>
        <path class="cls-11" d="M198.29,72a1.6,1.6,0,0,1,2.1.84l1.08,2.5a1.6,1.6,0,0,1-.84,2.09h0L191,81.53a1.61,1.61,0,0,1-2.11-.84l-1.07-2.5a1.6,1.6,0,0,1,.84-2.09h0Z"/>
        <path class="cls-12" d="M190.22,81.29v.37a1.7,1.7,0,0,0,.74-.13h.13a2.92,2.92,0,0,0-.68-1.59C189.72,79.2,190.22,81.29,190.22,81.29Z"/>
        <path class="cls-12" d="M188.33,76.79l-.25-.27a1.73,1.73,0,0,1,.6-.44h.13a2.92,2.92,0,0,1,.68,1.59C189.51,78.59,188.33,76.79,188.33,76.79Z"/>
        <path class="cls-13" d="M186.92,87.76,181.14,74.3A7.46,7.46,0,0,1,190,78.51,7.36,7.36,0,0,1,186.92,87.76Z"/>
        <path class="cls-14" d="M200.85,73.91l-.46-1a1.6,1.6,0,0,0-2.1-.84l-9.65,4.08-.21.11a7.5,7.5,0,0,0-7.29-1.91L184,81Z"/>
        <g>
          <path class="cls-15" d="M183,86.86l-.06-.12a4.48,4.48,0,0,0,.34-4.61,4.54,4.54,0,0,0-3.73-2.76l-.06-.13A4.93,4.93,0,0,1,183,86.86Z"/>
          <path class="cls-15" d="M179.89,86.55v-.09a3.31,3.31,0,0,0-2.34-5.08v-.09a3.36,3.36,0,0,1,2.34,5.26Z"/>
          <path class="cls-15" d="M177.09,86.29v-.05a1.65,1.65,0,0,0,.27-1.69,1.68,1.68,0,0,0-1.29-1.12v-.05a1.82,1.82,0,0,1,1.41,2.15,1.66,1.66,0,0,1-.35.76Z"/>
        </g>
      </g>
    </g>
  </g>
</svg>
