<svg id="base" xmlns="http://www.w3.org/2000/svg" viewBox="0 0 225 223.55">
  <defs>
    <style>
      .cls-1 {
        fill: #1b1c1b;
      }

      .cls-2 {
        fill: #282828;
      }

      .cls-3 {
        fill: #a4a4a3;
      }

      .cls-4, .cls-8 {
        fill: #040000;
      }

      .cls-4 {
        opacity: 0.2;
      }

      .cls-4, .cls-5, .cls-8 {
        isolation: isolate;
      }

      .cls-5 {
        fill: #fff;
        opacity: 0.6;
      }

      .cls-6 {
        fill: #e94d19;
      }

      .cls-7 {
        fill: #f49e25;
      }

      .cls-8 {
        opacity: 0.1;
      }

      .cls-9 {
        fill: #7b797c;
      }

      .cls-10 {
        fill: #aaa7aa;
      }

      .cls-11 {
        fill: #f1f1f1;
      }

      #black:hover {
  fill: DarkViolet !important;
}
#light_black:hover {
  fill: Darkorange  !important;
}
#orange:hover {
  fill: LightGreen  !important;
}
#gray:hover {
  fill: Crimson  !important;
}






#newBadge hover { cursor: pointer;}
    </style>
  </defs>
  <title>画板 1</title>
  <g id="Meteor_Rain" data-name="Meteor Rain">
    <g id="Background">
      <path id="black" class="cls-1" d="M225,223.55H-.41V-.35H225Z"/>
      <path id="light_black" data-name="light black" class="cls-2" d="M187.24,111.6c0,41.12-33.55,74.45-74.95,74.45S37.35,152.72,37.35,111.6,70.9,37.16,112.29,37.16,187.24,70.49,187.24,111.6Z"/>
    </g>
    <g id="Meteor_Rain-2" data-name="Meteor Rain-2">
      <g id="Planet">
        <path id="gray" class="cls-3" d="M63.54,110.33a63.2,63.2,0,0,1-63.38,63H-.41v-126H.16C35.17,47.38,63.54,75.56,63.54,110.33Z"/>
        <g>
          <ellipse class="cls-4" cx="13.45" cy="84.29" rx="6.88" ry="6.27"/>
          <ellipse class="cls-4" cx="35.14" cy="71.09" rx="3.68" ry="3.35"/>
          <path class="cls-4" d="M38.33,103a5.41,5.41,0,0,1-5.64,5.15,5.17,5.17,0,0,1-.91-10.3,4.61,4.61,0,0,1,.91,0A5.41,5.41,0,0,1,38.33,103Z"/>
          <path class="cls-4" d="M55.5,95a3.17,3.17,0,1,1-3.45-2.87h.3A3,3,0,0,1,55.5,95Z"/>
          <path class="cls-4" d="M13.93,156.54a5.41,5.41,0,0,1-5.65,5.15,5.17,5.17,0,0,1-.91-10.3,4.61,4.61,0,0,1,.91,0A5.42,5.42,0,0,1,13.93,156.54Z"/>
          <ellipse class="cls-4" cx="8.28" cy="115.69" rx="4.11" ry="3.75"/>
          <path class="cls-4" d="M35.57,155.14a3.93,3.93,0,0,1-4.11,3.75,3.77,3.77,0,1,1-.78-7.5,3.39,3.39,0,0,1,.78,0A3.93,3.93,0,0,1,35.57,155.14Z"/>
        </g>
      </g>
      <g id="Starts">
        <polygon class="cls-5" points="63.03 85.14 60.08 76.89 51.41 75.31 59.71 72.38 61.3 63.76 64.26 72.01 72.93 73.59 64.62 76.52 63.03 85.14"/>
        <polygon class="cls-5" points="188.47 74.34 186.67 69.31 181.39 68.35 186.45 66.56 187.42 61.31 189.22 66.34 194.5 67.3 189.44 69.09 188.47 74.34"/>
        <polygon class="cls-5" points="66.9 141.74 65.1 136.71 59.81 135.75 64.88 133.96 65.84 128.71 67.64 133.74 72.93 134.7 67.87 136.49 66.9 141.74"/>
        <polygon class="cls-5" points="80.63 104.34 79.24 100.45 75.15 99.71 79.06 98.33 79.81 94.26 81.21 98.15 85.29 98.9 81.38 100.28 80.63 104.34"/>
        <polygon class="cls-5" points="137.68 80.66 136.28 76.77 132.19 76.03 136.11 74.64 136.86 70.58 138.25 74.47 142.34 75.21 138.42 76.6 137.68 80.66"/>
        <polygon class="cls-5" points="122.73 53.85 121.34 49.96 117.25 49.22 121.17 47.84 121.92 43.78 123.31 47.67 127.4 48.41 123.48 49.79 122.73 53.85"/>
        <polygon class="cls-5" points="184.7 126.83 183.31 122.94 179.22 122.2 183.14 120.81 183.88 116.75 185.28 120.64 189.37 121.38 185.45 122.77 184.7 126.83"/>
        <polygon class="cls-5" points="101.06 65.15 100.22 62.82 97.77 62.37 100.12 61.54 100.57 59.1 101.4 61.44 103.86 61.88 101.51 62.71 101.06 65.15"/>
        <polygon class="cls-5" points="153.47 110.39 152.63 108.06 150.18 107.61 152.53 106.78 152.98 104.34 153.82 106.68 156.27 107.12 153.92 107.95 153.47 110.39"/>
        <polygon class="cls-5" points="212.81 116.75 211.98 114.42 209.53 113.97 211.88 113.14 212.32 110.7 213.16 113.04 215.62 113.48 213.26 114.31 212.81 116.75"/>
        <polygon class="cls-5" points="116.92 102.33 116.08 99.99 113.63 99.55 115.98 98.72 116.43 96.28 117.27 98.61 119.72 99.06 117.37 99.89 116.92 102.33"/>
        <polygon class="cls-5" points="205.34 156.57 204.5 154.24 202.05 153.79 204.4 152.96 204.85 150.53 205.69 152.86 208.14 153.31 205.79 154.14 205.34 156.57"/>
        <polygon class="cls-5" points="33.11 119.78 32.27 117.44 29.82 117 32.17 116.17 32.62 113.73 33.46 116.06 35.91 116.51 33.56 117.34 33.11 119.78"/>
        <polygon class="cls-5" points="41.61 164.62 40.77 162.29 38.32 161.84 40.67 161.01 41.12 158.57 41.96 160.91 44.41 161.35 42.06 162.19 41.61 164.62"/>
      </g>
      <g id="Meteors">
        <g id="Meteor">
          <path class="cls-6" d="M62.65,134.3s-.11-5.93,4.6-12.89,27.48-17.8,27.48-17.8-7.72,5.47-9.33,8.78,17.57-4.22,24.69-11.52S128,83.81,128,83.81l-7.8,11.47a61.25,61.25,0,0,0,21-11.47C151,75.43,168.33,80,181,70.41A76.4,76.4,0,0,1,155.46,83c-14.7,3.88-16.31,22.59-18.83,27.83S148.89,99.7,148.89,99.7s-1.47-.73-4.45,10.91-10.34,10.32-12.64,13.26,11.72-.94,11.72-.94-1.15-.23-13.1,6.39-9.88,13.69-14.24,18-20,9.82-20,9.82l-10.1-16Z"/>
          <path id="orange" class="cls-7" d="M74,130.35s-.1-4.79,3.71-10.41,22.2-14.38,22.2-14.38-6.24,4.42-7.54,7.09,14.2-3.4,20-9.3S126.8,89.57,126.8,89.57l-6.26,9.26a49.62,49.62,0,0,0,17-9.26c7.93-6.78,21.9-3.09,32.11-10.83A61.67,61.67,0,0,1,149,88.87c-11.88,3.14-13.18,18.26-15.22,22.5s9.91-9,9.91-9-1.19-.59-3.6,8.81-8.35,8.34-10.21,10.72,9.47-.76,9.47-.76-.93-.19-10.58,5.16-8,11.06-11.51,14.56-16.15,7.93-16.15,7.93L93,135.89Z"/>
          <path class="cls-8" d="M87.75,123.12a12.68,12.68,0,0,1,2.4-6.73c2.46-3.64,14.36-9.3,14.36-9.3s-4,2.86-4.88,4.59,9.18-2.21,12.9-6,9.33-8.91,9.33-8.91l-4,6a32,32,0,0,0,11-6c5.13-4.38,14.16-2,20.76-7a39.82,39.82,0,0,1-13.32,6.55c-7.68,2-8.52,11.8-9.84,14.54S132.8,105,132.8,105s-.77-.38-2.33,5.69-5.4,5.4-6.6,6.93,6.12-.49,6.12-.49-.6-.12-6.84,3.34-5.16,7.15-7.44,9.41S105.27,135,105.27,135L100,126.7Z"/>
          <polygon class="cls-9" points="87.46 116.96 66.79 126.08 60.36 138.86 73.91 155.29 96.65 158.49 109.52 148.45 99.41 140.23 111.82 128.37 105.15 112.39 96.65 119.24 87.46 116.96"/>
          <polygon class="cls-10" points="90.39 124.54 77.64 136.35 79.91 156.13 96.65 158.49 109.52 148.45 99.41 140.23 111.82 128.37 109.92 123.83 94.18 133.1 90.39 124.54"/>
        </g>
        <g id="Meteor-2">
          <path class="cls-6" d="M183.11,81.39a5.72,5.72,0,0,1,1.08-3c1.11-1.64,6.47-4.2,6.47-4.2a9.62,9.62,0,0,0-2.2,2.07c-.38.78,4.14-1,5.82-2.71s4.21-4,4.21-4l-1.83,2.7a14.29,14.29,0,0,0,5-2.7c2.31-2,6.39-.9,9.36-3.16a17.81,17.81,0,0,1-6,3c-3.47.91-3.85,5.32-4.44,6.56s2.89-2.62,2.89-2.62-.35-.18-1,2.56-2.44,2.44-3,3.13,2.76-.22,2.76-.22-.27-.06-3.08,1.5-2.33,3.23-3.36,4.25-4.7,2.31-4.7,2.31L188.62,83Z"/>
          <path class="cls-7" d="M185.78,80.46a4.64,4.64,0,0,1,.88-2.45c.89-1.32,5.23-3.39,5.23-3.39a7.68,7.68,0,0,0-1.78,1.68c-.31.63,3.34-.81,4.7-2.2s3.4-3.24,3.4-3.24L196.73,73a11.82,11.82,0,0,0,4-2.18c1.87-1.6,5.16-.73,7.57-2.55a14.49,14.49,0,0,1-4.86,2.38c-2.79.74-3.1,4.3-3.58,5.3s2.33-2.12,2.33-2.12-.28-.14-.84,2.08-2,2-2.41,2.52,2.23-.18,2.23-.18a10.1,10.1,0,0,0-2.49,1.22c-2.27,1.26-1.88,2.6-2.71,3.43a15.87,15.87,0,0,1-3.81,1.87l-1.92-3Z"/>
          <path class="cls-8" d="M189,78.76a3.06,3.06,0,0,1,.56-1.59C190.16,76.32,193,75,193,75a5.08,5.08,0,0,0-1.14,1.08c-.2.41,2.16-.51,3-1.41s2.2-2.1,2.2-2.1l-1,1.41a7.4,7.4,0,0,0,2.58-1.41c1.21-1,3.34-.47,4.89-1.65a9.24,9.24,0,0,1-3.13,1.54c-1.81.48-2,2.78-2.32,3.43s1.51-1.37,1.51-1.37-.18-.09-.55,1.34-1.27,1.27-1.55,1.63,1.44-.11,1.44-.11a6.15,6.15,0,0,0-1.61.78c-1.47.82-1.22,1.69-1.76,2.22a10.23,10.23,0,0,1-2.46,1.21l-1.24-2Z"/>
          <polygon class="cls-9" points="188.95 77.31 184.08 79.46 182.56 82.47 185.76 86.34 191.11 87.09 194.14 84.73 191.76 82.79 194.69 80 193.12 76.23 191.11 77.85 188.95 77.31"/>
          <polygon class="cls-10" points="189.64 79.09 186.64 81.88 187.17 86.54 191.11 87.09 194.14 84.73 191.76 82.79 194.69 80 194.24 78.93 190.53 81.11 189.64 79.09"/>
        </g>
        <g id="Meteor-3">
          <path class="cls-6" d="M111.79,50a8.41,8.41,0,0,1,1.57-4.39c1.6-2.37,9.36-6.06,9.36-6.06s-2.63,1.87-3.18,3,6-1.43,8.41-3.92,6-5.84,6-5.84l-2.64,3.91a20.94,20.94,0,0,0,7.16-3.91c3.35-2.86,9.23-1.3,13.54-4.57a25.94,25.94,0,0,1-8.69,4.28c-5,1.32-5.55,7.69-6.41,9.48s4.17-3.79,4.17-3.79-.5-.25-1.51,3.71-3.52,3.52-4.31,4.52,4-.32,4-.32-.39-.08-4.46,2.17-3.36,4.67-4.85,6.14-6.8,3.34-6.8,3.34l-3.45-5.43Z"/>
          <path id="orange-2" class="cls-7" d="M115.66,48.64a6.79,6.79,0,0,1,1.27-3.55c1.29-1.91,7.56-4.89,7.56-4.89a10.9,10.9,0,0,0-2.57,2.41c-.44.91,4.84-1.16,6.8-3.17s4.91-4.69,4.91-4.69L131.5,37.9a16.8,16.8,0,0,0,5.78-3.15c2.7-2.31,7.46-1,10.94-3.69a20.91,20.91,0,0,1-7,3.45c-4,1.07-4.49,6.22-5.18,7.66s3.37-3.06,3.37-3.06-.4-.2-1.22,3-2.85,2.84-3.48,3.65,3.22-.26,3.22-.26-.31-.06-3.6,1.76-2.72,3.77-3.92,5-5.5,2.7-5.5,2.7l-2.78-4.39Z"/>
          <path class="cls-8" d="M120.34,46.18a4.33,4.33,0,0,1,.82-2.3c.84-1.23,4.89-3.16,4.89-3.16a7,7,0,0,0-1.66,1.56c-.29.59,3.13-.75,4.39-2.05s3.18-3,3.18-3l-1.38,2a11.18,11.18,0,0,0,3.74-2c1.75-1.5,4.82-.68,7.07-2.39A13.57,13.57,0,0,1,136.85,37c-2.61.69-2.9,4-3.35,5s2.18-2,2.18-2-.26-.13-.79,1.94-1.84,1.83-2.25,2.35,2.09-.16,2.09-.16a8.82,8.82,0,0,0-2.33,1.13c-2.13,1.18-1.76,2.44-2.54,3.21a14.66,14.66,0,0,1-3.55,1.75l-1.8-2.84Z"/>
          <polygon class="cls-9" points="120.24 44.08 113.2 47.19 111.01 51.54 115.63 57.13 123.37 58.22 127.75 54.8 124.31 52 128.54 47.96 126.27 42.52 123.37 44.85 120.24 44.08"/>
          <polygon class="cls-10" points="121.24 46.66 116.9 50.68 117.67 57.42 123.37 58.22 127.75 54.8 124.31 52 128.54 47.96 127.89 46.42 122.53 49.58 121.24 46.66"/>
        </g>
        <g id="Meteor-4">
          <path class="cls-6" d="M149.57,153.85a13.78,13.78,0,0,1,2.59-7.28c2.66-3.93,15.52-10,15.52-10s-4.36,3.09-5.27,5,9.93-2.38,14-6.51,10.09-9.63,10.09-9.63l-4.38,6.47A34.63,34.63,0,0,0,194,125.34c5.54-4.74,15.31-2.16,22.45-7.58A43,43,0,0,1,202,124.85c-8.3,2.19-9.21,12.76-10.64,15.73s6.93-6.29,6.93-6.29-.83-.42-2.52,6.16-5.84,5.83-7.13,7.49,6.61-.53,6.61-.53-.64-.13-7.39,3.61-5.58,7.73-8,10.18-11.29,5.54-11.29,5.54l-5.71-9Z"/>
          <path class="cls-7" d="M156,151.63a11.18,11.18,0,0,1,2.1-5.89c2.15-3.17,12.54-8.12,12.54-8.12s-3.52,2.5-4.26,4,8-1.93,11.27-5.26,8.16-7.78,8.16-7.78l-3.54,5.23a28.12,28.12,0,0,0,9.59-5.23c4.48-3.83,12.37-1.75,18.14-6.12a34.84,34.84,0,0,1-11.64,5.72c-6.71,1.78-7.44,10.31-8.6,12.71s5.6-5.08,5.6-5.08-.67-.34-2,5-4.72,4.71-5.77,6,5.35-.43,5.35-.43-.52-.11-6,2.91-4.51,6.25-6.5,8.23-9.12,4.48-9.12,4.48l-4.61-7.28Z"/>
          <path class="cls-8" d="M163.74,147.54a7.15,7.15,0,0,1,1.36-3.8c1.39-2.06,8.11-5.26,8.11-5.26a12,12,0,0,0-2.76,2.6c-.47,1,5.19-1.25,7.29-3.4s5.27-5,5.27-5L180.72,136a18.1,18.1,0,0,0,6.21-3.39c2.89-2.47,8-1.12,11.72-4a22.29,22.29,0,0,1-7.52,3.7c-4.34,1.15-4.81,6.67-5.56,8.21s3.62-3.28,3.62-3.28-.43-.22-1.32,3.22-3,3-3.72,3.91,3.45-.28,3.45-.28-.33-.06-3.86,1.89-2.91,4-4.2,5.32-5.9,2.89-5.9,2.89l-3-4.71Z"/>
          <polygon class="cls-9" points="163.58 144.06 151.9 149.21 148.27 156.43 155.92 165.71 168.77 167.52 176.04 161.85 170.33 157.21 177.34 150.5 173.57 141.48 168.77 145.35 163.58 144.06"/>
          <polygon class="cls-10" points="165.24 148.34 158.03 155.01 159.31 166.19 168.77 167.52 176.04 161.85 170.33 157.21 177.34 150.5 176.27 147.94 167.38 153.18 165.24 148.34"/>
        </g>
      </g>
    </g>
    <g id="Meteor_Rain-3" data-name="Meteor Rain-3">
      <path class="cls-11" d="M81.4,208.19c-.07-.17-.17-.39-.29-.65s-.24-.56-.38-.86-.28-.63-.44-1-.3-.63-.44-.92-.26-.55-.38-.78-.22-.4-.29-.53c-.08.85-.14,1.77-.19,2.75s-.1,2-.13,3h-1c0-.64.06-1.29.1-1.95s.07-1.3.12-1.93.1-1.25.15-1.86.12-1.17.18-1.7h.92q.28.47.63,1.11c.22.43.44.88.67,1.35s.44.94.65,1.41l.57,1.28c.17-.38.37-.81.57-1.28s.43-.94.65-1.41.45-.92.67-1.35.44-.8.63-1.11h.92c.25,2.4.44,4.88.55,7.44h-1c0-1-.08-2-.13-3s-.12-1.9-.2-2.75c-.07.13-.17.3-.29.53l-.38.78c-.14.29-.28.6-.44.92l-.44,1-.38.86-.29.65Z"/>
      <path class="cls-11" d="M87.46,209.22v-7.44H92v.89H88.51v2.21h3.14v.87H88.51v2.58h3.8v.89Z"/>
      <path class="cls-11" d="M98.65,201.78v.9H96.29v6.54H95.24v-6.54H92.88v-.9Z"/>
      <path class="cls-11" d="M99.75,209.22v-7.44h4.58v.89H100.8v2.21h3.14v.87H100.8v2.58h3.8v.89Z"/>
      <path class="cls-11" d="M105.32,205.49a4.61,4.61,0,0,1,.29-1.68,3.35,3.35,0,0,1,.78-1.22,3.21,3.21,0,0,1,1.14-.74,3.88,3.88,0,0,1,1.39-.25,3.78,3.78,0,0,1,1.37.25,3.17,3.17,0,0,1,1.13.74,3.35,3.35,0,0,1,.78,1.22,5.21,5.21,0,0,1,0,3.37,3.49,3.49,0,0,1-.78,1.22,3.17,3.17,0,0,1-1.13.74,4,4,0,0,1-1.37.24,4.15,4.15,0,0,1-1.39-.24,3.21,3.21,0,0,1-1.14-.74,3.49,3.49,0,0,1-.78-1.22A4.63,4.63,0,0,1,105.32,205.49Zm1.11,0a3.93,3.93,0,0,0,.17,1.23,2.65,2.65,0,0,0,.49.94,2.18,2.18,0,0,0,.78.6,2.49,2.49,0,0,0,2,0,2.15,2.15,0,0,0,.77-.6,2.67,2.67,0,0,0,.5-.94,4.53,4.53,0,0,0,0-2.46,2.67,2.67,0,0,0-.5-.94,2.12,2.12,0,0,0-.77-.59,2.49,2.49,0,0,0-2,0,2,2,0,0,0-.78.59,2.82,2.82,0,0,0-.49.94A3.93,3.93,0,0,0,106.43,205.49Z"/>
      <path class="cls-11" d="M117.71,206.11c.12.14.26.33.44.56s.36.49.54.77.38.58.56.89a9.42,9.42,0,0,1,.47.89h-1.14c-.15-.27-.31-.55-.48-.82s-.34-.55-.51-.81-.34-.49-.51-.71l-.46-.58h-1.53v2.91h-1v-7.34a5.6,5.6,0,0,1,1-.14h1a4.16,4.16,0,0,1,2.41.59,2.26,2.26,0,0,1,.43,3A2.38,2.38,0,0,1,117.71,206.11Zm-1.59-3.5a8.34,8.34,0,0,0-1,0v2.8h.75a8.34,8.34,0,0,0,1,0,2.35,2.35,0,0,0,.73-.21,1.1,1.1,0,0,0,.46-.42,1.68,1.68,0,0,0,0-1.43,1.32,1.32,0,0,0-.44-.44,2.08,2.08,0,0,0-.65-.22A4.8,4.8,0,0,0,116.12,202.61Z"/>
      <path class="cls-11" d="M127,206.11c.12.14.27.33.44.56s.36.49.55.77.37.58.56.89a8.64,8.64,0,0,1,.47.89h-1.15c-.14-.27-.3-.55-.47-.82l-.51-.81c-.18-.25-.35-.49-.52-.71s-.32-.42-.46-.58H124.4v2.91h-1.05v-7.34a5.6,5.6,0,0,1,1-.14h1a4.13,4.13,0,0,1,2.4.59,2,2,0,0,1,.83,1.76,2.08,2.08,0,0,1-.39,1.27A2.4,2.4,0,0,1,127,206.11Zm-1.59-3.5a8.34,8.34,0,0,0-1,0v2.8h.74a8.34,8.34,0,0,0,1,0,2.35,2.35,0,0,0,.73-.21,1.1,1.1,0,0,0,.46-.42,1.68,1.68,0,0,0,0-1.43,1.32,1.32,0,0,0-.44-.44,2.08,2.08,0,0,0-.65-.22,4.58,4.58,0,0,0-.83-.08Z"/>
      <path class="cls-11" d="M135.46,209.22c-.12-.32-.23-.64-.34-.95s-.22-.63-.34-1h-3.39l-.69,1.9h-1.09l.81-2.18c.26-.67.5-1.31.74-1.91l.72-1.73c.24-.54.49-1.09.75-1.62h1c.26.53.51,1.08.75,1.62s.48,1.13.72,1.73.49,1.24.74,1.91l.81,2.18Zm-1-2.76c-.23-.62-.46-1.23-.69-1.81s-.46-1.14-.71-1.68q-.37.81-.72,1.68c-.22.58-.45,1.19-.67,1.81Z"/>
      <path class="cls-11" d="M137.63,201.78h1.05v7.44h-1.05Z"/>
      <path class="cls-11" d="M145.68,209.22l-.55-.89c-.2-.33-.43-.67-.66-1l-.74-1.08c-.26-.36-.51-.71-.77-1.05s-.49-.67-.73-1-.46-.56-.66-.79v5.81h-1v-7.44h.83c.34.35.7.77,1.09,1.25s.77,1,1.15,1.47.73,1,1.07,1.49.62.92.85,1.3v-5.51h1v7.44Z"/>
    </g>
  </g>
</svg>
