<svg id="base" xmlns="http://www.w3.org/2000/svg" viewBox="0 0 225 223.55">
  <defs>
    <style>
      .cls-1 {
        fill: #2b3d4f;
      }

      .cls-2 {
        fill: #354858;
      }

      .cls-3 {
        fill: #f5e1a7;
      }

      .cls-4 {
        fill: #040000;
        opacity: 0.1;
      }

      .cls-10, .cls-11, .cls-4, .cls-5, .cls-6, .cls-7, .cls-9 {
        isolation: isolate;
      }

      .cls-5, .cls-7 {
        fill: #fff;
      }

      .cls-5 {
        opacity: 0.6;
      }

      .cls-6 {
        fill: #44bfe7;
        opacity: 0.4;
      }

      .cls-7 {
        opacity: 0.8;
      }

      .cls-8 {
        fill: #f6cb59;
      }

      .cls-10, .cls-11 {
        font-size: 12px;
        fill: #f7f8f8;
        font-family: MarkerFelt-Thin, Marker Felt;
        font-weight: 200;
      }

      .cls-11 {
        letter-spacing: 0.02em;
      }
      #yellow:hover {
  fill: Salmon !important;
}
#dark_yellow:hover {
  fill: SpringGreen !important;
}

#white:hover {
  fill: SeaGreen !important;
}
#light_blue:hover {
  fill: MistyRose  !important;
}
#dark_blue:hover {
  fill: Indigo !important;
}

#newBadge hover { cursor: pointer;}
    </style>
  </defs>
  <title>画板 1</title>
  <g id="Moon_Light" data-name="Moon Light">
    <g id="Background">
      <path id="dark_blue" data-name="dark blue" class="cls-1" d="M225,223.55H0V0H225Z"/>
      <path id="light_blue" data-name="light blue" class="cls-2" d="M187.31,111.79c0,41-33.49,74.32-74.81,74.32s-74.81-33.28-74.81-74.32S71.18,37.46,112.5,37.46,187.31,70.74,187.31,111.79Z"/>
    </g>
    <g id="Moon_Light-2" data-name="Moon Light-2">
      <g id="Moon">
        <path id="yellow" class="cls-3" d="M193.67,93.38a50,50,0,1,1-50.3-49.7h.3A49.86,49.86,0,0,1,193.67,93.38Z"/>
        <path id="dark_yellow" data-name="dark yellow" class="cls-4" d="M150.22,81.27A11.55,11.55,0,1,1,138.6,69.79h.07a11.51,11.51,0,0,1,11.55,11.47ZM138.67,69.79a11.51,11.51,0,0,0-11.55,11.47h0A11.22,11.22,0,0,0,128.66,87c-.68-2.66-1.15-6.39.39-9.2,2.68-4.88,6.82-6.48,9.62-6.57a45.25,45.25,0,0,1,6.58.64A11.57,11.57,0,0,0,138.67,69.79ZM123.13,115a5,5,0,1,0,5,5,5,5,0,0,0-5-5Zm0,0a5,5,0,0,0-5,5,4.92,4.92,0,0,0,.68,2.48,5.69,5.69,0,0,1,.17-4,5.09,5.09,0,0,1,4.18-2.86,23,23,0,0,1,2.87.27A5,5,0,0,0,123.13,115ZM108.37,85.9a5,5,0,1,0,5,5,5,5,0,0,0-5-5h0Zm0,0A5,5,0,0,0,104,93.35a5.8,5.8,0,0,1,.17-4,5.09,5.09,0,0,1,4.19-2.86,19.77,19.77,0,0,1,2.87.27,5,5,0,0,0-2.86-.89Zm73.71,2.51a5,5,0,1,0,5,5,5,5,0,0,0-5-5h0Zm0,0a5,5,0,0,0-5,5,5.08,5.08,0,0,0,.66,2.5,5.8,5.8,0,0,1,.17-4A5.11,5.11,0,0,1,182.08,89a19.77,19.77,0,0,1,2.87.27,5.07,5.07,0,0,0-2.87-.89ZM147.67,105a8.75,8.75,0,1,0,8.81,8.75,8.75,8.75,0,0,0-8.81-8.75Zm0,0a8.78,8.78,0,0,0-8.81,8.75h0A8.63,8.63,0,0,0,140,118.1c-.52-2-.88-4.87.3-7a8.92,8.92,0,0,1,7.33-5,34.83,34.83,0,0,1,5,.48A8.85,8.85,0,0,0,147.67,105Z"/>
      </g>
      <g id="Galaxy">
        <path class="cls-5" d="M17.46,65.66c.52-.75,5.14,1.48,10.33,5s9,7,8.44,7.73-5.14-1.48-10.32-5S16.94,66.42,17.46,65.66Z"/>
        <path class="cls-5" d="M21.07,68.11c.32-.46,3.17.91,6.36,3.07s5.51,4.3,5.19,4.76-3.16-.91-6.35-3.07S20.75,68.58,21.07,68.11Z"/>
        <path class="cls-6" d="M11.24,61.66c.91-1.34,8.22,2,16.32,7.52s13.91,11,13,12.35-8.23-2-16.32-7.52S10.32,63,11.24,61.66Z"/>
      </g>
      <g id="Stars">
        <path id="white" class="cls-7" d="M44.45,92s6.9,1.19,9.15,0,2.25-2.68,3.9-.74,3.9,5.08,6,1.27,6.6-4.4,12.6-4.1,26.1,4,21.9,4.32-10.65,1.37-6.6,1.58,26.7,0,26.7,0-19.65,1.4-29.1,1.4-18.86-.6-18.73,1.49S79,97.94,74,98.84s-7.13.74-13.46-1.49S37,94.66,32.87,93.84,44.45,92,44.45,92ZM200.51,65.81s-6.9,1.19-9.15,0-2.25-2.69-3.9-.75-3.9,5.08-6,1.28-6.6-4.41-12.6-4.11-26.1,4-21.9,4.32,10.65,1.37,6.6,1.58-26.7,0-26.7,0,19.65,1.4,29.1,1.4,18.87-.6,18.74,1.49-8.69.75-3.74,1.64,7.14.75,13.47-1.49,23.51-2.68,27.67-3.5S200.51,65.81,200.51,65.81Zm2.12,50.4s-6.9,1.19-9.15,0-2.25-2.68-3.9-.75-3.9,5.09-6,1.28-6.6-4.41-12.6-4.11-26.1,4-21.9,4.32,10.65,1.37,6.6,1.58-26.7,0-26.7,0,19.65,1.4,29.1,1.4,18.86-.59,18.73,1.49-8.68.75-3.73,1.64,7.13.75,13.47-1.49,23.51-2.68,27.67-3.5-11.59-1.86-11.59-1.86ZM107,115.11c-1.17,0-2.11.58-2.11,1.29s.94,1.29,2.11,1.29,2.11-.58,2.11-1.29S108.15,115.11,107,115.11ZM92.53,31.5c0,.71-.94,1.29-2.11,1.29s-2.11-.58-2.11-1.29.94-1.29,2.11-1.29S92.53,30.79,92.53,31.5ZM59.2,52.63c0,.37-.49.67-1.1.67S57,53,57,52.63s.5-.67,1.1-.67S59.2,52.26,59.2,52.63ZM75,67.17c0,.37-.49.67-1.1.67s-1.1-.3-1.1-.67.5-.68,1.1-.68S75,66.79,75,67.17Zm107.21,2.67c0,.37-.5.67-1.11.67s-1.1-.3-1.1-.67.5-.67,1.1-.67,1.15.3,1.15.67ZM171.14,47.55c0,.37-.5.67-1.1.67s-1.11-.3-1.11-.67.5-.67,1.11-.67S171.14,47.18,171.14,47.55ZM17.62,147.3c0,.37-.49.67-1.1.67s-1.1-.3-1.1-.67.49-.67,1.1-.67S17.62,146.93,17.62,147.3Zm81.66-7.69c0,.37-.49.67-1.1.67s-1.1-.3-1.1-.67.49-.67,1.1-.67S99.28,139.24,99.28,139.61ZM104,60.49c0,.37-.49.67-1.1.67s-1.1-.3-1.1-.67.5-.67,1.1-.67S104,60.12,104,60.49Zm61.94,68.6c0,.37-.49.68-1.1.68s-1.1-.31-1.1-.68.49-.67,1.1-.67,1.09.3,1.09.67ZM22.47,34.75c0,.37-.49.67-1.1.67s-1.1-.3-1.1-.67.49-.67,1.1-.67S22.47,34.38,22.47,34.75ZM61.92,54c0,.23-.31.42-.69.42s-.69-.19-.69-.42.31-.42.69-.42S61.92,53.74,61.92,54Zm49,30c0,.37-.49.67-1.1.67s-1.1-.3-1.1-.67.49-.67,1.1-.67,1.09.29,1.09.67Zm66.32-9.73c0,.37-.49.67-1.1.67s-1.1-.3-1.1-.67.49-.67,1.1-.67,1.09.29,1.09.66Zm-63.6,11.07c0,.24-.31.42-.69.42s-.69-.18-.69-.42.31-.42.69-.42.68.18.68.41ZM12.7,131.15c0,.37-.49.67-1.1.67s-1.1-.3-1.1-.67.49-.67,1.1-.67S12.7,130.78,12.7,131.15Zm2.72,1.35c0,.23-.31.42-.69.42s-.69-.19-.69-.42.31-.43.69-.43S15.42,132.26,15.42,132.5Zm146.69,14.13c0,.37-.49.67-1.1.67s-1.1-.3-1.1-.67.49-.67,1.1-.67S162.11,146.26,162.11,146.63Zm2.72,1.34c0,.23-.31.42-.69.42s-.69-.19-.69-.42.31-.42.69-.42.69.19.69.45ZM21,38.84c0,.24-.31.43-.69.43s-.69-.19-.69-.43.31-.42.69-.42S21,38.61,21,38.84Z"/>
        <g>
          <path class="cls-8" d="M76.61,125.06l9.31-13.85-10.06,13.4C74.42,126.8,75.17,127.24,76.61,125.06Z"/>
          <path class="cls-8" d="M89.86,67.58l9.31-13.85L89.11,67.13C87.67,69.32,88.42,69.75,89.86,67.58Z"/>
          <path class="cls-8" d="M56.8,130.37c1.26-1.9,11.86-17.65,11.86-17.65L55.84,129.8C54,132.59,55,133.14,56.8,130.37Z"/>
          <path class="cls-8" d="M56.8,77.71c1.26-1.9,11.86-17.65,11.86-17.65L55.84,77.14C54,79.93,55,80.48,56.8,77.71Z"/>
        </g>
      </g>
    </g>
  </g>
  <g class="cls-9">
    <text class="cls-10" transform="translate(95.36 216.72)">M</text>
    <text class="cls-11" transform="translate(106.52 216.72)">O</text>
    <text class="cls-10" transform="translate(113.26 216.72)">ON</text>
  </g>
</svg>
