<svg id="base" xmlns="http://www.w3.org/2000/svg" viewBox="0 0 225 400">
  <defs>
    <style>
      .cls-1 {
        font-size: 14.41px;
        fill: #231815;
        font-family: MarkerFelt-Thin, Marker Felt;
        font-weight: 200;
      }

      .cls-2 {
        letter-spacing: 0.04em;
      }

      .cls-3 {
        letter-spacing: 0.05em;
      }

      .cls-4 {
        letter-spacing: 0.06em;
      }

      .cls-5 {
        letter-spacing: 0.04em;
      }

      .cls-6 {
        letter-spacing: 0.08em;
      }

      .cls-7 {
        letter-spacing: 0em;
      }

      .cls-8 {
        letter-spacing: 0.04em;
      }

      .cls-9 {
        letter-spacing: 0em;
      }

      .cls-10 {
        letter-spacing: 0.05em;
      }

      .cls-11 {
        letter-spacing: 0.04em;
      }

      .cls-12 {
        letter-spacing: 0.03em;
      }

      .cls-13 {
        letter-spacing: 0em;
      }

      .cls-14 {
        letter-spacing: 0.05em;
      }

      .cls-15 {
        letter-spacing: 0.03em;
      }

      .cls-16 {
        letter-spacing: 0.07em;
      }

      .cls-17 {
        letter-spacing: 0.05em;
      }

      .cls-18 {
        letter-spacing: 0.03em;
      }

      .cls-19 {
        letter-spacing: 0.07em;
      }

      .cls-20 {
        letter-spacing: 0.03em;
      }

      .cls-21 {
        letter-spacing: 0.04em;
      }

      .cls-22 {
        letter-spacing: 0.04em;
      }

      .cls-23 {
        letter-spacing: 0.03em;
      }

      .cls-24 {
        letter-spacing: 0.03em;
      }

      .cls-25 {
        letter-spacing: 0.03em;
      }

      .cls-26 {
        letter-spacing: 0.08em;
      }

      .cls-27 {
        letter-spacing: 0.06em;
      }

      .cls-28 {
        letter-spacing: 0.03em;
      }

      .cls-29 {
        letter-spacing: 0.05em;
      }

      .cls-30 {
        letter-spacing: 0.06em;
      }

      .cls-31 {
        letter-spacing: 0.05em;
      }

      .cls-32 {
        letter-spacing: 0.02em;
      }

      .cls-33 {
        letter-spacing: 0.06em;
      }

      .cls-34 {
        letter-spacing: 0.08em;
      }

      .cls-35 {
        letter-spacing: 0.06em;
      }

      .cls-36 {
        letter-spacing: 0.04em;
      }

      .cls-37 {
        letter-spacing: 0.03em;
      }

      .cls-38 {
        letter-spacing: 0.04em;
      }

      .cls-39 {
        letter-spacing: 0.1em;
      }

      .cls-40 {
        letter-spacing: 0.02em;
      }

      .cls-41 {
        letter-spacing: 0.06em;
      }

      .cls-42 {
        letter-spacing: 0.03em;
      }

      .cls-43 {
        letter-spacing: 0.03em;
      }

      .cls-44 {
        letter-spacing: 0.04em;
      }

      .cls-45 {
        letter-spacing: 0.09em;
      }

      .cls-46 {
        letter-spacing: 0.06em;
      }

      .cls-47 {
        letter-spacing: 0.04em;
      }

      .cls-48 {
        letter-spacing: 0.09em;
      }

      .cls-49 {
        letter-spacing: 0.04em;
      }

      .cls-50 {
        letter-spacing: 0.05em;
      }

      .cls-51 {
        letter-spacing: 0.05em;
      }

      .cls-52 {
        letter-spacing: 0.08em;
      }

      .cls-53 {
        letter-spacing: 0.05em;
      }

      .cls-54 {
        letter-spacing: 0.04em;
      }

      .cls-55 {
        letter-spacing: 0.04em;
      }

      .cls-56 {
        letter-spacing: 0.05em;
      }

      .cls-57 {
        letter-spacing: 0.08em;
      }

      .cls-58 {
        letter-spacing: 0.06em;
      }

      .cls-59 {
        letter-spacing: 0.07em;
      }

      .cls-60 {
        letter-spacing: 0.09em;
      }

      .cls-61 {
        letter-spacing: -0.09em;
      }

      .cls-62 {
        letter-spacing: 0.06em;
      }

      .cls-63 {
        letter-spacing: 0.04em;
      }

      .cls-64 {
        letter-spacing: 0.04em;
      }

      .cls-65 {
        letter-spacing: 0.03em;
      }

      .cls-66 {
        letter-spacing: 0.04em;
      }

      .cls-67 {
        letter-spacing: 0.04em;
      }

      .cls-68 {
        letter-spacing: 0.05em;
      }

      .cls-69 {
        letter-spacing: 0em;
      }

      .cls-70 {
        letter-spacing: 0.05em;
      }

      .cls-71 {
        letter-spacing: 0.05em;
      }

      .cls-72 {
        letter-spacing: 0.05em;
      }

      .cls-73 {
        letter-spacing: 0.05em;
      }

      .cls-74 {
        letter-spacing: 0.04em;
      }

      .cls-75 {
        letter-spacing: 0.07em;
      }

      .cls-76 {
        letter-spacing: 0.04em;
      }

      .cls-77 {
        letter-spacing: 0.07em;
      }

      .cls-78 {
        letter-spacing: 0.03em;
      }

      .cls-79 {
        letter-spacing: 0.03em;
      }

      .cls-80 {
        letter-spacing: 0.05em;
      }

      .cls-81 {
        letter-spacing: 0.03em;
      }

      .cls-82 {
        letter-spacing: 0.03em;
      }

      .cls-83 {
        letter-spacing: 0.03em;
      }

      .cls-84 {
        letter-spacing: 0.03em;
      }

      .cls-85 {
        letter-spacing: 0.09em;
      }

      .cls-86 {
        letter-spacing: 0.02em;
      }

      .cls-87 {
        letter-spacing: 0.03em;
      }

      .cls-88 {
        letter-spacing: 0.08em;
      }

      .cls-89 {
        letter-spacing: 0.07em;
      }

      .cls-90 {
        letter-spacing: 0.04em;
      }

      .cls-91 {
        letter-spacing: 0.04em;
      }

      .cls-92 {
        letter-spacing: 0.08em;
      }

      .cls-93 {
        letter-spacing: -0.08em;
      }

      .cls-94 {
        letter-spacing: 0.04em;
      }

      .cls-95 {
        letter-spacing: 0.08em;
      }

      .cls-96 {
        letter-spacing: 0.05em;
      }

      .cls-97 {
        letter-spacing: 0.02em;
      }

      .cls-98 {
        letter-spacing: 0.03em;
      }

      .cls-99 {
        letter-spacing: 0.07em;
      }

      .cls-100 {
        letter-spacing: 0.07em;
      }

      .cls-101 {
        letter-spacing: 0.06em;
      }

      .cls-102 {
        letter-spacing: 0.03em;
      }

      .cls-103 {
        letter-spacing: 0.04em;
      }

      .cls-104 {
        letter-spacing: 0.06em;
      }

      .cls-105 {
        letter-spacing: 0.08em;
      }

      .cls-106 {
        letter-spacing: 0.04em;
      }

      .cls-107 {
        letter-spacing: 0.06em;
      }

      .cls-108 {
        letter-spacing: 0.03em;
      }

      .cls-109 {
        letter-spacing: 0.03em;
      }

      .cls-110 {
        letter-spacing: 0.06em;
      }

      .cls-111 {
        letter-spacing: 0.06em;
      }

      .cls-112 {
        letter-spacing: 0.04em;
      }

      .cls-113 {
        letter-spacing: 0.07em;
      }

      .cls-114 {
        letter-spacing: 0.08em;
      }

      .cls-115 {
        letter-spacing: 0.06em;
      }

      .cls-116 {
        letter-spacing: 0.05em;
      }

      .cls-117 {
        letter-spacing: 0.05em;
      }

      .cls-118 {
        letter-spacing: 0.08em;
      }

      .cls-119 {
        letter-spacing: 0.03em;
      }

      .cls-120 {
        letter-spacing: 0.06em;
      }

      .cls-121 {
        letter-spacing: 0.05em;
      }

      .cls-122 {
        letter-spacing: 0.04em;
      }

      .cls-123 {
        letter-spacing: 0.08em;
      }

      .cls-124 {
        letter-spacing: 0.04em;
      }

      .cls-125 {
        letter-spacing: 0.03em;
      }

      .cls-126 {
        letter-spacing: 0.05em;
      }

      .cls-127 {
        letter-spacing: -0.18em;
      }

      .cls-128 {
        letter-spacing: -0.03em;
      }

      .cls-129 {
        letter-spacing: 0.05em;
      }
    </style>
  </defs>
  <title>画板 1</title>
  <text class="cls-1" transform="translate(17.6 64.09)">T<tspan class="cls-2" x="6.92" y="0">h</tspan><tspan x="14.32" y="0">e </tspan><tspan class="cls-3" x="23.4" y="0">t</tspan><tspan class="cls-2" x="29.38" y="0">h</tspan><tspan class="cls-4" x="36.79" y="0">e</tspan><tspan class="cls-5" x="43.17" y="0">o</tspan><tspan class="cls-6" x="49.64" y="0">r</tspan><tspan class="cls-7" x="56.33" y="0">y </tspan><tspan class="cls-8" x="66.71" y="0">o</tspan><tspan class="cls-9" x="73.25" y="0">f </tspan><tspan class="cls-10" x="82.04" y="0">c</tspan><tspan class="cls-2" x="88.19" y="0">o</tspan><tspan x="94.73" y="0">s</tspan><tspan class="cls-11" x="100.07" y="0">m</tspan><tspan class="cls-12" x="110.99" y="0">i</tspan><tspan class="cls-13" x="114.26" y="0">c </tspan><tspan class="cls-14" x="123.34" y="0">i</tspan><tspan class="cls-15" x="126.91" y="0">n</tspan><tspan class="cls-16" x="134.45" y="0">f</tspan><tspan class="cls-17" x="140.68" y="0">l</tspan><tspan class="cls-18" x="144.22" y="0">a</tspan><tspan class="cls-19" x="151.27" y="0">t</tspan><tspan class="cls-20" x="157.45" y="0">i</tspan><tspan class="cls-21" x="160.79" y="0">o</tspan><tspan x="167.32" y="0">n </tspan><tspan class="cls-22" x="0" y="17.29">s</tspan><tspan class="cls-23" x="5.92" y="17.29">u</tspan><tspan class="cls-24" x="12.23" y="17.29">g</tspan><tspan class="cls-25" x="18.76" y="17.29">g</tspan><tspan class="cls-26" x="25.25" y="17.29">e</tspan><tspan class="cls-27" x="31.82" y="17.29">s</tspan><tspan class="cls-28" x="38.07" y="17.29">t</tspan><tspan x="43.75" y="17.29">s </tspan><tspan class="cls-29" x="52.69" y="17.29">t</tspan><tspan class="cls-30" x="58.67" y="17.29">h</tspan><tspan class="cls-18" x="66.29" y="17.29">a</tspan><tspan x="73.34" y="17.29">t </tspan><tspan class="cls-31" x="82.13" y="17.29">i</tspan><tspan class="cls-7" x="85.7" y="17.29">n </tspan><tspan class="cls-3" x="96.36" y="17.29">t</tspan><tspan class="cls-8" x="102.34" y="17.29">h</tspan><tspan x="109.75" y="17.29">e </tspan><tspan class="cls-32" x="118.83" y="17.29">v</tspan><tspan class="cls-33" x="125.47" y="17.29">e</tspan><tspan class="cls-34" x="131.81" y="17.29">r</tspan><tspan x="138.5" y="17.29">y </tspan><tspan class="cls-18" x="148.88" y="17.29">s</tspan><tspan class="cls-35" x="154.63" y="17.29">h</tspan><tspan class="cls-36" x="162.21" y="17.29">o</tspan><tspan class="cls-37" x="168.68" y="17.29">r</tspan><tspan x="174.58" y="17.29">t </tspan><tspan class="cls-19" x="0" y="34.59">t</tspan><tspan class="cls-38" x="6.18" y="34.59">i</tspan><tspan class="cls-9" x="9.58" y="34.59">me a</tspan><tspan class="cls-39" x="35.67" y="34.59">f</tspan><tspan class="cls-40" x="42.25" y="34.59">t</tspan><tspan class="cls-41" x="47.74" y="34.59">e</tspan><tspan x="54.08" y="34.59">r </tspan><tspan class="cls-3" x="63.16" y="34.59">t</tspan><tspan class="cls-2" x="69.14" y="34.59">h</tspan><tspan x="76.55" y="34.59">e </tspan><tspan class="cls-42" x="85.63" y="34.59">B</tspan><tspan class="cls-43" x="93.08" y="34.59">i</tspan><tspan class="cls-7" x="96.33" y="34.59">g B</tspan><tspan class="cls-44" x="113.05" y="34.59">a</tspan><tspan class="cls-37" x="120.24" y="34.59">n</tspan><tspan class="cls-45" x="127.74" y="34.59">g</tspan><tspan x="135.04" y="34.59">, </tspan><tspan class="cls-46" x="141.38" y="34.59">t</tspan><tspan class="cls-2" x="147.36" y="34.59">h</tspan><tspan x="154.77" y="34.59">e </tspan><tspan class="cls-5" x="0" y="51.88">u</tspan><tspan class="cls-47" x="6.47" y="51.88">n</tspan><tspan class="cls-48" x="14.11" y="51.88">i</tspan><tspan class="cls-40" x="18.24" y="51.88">v</tspan><tspan class="cls-41" x="24.89" y="51.88">e</tspan><tspan x="31.23" y="51.88">r</tspan><tspan class="cls-49" x="36.7" y="51.88">s</tspan><tspan x="42.54" y="51.88">e </tspan><tspan class="cls-50" x="51.62" y="51.88">w</tspan><tspan class="cls-31" x="62.73" y="51.88">i</tspan><tspan class="cls-51" x="66.3" y="51.88">l</tspan><tspan class="cls-9" x="69.91" y="51.88">l </tspan><tspan class="cls-52" x="76.39" y="51.88">e</tspan><tspan class="cls-53" x="83.02" y="51.88">x</tspan><tspan class="cls-54" x="89.71" y="51.88">p</tspan><tspan class="cls-36" x="96.55" y="51.88">a</tspan><tspan class="cls-55" x="103.74" y="51.88">n</tspan><tspan class="cls-13" x="111.34" y="51.88">d </tspan><tspan class="cls-56" x="121.14" y="51.88">f</tspan><tspan class="cls-44" x="127.06" y="51.88">o</tspan><tspan class="cls-13" x="133.53" y="51.88">r </tspan><tspan class="cls-44" x="142.61" y="51.88">a</tspan><tspan x="149.8" y="51.88">n </tspan><tspan class="cls-57" x="0" y="69.17">e</tspan><tspan class="cls-32" x="6.67" y="69.17">t</tspan><tspan class="cls-58" x="12.16" y="69.17">er</tspan><tspan class="cls-47" x="24.84" y="69.17">n</tspan><tspan class="cls-59" x="32.48" y="69.17">i</tspan><tspan class="cls-60" x="36.31" y="69.17">t</tspan><tspan class="cls-61" x="42.84" y="69.17">y</tspan><tspan x="48.38" y="69.17">, </tspan><tspan class="cls-62" x="54.72" y="69.17">s</tspan><tspan class="cls-63" x="60.97" y="69.17">t</tspan><tspan class="cls-24" x="66.76" y="69.17">o</tspan><tspan class="cls-9" x="73.15" y="69.17">p</tspan><tspan class="cls-64" x="79.34" y="69.17">p</tspan><tspan class="cls-31" x="86.07" y="69.17">i</tspan><tspan class="cls-65" x="89.65" y="69.17">n</tspan><tspan x="97.14" y="69.17">g </tspan><tspan class="cls-66" x="106.8" y="69.17">o</tspan><tspan class="cls-67" x="113.32" y="69.17">n</tspan><tspan class="cls-68" x="121.03" y="69.17">l</tspan><tspan x="124.68" y="69.17">y </tspan><tspan class="cls-14" x="135.06" y="69.17">i</tspan><tspan class="cls-69" x="138.63" y="69.17">n a s</tspan><tspan class="cls-70" x="164.86" y="69.17">m</tspan><tspan class="cls-71" x="175.95" y="69.17">a</tspan><tspan class="cls-72" x="183.26" y="69.17">l</tspan><tspan x="186.86" y="69.17">l </tspan><tspan class="cls-22" x="0" y="86.47">a</tspan><tspan x="7.22" y="86.47">r</tspan><tspan class="cls-6" x="12.7" y="86.47">e</tspan><tspan x="19.38" y="86.47">a </tspan><tspan class="cls-5" x="29.61" y="86.47">a</tspan><tspan class="cls-64" x="36.8" y="86.47">n</tspan><tspan x="44.4" y="86.47">d </tspan><tspan class="cls-73" x="54.2" y="86.47">f</tspan><tspan class="cls-5" x="60.12" y="86.47">o</tspan><tspan class="cls-50" x="66.59" y="86.47">r</tspan><tspan class="cls-74" x="72.8" y="86.47">m</tspan><tspan class="cls-31" x="83.73" y="86.47">i</tspan><tspan class="cls-25" x="87.3" y="86.47">n</tspan><tspan class="cls-9" x="94.79" y="86.47">g </tspan><tspan class="cls-44" x="104.45" y="86.47">a</tspan><tspan x="111.64" y="86.47">n </tspan><tspan class="cls-31" x="122.3" y="86.47">i</tspan><tspan class="cls-24" x="125.88" y="86.47">n</tspan><tspan class="cls-75" x="133.41" y="86.47">f</tspan><tspan class="cls-14" x="139.67" y="86.47">i</tspan><tspan class="cls-76" x="143.24" y="86.47">n</tspan><tspan class="cls-77" x="150.88" y="86.47">i</tspan><tspan class="cls-32" x="154.71" y="86.47">t</tspan><tspan x="160.2" y="86.47">e </tspan><tspan class="cls-78" x="0" y="103.76">n</tspan><tspan class="cls-79" x="7.52" y="103.76">u</tspan><tspan class="cls-80" x="13.79" y="103.76">m</tspan><tspan class="cls-55" x="24.83" y="103.76">b</tspan><tspan class="cls-41" x="31.56" y="103.76">e</tspan><tspan x="37.9" y="103.76">r </tspan><tspan class="cls-8" x="46.98" y="103.76">o</tspan><tspan x="53.52" y="103.76">f </tspan><tspan class="cls-2" x="62.31" y="103.76">b</tspan><tspan class="cls-81" x="69.14" y="103.76">u</tspan><tspan x="75.45" y="103.76">b</tspan><tspan class="cls-23" x="81.65" y="103.76">b</tspan><tspan class="cls-43" x="88.25" y="103.76">l</tspan><tspan class="cls-82" x="91.51" y="103.76">e</tspan><tspan class="cls-83" x="97.46" y="103.76">-</tspan><tspan class="cls-84" x="103.17" y="103.76">l</tspan><tspan class="cls-66" x="106.54" y="103.76">ik</tspan><tspan x="117.58" y="103.76">e </tspan><tspan class="cls-36" x="126.65" y="103.76">u</tspan><tspan class="cls-76" x="133.13" y="103.76">n</tspan><tspan class="cls-85" x="140.76" y="103.76">i</tspan><tspan class="cls-86" x="144.9" y="103.76">v</tspan><tspan class="cls-33" x="151.54" y="103.76">e</tspan><tspan class="cls-13" x="157.88" y="103.76">r</tspan><tspan class="cls-87" x="163.36" y="103.76">s</tspan><tspan class="cls-88" x="169.19" y="103.76">e</tspan><tspan class="cls-66" x="175.77" y="103.76">s</tspan><tspan class="cls-69" x="181.72" y="103.76">. </tspan><tspan x="0" y="121.05">T</tspan><tspan class="cls-2" x="6.92" y="121.05">h</tspan><tspan x="14.32" y="121.05">e </tspan><tspan class="cls-72" x="23.4" y="121.05">h</tspan><tspan class="cls-79" x="30.9" y="121.05">u</tspan><tspan class="cls-51" x="37.17" y="121.05">m</tspan><tspan class="cls-44" x="48.26" y="121.05">a</tspan><tspan class="cls-7" x="55.45" y="121.05">n </tspan><tspan class="cls-89" x="66.12" y="121.05">v</tspan><tspan class="cls-28" x="73.48" y="121.05">i</tspan><tspan class="cls-90" x="76.85" y="121.05">si</tspan><tspan class="cls-23" x="86.25" y="121.05">b</tspan><tspan class="cls-43" x="92.85" y="121.05">l</tspan><tspan class="cls-7" x="96.1" y="121.05">e </tspan><tspan class="cls-44" x="105.18" y="121.05">u</tspan><tspan class="cls-76" x="111.65" y="121.05">n</tspan><tspan class="cls-85" x="119.29" y="121.05">i</tspan><tspan class="cls-32" x="123.43" y="121.05">v</tspan><tspan class="cls-33" x="130.07" y="121.05">e</tspan><tspan x="136.41" y="121.05">r</tspan><tspan class="cls-91" x="141.89" y="121.05">s</tspan><tspan x="147.72" y="121.05">e </tspan><tspan class="cls-84" x="156.8" y="121.05">i</tspan><tspan x="160.17" y="121.05">s </tspan><tspan class="cls-21" x="169.11" y="121.05">o</tspan><tspan class="cls-12" x="175.64" y="121.05">n</tspan><tspan class="cls-13" x="183.09" y="121.05">e </tspan><tspan class="cls-8" x="0" y="138.35">o</tspan><tspan class="cls-9" x="6.54" y="138.35">f </tspan><tspan class="cls-29" x="15.33" y="138.35">t</tspan><tspan class="cls-8" x="21.31" y="138.35">h</tspan><tspan class="cls-92" x="28.72" y="138.35">e</tspan><tspan class="cls-49" x="35.29" y="138.35">s</tspan><tspan x="41.13" y="138.35">e </tspan><tspan class="cls-82" x="50.21" y="138.35">&quot;</tspan><tspan class="cls-2" x="55.15" y="138.35">b</tspan><tspan class="cls-81" x="61.98" y="138.35">u</tspan><tspan x="68.29" y="138.35">b</tspan><tspan class="cls-23" x="74.49" y="138.35">b</tspan><tspan class="cls-83" x="81.09" y="138.35">l</tspan><tspan class="cls-92" x="84.35" y="138.35">e</tspan><tspan class="cls-93" x="90.92" y="138.35">s</tspan><tspan x="95.14" y="138.35">&quot; </tspan><tspan class="cls-14" x="103.21" y="138.35">i</tspan><tspan x="106.78" y="138.35">n </tspan><tspan class="cls-46" x="117.45" y="138.35">t</tspan><tspan class="cls-94" x="123.43" y="138.35">h</tspan><tspan class="cls-13" x="130.83" y="138.35">e </tspan><tspan class="cls-95" x="0" y="155.64">e</tspan><tspan class="cls-96" x="6.63" y="155.64">x</tspan><tspan class="cls-67" x="13.31" y="155.64">p</tspan><tspan class="cls-5" x="20.16" y="155.64">a</tspan><tspan class="cls-64" x="27.35" y="155.64">n</tspan><tspan class="cls-97" x="34.95" y="155.64">d</tspan><tspan class="cls-31" x="41.5" y="155.64">i</tspan><tspan class="cls-25" x="45.08" y="155.64">n</tspan><tspan x="52.57" y="155.64">g </tspan><tspan class="cls-98" x="62.23" y="155.64">s</tspan><tspan class="cls-67" x="68" y="155.64">p</tspan><tspan class="cls-83" x="74.85" y="155.64">a</tspan><tspan class="cls-38" x="81.85" y="155.64">c</tspan><tspan class="cls-24" x="87.85" y="155.64">e</tspan><tspan class="cls-44" x="93.8" y="155.64">-</tspan><tspan class="cls-99" x="99.69" y="155.64">t</tspan><tspan class="cls-38" x="105.87" y="155.64">i</tspan><tspan x="109.27" y="155.64">m</tspan><tspan class="cls-100" x="119.65" y="155.64">e</tspan><tspan class="cls-69" x="126.11" y="155.64">. &quot;</tspan><tspan x="0" y="172.93">T</tspan><tspan class="cls-2" x="6.92" y="172.93">h</tspan><tspan x="14.32" y="172.93">e </tspan><tspan class="cls-10" x="23.4" y="172.93">c</tspan><tspan class="cls-66" x="29.56" y="172.93">o</tspan><tspan class="cls-72" x="36.08" y="172.93">n</tspan><tspan class="cls-40" x="43.87" y="172.93">v</tspan><tspan class="cls-62" x="50.51" y="172.93">e</tspan><tspan class="cls-101" x="56.91" y="172.93">n</tspan><tspan class="cls-19" x="64.8" y="172.93">t</tspan><tspan class="cls-102" x="70.99" y="172.93">i</tspan><tspan class="cls-103" x="74.33" y="172.93">o</tspan><tspan class="cls-30" x="80.86" y="172.93">n</tspan><tspan class="cls-10" x="88.77" y="172.93">a</tspan><tspan class="cls-9" x="96.08" y="172.93">l </tspan><tspan class="cls-3" x="102.56" y="172.93">t</tspan><tspan class="cls-2" x="108.54" y="172.93">h</tspan><tspan class="cls-104" x="115.95" y="172.93">e</tspan><tspan class="cls-44" x="122.33" y="172.93">o</tspan><tspan class="cls-105" x="128.8" y="172.93">r</tspan><tspan class="cls-69" x="135.49" y="172.93">y </tspan><tspan class="cls-106" x="145.86" y="172.93">o</tspan><tspan x="152.41" y="172.93">f </tspan><tspan class="cls-57" x="0" y="190.23">e</tspan><tspan class="cls-32" x="6.67" y="190.23">t</tspan><tspan class="cls-58" x="12.16" y="190.23">er</tspan><tspan class="cls-107" x="24.84" y="190.23">n</tspan><tspan class="cls-10" x="32.76" y="190.23">a</tspan><tspan class="cls-9" x="40.06" y="190.23">l </tspan><tspan class="cls-95" x="46.55" y="190.23">e</tspan><tspan class="cls-96" x="53.18" y="190.23">x</tspan><tspan class="cls-67" x="59.86" y="190.23">p</tspan><tspan class="cls-5" x="66.71" y="190.23">a</tspan><tspan class="cls-47" x="73.9" y="190.23">n</tspan><tspan class="cls-90" x="81.54" y="190.23">s</tspan><tspan class="cls-102" x="87.46" y="190.23">i</tspan><tspan class="cls-103" x="90.8" y="190.23">o</tspan><tspan class="cls-7" x="97.33" y="190.23">n </tspan><tspan class="cls-108" x="107.99" y="190.23">p</tspan><tspan x="114.67" y="190.23">r</tspan><tspan class="cls-104" x="120.14" y="190.23">e</tspan><tspan class="cls-79" x="126.52" y="190.23">d</tspan><tspan class="cls-109" x="133.08" y="190.23">i</tspan><tspan class="cls-110" x="136.35" y="190.23">c</tspan><tspan class="cls-84" x="142.64" y="190.23">t</tspan><tspan x="148.31" y="190.23">s </tspan><tspan class="cls-46" x="157.25" y="190.23">t</tspan><tspan class="cls-111" x="163.23" y="190.23">h</tspan><tspan class="cls-18" x="170.85" y="190.23">a</tspan><tspan x="177.9" y="190.23">t </tspan><tspan class="cls-3" x="0" y="207.52">t</tspan><tspan class="cls-2" x="5.98" y="207.52">h</tspan><tspan x="13.39" y="207.52">e </tspan><tspan class="cls-5" x="22.47" y="207.52">u</tspan><tspan class="cls-76" x="28.94" y="207.52">n</tspan><tspan class="cls-48" x="36.57" y="207.52">i</tspan><tspan class="cls-32" x="40.71" y="207.52">v</tspan><tspan class="cls-58" x="47.35" y="207.52">e</tspan><tspan x="53.69" y="207.52">r</tspan><tspan class="cls-49" x="59.17" y="207.52">s</tspan><tspan x="65.01" y="207.52">e </tspan><tspan class="cls-84" x="74.08" y="207.52">i</tspan><tspan x="77.46" y="207.52">s </tspan><tspan class="cls-5" x="86.39" y="207.52">a</tspan><tspan class="cls-7" x="93.58" y="207.52">n </tspan><tspan class="cls-31" x="104.25" y="207.52">i</tspan><tspan class="cls-24" x="107.82" y="207.52">n</tspan><tspan class="cls-75" x="115.36" y="207.52">f</tspan><tspan class="cls-14" x="121.61" y="207.52">i</tspan><tspan class="cls-112" x="125.19" y="207.52">n</tspan><tspan class="cls-113" x="132.82" y="207.52">i</tspan><tspan class="cls-32" x="136.66" y="207.52">t</tspan><tspan x="142.15" y="207.52">e </tspan><tspan class="cls-114" x="0" y="224.81">f</tspan><tspan class="cls-18" x="6.3" y="224.81">r</tspan><tspan class="cls-83" x="12.19" y="224.81">a</tspan><tspan class="cls-115" x="19.19" y="224.81">c</tspan><tspan class="cls-116" x="25.48" y="224.81">t</tspan><tspan class="cls-10" x="31.41" y="224.81">a</tspan><tspan class="cls-30" x="38.72" y="224.81">l</tspan><tspan x="42.45" y="224.81">, </tspan><tspan class="cls-50" x="48.79" y="224.81">w</tspan><tspan class="cls-59" x="59.9" y="224.81">i</tspan><tspan class="cls-3" x="63.74" y="224.81">t</tspan><tspan x="69.72" y="224.81">h </tspan><tspan class="cls-79" x="80.09" y="224.81">d</tspan><tspan class="cls-117" x="86.65" y="224.81">i</tspan><tspan class="cls-118" x="90.22" y="224.81">f</tspan><tspan class="cls-119" x="96.54" y="224.81">f</tspan><tspan class="cls-33" x="102.17" y="224.81">e</tspan><tspan x="108.51" y="224.81">r</tspan><tspan class="cls-120" x="113.99" y="224.81">e</tspan><tspan class="cls-101" x="120.39" y="224.81">n</tspan><tspan x="128.28" y="224.81">t </tspan><tspan class="cls-14" x="137.07" y="224.81">p</tspan><tspan class="cls-121" x="143.96" y="224.81">o</tspan><tspan class="cls-122" x="150.58" y="224.81">c</tspan><tspan class="cls-66" x="156.6" y="224.81">k</tspan><tspan class="cls-123" x="164.14" y="224.81">e</tspan><tspan class="cls-84" x="170.81" y="224.81">t</tspan><tspan x="176.49" y="224.81">s </tspan><tspan class="cls-8" x="0" y="242.11">o</tspan><tspan class="cls-9" x="6.54" y="242.11">f </tspan><tspan class="cls-5" x="15.33" y="242.11">u</tspan><tspan class="cls-76" x="21.8" y="242.11">n</tspan><tspan class="cls-48" x="29.44" y="242.11">i</tspan><tspan class="cls-40" x="33.58" y="242.11">v</tspan><tspan class="cls-41" x="40.22" y="242.11">e</tspan><tspan x="46.56" y="242.11">r</tspan><tspan class="cls-87" x="52.04" y="242.11">s</tspan><tspan class="cls-26" x="57.87" y="242.11">e</tspan><tspan x="64.44" y="242.11">s </tspan><tspan class="cls-47" x="73.38" y="242.11">e</tspan><tspan class="cls-80" x="79.43" y="242.11">m</tspan><tspan class="cls-64" x="90.47" y="242.11">b</tspan><tspan class="cls-4" x="97.2" y="242.11">e</tspan><tspan class="cls-9" x="103.58" y="242.11">dd</tspan><tspan class="cls-104" x="115.98" y="242.11">e</tspan><tspan class="cls-13" x="122.36" y="242.11">d </tspan><tspan class="cls-31" x="132.16" y="242.11">i</tspan><tspan x="135.73" y="242.11">n </tspan><tspan class="cls-36" x="146.4" y="242.11">a</tspan><tspan class="cls-69" x="153.59" y="242.11">n </tspan><tspan class="cls-121" x="0" y="259.4">o</tspan><tspan class="cls-124" x="6.61" y="259.4">c</tspan><tspan class="cls-6" x="12.61" y="259.4">e</tspan><tspan class="cls-5" x="19.3" y="259.4">a</tspan><tspan x="26.49" y="259.4">n </tspan><tspan class="cls-2" x="37.15" y="259.4">o</tspan><tspan x="43.69" y="259.4">f </tspan><tspan class="cls-95" x="52.48" y="259.4">e</tspan><tspan class="cls-53" x="59.11" y="259.4">x</tspan><tspan class="cls-54" x="65.8" y="259.4">p</tspan><tspan class="cls-5" x="72.64" y="259.4">a</tspan><tspan class="cls-47" x="79.83" y="259.4">n</tspan><tspan class="cls-22" x="87.47" y="259.4">s</tspan><tspan class="cls-125" x="93.4" y="259.4">i</tspan><tspan class="cls-66" x="96.74" y="259.4">o</tspan><tspan class="cls-126" x="103.27" y="259.4">n</tspan><tspan class="cls-127" x="111.09" y="259.4">.</tspan><tspan x="111.18" y="259.4">&quot;</tspan><tspan x="0" y="276.69" xml:space="preserve">        </tspan><tspan x="0" y="293.99" xml:space="preserve">                    - </tspan><tspan class="cls-128" x="80.99" y="293.99">S</tspan><tspan class="cls-40" x="87.63" y="293.99">t</tspan><tspan class="cls-53" x="93.12" y="293.99">e</tspan><tspan class="cls-12" x="99.38" y="293.99">p</tspan><tspan class="cls-2" x="105.96" y="293.99">h</tspan><tspan class="cls-120" x="113.37" y="293.99">e</tspan><tspan x="119.77" y="293.99">n </tspan><tspan class="cls-122" x="130.43" y="293.99">H</tspan><tspan class="cls-18" x="138.19" y="293.99">a</tspan><tspan class="cls-70" x="145.23" y="293.99">w</tspan><tspan class="cls-129" x="156.33" y="293.99">k</tspan><tspan class="cls-31" x="164" y="293.99">i</tspan><tspan class="cls-37" x="167.57" y="293.99">n</tspan><tspan x="175.06" y="293.99">g</tspan></text>
</svg>
