<svg id="base" xmlns="http://www.w3.org/2000/svg" viewBox="0 0 225 223.55">
  <defs>
    <style>
      .cls-1 {
        fill: #0f2949;
      }

      .cls-2 {
        fill: #083358;
      }

      .cls-3 {
        fill: #f7b677;
      }

      .cls-4 {
        fill: #040000;
      }

      .cls-4, .cls-70 {
        opacity: 0.1;
      }

      .cls-10, .cls-11, .cls-12, .cls-13, .cls-14, .cls-15, .cls-16, .cls-17, .cls-18, .cls-19, .cls-20, .cls-21, .cls-22, .cls-23, .cls-24, .cls-25, .cls-26, .cls-27, .cls-28, .cls-29, .cls-30, .cls-31, .cls-32, .cls-33, .cls-34, .cls-35, .cls-36, .cls-37, .cls-38, .cls-39, .cls-4, .cls-40, .cls-41, .cls-42, .cls-43, .cls-44, .cls-45, .cls-46, .cls-47, .cls-48, .cls-49, .cls-50, .cls-51, .cls-52, .cls-53, .cls-54, .cls-55, .cls-56, .cls-57, .cls-58, .cls-59, .cls-60, .cls-61, .cls-62, .cls-63, .cls-64, .cls-65, .cls-66, .cls-67, .cls-68, .cls-69, .cls-70 {
        isolation: isolate;
      }

      .cls-5 {
        fill: #eb5f53;
      }

      .cls-6 {
        fill: #d8d8d8;
      }

      .cls-10, .cls-11, .cls-12, .cls-13, .cls-14, .cls-15, .cls-16, .cls-17, .cls-18, .cls-19, .cls-20, .cls-21, .cls-22, .cls-23, .cls-24, .cls-25, .cls-26, .cls-27, .cls-28, .cls-29, .cls-30, .cls-31, .cls-32, .cls-33, .cls-34, .cls-35, .cls-36, .cls-37, .cls-38, .cls-39, .cls-40, .cls-41, .cls-42, .cls-43, .cls-44, .cls-45, .cls-46, .cls-47, .cls-48, .cls-49, .cls-50, .cls-51, .cls-52, .cls-53, .cls-54, .cls-55, .cls-56, .cls-57, .cls-58, .cls-59, .cls-60, .cls-61, .cls-62, .cls-63, .cls-64, .cls-65, .cls-66, .cls-67, .cls-68, .cls-69, .cls-7, .cls-70 {
        fill: #fff;
      }

      .cls-8 {
        fill: #f0f1f2;
      }

      .cls-9 {
        fill: #f2963d;
      }

      .cls-10 {
        opacity: 0.3;
      }

      .cls-11 {
        opacity: 0.6;
      }

      .cls-12 {
        opacity: 0.5;
      }

      .cls-13 {
        opacity: 0.7;
      }

      .cls-14 {
        opacity: 0.69;
      }

      .cls-15 {
        opacity: 0.68;
      }

      .cls-16 {
        opacity: 0.67;
      }

      .cls-17 {
        opacity: 0.66;
      }

      .cls-18 {
        opacity: 0.65;
      }

      .cls-19 {
        opacity: 0.64;
      }

      .cls-20 {
        opacity: 0.63;
      }

      .cls-21 {
        opacity: 0.62;
      }

      .cls-22 {
        opacity: 0.61;
      }

      .cls-23 {
        opacity: 0.59;
      }

      .cls-24 {
        opacity: 0.58;
      }

      .cls-25 {
        opacity: 0.57;
      }

      .cls-26 {
        opacity: 0.56;
      }

      .cls-27 {
        opacity: 0.55;
      }

      .cls-28 {
        opacity: 0.54;
      }

      .cls-29 {
        opacity: 0.53;
      }

      .cls-30 {
        opacity: 0.52;
      }

      .cls-31 {
        opacity: 0.51;
      }

      .cls-32 {
        opacity: 0.49;
      }

      .cls-33 {
        opacity: 0.48;
      }

      .cls-34 {
        opacity: 0.47;
      }

      .cls-35 {
        opacity: 0.46;
      }

      .cls-36 {
        opacity: 0.45;
      }

      .cls-37 {
        opacity: 0.44;
      }

      .cls-38 {
        opacity: 0.43;
      }

      .cls-39 {
        opacity: 0.42;
      }

      .cls-40 {
        opacity: 0.41;
      }

      .cls-41 {
        opacity: 0.4;
      }

      .cls-42 {
        opacity: 0.39;
      }

      .cls-43 {
        opacity: 0.38;
      }

      .cls-44 {
        opacity: 0.37;
      }

      .cls-45 {
        opacity: 0.36;
      }

      .cls-46 {
        opacity: 0.35;
      }

      .cls-47 {
        opacity: 0.34;
      }

      .cls-48 {
        opacity: 0.33;
      }

      .cls-49 {
        opacity: 0.32;
      }

      .cls-50 {
        opacity: 0.31;
      }

      .cls-51 {
        opacity: 0.29;
      }

      .cls-52 {
        opacity: 0.28;
      }

      .cls-53 {
        opacity: 0.27;
      }

      .cls-54 {
        opacity: 0.26;
      }

      .cls-55 {
        opacity: 0.25;
      }

      .cls-56 {
        opacity: 0.24;
      }

      .cls-57 {
        opacity: 0.23;
      }

      .cls-58 {
        opacity: 0.22;
      }

      .cls-59 {
        opacity: 0.21;
      }

      .cls-60 {
        opacity: 0.2;
      }

      .cls-61 {
        opacity: 0.19;
      }

      .cls-62 {
        opacity: 0.18;
      }

      .cls-63 {
        opacity: 0.17;
      }

      .cls-64 {
        opacity: 0.16;
      }

      .cls-65 {
        opacity: 0.15;
      }

      .cls-66 {
        opacity: 0.14;
      }

      .cls-67 {
        opacity: 0.13;
      }

      .cls-68 {
        opacity: 0.12;
      }

      .cls-69 {
        opacity: 0.11;
      }

      .cls-71 {
        fill: #f1f1f1;
      }

      #blue:hover {
  fill: DarkViolet !important;
}
#light_blue:hover {
  fill: Darkorange  !important;
}
#red:hover {
  fill: LightGreen  !important;
}
#orange:hover {
  fill: Crimson  !important;
}


#newBadge hover { cursor: pointer;}
    </style>
  </defs>
  <title>画板 1</title>
  <g id="Rocket_Launch" data-name="Rocket Launch">
    <g id="Background">
      <path id="blue" class="cls-1" d="M225.46,223.55H-.41V-.35H225.46Z"/>
      <path id="light_blue" data-name="light blue" class="cls-2" d="M187.62,111.16c0,41.11-33.62,74.44-75.1,74.44s-75.1-33.33-75.1-74.44,33.63-74.45,75.1-74.45S187.62,70,187.62,111.16Z"/>
    </g>
    <g id="Rocket_Launch-2" data-name="Rocket Launch-2">
      <g id="Moon">
        <path id="yellow" class="cls-3" d="M75.19,40.71a17.15,17.15,0,1,1-17.29-17H58a17.08,17.08,0,0,1,17.19,17Z"/>
        <path class="cls-4" d="M62.74,31.57c0,.65-.92,1.19-2.05,1.19s-2-.54-2-1.19.92-1.19,2-1.19S62.74,30.91,62.74,31.57Z"/>
        <path class="cls-4" d="M65.9,36.57c0,.65-.92,1.18-2.05,1.18s-2.05-.53-2.05-1.18.92-1.19,2.05-1.19S65.9,35.91,65.9,36.57Z"/>
        <path class="cls-4" d="M62.54,27.19c0,.66-.91,1.19-2,1.19s-2-.53-2-1.19.91-1.19,2-1.19S62.54,26.54,62.54,27.19Z"/>
        <path class="cls-4" d="M47.46,33.65a1.86,1.86,0,0,1,1,2.4,1.89,1.89,0,0,1-2.13,1.5,2.08,2.08,0,0,1,1.13-3.9Z"/>
        <path class="cls-4" d="M53.76,33.58a1.85,1.85,0,0,1,1,2.4,1.66,1.66,0,0,1-3.32-.15,1.77,1.77,0,0,1,.22-.75A1.87,1.87,0,0,1,53.76,33.58Z"/>
        <path class="cls-4" d="M52.7,26.43a1.84,1.84,0,0,1,1,2.4,1.65,1.65,0,1,1-3.29-.2,1.57,1.57,0,0,1,.2-.7A1.86,1.86,0,0,1,52.7,26.43Z"/>
        <path class="cls-4" d="M45.81,42.28a1.84,1.84,0,0,1,1,2.4,1.88,1.88,0,0,1-2.12,1.5,2.09,2.09,0,0,1,1.15-3.9Z"/>
        <path class="cls-4" d="M64.6,38.76a1.85,1.85,0,0,1,1,2.4,1.88,1.88,0,0,1-2.12,1.5,2.08,2.08,0,0,1,1.12-3.9Z"/>
        <path class="cls-4" d="M73.17,37.81a1.86,1.86,0,0,1,1,2.4A1.89,1.89,0,0,1,72,41.71a2.09,2.09,0,0,1,1.15-3.9Z"/>
        <path class="cls-4" d="M68.55,49.56a1.86,1.86,0,0,1,1,2.4,1.89,1.89,0,0,1-2.13,1.5,2.09,2.09,0,0,1,1.15-3.9Z"/>
        <path class="cls-4" d="M68.55,29.36a1.84,1.84,0,0,1,1,2.4,1.65,1.65,0,1,1-1-2.4Z"/>
        <path class="cls-4" d="M55.41,51.39a1.84,1.84,0,0,1,1,2.39,1.87,1.87,0,0,1-2.12,1.5,2.07,2.07,0,0,1,1.12-3.89Z"/>
        <path class="cls-4" d="M51.45,42.69c.32-.22.88.05,1.26.59s.41,1.16.09,1.38-.88,0-1.26-.6S51.13,42.91,51.45,42.69Z"/>
        <path class="cls-4" d="M67.19,43c.36.13.46.74.22,1.35s-.73,1-1.09.86-.46-.75-.22-1.36S66.83,42.85,67.19,43Z"/>
        <path class="cls-4" d="M72.16,46c.36.14.46.75.22,1.36s-.72,1-1.08.86-.46-.75-.23-1.36S71.8,45.83,72.16,46Z"/>
      </g>
      <g id="Rocket">
        <path id="red" class="cls-5" d="M122,69.91V135l-12.39,1.33L97.25,135V69.91s.67-13.28,2.35-23.57S109.65,36,109.65,36s8.37,0,10,10.3S122,69.91,122,69.91Z"/>
        <path class="cls-6" d="M98.3,159.23a5.65,5.65,0,0,1-5.67,5.63h0a5.67,5.67,0,0,1-5.68-5.63V64.91a5.67,5.67,0,0,1,5.68-5.63h0A5.65,5.65,0,0,1,98.3,64.9h0Z"/>
        <path class="cls-6" d="M132.13,159.23a5.65,5.65,0,0,1-5.67,5.63h0a5.67,5.67,0,0,1-5.68-5.63V64.91a5.67,5.67,0,0,1,5.68-5.63h0a5.65,5.65,0,0,1,5.68,5.62h0Z"/>
        <g>
          <path class="cls-7" d="M115.27,82.55s2.82-.59,3.57,5.31-.28,18.45,2.09,21.7,9.37,8.41,9.52,19.77l-15.18,5.9-1.64-6Z"/>
          <path class="cls-5" d="M130.37,127.65H113.68l-.05,1.53,1.64,6,15.18-5.9C130.44,128.75,130.41,128.2,130.37,127.65Z"/>
        </g>
        <g>
          <path class="cls-7" d="M104,82.55s-2.83-.59-3.58,5.31.29,18.45-2.09,21.7S89,118,88.84,129.33l15.19,5.9,1.64-6Z"/>
          <path class="cls-5" d="M88.92,127.65h16.69l.06,1.53-1.64,6-15.19-5.9C88.85,128.75,88.88,128.2,88.92,127.65Z"/>
        </g>
        <path class="cls-6" d="M115.33,126V78.84a5.68,5.68,0,1,0-11.36,0V126Z"/>
        <path class="cls-8" d="M119.53,139.84v-6.59a9.89,9.89,0,0,0-19.77,0v6.59Z"/>
        <polygon class="cls-5" points="99.97 167.5 85.28 167.5 86.94 157.32 98.3 157.32 99.97 167.5"/>
        <polygon class="cls-5" points="133.8 167.5 119.1 167.5 120.77 157.32 132.13 157.32 133.8 167.5"/>
        <path class="cls-9" d="M109.65,78.75a4,4,0,0,1,3.9,2.29,2.06,2.06,0,0,0,.12-.7c0-1.65-1.8-3-4-3s-4,1.33-4,3a2.06,2.06,0,0,0,.12.7A4,4,0,0,1,109.65,78.75Z"/>
      </g>
      <g id="Comets">
        <g id="Smoke">
          <rect class="cls-10" x="102.79" y="139.84" width="13.71" height="47.38"/>
          <rect class="cls-10" x="105.98" y="139.84" width="7.33" height="47.38"/>
          <rect class="cls-10" x="88.48" y="167.51" width="7.33" height="25.34"/>
          <rect class="cls-10" x="90.19" y="167.51" width="3.92" height="25.34"/>
          <rect class="cls-10" x="122.79" y="167.51" width="7.33" height="25.34"/>
          <rect class="cls-10" x="124.49" y="167.51" width="3.92" height="25.34"/>
          <path class="cls-11" d="M71.82,196.91s-1.22-2.42,0-4.14a4.59,4.59,0,0,1,5.3-1.85s-.61-2.54,1.31-3.88a5.77,5.77,0,0,1,6.3-.26l.82-.08s-.21-3.24,3.7-2.2c0,0,2.57-5.59,7-.84h0l6.64,1.4h0s2.52-1.4,2.85,1-.33,2-.33,2a5.35,5.35,0,0,1,6,2.52,5.17,5.17,0,0,1-1.11,6.34Z"/>
          <path class="cls-11" d="M87.49,196s-1.22-2.41,0-4.13a4.6,4.6,0,0,1,5.3-1.86s-.61-2.54,1.3-3.87a5.77,5.77,0,0,1,6.3-.26l.83-.09s-.22-3.23,3.69-2.2c0,0,2.58-5.59,7-.84h0l6.64,1.4h0s2.52-1.4,2.85,1-.33,2-.33,2a5.35,5.35,0,0,1,6,2.52A5.15,5.15,0,0,1,126,196Z"/>
          <path class="cls-11" d="M68.22,195s-1.22-2.41,0-4.14a4.59,4.59,0,0,1,5.3-1.85s-.61-2.54,1.3-3.88a5.79,5.79,0,0,1,6.3-.25l.83-.09s-.22-3.23,3.69-2.2c0,0,2.58-5.59,7-.84h0l6.64,1.4h0s2.52-1.4,2.84,1-.32,2-.32,2a5.35,5.35,0,0,1,6,2.52,5.16,5.16,0,0,1-1.1,6.33Z"/>
          <path class="cls-11" d="M49.92,196.77s-1.22-2.41,0-4.14a4.61,4.61,0,0,1,5.3-1.85s-.61-2.54,1.3-3.88a5.8,5.8,0,0,1,6.31-.25l.82-.09s-.22-3.23,3.7-2.2c0,0,2.57-5.59,7-.84h0l6.64,1.4h0s2.52-1.4,2.85,1-.33,2-.33,2a5.35,5.35,0,0,1,6,2.52,5.16,5.16,0,0,1-1.11,6.33Z"/>
          <path class="cls-11" d="M102.17,193.62s-1.21-2.41,0-4.14a4.61,4.61,0,0,1,5.31-1.85s-.61-2.54,1.3-3.88a5.79,5.79,0,0,1,6.3-.25l.83-.09s-.22-3.23,3.69-2.2c0,0,2.58-5.59,7-.84h0l6.64,1.4h0s2.52-1.4,2.84,1-.32,2-.32,2a5.35,5.35,0,0,1,6,2.52,5.14,5.14,0,0,1-1.1,6.33Z"/>
          <path class="cls-11" d="M82.93,191.1s-1.22-2.41,0-4.14a4.59,4.59,0,0,1,5.3-1.85s-.61-2.54,1.3-3.88a5.79,5.79,0,0,1,6.3-.25l.83-.09s-.22-3.23,3.69-2.2c0,0,2.58-5.59,7-.84h0l6.64,1.4h0s2.52-1.4,2.85,1-.33,2-.33,2a5.37,5.37,0,0,1,6,2.53,5.16,5.16,0,0,1-1.11,6.33Z"/>
          <path class="cls-11" d="M129,196.42s-1.21-2.41,0-4.14a4.61,4.61,0,0,1,5.31-1.85s-.61-2.54,1.3-3.88a5.79,5.79,0,0,1,6.3-.25l.83-.09s-.22-3.23,3.69-2.2c0,0,2.58-5.59,7-.84h0l6.64,1.4h0s2.52-1.4,2.84,1-.32,2-.32,2a5.35,5.35,0,0,1,6,2.52,5.16,5.16,0,0,1-1.11,6.33Z"/>
          <path class="cls-11" d="M112.27,198.68s-1.22-2.41,0-4.14a4.59,4.59,0,0,1,5.3-1.85s-.61-2.54,1.3-3.88a5.79,5.79,0,0,1,6.3-.25l.83-.09s-.22-3.23,3.69-2.2c0,0,2.58-5.59,7-.84h0l6.64,1.4h0s2.52-1.4,2.85,1-.33,2-.33,2a5.35,5.35,0,0,1,6,2.52,5.16,5.16,0,0,1-1.11,6.33Z"/>
          <path class="cls-12" d="M89.93,166.66a2.64,2.64,0,0,0-5.25.37,2.59,2.59,0,0,0,.83,1.9,1.44,1.44,0,0,0-.4,1,1.5,1.5,0,0,0,3,0,1,1,0,0,0,0-.34,1.79,1.79,0,0,0,1,.34,1.74,1.74,0,0,0,.85-3.27Z"/>
          <path class="cls-12" d="M111.82,168.4a2.64,2.64,0,1,0-4.43,2.27,1.54,1.54,0,0,0-.4,1,1.5,1.5,0,0,0,3,0,1.93,1.93,0,0,0,0-.34,1.75,1.75,0,1,0,2.1-2.8l-.2-.13Z"/>
          <path class="cls-12" d="M125.37,173.3a2.64,2.64,0,1,0-4.43,2.27,1.46,1.46,0,1,0,2.55,1h0a1.93,1.93,0,0,0,0-.34,1.79,1.79,0,0,0,1,.34,1.74,1.74,0,0,0,.85-3.27Z"/>
          <path class="cls-12" d="M105,149.45a2.64,2.64,0,0,0-5.25.37,2.59,2.59,0,0,0,.83,1.9,1.44,1.44,0,0,0-.4,1,1.5,1.5,0,0,0,3,0,1,1,0,0,0,0-.34,1.79,1.79,0,0,0,1,.34,1.74,1.74,0,0,0,.85-3.27Z"/>
          <path class="cls-12" d="M114.48,178.56v-.17a1.52,1.52,0,0,0-3,0v.08a2.74,2.74,0,1,0,4.2,2.32A2.67,2.67,0,0,0,114.48,178.56Z"/>
          <path class="cls-11" d="M95.89,174.06a1.42,1.42,0,1,1-1.44-1.4h0a1.41,1.41,0,0,1,1.42,1.4Z"/>
          <path class="cls-11" d="M117.06,149.3a1.41,1.41,0,1,1-1.42-1.4h0A1.42,1.42,0,0,1,117.06,149.3Z"/>
          <path class="cls-11" d="M131.86,169.65a1.41,1.41,0,1,1-1.42-1.4h0a1.4,1.4,0,0,1,1.41,1.39Z"/>
          <ellipse class="cls-11" cx="111.73" cy="158.72" rx="1.41" ry="1.4"/>
          <ellipse class="cls-11" cx="117.04" cy="187.44" rx="1.41" ry="1.4"/>
          <path class="cls-11" d="M96.77,177.32a.75.75,0,0,1-.75.74.74.74,0,1,1,0-1.48h0A.75.75,0,0,1,96.77,177.32Z"/>
          <path class="cls-11" d="M120.77,189.19a.74.74,0,0,1-.74.74h0a.74.74,0,1,1,0-1.48h0A.74.74,0,0,1,120.77,189.19Z"/>
        </g>
        <g>
          <ellipse class="cls-7" cx="152.21" cy="22.87" rx="0.84" ry="0.83"/>
          <path class="cls-7" d="M161.92,20.91a.63.63,0,1,1-.65-.61h0a.62.62,0,0,1,.63.61Z"/>
          <path class="cls-7" d="M155.9,27.82a1.1,1.1,0,1,1-1.11-1.09h0a1.09,1.09,0,0,1,1.1,1.08Z"/>
        </g>
        <g>
          <path class="cls-7" d="M170.42,71.61a.84.84,0,1,1-.85-.83h0A.84.84,0,0,1,170.42,71.61Z"/>
          <path class="cls-7" d="M179.29,69.65a.63.63,0,1,1-.64-.62h0A.62.62,0,0,1,179.29,69.65Z"/>
          <path class="cls-7" d="M173.27,76.55a1.1,1.1,0,1,1-1.11-1.09h0A1.11,1.11,0,0,1,173.27,76.55Z"/>
        </g>
        <g>
          <ellipse class="cls-7" cx="200.74" cy="88.47" rx="0.84" ry="0.83"/>
          <path class="cls-7" d="M210.45,86.51a.63.63,0,1,1-.65-.61h0A.62.62,0,0,1,210.45,86.51Z"/>
          <path class="cls-7" d="M204.43,93.42a1.1,1.1,0,1,1-1.11-1.09h0a1.09,1.09,0,0,1,1.1,1.08Z"/>
        </g>
        <g>
          <ellipse class="cls-7" cx="148.61" cy="88.75" rx="0.84" ry="0.83"/>
          <path class="cls-7" d="M158.32,86.8a.63.63,0,1,1-.64-.62h0a.61.61,0,0,1,.62.6Z"/>
          <path class="cls-7" d="M152.3,93.7a1.1,1.1,0,1,1-1.11-1.09h0a1.09,1.09,0,0,1,1.1,1.08Z"/>
        </g>
        <g>
          <path class="cls-7" d="M149.45,53.61a.84.84,0,1,1-.84-.84h0A.85.85,0,0,1,149.45,53.61Z"/>
          <path class="cls-7" d="M158.32,51.65a.63.63,0,1,1-.64-.62h0a.61.61,0,0,1,.62.6Z"/>
          <path class="cls-7" d="M152.3,58.55a1.1,1.1,0,1,1-1.11-1.09h0a1.09,1.09,0,0,1,1.1,1.08Z"/>
        </g>
        <g>
          <path class="cls-7" d="M184,31a.84.84,0,1,1-.85-.83h0A.83.83,0,0,1,184,31Z"/>
          <path class="cls-7" d="M192.9,29.07a.63.63,0,1,1-.64-.62h0A.64.64,0,0,1,192.9,29.07Z"/>
          <ellipse class="cls-7" cx="185.77" cy="35.97" rx="1.1" ry="1.09"/>
        </g>
        <g>
          <ellipse class="cls-7" cx="200.83" cy="57.55" rx="0.84" ry="0.83"/>
          <path class="cls-7" d="M210.54,55.6a.63.63,0,1,1-.64-.62h0a.61.61,0,0,1,.62.6Z"/>
          <path class="cls-7" d="M204.52,62.5a1.1,1.1,0,1,1-1.11-1.09h0a1.09,1.09,0,0,1,1.1,1.08Z"/>
        </g>
        <g>
          <ellipse class="cls-7" cx="205.27" cy="12.53" rx="0.84" ry="0.83"/>
          <path class="cls-7" d="M215,10.57a.63.63,0,1,1-.64-.62h0A.64.64,0,0,1,215,10.57Z"/>
          <path class="cls-7" d="M209,17.48a1.1,1.1,0,1,1-1.1-1.1,1.1,1.1,0,0,1,1.1,1.1Z"/>
        </g>
        <g>
          <ellipse class="cls-7" cx="165.14" cy="113.75" rx="0.84" ry="0.83"/>
          <path class="cls-7" d="M174.85,111.79a.62.62,0,1,1-.62-.62h0A.62.62,0,0,1,174.85,111.79Z"/>
          <path class="cls-7" d="M168.83,118.7a1.1,1.1,0,1,1-1.11-1.09h0a1.09,1.09,0,0,1,1.1,1.08Z"/>
        </g>
        <g>
          <ellipse class="cls-7" cx="200" cy="125.92" rx="0.84" ry="0.83"/>
          <path class="cls-7" d="M209.7,124a.62.62,0,1,1-.62-.62h0a.61.61,0,0,1,.62.6Z"/>
          <path class="cls-7" d="M203.68,130.87a1.1,1.1,0,1,1-1.11-1.09h0a1.09,1.09,0,0,1,1.1,1.08Z"/>
        </g>
        <g>
          <path class="cls-7" d="M32,14.26a.84.84,0,1,1-.85-.83h0A.84.84,0,0,1,32,14.26Z"/>
          <path class="cls-7" d="M40.89,12.3a.63.63,0,1,1-.64-.62h0A.62.62,0,0,1,40.89,12.3Z"/>
          <path class="cls-7" d="M34.87,19.21a1.1,1.1,0,1,1-1.1-1.1h0a1.09,1.09,0,0,1,1.1,1.08Z"/>
        </g>
        <g>
          <ellipse class="cls-7" cx="5.65" cy="19.19" rx="0.84" ry="0.83"/>
          <path class="cls-7" d="M15.36,17.23a.63.63,0,0,1-.7.55.64.64,0,0,1-.55-.55.63.63,0,0,1,.7-.55A.64.64,0,0,1,15.36,17.23Z"/>
          <path class="cls-7" d="M9.34,24.13a1.11,1.11,0,1,1,0-.05Z"/>
        </g>
        <g>
          <path class="cls-7" d="M11.76,125.92a.84.84,0,1,1-.85-.83h0a.83.83,0,0,1,.84.82Z"/>
          <path class="cls-7" d="M20.63,124a.63.63,0,1,1-.64-.62h0a.61.61,0,0,1,.62.6Z"/>
          <path class="cls-7" d="M14.61,130.87a1.1,1.1,0,1,1-1.11-1.09h0a1.09,1.09,0,0,1,1.1,1.08Z"/>
        </g>
        <g>
          <ellipse class="cls-7" cx="20.63" cy="65.32" rx="0.84" ry="0.83"/>
          <path class="cls-7" d="M30.34,63.37a.63.63,0,1,1-.64-.62h0a.61.61,0,0,1,.62.6Z"/>
          <path class="cls-7" d="M24.32,70.27a1.1,1.1,0,1,1-1.11-1.09h0a1.09,1.09,0,0,1,1.1,1.08Z"/>
        </g>
        <g>
          <path class="cls-7" d="M56.8,114.65a.84.84,0,1,1-.85-.83h0a.83.83,0,0,1,.84.82Z"/>
          <path class="cls-7" d="M65.67,112.69a.62.62,0,1,1-.62-.62.62.62,0,0,1,.62.62Z"/>
          <path class="cls-7" d="M59.65,119.6a1.1,1.1,0,1,1-1.1-1.1h0a1.09,1.09,0,0,1,1.1,1.08Z"/>
        </g>
        <g>
          <ellipse class="cls-7" cx="108.09" cy="14.26" rx="0.84" ry="0.83"/>
          <path class="cls-7" d="M117.8,12.3a.63.63,0,1,1-.64-.62h0A.64.64,0,0,1,117.8,12.3Z"/>
          <path class="cls-7" d="M111.78,19.21a1.11,1.11,0,1,1-1.12-1.1h0a1.1,1.1,0,0,1,1.11,1.09Z"/>
        </g>
        <g>
          <path class="cls-7" d="M68.13,11.19a.84.84,0,1,1-.85-.83h0a.83.83,0,0,1,.84.82Z"/>
          <path class="cls-7" d="M77,9.23a.63.63,0,1,1-.64-.62h0a.62.62,0,0,1,.62.62Z"/>
          <path class="cls-7" d="M71,16.14A1.1,1.1,0,1,1,69.9,15h0A1.09,1.09,0,0,1,71,16.12Z"/>
        </g>
        <g>
          <path class="cls-7" d="M62.08,68.39a.84.84,0,1,1-.85-.83h0A.84.84,0,0,1,62.08,68.39Z"/>
          <circle class="cls-7" cx="70.32" cy="66.43" r="0.62"/>
          <path class="cls-7" d="M64.93,73.34a1.11,1.11,0,1,1-1.13-1.09h0A1.11,1.11,0,0,1,64.93,73.34Z"/>
        </g>
        <g>
          <ellipse class="cls-7" cx="35.21" cy="89.37" rx="0.84" ry="0.83"/>
          <path class="cls-7" d="M44.91,87.41a.61.61,0,0,1-.6.62h0a.62.62,0,0,1-.69-.54.61.61,0,0,1,.53-.69h.16a.61.61,0,0,1,.62.6Z"/>
          <path class="cls-7" d="M38.9,94.32a1.11,1.11,0,1,1-1.13-1.09h0a1.1,1.1,0,0,1,1.11,1.09Z"/>
        </g>
        <g>
          <path class="cls-13" d="M131.23,33.68a2.39,2.39,0,1,1-2.41-2.37h0a2.39,2.39,0,0,1,2.39,2.37Z"/>
          <path class="cls-14" d="M131.55,33.39A2.38,2.38,0,1,1,129.17,31a2.39,2.39,0,0,1,2.38,2.39Z"/>
          <path class="cls-15" d="M131.87,33.1a2.37,2.37,0,1,1-2.39-2.35h0a2.36,2.36,0,0,1,2.37,2.35Z"/>
          <path class="cls-15" d="M132.19,32.81a2.36,2.36,0,1,1-2.38-2.34h0a2.35,2.35,0,0,1,2.36,2.34Z"/>
          <path class="cls-16" d="M132.51,32.52a2.35,2.35,0,1,1-2.36-2.34h0a2.34,2.34,0,0,1,2.35,2.33Z"/>
          <path class="cls-17" d="M132.83,32.23a2.34,2.34,0,1,1-2.35-2.33h0a2.33,2.33,0,0,1,2.34,2.32Z"/>
          <path class="cls-18" d="M133.15,31.94a2.33,2.33,0,1,1-2.34-2.32h0a2.32,2.32,0,0,1,2.33,2.31Z"/>
          <path class="cls-19" d="M133.48,31.65a2.33,2.33,0,1,1-2.35-2.31h0a2.32,2.32,0,0,1,2.33,2.31Z"/>
          <path class="cls-19" d="M133.8,31.36a2.32,2.32,0,1,1-2.34-2.3h0a2.3,2.3,0,0,1,2.32,2.3Z"/>
          <path class="cls-20" d="M134.12,31.07a2.31,2.31,0,1,1-2.33-2.29h0a2.3,2.3,0,0,1,2.31,2.29Z"/>
          <path class="cls-21" d="M134.44,30.78a2.3,2.3,0,1,1-2.32-2.28h0a2.3,2.3,0,0,1,2.3,2.28Z"/>
          <path class="cls-22" d="M134.76,30.49a2.29,2.29,0,1,1-2.31-2.27h0a2.28,2.28,0,0,1,2.29,2.27Z"/>
          <path class="cls-22" d="M135.08,30.2a2.28,2.28,0,1,1-2.29-2.27h0a2.27,2.27,0,0,1,2.28,2.26Z"/>
          <path class="cls-11" d="M135.4,29.91a2.27,2.27,0,1,1-2.28-2.26h0a2.26,2.26,0,0,1,2.27,2.25Z"/>
          <path class="cls-23" d="M135.72,29.62a2.26,2.26,0,1,1-2.27-2.25h0a2.25,2.25,0,0,1,2.26,2.24Z"/>
          <path class="cls-24" d="M136,29.33a2.25,2.25,0,1,1-2.26-2.24h0A2.24,2.24,0,0,1,136,29.32Z"/>
          <path class="cls-25" d="M136.37,29a2.25,2.25,0,1,1-2.27-2.23h0A2.24,2.24,0,0,1,136.37,29Z"/>
          <ellipse class="cls-25" cx="134.45" cy="28.75" rx="2.24" ry="2.22"/>
          <path class="cls-26" d="M137,28.46a2.23,2.23,0,1,1-2.25-2.21h0A2.21,2.21,0,0,1,137,28.46Z"/>
          <path class="cls-27" d="M137.33,28.17a2.22,2.22,0,1,1-2.24-2.2h0a2.2,2.2,0,0,1,2.22,2.18Z"/>
          <path class="cls-28" d="M137.65,27.88a2.21,2.21,0,1,1-2.22-2.2h0A2.21,2.21,0,0,1,137.65,27.88Z"/>
          <path class="cls-29" d="M138,27.59a2.2,2.2,0,1,1-2.21-2.19h0a2.19,2.19,0,0,1,2.2,2.18Z"/>
          <path class="cls-29" d="M138.29,27.3a2.19,2.19,0,1,1-2.2-2.18h0a2.19,2.19,0,0,1,2.19,2.17Z"/>
          <path class="cls-30" d="M138.61,27a2.18,2.18,0,1,1-2.19-2.17h0A2.17,2.17,0,0,1,138.61,27Z"/>
          <path class="cls-31" d="M138.94,26.72a2.18,2.18,0,1,1-2.2-2.16h0a2.17,2.17,0,0,1,2.18,2.16Z"/>
          <path class="cls-12" d="M139.26,26.42a2.17,2.17,0,1,1-2.2-2.14h0A2.16,2.16,0,0,1,139.26,26.42Z"/>
          <path class="cls-32" d="M139.58,26.13A2.16,2.16,0,1,1,137.39,24h0A2.15,2.15,0,0,1,139.58,26.13Z"/>
          <path class="cls-32" d="M139.9,25.84a2.15,2.15,0,1,1-2.18-2.12h0A2.13,2.13,0,0,1,139.9,25.84Z"/>
          <path class="cls-33" d="M140.22,25.55a2.14,2.14,0,1,1-2.16-2.12h0a2.13,2.13,0,0,1,2.14,2.12Z"/>
          <path class="cls-34" d="M140.54,25.26a2.13,2.13,0,1,1-2.15-2.11h0a2.12,2.12,0,0,1,2.13,2.11Z"/>
          <path class="cls-35" d="M140.86,25a2.12,2.12,0,1,1-2.14-2.1h0a2.1,2.1,0,0,1,2.12,2.1Z"/>
          <path class="cls-35" d="M141.18,24.68a2.11,2.11,0,1,1-2.13-2.09h0a2.1,2.1,0,0,1,2.11,2.09Z"/>
          <path class="cls-36" d="M141.5,24.39a2.1,2.1,0,1,1-2.12-2.08h0a2.1,2.1,0,0,1,2.1,2.08Z"/>
          <path class="cls-37" d="M141.83,24.1A2.1,2.1,0,1,1,139.7,22h0A2.09,2.09,0,0,1,141.83,24.1Z"/>
          <path class="cls-38" d="M142.15,23.81A2.09,2.09,0,1,1,140,21.75h0A2.08,2.08,0,0,1,142.15,23.81Z"/>
          <path class="cls-39" d="M142.47,23.52a2.08,2.08,0,1,1-2.11-2.05h0A2.07,2.07,0,0,1,142.47,23.52Z"/>
          <path class="cls-39" d="M142.79,23.23a2.07,2.07,0,1,1-2.09-2.05h0a2.06,2.06,0,0,1,2.07,2.05Z"/>
          <path class="cls-40" d="M143.11,22.94a2.06,2.06,0,1,1-2.12-2h.06A2,2,0,0,1,143.11,22.94Z"/>
          <path class="cls-41" d="M143.43,22.65a2.05,2.05,0,1,1-2.1-2h0a2,2,0,0,1,2.05,2Z"/>
          <path class="cls-42" d="M143.75,22.36a2,2,0,1,1-2-2A2,2,0,0,1,143.75,22.36Z"/>
          <path class="cls-43" d="M144.07,22.07a2,2,0,1,1-2-2A2,2,0,0,1,144.07,22.07Z"/>
          <path class="cls-43" d="M144.39,21.78a2,2,0,1,1-2-2A2,2,0,0,1,144.39,21.78Z"/>
          <path class="cls-44" d="M144.72,21.49a2,2,0,1,1-2-2A2,2,0,0,1,144.72,21.49Z"/>
          <path class="cls-45" d="M145,21.2a2,2,0,1,1-2-2A2,2,0,0,1,145,21.2Z"/>
          <path class="cls-46" d="M145.36,20.91a2,2,0,1,1-2-2A2,2,0,0,1,145.36,20.91Z"/>
          <path class="cls-47" d="M145.68,20.62a2,2,0,1,1-2-2A2,2,0,0,1,145.68,20.62Z"/>
          <path class="cls-47" d="M146,20.33a2,2,0,1,1-2-2A2,2,0,0,1,146,20.33Z"/>
          <path class="cls-48" d="M146.32,20a2,2,0,1,1-2-1.95h0A2,2,0,0,1,146.32,20Z"/>
          <path class="cls-49" d="M146.64,19.75a2,2,0,1,1-2.06-1.94h.06A2,2,0,0,1,146.64,19.75Z"/>
          <path class="cls-50" d="M147,19.46a2,2,0,1,1-2.07-1.93H145a1.94,1.94,0,0,1,2,1.88Z"/>
          <path class="cls-50" d="M147.29,19.17a2,2,0,1,1-2-1.92h0A1.93,1.93,0,0,1,147.29,19.17Z"/>
          <path class="cls-10" d="M147.61,18.88a1.94,1.94,0,1,1-2-1.88h.06A1.93,1.93,0,0,1,147.61,18.88Z"/>
          <path class="cls-51" d="M147.93,18.59a1.93,1.93,0,1,1-2-1.91h0a1.92,1.92,0,0,1,1.93,1.89Z"/>
          <path class="cls-52" d="M148.25,18.3a1.92,1.92,0,1,1-1.94-1.9h0a1.92,1.92,0,0,1,1.92,1.9Z"/>
          <path class="cls-53" d="M148.57,18a1.91,1.91,0,1,1-1.93-1.89h0A1.9,1.9,0,0,1,148.57,18Z"/>
          <path class="cls-53" d="M148.89,17.72A1.9,1.9,0,1,1,147,15.84h0A1.9,1.9,0,0,1,148.89,17.72Z"/>
          <path class="cls-54" d="M149.21,17.43a1.89,1.89,0,1,1-1.91-1.87h0a1.88,1.88,0,0,1,1.89,1.87Z"/>
          <path class="cls-55" d="M149.53,17.14a1.88,1.88,0,1,1-1.9-1.86h0A1.88,1.88,0,0,1,149.53,17.14Z"/>
          <path class="cls-56" d="M149.85,16.85A1.87,1.87,0,1,1,148,15h0A1.87,1.87,0,0,1,149.85,16.85Z"/>
          <path class="cls-57" d="M150.18,16.56a1.87,1.87,0,1,1-1.9-1.84h0A1.86,1.86,0,0,1,150.18,16.56Z"/>
          <path class="cls-57" d="M150.5,16.27a1.86,1.86,0,1,1-1.88-1.84h0a1.85,1.85,0,0,1,1.86,1.84Z"/>
          <path class="cls-58" d="M150.82,16A1.85,1.85,0,1,1,149,14.15h0A1.84,1.84,0,0,1,150.82,16Z"/>
          <path class="cls-59" d="M151.14,15.69a1.84,1.84,0,1,1-1.86-1.82h0a1.81,1.81,0,0,1,1.84,1.8Z"/>
          <path class="cls-60" d="M151.46,15.4a1.83,1.83,0,1,1-1.85-1.81h0A1.83,1.83,0,0,1,151.46,15.4Z"/>
          <path class="cls-61" d="M151.78,15.11a1.82,1.82,0,1,1-1.84-1.8h0a1.81,1.81,0,0,1,1.82,1.8Z"/>
          <path class="cls-61" d="M152.1,14.82A1.81,1.81,0,1,1,150.29,13a1.81,1.81,0,0,1,1.81,1.82Z"/>
          <ellipse class="cls-62" cx="150.62" cy="14.53" rx="1.8" ry="1.79"/>
          <path class="cls-63" d="M152.74,14.24a1.79,1.79,0,1,1-1.81-1.77H151A1.79,1.79,0,0,1,152.74,14.24Z"/>
          <path class="cls-64" d="M153.07,14a1.79,1.79,0,1,1-1.81-1.77h0A1.78,1.78,0,0,1,153.07,14Z"/>
          <path class="cls-64" d="M153.39,13.66a1.78,1.78,0,1,1-1.8-1.76h0a1.77,1.77,0,0,1,1.78,1.76Z"/>
          <path class="cls-65" d="M153.71,13.37a1.77,1.77,0,1,1-1.79-1.75h0a1.76,1.76,0,0,1,1.77,1.75Z"/>
          <path class="cls-66" d="M154,13.08a1.76,1.76,0,1,1-1.78-1.74h0A1.75,1.75,0,0,1,154,13.08Z"/>
          <path class="cls-67" d="M154.35,12.79a1.75,1.75,0,1,1-1.77-1.73h0a1.74,1.74,0,0,1,1.75,1.73Z"/>
          <path class="cls-68" d="M154.67,12.5a1.74,1.74,0,1,1-1.76-1.72h0a1.72,1.72,0,0,1,1.74,1.72Z"/>
          <path class="cls-68" d="M155,12.21a1.73,1.73,0,1,1-1.75-1.71h0A1.72,1.72,0,0,1,155,12.21Z"/>
          <path class="cls-69" d="M155.31,11.92a1.72,1.72,0,1,1-1.74-1.7h0a1.72,1.72,0,0,1,1.72,1.7Z"/>
          <path class="cls-70" d="M155.64,11.63a1.72,1.72,0,1,1-1.74-1.7h0a1.72,1.72,0,0,1,1.72,1.7Z"/>
        </g>
        <g>
          <path class="cls-13" d="M154.49,110.29a2.39,2.39,0,1,1-2.41-2.37h0a2.39,2.39,0,0,1,2.39,2.37Z"/>
          <path class="cls-14" d="M154.81,110a2.38,2.38,0,1,1-2.4-2.36h0a2.37,2.37,0,0,1,2.38,2.36Z"/>
          <path class="cls-15" d="M155.13,109.71a2.37,2.37,0,1,1-2.39-2.35h0a2.36,2.36,0,0,1,2.37,2.35Z"/>
          <path class="cls-15" d="M155.45,109.42a2.36,2.36,0,1,1-2.38-2.34h0a2.35,2.35,0,0,1,2.36,2.34Z"/>
          <path class="cls-16" d="M155.77,109.13a2.35,2.35,0,1,1-2.37-2.33h0a2.34,2.34,0,0,1,2.35,2.33Z"/>
          <path class="cls-17" d="M156.1,108.84a2.35,2.35,0,1,1-2.38-2.32h0a2.33,2.33,0,0,1,2.35,2.31Z"/>
          <path class="cls-18" d="M156.42,108.55a2.34,2.34,0,1,1-2.37-2.31h0a2.32,2.32,0,0,1,2.34,2.3Z"/>
          <path class="cls-19" d="M156.74,108.26a2.33,2.33,0,1,1-2.35-2.31h0a2.32,2.32,0,0,1,2.33,2.31Z"/>
          <path class="cls-19" d="M157.06,108a2.32,2.32,0,1,1-2.34-2.3h0a2.3,2.3,0,0,1,2.32,2.3Z"/>
          <path class="cls-20" d="M157.38,107.68a2.31,2.31,0,1,1-2.33-2.29h0a2.3,2.3,0,0,1,2.31,2.29Z"/>
          <path class="cls-21" d="M157.7,107.39a2.3,2.3,0,1,1-2.32-2.28h0a2.3,2.3,0,0,1,2.3,2.28Z"/>
          <path class="cls-22" d="M158,107.1a2.29,2.29,0,1,1-2.31-2.27h0A2.28,2.28,0,0,1,158,107.1Z"/>
          <path class="cls-22" d="M158.34,106.81a2.28,2.28,0,1,1-2.3-2.26h0a2.27,2.27,0,0,1,2.28,2.26Z"/>
          <path class="cls-11" d="M158.67,106.52a2.28,2.28,0,1,1-2.31-2.25h0A2.27,2.27,0,0,1,158.67,106.52Z"/>
          <path class="cls-23" d="M159,106.23a2.27,2.27,0,1,1-2.3-2.24h0A2.26,2.26,0,0,1,159,106.23Z"/>
          <path class="cls-24" d="M159.31,105.94A2.26,2.26,0,1,1,157,103.7h0a2.25,2.25,0,0,1,2.26,2.24Z"/>
          <path class="cls-25" d="M159.63,105.65a2.25,2.25,0,1,1-2.27-2.23h0a2.24,2.24,0,0,1,2.25,2.23Z"/>
          <ellipse class="cls-25" cx="157.71" cy="105.36" rx="2.24" ry="2.22"/>
          <path class="cls-26" d="M160.27,105.07a2.23,2.23,0,1,1-2.25-2.21h0a2.21,2.21,0,0,1,2.23,2.21Z"/>
          <path class="cls-27" d="M160.59,104.78a2.22,2.22,0,1,1-2.24-2.2h0a2.21,2.21,0,0,1,2.22,2.2Z"/>
          <path class="cls-28" d="M160.91,104.49a2.21,2.21,0,1,1-2.23-2.19h0a2.19,2.19,0,0,1,2.21,2.19Z"/>
          <path class="cls-29" d="M161.23,104.2A2.2,2.2,0,1,1,159,102a2.2,2.2,0,0,1,2.23,2.2Z"/>
          <path class="cls-29" d="M161.56,103.91a2.2,2.2,0,1,1-2.23-2.17h0A2.18,2.18,0,0,1,161.56,103.91Z"/>
          <path class="cls-30" d="M161.88,103.62a2.19,2.19,0,1,1-2.22-2.16h0A2.18,2.18,0,0,1,161.88,103.62Z"/>
          <path class="cls-31" d="M162.2,103.33a2.18,2.18,0,1,1-2.2-2.16h0a2.17,2.17,0,0,1,2.18,2.16Z"/>
          <path class="cls-12" d="M162.52,103a2.17,2.17,0,1,1-2.19-2.15h0a2.16,2.16,0,0,1,2.17,2.15Z"/>
          <path class="cls-32" d="M162.84,102.75a2.16,2.16,0,1,1-2.18-2.14h0a2.15,2.15,0,0,1,2.16,2.14Z"/>
          <path class="cls-32" d="M163.16,102.46a2.15,2.15,0,1,1-2.17-2.13h0a2.14,2.14,0,0,1,2.15,2.13Z"/>
          <path class="cls-33" d="M163.48,102.17a2.14,2.14,0,1,1-2.16-2.12h0a2.13,2.13,0,0,1,2.14,2.12Z"/>
          <path class="cls-34" d="M163.8,101.88a2.13,2.13,0,1,1-2.15-2.11h0a2.1,2.1,0,0,1,2.13,2.09Z"/>
          <path class="cls-35" d="M164.12,101.59a2.12,2.12,0,1,1-2.14-2.1h0a2.1,2.1,0,0,1,2.12,2.1Z"/>
          <path class="cls-35" d="M164.45,101.3a2.12,2.12,0,1,1-2.15-2.09h0a2.1,2.1,0,0,1,2.12,2.08Z"/>
          <path class="cls-36" d="M164.77,101a2.11,2.11,0,1,1-2.13-2.09h0a2.1,2.1,0,0,1,2.11,2.07Z"/>
          <path class="cls-37" d="M165.09,100.72A2.1,2.1,0,1,1,163,98.64h0a2.1,2.1,0,0,1,2.1,2.08Z"/>
          <path class="cls-38" d="M165.41,100.43a2.09,2.09,0,1,1-2.11-2.07h0a2.08,2.08,0,0,1,2.09,2.07Z"/>
          <path class="cls-39" d="M165.73,100.14a2.08,2.08,0,1,1-2.1-2.06h0a2.07,2.07,0,0,1,2.08,2.06Z"/>
          <path class="cls-39" d="M166.05,99.85a2.07,2.07,0,1,1-2.14-2H164A2.05,2.05,0,0,1,166.05,99.85Z"/>
          <path class="cls-40" d="M166.37,99.56a2.06,2.06,0,1,1-2.12-2h.06a2,2,0,0,1,2.06,1.94Z"/>
          <path class="cls-41" d="M166.69,99.27a2.05,2.05,0,1,1-2.1-2h0a2,2,0,0,1,2.05,2Z"/>
          <path class="cls-42" d="M167,99a2,2,0,1,1-2-2A2,2,0,0,1,167,99Z"/>
          <path class="cls-43" d="M167.34,98.69a2,2,0,1,1-2-2A2,2,0,0,1,167.34,98.69Z"/>
          <path class="cls-43" d="M167.66,98.4a2,2,0,1,1-2-2A2,2,0,0,1,167.66,98.4Z"/>
          <path class="cls-44" d="M168,98.11a2,2,0,1,1-2-2A2,2,0,0,1,168,98.11Z"/>
          <path class="cls-45" d="M168.3,97.82a2,2,0,1,1-2-2A2,2,0,0,1,168.3,97.82Z"/>
          <path class="cls-46" d="M168.62,97.53a2,2,0,1,1-2-2A2,2,0,0,1,168.62,97.53Z"/>
          <path class="cls-47" d="M168.94,97.24a2,2,0,1,1-2-2A2,2,0,0,1,168.94,97.24Z"/>
          <path class="cls-47" d="M169.26,97a2,2,0,1,1-2-2A2,2,0,0,1,169.26,97Z"/>
          <path class="cls-48" d="M169.58,96.66a2,2,0,1,1-2-2A2,2,0,0,1,169.58,96.66Z"/>
          <path class="cls-49" d="M169.91,96.37a2,2,0,1,1-2-2A2,2,0,0,1,169.91,96.37Z"/>
          <path class="cls-50" d="M170.23,96.08a2,2,0,1,1-2.06-1.94h.06a1.94,1.94,0,0,1,2,1.88Z"/>
          <path class="cls-50" d="M170.55,95.79a1.91,1.91,0,1,1,0-.05Z"/>
          <path class="cls-10" d="M170.87,95.5a1.94,1.94,0,1,1-2-1.92h0a1.92,1.92,0,0,1,1.94,1.92Z"/>
          <path class="cls-51" d="M171.19,95.21a1.93,1.93,0,1,1-1.95-1.91h0a1.92,1.92,0,0,1,1.93,1.91Z"/>
          <path class="cls-52" d="M171.51,94.92a1.92,1.92,0,1,1-1.94-1.9h0a1.92,1.92,0,0,1,1.92,1.9Z"/>
          <path class="cls-53" d="M171.83,94.63a1.91,1.91,0,1,1-1.93-1.89h0a1.9,1.9,0,0,1,1.91,1.89Z"/>
          <path class="cls-53" d="M172.15,94.34a1.9,1.9,0,1,1-1.92-1.88h0a1.89,1.89,0,0,1,1.9,1.88Z"/>
          <path class="cls-54" d="M172.47,94.05a1.89,1.89,0,1,1-1.9-1.88h0A1.88,1.88,0,0,1,172.47,94Z"/>
          <path class="cls-55" d="M172.8,93.76a1.89,1.89,0,1,1-1.91-1.87h0a1.88,1.88,0,0,1,1.89,1.87Z"/>
          <path class="cls-56" d="M173.12,93.47a1.88,1.88,0,1,1-1.9-1.86h0a1.87,1.87,0,0,1,1.88,1.86Z"/>
          <path class="cls-57" d="M173.44,93.18a1.87,1.87,0,1,1-1.89-1.85h0a1.86,1.86,0,0,1,1.87,1.85Z"/>
          <path class="cls-57" d="M173.76,92.89a1.86,1.86,0,1,1-1.88-1.84h0a1.85,1.85,0,0,1,1.86,1.84Z"/>
          <path class="cls-58" d="M174.08,92.6a1.85,1.85,0,1,1-1.87-1.83h0a1.84,1.84,0,0,1,1.85,1.83Z"/>
          <path class="cls-59" d="M174.4,92.31a1.84,1.84,0,1,1-1.86-1.82h0a1.83,1.83,0,0,1,1.84,1.82Z"/>
          <path class="cls-60" d="M174.72,92a1.83,1.83,0,1,1-1.85-1.81h0A1.81,1.81,0,0,1,174.72,92Z"/>
          <path class="cls-61" d="M175,91.73a1.82,1.82,0,1,1-1.83-1.81h0a1.81,1.81,0,0,1,1.82,1.8Z"/>
          <path class="cls-61" d="M175.37,91.44a1.82,1.82,0,1,1-1.84-1.8h0a1.81,1.81,0,0,1,1.82,1.8Z"/>
          <ellipse class="cls-62" cx="173.88" cy="91.15" rx="1.8" ry="1.79"/>
          <path class="cls-63" d="M176,90.86a1.8,1.8,0,1,1-1.82-1.78h0a1.79,1.79,0,0,1,1.8,1.78Z"/>
          <path class="cls-64" d="M176.33,90.57a1.79,1.79,0,1,1-1.81-1.77h0a1.78,1.78,0,0,1,1.79,1.77Z"/>
          <path class="cls-64" d="M176.65,90.28a1.78,1.78,0,1,1-1.8-1.76h0a1.77,1.77,0,0,1,1.78,1.76Z"/>
          <ellipse class="cls-65" cx="175.2" cy="89.99" rx="1.77" ry="1.75"/>
          <path class="cls-66" d="M177.29,89.7a1.76,1.76,0,1,1-1.82-1.7h.06A1.75,1.75,0,0,1,177.29,89.7Z"/>
          <path class="cls-67" d="M177.61,89.41a1.75,1.75,0,1,1-1.76-1.74h0a1.72,1.72,0,0,1,1.75,1.71Z"/>
          <path class="cls-68" d="M177.93,89.12a1.74,1.74,0,1,1-1.75-1.73h0a1.72,1.72,0,0,1,1.74,1.7Z"/>
          <path class="cls-68" d="M178.26,88.83a1.74,1.74,0,1,1-1.76-1.72h0a1.72,1.72,0,0,1,1.74,1.7Z"/>
          <path class="cls-69" d="M178.58,88.54a1.73,1.73,0,1,1-1.75-1.71h0a1.72,1.72,0,0,1,1.73,1.69Z"/>
          <path class="cls-70" d="M178.9,88.25a1.72,1.72,0,1,1-1.74-1.7h0a1.72,1.72,0,0,1,1.72,1.7Z"/>
        </g>
        <g>
          <path class="cls-13" d="M168.83,62.65a2.07,2.07,0,1,1-2.14-2h.08A2,2,0,0,1,168.83,62.65Z"/>
          <ellipse class="cls-14" cx="167.05" cy="62.4" rx="2.06" ry="2.04"/>
          <path class="cls-15" d="M169.39,62.15a2.06,2.06,0,1,1-2.12-2h.12A2,2,0,0,1,169.39,62.15Z"/>
          <ellipse class="cls-15" cx="167.62" cy="61.9" rx="2.04" ry="2.03"/>
          <path class="cls-16" d="M170,61.65a2,2,0,1,1-2-2A2,2,0,0,1,170,61.65Z"/>
          <path class="cls-17" d="M170.22,61.39a2,2,0,1,1-2-2A2,2,0,0,1,170.22,61.39Z"/>
          <path class="cls-18" d="M170.5,61.14a2,2,0,1,1-2-2A2,2,0,0,1,170.5,61.14Z"/>
          <ellipse class="cls-19" cx="168.77" cy="60.89" rx="2.01" ry="2"/>
          <path class="cls-19" d="M171.06,60.64a2,2,0,1,1-2-2A2,2,0,0,1,171.06,60.64Z"/>
          <path class="cls-20" d="M171.34,60.39a2,2,0,1,1-2-2A2,2,0,0,1,171.34,60.39Z"/>
          <path class="cls-21" d="M171.61,60.14a2,2,0,1,1-2-2A2,2,0,0,1,171.61,60.14Z"/>
          <path class="cls-22" d="M171.89,59.89a2,2,0,1,1-2-2A2,2,0,0,1,171.89,59.89Z"/>
          <path class="cls-22" d="M172.17,59.64a2,2,0,1,1-2-2A2,2,0,0,1,172.17,59.64Z"/>
          <path class="cls-11" d="M172.45,59.38a2,2,0,1,1-2-2A2,2,0,0,1,172.45,59.38Z"/>
          <path class="cls-23" d="M172.73,59.13a2,2,0,1,1-2.06-1.94h.06A2,2,0,0,1,172.73,59.13Z"/>
          <ellipse class="cls-24" cx="171.05" cy="58.88" rx="1.95" ry="1.94"/>
          <path class="cls-25" d="M173.28,58.63a2,2,0,1,1-2-1.93h0a1.92,1.92,0,0,1,1.94,1.92Z"/>
          <path class="cls-25" d="M173.56,58.38a1.94,1.94,0,1,1-2-1.92h0a1.92,1.92,0,0,1,1.94,1.92Z"/>
          <path class="cls-26" d="M173.84,58.13a1.93,1.93,0,1,1-2-1.91h0a1.92,1.92,0,0,1,1.93,1.89Z"/>
          <path class="cls-27" d="M174.12,57.88a1.93,1.93,0,1,1-2-1.88h.06A1.91,1.91,0,0,1,174.12,57.88Z"/>
          <path class="cls-28" d="M174.4,57.63a1.92,1.92,0,1,1-1.94-1.9h0a1.92,1.92,0,0,1,1.92,1.9Z"/>
          <path class="cls-29" d="M174.67,57.38a1.91,1.91,0,1,1-1.93-1.89h0A1.9,1.9,0,0,1,174.67,57.38Z"/>
          <path class="cls-29" d="M175,57.12a1.9,1.9,0,1,1-1.92-1.88h0A1.9,1.9,0,0,1,175,57.12Z"/>
          <path class="cls-30" d="M175.23,56.87A1.89,1.89,0,1,1,173.32,55h0A1.88,1.88,0,0,1,175.23,56.87Z"/>
          <path class="cls-31" d="M175.51,56.62a1.89,1.89,0,1,1-1.91-1.87h0A1.89,1.89,0,0,1,175.51,56.62Z"/>
          <path class="cls-12" d="M175.79,56.37a1.88,1.88,0,1,1-1.9-1.86h0a1.87,1.87,0,0,1,1.88,1.86Z"/>
          <ellipse class="cls-32" cx="174.2" cy="56.12" rx="1.87" ry="1.85"/>
          <path class="cls-32" d="M176.34,55.87A1.86,1.86,0,1,1,174.48,54a1.86,1.86,0,0,1,1.86,1.87Z"/>
          <path class="cls-33" d="M176.62,55.62a1.85,1.85,0,1,1-1.86-1.84h0a1.84,1.84,0,0,1,1.85,1.83Z"/>
          <path class="cls-34" d="M176.9,55.37A1.85,1.85,0,1,1,175,53.54h0a1.83,1.83,0,0,1,1.85,1.81Z"/>
          <path class="cls-35" d="M177.18,55.11a1.84,1.84,0,1,1-1.86-1.82h0a1.83,1.83,0,0,1,1.84,1.82Z"/>
          <path class="cls-35" d="M177.46,54.86a1.83,1.83,0,1,1-1.85-1.81h0A1.83,1.83,0,0,1,177.46,54.86Z"/>
          <path class="cls-36" d="M177.73,54.61a1.82,1.82,0,1,1-1.84-1.8h0a1.81,1.81,0,0,1,1.82,1.8Z"/>
          <path class="cls-37" d="M178,54.36a1.82,1.82,0,1,1-1.84-1.8h0A1.81,1.81,0,0,1,178,54.36Z"/>
          <path class="cls-38" d="M178.29,54.11a1.81,1.81,0,1,1-1.83-1.79h0a1.81,1.81,0,0,1,1.81,1.79Z"/>
          <path class="cls-39" d="M178.57,53.86a1.8,1.8,0,1,1-1.82-1.78h0a1.79,1.79,0,0,1,1.8,1.78Z"/>
          <ellipse class="cls-39" cx="177.06" cy="53.61" rx="1.79" ry="1.78"/>
          <path class="cls-40" d="M179.12,53.36a1.78,1.78,0,1,1-1.79-1.77h0a1.77,1.77,0,0,1,1.78,1.76Z"/>
          <path class="cls-41" d="M179.4,53.11a1.78,1.78,0,1,1-1.79-1.77h0a1.76,1.76,0,0,1,1.77,1.75Z"/>
          <path class="cls-42" d="M179.68,52.85a1.77,1.77,0,1,1-1.79-1.75h0a1.76,1.76,0,0,1,1.77,1.75Z"/>
          <path class="cls-43" d="M180,52.6a1.76,1.76,0,1,1-1.78-1.74h0A1.75,1.75,0,0,1,180,52.6Z"/>
          <path class="cls-43" d="M180.24,52.35a1.76,1.76,0,1,1-1.78-1.74h0a1.75,1.75,0,0,1,1.76,1.74Z"/>
          <path class="cls-44" d="M180.52,52.1a1.75,1.75,0,1,1-1.77-1.73h0a1.74,1.74,0,0,1,1.75,1.73Z"/>
          <ellipse class="cls-45" cx="179.06" cy="51.85" rx="1.74" ry="1.72"/>
          <path class="cls-46" d="M181.07,51.6a1.73,1.73,0,1,1-1.74-1.72h0a1.72,1.72,0,0,1,1.73,1.71Z"/>
          <path class="cls-47" d="M181.35,51.35a1.72,1.72,0,1,1-1.73-1.71h0a1.72,1.72,0,0,1,1.72,1.7Z"/>
          <ellipse class="cls-47" cx="179.91" cy="51.1" rx="1.71" ry="1.7"/>
          <path class="cls-48" d="M181.91,50.84a1.71,1.71,0,1,1-1.73-1.69h0A1.71,1.71,0,0,1,181.91,50.84Z"/>
          <path class="cls-49" d="M182.18,50.59a1.7,1.7,0,1,1-1.72-1.68h0A1.7,1.7,0,0,1,182.18,50.59Z"/>
          <path class="cls-50" d="M182.46,50.34a1.69,1.69,0,1,1-1.71-1.67h0a1.68,1.68,0,0,1,1.69,1.67Z"/>
          <path class="cls-50" d="M182.74,50.09A1.69,1.69,0,1,1,181,48.42h0A1.69,1.69,0,0,1,182.74,50.09Z"/>
          <path class="cls-10" d="M183,49.84a1.68,1.68,0,1,1-1.7-1.66h0A1.67,1.67,0,0,1,183,49.84Z"/>
          <path class="cls-51" d="M183.3,49.59a1.67,1.67,0,1,1-1.68-1.66h0a1.66,1.66,0,0,1,1.67,1.65Z"/>
          <ellipse class="cls-52" cx="181.91" cy="49.34" rx="1.66" ry="1.65"/>
          <path class="cls-53" d="M183.85,49.09a1.65,1.65,0,1,1-1.66-1.64h0a1.63,1.63,0,0,1,1.65,1.63Z"/>
          <ellipse class="cls-53" cx="182.49" cy="48.83" rx="1.65" ry="1.63"/>
          <path class="cls-54" d="M184.41,48.58a1.64,1.64,0,1,1-1.7-1.58h.06A1.64,1.64,0,0,1,184.41,48.58Z"/>
          <path class="cls-55" d="M184.69,48.33A1.63,1.63,0,1,1,183,46.72h0A1.63,1.63,0,0,1,184.69,48.33Z"/>
          <path class="cls-56" d="M185,48.08a1.63,1.63,0,1,1-1.65-1.61h0A1.63,1.63,0,0,1,185,48.08Z"/>
          <path class="cls-57" d="M185.24,47.83a1.62,1.62,0,1,1-1.64-1.6h0A1.61,1.61,0,0,1,185.24,47.83Z"/>
          <path class="cls-57" d="M185.52,47.58A1.61,1.61,0,1,1,183.88,46h0A1.6,1.6,0,0,1,185.52,47.58Z"/>
          <path class="cls-58" d="M185.8,47.33a1.6,1.6,0,1,1-1.61-1.59h0a1.59,1.59,0,0,1,1.6,1.58Z"/>
          <path class="cls-59" d="M186.08,47.08a1.59,1.59,0,1,1-1.6-1.58h0a1.58,1.58,0,0,1,1.59,1.57Z"/>
          <path class="cls-60" d="M186.36,46.83a1.59,1.59,0,1,1-1.61-1.57h0a1.58,1.58,0,0,1,1.59,1.57Z"/>
          <path class="cls-61" d="M186.63,46.57A1.58,1.58,0,1,1,185,45h0a1.57,1.57,0,0,1,1.57,1.57Z"/>
          <path class="cls-61" d="M186.91,46.32a1.57,1.57,0,1,1-1.59-1.55h0a1.56,1.56,0,0,1,1.57,1.55Z"/>
          <path class="cls-62" d="M187.19,46.07a1.56,1.56,0,1,1-1.57-1.55h0a1.54,1.54,0,0,1,1.56,1.54Z"/>
          <path class="cls-63" d="M187.47,45.82a1.56,1.56,0,1,1-1.58-1.54h0A1.56,1.56,0,0,1,187.47,45.82Z"/>
          <ellipse class="cls-64" cx="186.2" cy="45.57" rx="1.55" ry="1.53"/>
          <path class="cls-64" d="M188,45.32a1.54,1.54,0,1,1-1.55-1.53h0A1.53,1.53,0,0,1,188,45.31Z"/>
          <path class="cls-65" d="M188.3,45.07a1.53,1.53,0,1,1-1.54-1.52h0a1.52,1.52,0,0,1,1.53,1.51Z"/>
          <path class="cls-66" d="M188.58,44.82a1.52,1.52,0,1,1-1.53-1.51h0a1.52,1.52,0,0,1,1.52,1.5Z"/>
          <path class="cls-67" d="M188.86,44.56a1.52,1.52,0,1,1-1.54-1.5h0A1.52,1.52,0,0,1,188.86,44.56Z"/>
          <path class="cls-68" d="M189.14,44.31a1.51,1.51,0,1,1-1.53-1.49h0A1.5,1.5,0,0,1,189.14,44.31Z"/>
          <path class="cls-68" d="M189.42,44.06a1.5,1.5,0,1,1-1.52-1.48h0A1.5,1.5,0,0,1,189.42,44.06Z"/>
          <path class="cls-69" d="M189.69,43.81a1.49,1.49,0,1,1-1.5-1.48h0a1.48,1.48,0,0,1,1.49,1.47Z"/>
          <path class="cls-70" d="M190,43.56a1.49,1.49,0,1,1-1.51-1.47h0A1.47,1.47,0,0,1,190,43.55Z"/>
        </g>
        <g>
          <path class="cls-13" d="M36.93,166.82A1.83,1.83,0,1,1,35.09,165h0a1.81,1.81,0,0,1,1.83,1.81Z"/>
          <path class="cls-14" d="M37.17,166.6a1.82,1.82,0,1,1-1.83-1.81h0a1.81,1.81,0,0,1,1.82,1.8Z"/>
          <path class="cls-15" d="M37.42,166.38a1.82,1.82,0,1,1-1.84-1.8h0a1.81,1.81,0,0,1,1.82,1.78Z"/>
          <path class="cls-15" d="M37.66,166.15a1.81,1.81,0,1,1-1.84-1.78h0A1.79,1.79,0,0,1,37.66,166.15Z"/>
          <path class="cls-16" d="M37.91,165.93a1.8,1.8,0,1,1-1.82-1.78h0a1.79,1.79,0,0,1,1.8,1.78Z"/>
          <path class="cls-17" d="M38.15,165.71a1.79,1.79,0,1,1-1.81-1.77h0A1.79,1.79,0,0,1,38.15,165.71Z"/>
          <path class="cls-18" d="M38.4,165.49a1.79,1.79,0,1,1-1.81-1.77h0a1.78,1.78,0,0,1,1.79,1.77Z"/>
          <path class="cls-19" d="M38.64,165.27a1.78,1.78,0,1,1-1.8-1.76h0a1.76,1.76,0,0,1,1.77,1.75Z"/>
          <path class="cls-19" d="M38.89,165.05a1.77,1.77,0,1,1-1.78-1.76h0A1.76,1.76,0,0,1,38.89,165Z"/>
          <path class="cls-20" d="M39.14,164.82a1.77,1.77,0,1,1-1.8-1.74h0A1.75,1.75,0,0,1,39.14,164.82Z"/>
          <path class="cls-21" d="M39.38,164.6a1.76,1.76,0,1,1-1.78-1.74h0a1.75,1.75,0,0,1,1.76,1.74Z"/>
          <path class="cls-22" d="M39.63,164.38a1.75,1.75,0,1,1-1.77-1.73h0A1.75,1.75,0,0,1,39.63,164.38Z"/>
          <path class="cls-22" d="M39.87,164.16a1.75,1.75,0,1,1-1.77-1.73h0A1.74,1.74,0,0,1,39.87,164.16Z"/>
          <path class="cls-11" d="M40.12,163.94a1.74,1.74,0,1,1-1.76-1.72h0a1.72,1.72,0,0,1,1.74,1.72Z"/>
          <path class="cls-23" d="M40.36,163.72A1.73,1.73,0,1,1,38.62,162h0a1.72,1.72,0,0,1,1.73,1.71Z"/>
          <path class="cls-24" d="M40.61,163.49a1.73,1.73,0,1,1-1.76-1.7h0a1.72,1.72,0,0,1,1.73,1.69Z"/>
          <ellipse class="cls-25" cx="39.14" cy="163.27" rx="1.72" ry="1.7"/>
          <path class="cls-25" d="M41.1,163.05a1.71,1.71,0,1,1-1.73-1.69h0A1.71,1.71,0,0,1,41.1,163.05Z"/>
          <path class="cls-26" d="M41.34,162.83a1.7,1.7,0,1,1-1.71-1.69h0A1.71,1.71,0,0,1,41.34,162.83Z"/>
          <path class="cls-27" d="M41.59,162.61a1.7,1.7,0,1,1-1.72-1.68h0a1.69,1.69,0,0,1,1.7,1.68Z"/>
          <path class="cls-28" d="M41.84,162.39a1.69,1.69,0,1,1-1.7-1.68h0a1.68,1.68,0,0,1,1.69,1.67Z"/>
          <path class="cls-29" d="M42.08,162.16a1.68,1.68,0,1,1-1.7-1.66h0A1.68,1.68,0,0,1,42.08,162.16Z"/>
          <ellipse class="cls-29" cx="40.65" cy="161.94" rx="1.68" ry="1.66"/>
          <path class="cls-30" d="M42.57,161.72a1.67,1.67,0,1,1-1.69-1.65h0a1.66,1.66,0,0,1,1.67,1.65Z"/>
          <path class="cls-31" d="M42.82,161.5a1.67,1.67,0,1,1-1.69-1.65h0a1.66,1.66,0,0,1,1.67,1.65Z"/>
          <ellipse class="cls-12" cx="41.41" cy="161.28" rx="1.66" ry="1.64"/>
          <ellipse class="cls-32" cx="41.66" cy="161.06" rx="1.65" ry="1.63"/>
          <path class="cls-32" d="M43.55,160.83a1.64,1.64,0,1,1-1.66-1.62h0a1.63,1.63,0,0,1,1.64,1.62Z"/>
          <path class="cls-33" d="M43.8,160.61A1.64,1.64,0,1,1,42.13,159h0a1.63,1.63,0,0,1,1.64,1.6Z"/>
          <path class="cls-34" d="M44,160.39a1.63,1.63,0,1,1-1.65-1.61h0a1.61,1.61,0,0,1,1.62,1.6Z"/>
          <path class="cls-35" d="M44.29,160.17a1.62,1.62,0,1,1-1.63-1.61h0A1.62,1.62,0,0,1,44.29,160.17Z"/>
          <path class="cls-35" d="M44.54,160a1.62,1.62,0,1,1-1.64-1.6h0A1.62,1.62,0,0,1,44.54,160Z"/>
          <path class="cls-36" d="M44.78,159.72a1.61,1.61,0,1,1-1.63-1.59h0a1.6,1.6,0,0,1,1.61,1.59Z"/>
          <path class="cls-37" d="M45,159.5a1.61,1.61,0,1,1-1.64-1.58h0A1.59,1.59,0,0,1,45,159.5Z"/>
          <path class="cls-38" d="M45.27,159.28a1.6,1.6,0,1,1-1.62-1.58h0A1.6,1.6,0,0,1,45.27,159.28Z"/>
          <ellipse class="cls-39" cx="43.93" cy="159.06" rx="1.59" ry="1.57"/>
          <path class="cls-39" d="M45.76,158.84a1.58,1.58,0,1,1-1.59-1.57h0a1.57,1.57,0,0,1,1.58,1.56Z"/>
          <path class="cls-40" d="M46,158.62a1.58,1.58,0,1,1-1.6-1.56h0A1.57,1.57,0,0,1,46,158.62Z"/>
          <path class="cls-41" d="M46.25,158.39a1.57,1.57,0,1,1-1.59-1.55h0A1.56,1.56,0,0,1,46.25,158.39Z"/>
          <path class="cls-42" d="M46.5,158.17a1.56,1.56,0,1,1-1.58-1.54h0a1.54,1.54,0,0,1,1.56,1.54Z"/>
          <path class="cls-43" d="M46.74,158a1.55,1.55,0,1,1-1.56-1.54h0A1.54,1.54,0,0,1,46.74,158Z"/>
          <path class="cls-43" d="M47,157.73a1.55,1.55,0,1,1-1.57-1.53h0A1.53,1.53,0,0,1,47,157.71Z"/>
          <path class="cls-44" d="M47.24,157.51A1.54,1.54,0,1,1,45.67,156h0A1.53,1.53,0,0,1,47.24,157.51Z"/>
          <path class="cls-45" d="M47.48,157.29a1.54,1.54,0,1,1-1.56-1.52H46A1.52,1.52,0,0,1,47.48,157.29Z"/>
          <path class="cls-46" d="M47.73,157.06a1.53,1.53,0,1,1-1.55-1.51h0A1.53,1.53,0,0,1,47.73,157.06Z"/>
          <path class="cls-47" d="M48,156.84a1.52,1.52,0,1,1-1.54-1.5h0A1.52,1.52,0,0,1,48,156.84Z"/>
          <path class="cls-47" d="M48.22,156.62a1.52,1.52,0,1,1-1.54-1.5h0a1.52,1.52,0,0,1,1.52,1.5Z"/>
          <path class="cls-48" d="M48.46,156.4a1.51,1.51,0,1,1-1.53-1.49h0A1.51,1.51,0,0,1,48.46,156.4Z"/>
          <path class="cls-49" d="M48.71,156.18a1.5,1.5,0,1,1-1.51-1.49h0a1.49,1.49,0,0,1,1.5,1.48Z"/>
          <path class="cls-50" d="M49,156a1.49,1.49,0,1,1-1.5-1.48h0A1.49,1.49,0,0,1,49,156Z"/>
          <path class="cls-50" d="M49.2,155.73a1.49,1.49,0,1,1-1.51-1.47h0A1.48,1.48,0,0,1,49.2,155.73Z"/>
          <ellipse class="cls-10" cx="47.97" cy="155.51" rx="1.48" ry="1.47"/>
          <path class="cls-51" d="M49.69,155.29a1.47,1.47,0,1,1-1.48-1.46h0a1.46,1.46,0,0,1,1.47,1.45Z"/>
          <ellipse class="cls-52" cx="48.47" cy="155.07" rx="1.47" ry="1.45"/>
          <path class="cls-53" d="M50.18,154.85a1.46,1.46,0,1,1-1.46-1.46A1.46,1.46,0,0,1,50.18,154.85Z"/>
          <path class="cls-53" d="M50.43,154.63A1.46,1.46,0,1,1,49,153.19h0A1.44,1.44,0,0,1,50.43,154.63Z"/>
          <path class="cls-54" d="M50.67,154.4a1.45,1.45,0,1,1-1.5-1.4h.06A1.43,1.43,0,0,1,50.67,154.4Z"/>
          <path class="cls-55" d="M50.92,154.18a1.44,1.44,0,1,1-1.46-1.42h0A1.44,1.44,0,0,1,50.92,154.18Z"/>
          <path class="cls-56" d="M51.16,154a1.43,1.43,0,1,1-1.44-1.42h0A1.43,1.43,0,0,1,51.16,154Z"/>
          <path class="cls-57" d="M51.41,153.74A1.43,1.43,0,1,1,50,152.33h0A1.42,1.42,0,0,1,51.41,153.74Z"/>
          <path class="cls-57" d="M51.65,153.52a1.42,1.42,0,1,1-1.43-1.41h0a1.41,1.41,0,0,1,1.41,1.41Z"/>
          <path class="cls-58" d="M51.9,153.3a1.41,1.41,0,1,1-1.42-1.4h0a1.4,1.4,0,0,1,1.41,1.39Z"/>
          <path class="cls-59" d="M52.15,153.07a1.41,1.41,0,1,1-1.43-1.39h0A1.41,1.41,0,0,1,52.15,153.07Z"/>
          <path class="cls-60" d="M52.39,152.85A1.4,1.4,0,1,1,51,151.47h0A1.39,1.39,0,0,1,52.39,152.85Z"/>
          <path class="cls-61" d="M52.64,152.63a1.4,1.4,0,1,1-1.42-1.38h0A1.4,1.4,0,0,1,52.64,152.63Z"/>
          <path class="cls-61" d="M52.88,152.41A1.39,1.39,0,1,1,51.5,151a1.37,1.37,0,0,1,1.38,1.36Z"/>
          <path class="cls-62" d="M53.13,152.19a1.38,1.38,0,1,1-1.39-1.37h0a1.37,1.37,0,0,1,1.38,1.36Z"/>
          <path class="cls-63" d="M53.37,152A1.37,1.37,0,1,1,52,150.61,1.37,1.37,0,0,1,53.37,152Z"/>
          <path class="cls-64" d="M53.62,151.74a1.37,1.37,0,1,1-1.39-1.35h0a1.36,1.36,0,0,1,1.37,1.35Z"/>
          <path class="cls-64" d="M53.86,151.52a1.36,1.36,0,1,1-1.38-1.34h0A1.36,1.36,0,0,1,53.86,151.52Z"/>
          <ellipse class="cls-65" cx="52.76" cy="151.3" rx="1.35" ry="1.34"/>
          <path class="cls-66" d="M54.35,151.08A1.34,1.34,0,1,1,53,149.75a1.34,1.34,0,0,1,1.35,1.33Z"/>
          <path class="cls-67" d="M54.6,150.86a1.34,1.34,0,1,1-1.35-1.33h0a1.34,1.34,0,0,1,1.34,1.32Z"/>
          <path class="cls-68" d="M54.85,150.64a1.33,1.33,0,1,1-1.34-1.32h0A1.33,1.33,0,0,1,54.85,150.64Z"/>
          <path class="cls-68" d="M55.09,150.41a1.33,1.33,0,1,1-1.35-1.31h0A1.32,1.32,0,0,1,55.09,150.41Z"/>
          <ellipse class="cls-69" cx="54.02" cy="150.19" rx="1.32" ry="1.3"/>
          <path class="cls-70" d="M55.58,150a1.31,1.31,0,1,1-1.32-1.3h0A1.3,1.3,0,0,1,55.58,150Z"/>
        </g>
        <g>
          <path class="cls-13" d="M150,160.71a1.83,1.83,0,1,1-1.85-1.81h0a1.81,1.81,0,0,1,1.83,1.81Z"/>
          <path class="cls-14" d="M150.25,160.49a1.82,1.82,0,1,1-1.84-1.8h0a1.81,1.81,0,0,1,1.82,1.8Z"/>
          <path class="cls-15" d="M150.5,160.27a1.82,1.82,0,1,1-1.84-1.8h0a1.81,1.81,0,0,1,1.81,1.79Z"/>
          <path class="cls-15" d="M150.74,160.05a1.81,1.81,0,1,1-1.83-1.79h0a1.79,1.79,0,0,1,1.8,1.78Z"/>
          <path class="cls-16" d="M151,159.82a1.8,1.8,0,1,1-1.82-1.78h0A1.79,1.79,0,0,1,151,159.82Z"/>
          <path class="cls-17" d="M151.23,159.6a1.79,1.79,0,1,1-1.81-1.77h0A1.79,1.79,0,0,1,151.23,159.6Z"/>
          <ellipse class="cls-18" cx="149.69" cy="159.38" rx="1.78" ry="1.77"/>
          <ellipse class="cls-19" cx="149.95" cy="159.16" rx="1.78" ry="1.76"/>
          <path class="cls-19" d="M152,158.94a1.77,1.77,0,1,1-1.78-1.76h0a1.76,1.76,0,0,1,1.77,1.75Z"/>
          <path class="cls-20" d="M152.22,158.72a1.77,1.77,0,1,1-1.79-1.75h0a1.75,1.75,0,0,1,1.77,1.73Z"/>
          <path class="cls-21" d="M152.46,158.49a1.76,1.76,0,1,1-1.78-1.74h0a1.75,1.75,0,0,1,1.76,1.74Z"/>
          <path class="cls-22" d="M152.71,158.27a1.75,1.75,0,1,1-1.77-1.73h0A1.75,1.75,0,0,1,152.71,158.27Z"/>
          <path class="cls-22" d="M153,158.05a1.75,1.75,0,1,1-1.77-1.73h0A1.74,1.74,0,0,1,153,158.05Z"/>
          <path class="cls-11" d="M153.2,157.83a1.74,1.74,0,1,1-1.76-1.72h0a1.72,1.72,0,0,1,1.74,1.72Z"/>
          <path class="cls-23" d="M153.44,157.61a1.73,1.73,0,1,1-1.74-1.72h0a1.72,1.72,0,0,1,1.73,1.71Z"/>
          <path class="cls-24" d="M153.69,157.39a1.73,1.73,0,1,1-1.75-1.71h0a1.72,1.72,0,0,1,1.72,1.7Z"/>
          <path class="cls-25" d="M153.93,157.16a1.72,1.72,0,1,1-1.74-1.7h0A1.71,1.71,0,0,1,153.93,157.16Z"/>
          <path class="cls-25" d="M154.18,156.94a1.71,1.71,0,1,1-1.73-1.69h0A1.71,1.71,0,0,1,154.18,156.94Z"/>
          <path class="cls-26" d="M154.43,156.72A1.71,1.71,0,1,1,152.7,155h0A1.71,1.71,0,0,1,154.43,156.72Z"/>
          <path class="cls-27" d="M154.67,156.5a1.7,1.7,0,1,1-1.72-1.68h0a1.69,1.69,0,0,1,1.7,1.68Z"/>
          <path class="cls-28" d="M154.92,156.28a1.69,1.69,0,1,1-1.7-1.68h0a1.68,1.68,0,0,1,1.69,1.67Z"/>
          <path class="cls-29" d="M155.16,156.05a1.68,1.68,0,1,1-1.7-1.66h0a1.67,1.67,0,0,1,1.68,1.66Z"/>
          <path class="cls-29" d="M155.41,155.83a1.68,1.68,0,1,1-1.7-1.66h0a1.67,1.67,0,0,1,1.68,1.66Z"/>
          <path class="cls-30" d="M155.65,155.61a1.67,1.67,0,1,1-1.73-1.61H154A1.66,1.66,0,0,1,155.65,155.61Z"/>
          <path class="cls-31" d="M155.9,155.39a1.67,1.67,0,1,1-1.69-1.65h0A1.67,1.67,0,0,1,155.9,155.39Z"/>
          <path class="cls-12" d="M156.14,155.17a1.66,1.66,0,1,1-1.68-1.64h0A1.65,1.65,0,0,1,156.14,155.17Z"/>
          <path class="cls-32" d="M156.39,155a1.65,1.65,0,1,1-1.66-1.64h0a1.63,1.63,0,0,1,1.65,1.63Z"/>
          <path class="cls-32" d="M156.63,154.73A1.64,1.64,0,1,1,155,153.1h0A1.63,1.63,0,0,1,156.63,154.73Z"/>
          <path class="cls-33" d="M156.88,154.5a1.64,1.64,0,1,1-1.66-1.62h0a1.63,1.63,0,0,1,1.64,1.6Z"/>
          <path class="cls-34" d="M157.13,154.28a1.63,1.63,0,1,1-1.65-1.61h0A1.63,1.63,0,0,1,157.13,154.28Z"/>
          <path class="cls-35" d="M157.37,154.06a1.62,1.62,0,1,1-1.63-1.61h0A1.62,1.62,0,0,1,157.37,154.06Z"/>
          <path class="cls-35" d="M157.62,153.84a1.62,1.62,0,1,1-1.64-1.6h0A1.62,1.62,0,0,1,157.62,153.84Z"/>
          <path class="cls-36" d="M157.86,153.62a1.61,1.61,0,1,1-1.62-1.6h0a1.6,1.6,0,0,1,1.61,1.59Z"/>
          <path class="cls-37" d="M158.11,153.39a1.61,1.61,0,1,1-1.64-1.58h0A1.59,1.59,0,0,1,158.11,153.39Z"/>
          <path class="cls-38" d="M158.35,153.17a1.6,1.6,0,1,1-1.62-1.58h0a1.58,1.58,0,0,1,1.59,1.57Z"/>
          <ellipse class="cls-39" cx="157.01" cy="152.95" rx="1.59" ry="1.57"/>
          <path class="cls-39" d="M158.84,152.73a1.58,1.58,0,1,1-1.59-1.57h0a1.57,1.57,0,0,1,1.58,1.56Z"/>
          <path class="cls-40" d="M159.09,152.51a1.58,1.58,0,1,1-1.6-1.56h0a1.57,1.57,0,0,1,1.58,1.56Z"/>
          <path class="cls-41" d="M159.33,152.29a1.57,1.57,0,1,1-1.58-1.56h0A1.56,1.56,0,0,1,159.33,152.29Z"/>
          <path class="cls-42" d="M159.58,152.06a1.56,1.56,0,1,1-1.58-1.54h0a1.54,1.54,0,0,1,1.56,1.54Z"/>
          <ellipse class="cls-43" cx="158.27" cy="151.84" rx="1.55" ry="1.54"/>
          <ellipse class="cls-43" cx="158.52" cy="151.62" rx="1.55" ry="1.53"/>
          <path class="cls-44" d="M160.32,151.4a1.54,1.54,0,1,1-1.55-1.53h0A1.54,1.54,0,0,1,160.32,151.4Z"/>
          <path class="cls-45" d="M160.56,151.18a1.53,1.53,0,1,1-1.54-1.52h0a1.52,1.52,0,0,1,1.53,1.51Z"/>
          <path class="cls-46" d="M160.81,151a1.53,1.53,0,1,1-1.54-1.52h0A1.53,1.53,0,0,1,160.81,151Z"/>
          <path class="cls-47" d="M161.05,150.73a1.52,1.52,0,1,1-1.54-1.5h0a1.52,1.52,0,0,1,1.52,1.5Z"/>
          <path class="cls-47" d="M161.3,150.51a1.52,1.52,0,1,1-1.54-1.5h0A1.51,1.51,0,0,1,161.3,150.51Z"/>
          <path class="cls-48" d="M161.54,150.29a1.51,1.51,0,1,1-1.33-1.33A1.52,1.52,0,0,1,161.54,150.29Z"/>
          <path class="cls-49" d="M161.79,150.07a1.5,1.5,0,1,1-1.51-1.49h0A1.51,1.51,0,0,1,161.79,150.07Z"/>
          <path class="cls-50" d="M162,149.85a1.49,1.49,0,1,1-1.5-1.48h0A1.49,1.49,0,0,1,162,149.85Z"/>
          <path class="cls-50" d="M162.28,149.63a1.49,1.49,0,1,1-1.5-1.48h0a1.48,1.48,0,0,1,1.49,1.47Z"/>
          <path class="cls-10" d="M162.53,149.4a1.5,1.5,0,1,1-1.5-1.5A1.5,1.5,0,0,1,162.53,149.4Z"/>
          <path class="cls-51" d="M162.77,149.18a1.47,1.47,0,1,1-1.48-1.46h0a1.46,1.46,0,0,1,1.47,1.45Z"/>
          <path class="cls-52" d="M163,149a1.47,1.47,0,1,1-1.49-1.45h0A1.46,1.46,0,0,1,163,149Z"/>
          <path class="cls-53" d="M163.26,148.74a1.46,1.46,0,1,1-1.47-1.45h0a1.45,1.45,0,0,1,1.46,1.44Z"/>
          <path class="cls-53" d="M163.51,148.52a1.46,1.46,0,1,1-1.48-1.44h0A1.45,1.45,0,0,1,163.51,148.52Z"/>
          <path class="cls-54" d="M163.75,148.3a1.45,1.45,0,1,1-1.46-1.44h0a1.43,1.43,0,0,1,1.44,1.42Z"/>
          <path class="cls-55" d="M164,148.07a1.44,1.44,0,1,1-1.46-1.42h0A1.44,1.44,0,0,1,164,148.07Z"/>
          <path class="cls-56" d="M164.24,147.85a1.43,1.43,0,1,1-1.44-1.42h0a1.43,1.43,0,0,1,1.43,1.41Z"/>
          <path class="cls-57" d="M164.49,147.63a1.43,1.43,0,1,1-1.45-1.41h0a1.43,1.43,0,0,1,1.43,1.41Z"/>
          <path class="cls-57" d="M164.74,147.41a1.42,1.42,0,1,1-1.43-1.41h0a1.41,1.41,0,0,1,1.42,1.4Z"/>
          <path class="cls-58" d="M165,147.19a1.41,1.41,0,1,1-1.42-1.4h0A1.42,1.42,0,0,1,165,147.19Z"/>
          <path class="cls-59" d="M165.23,147a1.41,1.41,0,1,1-1.42-1.4h0a1.4,1.4,0,0,1,1.41,1.39Z"/>
          <path class="cls-60" d="M165.47,146.74a1.4,1.4,0,1,1-1.42-1.38h0a1.39,1.39,0,0,1,1.4,1.38Z"/>
          <ellipse class="cls-61" cx="164.33" cy="146.52" rx="1.39" ry="1.38"/>
          <path class="cls-61" d="M166,146.3a1.39,1.39,0,1,1-1.41-1.37h0a1.37,1.37,0,0,1,1.38,1.36Z"/>
          <path class="cls-62" d="M166.21,146.08a1.38,1.38,0,1,1-1.39-1.37h0a1.37,1.37,0,0,1,1.38,1.36Z"/>
          <path class="cls-63" d="M166.45,145.86a1.37,1.37,0,1,1-1.38-1.36h0a1.36,1.36,0,0,1,1.37,1.35Z"/>
          <path class="cls-64" d="M166.7,145.64a1.37,1.37,0,1,1-1.38-1.36h0a1.36,1.36,0,0,1,1.37,1.35Z"/>
          <path class="cls-64" d="M166.94,145.41a1.36,1.36,0,1,1-1.38-1.34h0a1.34,1.34,0,0,1,1.35,1.33Z"/>
          <ellipse class="cls-65" cx="165.84" cy="145.19" rx="1.35" ry="1.34"/>
          <path class="cls-66" d="M167.44,145a1.35,1.35,0,1,1-1.37-1.33h0a1.34,1.34,0,0,1,1.35,1.33Z"/>
          <path class="cls-67" d="M167.68,144.75a1.34,1.34,0,1,1-1.35-1.33h0a1.34,1.34,0,0,1,1.34,1.32Z"/>
          <path class="cls-68" d="M167.93,144.53a1.33,1.33,0,1,1-1.34-1.32h0A1.33,1.33,0,0,1,167.93,144.53Z"/>
          <path class="cls-68" d="M168.17,144.31a1.32,1.32,0,1,1-1.32-1.32,1.32,1.32,0,0,1,1.32,1.32Z"/>
          <ellipse class="cls-69" cx="167.1" cy="144.08" rx="1.32" ry="1.3"/>
          <path class="cls-70" d="M168.66,143.86a1.31,1.31,0,1,1-1.32-1.3h0a1.3,1.3,0,0,1,1.31,1.29Z"/>
        </g>
        <g>
          <path class="cls-13" d="M34.26,117.78a2,2,0,1,1-2-2A2,2,0,0,1,34.26,117.78Z"/>
          <path class="cls-14" d="M34.52,117.55a2,2,0,1,1-2-2,2,2,0,0,1,2,1.9Z"/>
          <path class="cls-15" d="M34.79,117.31a2,2,0,1,1-2.06-1.94h.11a1.94,1.94,0,0,1,1.95,1.93Z"/>
          <ellipse class="cls-15" cx="33.11" cy="117.07" rx="1.95" ry="1.93"/>
          <path class="cls-16" d="M35.32,116.83a1.94,1.94,0,1,1-2-1.92h0a1.92,1.92,0,0,1,1.94,1.92Z"/>
          <path class="cls-17" d="M35.58,116.59a1.93,1.93,0,1,1-1.94-1.92h0a1.92,1.92,0,0,1,1.93,1.89Z"/>
          <path class="cls-18" d="M35.85,116.35a1.93,1.93,0,1,1-2-1.91h0a1.92,1.92,0,0,1,1.93,1.91Z"/>
          <path class="cls-19" d="M36.11,116.11a1.92,1.92,0,1,1-1.94-1.9h0A1.91,1.91,0,0,1,36.11,116.11Z"/>
          <path class="cls-19" d="M36.38,115.87a1.91,1.91,0,1,1-2-1.87h0A1.9,1.9,0,0,1,36.38,115.87Z"/>
          <path class="cls-20" d="M36.64,115.63a1.9,1.9,0,1,1-1.92-1.88h0A1.9,1.9,0,0,1,36.64,115.63Z"/>
          <path class="cls-21" d="M36.91,115.39A1.9,1.9,0,1,1,35,113.52h0A1.89,1.89,0,0,1,36.91,115.39Z"/>
          <path class="cls-22" d="M37.17,115.15a1.89,1.89,0,1,1-1.91-1.87h0a1.88,1.88,0,0,1,1.89,1.87Z"/>
          <path class="cls-22" d="M37.43,114.92a1.88,1.88,0,1,1-1.89-1.87h0a1.87,1.87,0,0,1,1.88,1.86Z"/>
          <path class="cls-11" d="M37.7,114.68a1.88,1.88,0,1,1-1.9-1.86h0a1.86,1.86,0,0,1,1.87,1.85Z"/>
          <ellipse class="cls-23" cx="36.1" cy="114.44" rx="1.87" ry="1.85"/>
          <path class="cls-24" d="M38.23,114.2a1.86,1.86,0,1,1-1.88-1.84h0a1.85,1.85,0,0,1,1.86,1.84Z"/>
          <path class="cls-25" d="M38.49,114a1.85,1.85,0,1,1-1.87-1.83h0A1.84,1.84,0,0,1,38.49,114Z"/>
          <path class="cls-25" d="M38.76,113.72a1.85,1.85,0,1,1-1.87-1.83h0a1.84,1.84,0,0,1,1.85,1.83Z"/>
          <path class="cls-26" d="M39,113.48a1.84,1.84,0,1,1-1.86-1.82h0A1.81,1.81,0,0,1,39,113.47Z"/>
          <path class="cls-27" d="M39.29,113.24a1.83,1.83,0,1,1-1.85-1.81h0A1.83,1.83,0,0,1,39.29,113.24Z"/>
          <path class="cls-28" d="M39.55,113a1.82,1.82,0,1,1-1.84-1.8h0a1.81,1.81,0,0,1,1.82,1.8Z"/>
          <path class="cls-29" d="M39.82,112.76A1.82,1.82,0,1,1,37.94,111H38A1.81,1.81,0,0,1,39.82,112.76Z"/>
          <path class="cls-29" d="M40.08,112.53a1.81,1.81,0,1,1-1.82-1.8h0A1.81,1.81,0,0,1,40.08,112.53Z"/>
          <ellipse class="cls-30" cx="38.55" cy="112.29" rx="1.8" ry="1.78"/>
          <path class="cls-31" d="M40.61,112.05a1.79,1.79,0,1,1-1.8-1.78h0A1.78,1.78,0,0,1,40.61,112Z"/>
          <ellipse class="cls-12" cx="39.09" cy="111.81" rx="1.78" ry="1.77"/>
          <path class="cls-32" d="M41.14,111.57a1.78,1.78,0,1,1-1.8-1.76h0a1.77,1.77,0,0,1,1.78,1.76Z"/>
          <path class="cls-32" d="M41.4,111.33a1.77,1.77,0,1,1-1.79-1.75h0a1.76,1.76,0,0,1,1.77,1.75Z"/>
          <path class="cls-33" d="M41.67,111.09a1.77,1.77,0,1,1-1.79-1.75h0a1.75,1.75,0,0,1,1.76,1.74Z"/>
          <path class="cls-34" d="M41.93,110.85a1.76,1.76,0,1,1-1.78-1.74h0a1.74,1.74,0,0,1,1.75,1.73Z"/>
          <path class="cls-35" d="M42.2,110.61a1.75,1.75,0,1,1-1.77-1.73h0a1.74,1.74,0,0,1,1.75,1.73Z"/>
          <path class="cls-35" d="M42.46,110.37a1.74,1.74,0,1,1-1.76-1.72h0a1.72,1.72,0,0,1,1.74,1.72Z"/>
          <ellipse class="cls-36" cx="40.99" cy="110.14" rx="1.73" ry="1.72"/>
          <ellipse class="cls-37" cx="41.27" cy="109.9" rx="1.73" ry="1.71"/>
          <path class="cls-38" d="M43.26,109.66A1.72,1.72,0,1,1,41.48,108h.06A1.71,1.71,0,0,1,43.26,109.66Z"/>
          <path class="cls-39" d="M43.52,109.42a1.71,1.71,0,1,1-1.72-1.7h0a1.7,1.7,0,0,1,1.71,1.69Z"/>
          <path class="cls-39" d="M43.79,109.18a1.71,1.71,0,1,1-1.73-1.69h0A1.71,1.71,0,0,1,43.79,109.18Z"/>
          <path class="cls-40" d="M44.05,108.94a1.7,1.7,0,1,1-1.72-1.68h0a1.69,1.69,0,0,1,1.7,1.68Z"/>
          <path class="cls-41" d="M44.32,108.7a1.69,1.69,0,1,1-1.69-1.7,1.69,1.69,0,0,1,1.69,1.7Z"/>
          <path class="cls-42" d="M44.58,108.46a1.68,1.68,0,1,1-1.69-1.67h0A1.69,1.69,0,0,1,44.58,108.46Z"/>
          <path class="cls-43" d="M44.85,108.22a1.68,1.68,0,1,1-1.7-1.66h0a1.67,1.67,0,0,1,1.68,1.66Z"/>
          <path class="cls-43" d="M45.11,108a1.67,1.67,0,1,1-1.69-1.65h0A1.66,1.66,0,0,1,45.11,108Z"/>
          <path class="cls-44" d="M45.37,107.75a1.66,1.66,0,1,1-1.67-1.65h0a1.65,1.65,0,0,1,1.66,1.64Z"/>
          <ellipse class="cls-45" cx="43.99" cy="107.51" rx="1.65" ry="1.64"/>
          <path class="cls-46" d="M45.9,107.27a1.65,1.65,0,1,1-1.67-1.63h0a1.63,1.63,0,0,1,1.64,1.62Z"/>
          <path class="cls-47" d="M46.17,107a1.64,1.64,0,1,1-1.65-1.63h0A1.63,1.63,0,0,1,46.17,107Z"/>
          <path class="cls-47" d="M46.43,106.79a1.63,1.63,0,1,1-1.64-1.62h0A1.63,1.63,0,0,1,46.43,106.79Z"/>
          <path class="cls-48" d="M46.7,106.55a1.63,1.63,0,1,1-1.65-1.61h0a1.63,1.63,0,0,1,1.63,1.61Z"/>
          <path class="cls-49" d="M47,106.31a1.62,1.62,0,1,1-1.64-1.6h0A1.6,1.6,0,0,1,47,106.3Z"/>
          <path class="cls-50" d="M47.23,106.07a1.61,1.61,0,1,1-1.63-1.59h0A1.61,1.61,0,0,1,47.23,106.07Z"/>
          <path class="cls-50" d="M47.49,105.83a1.6,1.6,0,1,1-1.61-1.59h0A1.6,1.6,0,0,1,47.49,105.83Z"/>
          <path class="cls-10" d="M47.76,105.59A1.6,1.6,0,1,1,46.14,104h0a1.59,1.59,0,0,1,1.6,1.58Z"/>
          <path class="cls-51" d="M48,105.35a1.59,1.59,0,1,1-1.61-1.57h0A1.59,1.59,0,0,1,48,105.35Z"/>
          <ellipse class="cls-52" cx="46.71" cy="105.12" rx="1.58" ry="1.57"/>
          <path class="cls-53" d="M48.55,104.88A1.57,1.57,0,1,1,47,103.32h0A1.56,1.56,0,0,1,48.55,104.88Z"/>
          <path class="cls-53" d="M48.82,104.64a1.57,1.57,0,1,1-1.59-1.55h0A1.57,1.57,0,0,1,48.82,104.64Z"/>
          <path class="cls-54" d="M49.08,104.4a1.56,1.56,0,1,1-1.57-1.55h0a1.54,1.54,0,0,1,1.56,1.54Z"/>
          <path class="cls-55" d="M49.34,104.16a1.55,1.55,0,1,1-1.56-1.54h0a1.54,1.54,0,0,1,1.55,1.53Z"/>
          <path class="cls-56" d="M49.61,103.92A1.55,1.55,0,1,1,48,102.39h0a1.53,1.53,0,0,1,1.54,1.52Z"/>
          <path class="cls-57" d="M49.87,103.68a1.54,1.54,0,1,1-1.56-1.52h0a1.52,1.52,0,0,1,1.53,1.51Z"/>
          <path class="cls-57" d="M50.14,103.44a1.53,1.53,0,1,1-1.55-1.51h0A1.53,1.53,0,0,1,50.14,103.44Z"/>
          <path class="cls-58" d="M50.4,103.2a1.52,1.52,0,1,1-1.54-1.5h0a1.52,1.52,0,0,1,1.52,1.5Z"/>
          <path class="cls-59" d="M50.67,103a1.52,1.52,0,1,1-1.54-1.5h0A1.52,1.52,0,0,1,50.67,103Z"/>
          <path class="cls-60" d="M50.93,102.73a1.51,1.51,0,1,1-1.52-1.5h0A1.5,1.5,0,0,1,50.93,102.73Z"/>
          <path class="cls-61" d="M51.2,102.49A1.5,1.5,0,1,1,49.69,101h0a1.49,1.49,0,0,1,1.5,1.48Z"/>
          <path class="cls-61" d="M51.46,102.25a1.49,1.49,0,1,1-1.5-1.48h0A1.49,1.49,0,0,1,51.46,102.25Z"/>
          <path class="cls-62" d="M51.73,102a1.49,1.49,0,1,1-1.51-1.47h0A1.48,1.48,0,0,1,51.73,102Z"/>
          <path class="cls-63" d="M52,101.77a1.48,1.48,0,1,1-1.49-1.47h0A1.47,1.47,0,0,1,52,101.76Z"/>
          <path class="cls-64" d="M52.26,101.53a1.47,1.47,0,1,1-1.48-1.46h0a1.46,1.46,0,0,1,1.47,1.45Z"/>
          <path class="cls-64" d="M52.52,101.29A1.47,1.47,0,1,1,51,99.84h0a1.45,1.45,0,0,1,1.46,1.44Z"/>
          <path class="cls-65" d="M52.79,101.05a1.46,1.46,0,1,1-1.48-1.44h0A1.46,1.46,0,0,1,52.79,101.05Z"/>
          <path class="cls-66" d="M53.05,100.81a1.45,1.45,0,1,1-1.47-1.43h0a1.43,1.43,0,0,1,1.45,1.43Z"/>
          <path class="cls-67" d="M53.31,100.57a1.44,1.44,0,1,1-1.46-1.42h0a1.43,1.43,0,0,1,1.44,1.42Z"/>
          <path class="cls-68" d="M53.58,100.34a1.44,1.44,0,1,1-1.45-1.43h0a1.43,1.43,0,0,1,1.43,1.43Z"/>
          <ellipse class="cls-68" cx="52.42" cy="100.1" rx="1.43" ry="1.41"/>
          <path class="cls-69" d="M54.11,99.86a1.42,1.42,0,1,1-1.43-1.41h0a1.41,1.41,0,0,1,1.42,1.4Z"/>
          <path class="cls-70" d="M54.37,99.62A1.41,1.41,0,1,1,53,98.22h0A1.41,1.41,0,0,1,54.37,99.62Z"/>
        </g>
      </g>
    </g>
    <g id="Rocket_Launch-3" data-name="Rocket Launch-3">
      <path class="cls-71" d="M74,206.11l.44.56c.17.23.36.49.54.77s.38.58.56.89a9.42,9.42,0,0,1,.47.89h-1.2c-.14-.27-.3-.55-.47-.82s-.34-.55-.51-.81-.35-.49-.52-.71-.32-.42-.46-.58H71.32v2.91h-1v-7.34a5.6,5.6,0,0,1,1-.14h1a4.16,4.16,0,0,1,2.41.59,2.26,2.26,0,0,1,.43,3A2.39,2.39,0,0,1,74,206.11Zm-1.6-3.5a8.34,8.34,0,0,0-1,0v2.8h.75a8.34,8.34,0,0,0,1,0,2.35,2.35,0,0,0,.73-.21,1.1,1.1,0,0,0,.46-.42,1.68,1.68,0,0,0,0-1.43,1.32,1.32,0,0,0-.44-.44,2.08,2.08,0,0,0-.65-.22,5.47,5.47,0,0,0-.9-.08Z"/>
      <path class="cls-71" d="M76.67,205.49a4.41,4.41,0,0,1,.29-1.68,3.35,3.35,0,0,1,.78-1.22,3.12,3.12,0,0,1,1.15-.74,3.88,3.88,0,0,1,1.39-.25,4,4,0,0,1,1.37.25,3.17,3.17,0,0,1,1.13.74,3.35,3.35,0,0,1,.78,1.22,5,5,0,0,1,0,3.37,3.49,3.49,0,0,1-.78,1.22,3.17,3.17,0,0,1-1.13.74,4,4,0,0,1-1.37.24,4.15,4.15,0,0,1-1.39-.24,3.12,3.12,0,0,1-1.15-.74,3.49,3.49,0,0,1-.78-1.22A4.43,4.43,0,0,1,76.67,205.49Zm1.1,0a3.67,3.67,0,0,0,.18,1.23,2.65,2.65,0,0,0,.49.94,2.18,2.18,0,0,0,.78.6,2.66,2.66,0,0,0,2.07,0,2.15,2.15,0,0,0,.77-.6,2.84,2.84,0,0,0,.5-.94,4.53,4.53,0,0,0,0-2.46,3,3,0,0,0-.5-.94,2.12,2.12,0,0,0-.77-.59,2.66,2.66,0,0,0-2.07,0,2,2,0,0,0-.78.59,2.82,2.82,0,0,0-.49.94A4.26,4.26,0,0,0,77.77,205.49Z"/>
      <path class="cls-71" d="M88.64,209.38a3.94,3.94,0,0,1-1.44-.25,3.18,3.18,0,0,1-1.12-.76,3.43,3.43,0,0,1-.72-1.22,4.93,4.93,0,0,1-.26-1.66,4.47,4.47,0,0,1,.29-1.66,3.49,3.49,0,0,1,.78-1.22,3.19,3.19,0,0,1,1.13-.75,3.85,3.85,0,0,1,1.39-.26,4.76,4.76,0,0,1,.84.07,3.61,3.61,0,0,1,.65.15,2.45,2.45,0,0,1,.45.17l.24.13-.3.86-.28-.14-.42-.15a4.7,4.7,0,0,0-.51-.12,4.47,4.47,0,0,0-1.63.2,2.39,2.39,0,0,0-.82.59,2.87,2.87,0,0,0-.51.94,4,4,0,0,0-.18,1.24,4.22,4.22,0,0,0,.16,1.22,2.6,2.6,0,0,0,.47.94,2.21,2.21,0,0,0,.78.61,2.6,2.6,0,0,0,1.1.21,4.1,4.1,0,0,0,1.21-.15,4.71,4.71,0,0,0,.71-.27l.27.86a1.74,1.74,0,0,1-.27.14l-.48.15c-.2.05-.43.09-.69.13A5.89,5.89,0,0,1,88.64,209.38Z"/>
      <path class="cls-71" d="M97.69,201.78l-.76.81-.88.91-.92.92-.86.84a8.47,8.47,0,0,1,1,.79,13.48,13.48,0,0,1,1,1c.31.35.65.73.94,1.1a11.06,11.06,0,0,1,.73,1.06H96.71a10.33,10.33,0,0,0-.74-1c-.29-.34-.58-.67-.9-1a12.5,12.5,0,0,0-.95-.87,8.9,8.9,0,0,0-.94-.67v3.53H92.13v-7.44h1.05V205c.25-.23.53-.5.83-.8s.61-.59.9-.89.58-.59.84-.87l.67-.72Z"/>
      <path class="cls-71" d="M99,209.22v-7.44h4.58v.89H100v2.21h3.14v.87H100v2.58h3.8v.89Z"/>
      <path class="cls-71" d="M110.16,201.78v.9h-2.37v6.54h-1.05v-6.54h-2.36v-.9Z"/>
      <path class="cls-71" d="M118.29,208.32v.9h-4.52v-7.44h1v6.54Z"/>
      <path class="cls-71" d="M129.72,209.38a3.29,3.29,0,0,1-1.28-.22,2.51,2.51,0,0,1-.89-.62,2.75,2.75,0,0,1-.52-.93,3.82,3.82,0,0,1-.16-1.16v-4.67h1v4.55a2.16,2.16,0,0,0,.5,1.62,1.7,1.7,0,0,0,1.3.51,2.24,2.24,0,0,0,.73-.12,1.44,1.44,0,0,0,.6-.34,1.73,1.73,0,0,0,.37-.66,3.35,3.35,0,0,0,.13-1v-4.55h1v4.67a4.17,4.17,0,0,1-.17,1.16,2.38,2.38,0,0,1-.52.93,2.51,2.51,0,0,1-.89.62A3.26,3.26,0,0,1,129.72,209.38Z"/>
      <path class="cls-71" d="M139.53,209.22l-.55-.89c-.2-.33-.43-.67-.66-1l-.75-1.08c-.25-.36-.51-.71-.76-1.05l-.74-1c-.24-.33-.46-.56-.66-.79v5.81h-1v-7.44h.83c.37.39.73.8,1.06,1.22s.77,1,1.15,1.47.74,1,1.08,1.49.62.92.85,1.3v-5.51h1v7.44Z"/>
      <path class="cls-71" d="M145.5,209.38a3.94,3.94,0,0,1-1.44-.25,3.18,3.18,0,0,1-1.84-2,5,5,0,0,1-.25-1.66,4.47,4.47,0,0,1,.29-1.66,3.71,3.71,0,0,1,.77-1.22,3.23,3.23,0,0,1,1.14-.75,3.85,3.85,0,0,1,1.39-.26,4.76,4.76,0,0,1,.84.07,3.61,3.61,0,0,1,.65.15,4.13,4.13,0,0,1,.45.17l.24.13-.31.86-.28-.14-.42-.15-.51-.12a2.53,2.53,0,0,0-.55,0,2.66,2.66,0,0,0-1.08.2,2.15,2.15,0,0,0-.81.59,2.89,2.89,0,0,0-.52.94,4.32,4.32,0,0,0-.17,1.24,5,5,0,0,0,.15,1.22,2.77,2.77,0,0,0,.47.94,2.16,2.16,0,0,0,.79.61,2.6,2.6,0,0,0,1.1.21,4,4,0,0,0,1.2-.15,4.44,4.44,0,0,0,.72-.27l.27.86a1.74,1.74,0,0,1-.27.14,4,4,0,0,1-.49.15c-.19.05-.42.09-.68.13A6,6,0,0,1,145.5,209.38Z"/>
      <path class="cls-71" d="M153.72,201.78h1.05v7.44h-1.05v-3.44h-3.67v3.44H149v-7.44h1.06v3.1h3.67Z"/>
      <path class="cls-71" d="M124.86,209.22c-.12-.32-.24-.64-.35-.95s-.22-.63-.33-1h-3.41l-.68,1.9H119l.81-2.18c.25-.67.5-1.31.74-1.91s.48-1.18.72-1.73.49-1.09.75-1.62h1c.26.53.51,1.08.74,1.62l.73,1.73c.25.6.48,1.24.74,1.91l.81,2.18Zm-1-2.76-.68-1.81c-.23-.58-.47-1.14-.71-1.68q-.39.81-.72,1.68c-.23.58-.46,1.19-.68,1.81Z"/>
    </g>
  </g>
</svg>
