<svg id="base" xmlns="http://www.w3.org/2000/svg" viewBox="0 0 225 223.55">
  <defs>
    <style>
      .cls-1 {
        fill: #2b3d4f;
      }

      .cls-2 {
        fill: #f1f1f1;
      }

      .cls-3, .cls-4 {
        fill: #d28f10;
      }

      .cls-3 {
        opacity: 0.1;
      }

      .cls-20, .cls-3, .cls-5 {
        isolation: isolate;
      }

      .cls-5 {
        fill: #040000;
        stroke: #040000;
        stroke-miterlimit: 10;
        opacity: 0.2;
      }

      .cls-6 {
        fill: #cd7212;
      }

      .cls-7 {
        fill: #cd920f;
      }

      .cls-8 {
        fill: #cdc295;
      }

      .cls-9 {
        fill: #bf7919;
      }

      .cls-10 {
        fill: #f5a62a;
      }

      .cls-11 {
        fill: #988d73;
      }

      .cls-12 {
        fill: #bcb28b;
      }

      .cls-13 {
        fill: #eb5b33;
      }

      .cls-14 {
        fill: #ed7341;
      }

      .cls-15 {
        fill: #f08a70;
      }

      .cls-16 {
        fill: #f5a968;
      }

      .cls-17 {
        fill: #72c3bb;
      }

      .cls-18 {
        fill: #54af49;
      }

      .cls-19 {
        fill: #54b047;
      }

      .cls-20, .cls-21 {
        fill: #fff;
      }

      .cls-20 {
        opacity: 0.4;
      }
      #yellow:hover {
  fill: DarkSeaGreen !important;
}
#dark_yellow:hover {
  fill: SpringGreen !important;
}
#dark_dark_yellow:hover {
  fill: RoyalBlue !important;
}
#dark_dark_yellow:hover {
  fill: VioletRed !important;
}
#white:hover {
  fill: FireBrick !important;
}
#light_blue:hover {
  fill: MistyRose  !important;
}
#dark_blue:hover {
  fill: ForestGreen !important;
}
#gray:hover {
  fill: MediumPurple !important;

#newBadge hover { cursor: pointer;}
    </style>
  </defs>
  <title>画板 1</title>
  <g id="Solar_System" data-name="Solar System">
    <path id="dark_blue" data-name="dark blue" class="cls-1" d="M225,223.55H-.25V-.15H225Z"/>
    <g id="Solar_System-2" data-name="Solar System-2">
      <path class="cls-2" d="M76.94,208.49c1.09,0,1.64-.37,1.64-1.11a1.1,1.1,0,0,0-.15-.59,1.31,1.31,0,0,0-.39-.42,3.1,3.1,0,0,0-.57-.3l-.67-.26a5.32,5.32,0,0,1-.78-.32,2.09,2.09,0,0,1-.64-.42,2,2,0,0,1,.09-2.9,2.79,2.79,0,0,1,1.85-.55,5.11,5.11,0,0,1,1.23.15,2.72,2.72,0,0,1,.82.31l-.34.85a2.77,2.77,0,0,0-.67-.27,3.77,3.77,0,0,0-1-.14,2.78,2.78,0,0,0-.57.07,1.49,1.49,0,0,0-.45.19,1.08,1.08,0,0,0-.31.33,1.12,1.12,0,0,0-.11.47,1.08,1.08,0,0,0,.12.5,1.14,1.14,0,0,0,.33.36,3.6,3.6,0,0,0,.5.29l.64.25c.32.13.62.26.89.39a2.92,2.92,0,0,1,.7.46,1.94,1.94,0,0,1,.46.64,2.31,2.31,0,0,1,.16.9,1.74,1.74,0,0,1-.72,1.5,3.35,3.35,0,0,1-2,.53,5.66,5.66,0,0,1-.82-.06,2.48,2.48,0,0,1-.66-.14A4.65,4.65,0,0,1,75,209l-.33-.16L75,208a4.09,4.09,0,0,0,.75.31A3.78,3.78,0,0,0,76.94,208.49Z"/>
      <path class="cls-2" d="M80.65,205.51a4.62,4.62,0,0,1,.28-1.69,3.49,3.49,0,0,1,.78-1.22,3.31,3.31,0,0,1,1.15-.73,3.88,3.88,0,0,1,1.39-.25,3.69,3.69,0,0,1,1.36.25,3.23,3.23,0,0,1,1.13.73,3.49,3.49,0,0,1,.78,1.22,5.28,5.28,0,0,1,0,3.38,3.45,3.45,0,0,1-.78,1.21,3,3,0,0,1-1.13.74,4,4,0,0,1-1.36.25,3.88,3.88,0,0,1-1.39-.25,3.12,3.12,0,0,1-1.15-.74,3.45,3.45,0,0,1-.78-1.21A4.62,4.62,0,0,1,80.65,205.51Zm1.1,0a4.25,4.25,0,0,0,.17,1.23,2.82,2.82,0,0,0,.49.94,2.27,2.27,0,0,0,.78.59,2.49,2.49,0,0,0,2,0,2.12,2.12,0,0,0,.77-.59,2.67,2.67,0,0,0,.5-.94,4.47,4.47,0,0,0,0-2.46,2.67,2.67,0,0,0-.5-.94,2.15,2.15,0,0,0-.77-.6,2.49,2.49,0,0,0-2,0,2.3,2.3,0,0,0-.78.6,2.82,2.82,0,0,0-.49.94A4.25,4.25,0,0,0,81.75,205.51Z"/>
      <path class="cls-2" d="M93.87,208.33v.91H89.36v-7.45h1v6.54Z"/>
      <path class="cls-2" d="M100.28,209.24c-.12-.33-.24-.64-.35-1s-.22-.63-.33-1H96.2l-.68,1.91H94.43l.81-2.19c.25-.67.5-1.3.74-1.91s.48-1.17.72-1.72.49-1.09.75-1.63h1c.26.54.51,1.08.75,1.63s.47,1.12.71,1.72.49,1.24.75,1.91l.81,2.19Zm-1-2.76c-.23-.63-.46-1.23-.69-1.81s-.46-1.15-.71-1.68q-.37.8-.72,1.68c-.22.58-.45,1.18-.67,1.81Z"/>
      <path class="cls-2" d="M106.11,206.12l.44.57c.17.23.35.49.54.77s.37.58.56.88a9.59,9.59,0,0,1,.47.9H107c-.14-.28-.3-.55-.47-.83s-.34-.55-.51-.8l-.51-.72-.46-.58h-1.53v2.91h-1V201.9a5.6,5.6,0,0,1,1-.14h1a4.16,4.16,0,0,1,2.41.59,2,2,0,0,1,.83,1.76,2.06,2.06,0,0,1-.4,1.27A2.3,2.3,0,0,1,106.11,206.12Zm-1.59-3.49h-1v2.81h.75a8.39,8.39,0,0,0,1-.06,2.09,2.09,0,0,0,.73-.2,1.06,1.06,0,0,0,.46-.43,1.68,1.68,0,0,0,0-1.42,1.32,1.32,0,0,0-.44-.44,1.85,1.85,0,0,0-.65-.22,4,4,0,0,0-.85,0Z"/>
      <path class="cls-2" d="M113.48,208.49q1.65,0,1.65-1.11a1.1,1.1,0,0,0-.15-.59,1.34,1.34,0,0,0-.4-.42,2.73,2.73,0,0,0-.56-.3l-.68-.26a6.71,6.71,0,0,1-.78-.32,2.44,2.44,0,0,1-.64-.42,1.69,1.69,0,0,1-.42-.57,1.73,1.73,0,0,1-.16-.81,1.85,1.85,0,0,1,.67-1.52,2.79,2.79,0,0,1,1.85-.55,5.19,5.19,0,0,1,1.24.15,2.66,2.66,0,0,1,.81.31l-.33.85a2.84,2.84,0,0,0-.68-.27,3.77,3.77,0,0,0-1-.14,2.6,2.6,0,0,0-.56.07,1.54,1.54,0,0,0-.46.19.86.86,0,0,0-.3.33,1,1,0,0,0-.12.47,1.08,1.08,0,0,0,.12.5,1,1,0,0,0,.34.36,3.6,3.6,0,0,0,.5.29c.19.08.4.17.63.25s.62.26.89.39a2.79,2.79,0,0,1,.71.46,2.09,2.09,0,0,1,.46.64,2.51,2.51,0,0,1,.16.9,1.74,1.74,0,0,1-.72,1.5,3.37,3.37,0,0,1-2,.53,5.52,5.52,0,0,1-.81-.06,2.65,2.65,0,0,1-.67-.14,3.22,3.22,0,0,1-.5-.17l-.33-.16.31-.86a5,5,0,0,0,.76.31A3.57,3.57,0,0,0,113.48,208.49Z"/>
      <path class="cls-2" d="M119.28,209.24v-3c-.5-.77-1-1.52-1.41-2.27s-.85-1.47-1.24-2.19h1.23c.27.59.58,1.19.92,1.79s.69,1.19,1,1.75a19.86,19.86,0,0,0,1-1.75c.3-.61.65-1.2.93-1.79H123c-.39.72-.8,1.45-1.24,2.19s-.9,1.49-1.39,2.25v3Z"/>
      <path class="cls-2" d="M125.7,208.49c1.09,0,1.64-.37,1.64-1.11a1.2,1.2,0,0,0-.14-.59,1.34,1.34,0,0,0-.4-.42,3.1,3.1,0,0,0-.57-.3l-.67-.26a6.71,6.71,0,0,1-.78-.32,2.44,2.44,0,0,1-.64-.42,1.69,1.69,0,0,1-.42-.57,1.73,1.73,0,0,1-.16-.81,1.85,1.85,0,0,1,.67-1.52,2.79,2.79,0,0,1,1.85-.55,5.19,5.19,0,0,1,1.24.15,2.66,2.66,0,0,1,.81.31l-.33.85a2.84,2.84,0,0,0-.68-.27,3.77,3.77,0,0,0-1-.14,2.6,2.6,0,0,0-.56.07,1.54,1.54,0,0,0-.46.19,1.08,1.08,0,0,0-.31.33,1.12,1.12,0,0,0-.11.47,1.08,1.08,0,0,0,.12.5,1.14,1.14,0,0,0,.33.36,3.2,3.2,0,0,0,.51.29c.19.08.4.17.63.25s.62.26.89.39a2.74,2.74,0,0,1,.7.46,1.64,1.64,0,0,1,.46.64,2.12,2.12,0,0,1,.17.9,1.74,1.74,0,0,1-.72,1.5,3.37,3.37,0,0,1-2,.53,5.66,5.66,0,0,1-.82-.06,2.48,2.48,0,0,1-.66-.14,4.2,4.2,0,0,1-.5-.17l-.33-.16.31-.86a4.18,4.18,0,0,0,.76.31A3.57,3.57,0,0,0,125.7,208.49Z"/>
      <path class="cls-2" d="M134.72,201.79v.91h-2.36v6.54h-1.05V202.7H129v-.91Z"/>
      <path class="cls-2" d="M135.82,209.24v-7.45h4.57v.9h-3.52v2.21H140v.87h-3.13v2.57h3.79v.9Z"/>
      <path class="cls-2" d="M145.36,208.2l-.29-.65c-.12-.27-.25-.55-.38-.86l-.44-.95-.44-.92-.38-.78c-.12-.23-.22-.41-.29-.53-.08.85-.14,1.76-.2,2.75s-.09,2-.13,3h-1c0-.65.06-1.3.1-2s.07-1.3.12-1.94.1-1.25.15-1.85.11-1.17.18-1.71h.92c.19.32.4.69.63,1.12s.44.88.67,1.35.44.94.64,1.41l.58,1.28c.17-.39.36-.82.57-1.28l.65-1.41c.22-.47.45-.92.67-1.35s.43-.8.63-1.12h.92q.36,3.6.55,7.45h-1c0-1-.08-2-.13-3s-.12-1.9-.19-2.75c-.08.12-.17.3-.29.53s-.25.49-.38.78-.29.59-.44.92l-.44.95c-.14.31-.27.59-.38.86s-.22.48-.29.65Z"/>
    </g>
    <g id="Solar_System-3" data-name="Solar System-3">
      <g id="Sun">
        <path id="gray" class="cls-3" d="M208.82,109.46a205.63,205.63,0,0,1-34.36,114.09H-.25V-.15H177.34A205.63,205.63,0,0,1,208.82,109.46Z"/>
        <path id="dark_dark_yellow" data-name="dark dark yellow" class="cls-3" d="M115.21-.15H-.25v223.7h111A157.63,157.63,0,0,0,159.5,109.46,157.48,157.48,0,0,0,115.21-.15Z"/>
        <path id="dark_yellow" data-name="dark yellow" class="cls-3" d="M83.11,109.46c0,45.65-37.2,82.67-83.14,82.8V26.67C45.91,26.79,83.11,63.81,83.11,109.46ZM-.25,37.07h0V181.86h0c40.25,0,72.89-32.41,72.89-72.4S40,37.07-.25,37.07Z"/>
        <path id="dark_dark_dark_yellow" data-name="dark dark dark yellow" class="cls-3" d="M56.13-.15H0C.48,74.42,0,149,0,223.55H46.29c45.37-18.27,77.37-62.47,77.37-114.09A123,123,0,0,0,56.13-.15Z"/>
        <path class="cls-3" d="M-.25,11.9h0V207h0C54,207,98,163.34,98,109.46S54,11.9-.25,11.9Z"/>
        <path id="yellow" class="cls-4" d="M61.24,109.46A61.25,61.25,0,0,1,0,170.53V48.4C33.83,48.52,61.24,75.81,61.24,109.46Z"/>
        <g>
          <ellipse class="cls-5" cx="14.75" cy="87.9" rx="7.1" ry="7.05"/>
          <path class="cls-5" d="M22.88,121.76a4.07,4.07,0,1,1-4.14-4h.08a4,4,0,0,1,4.06,3.94Z"/>
          <path class="cls-5" d="M37.48,139.65a4.07,4.07,0,1,1-4.14-4h.07A4,4,0,0,1,37.48,139.65Z"/>
          <path class="cls-5" d="M12.64,157.27a3.56,3.56,0,1,1-3.59-3.53h0A3.54,3.54,0,0,1,12.64,157.27Z"/>
          <path class="cls-5" d="M37.48,100.32a4.07,4.07,0,1,1-4.14-4h.07A4,4,0,0,1,37.48,100.32Z"/>
        </g>
      </g>
      <g id="Planets">
        <g>
          <path class="cls-6" d="M99.89,115.74a8.39,8.39,0,1,1-8.45-8.33h.06a8.36,8.36,0,0,1,8.39,8.33Z"/>
          <path class="cls-7" d="M84.64,111H98.37A8.54,8.54,0,0,0,96,108.69H87.1A8.22,8.22,0,0,0,84.64,111Z"/>
          <path class="cls-8" d="M83.11,115.74a8.59,8.59,0,0,0,.16,1.6H99.73a8.59,8.59,0,0,0,.16-1.6v-.68H83.15C83.13,115.28,83.11,115.51,83.11,115.74Z"/>
          <path class="cls-9" d="M83.15,115h16.7a8.16,8.16,0,0,0-1.48-4H84.64A8.27,8.27,0,0,0,83.15,115Z"/>
          <path class="cls-10" d="M83.27,117.34A8.37,8.37,0,0,0,85,121H98a8.4,8.4,0,0,0,1.7-3.62Z"/>
        </g>
        <g>
          <path class="cls-11" d="M74.25,114.78a5,5,0,1,1-5-5A5,5,0,0,1,74.25,114.78Z"/>
          <path class="cls-8" d="M65.12,111.93h8.21a4.79,4.79,0,0,0-1.44-1.36H66.57A5,5,0,0,0,65.12,111.93Z"/>
          <path class="cls-8" d="M64.21,114.78a5.55,5.55,0,0,0,.09,1h9.85a4.78,4.78,0,0,0,.1-1,2.67,2.67,0,0,0,0-.4h-10A1.81,1.81,0,0,0,64.21,114.78Z"/>
          <path class="cls-12" d="M64.23,114.37h10a4.89,4.89,0,0,0-.89-2.44H65.12A4.89,4.89,0,0,0,64.23,114.37Z"/>
          <path class="cls-12" d="M64.3,115.74a5,5,0,0,0,1,2.17h7.81a4.9,4.9,0,0,0,1-2.17Z"/>
        </g>
        <g>
          <path class="cls-11" d="M204.9,116.82a17.63,17.63,0,1,1-17.75-17.51h.12a17.57,17.57,0,0,1,17.63,17.51Z"/>
          <path class="cls-8" d="M172.84,106.78H201.7a17.54,17.54,0,0,0-5.08-4.78h-18.7A17.54,17.54,0,0,0,172.84,106.78Z"/>
          <path class="cls-8" d="M169.64,116.82a17.24,17.24,0,0,0,.33,3.36h34.6a17.24,17.24,0,0,0,.33-3.36,9.79,9.79,0,0,0-.07-1.43H169.71C169.67,115.87,169.64,116.34,169.64,116.82Z"/>
          <path class="cls-12" d="M169.71,115.36h35.12a17.37,17.37,0,0,0-3.13-8.58H172.84A17.37,17.37,0,0,0,169.71,115.36Z"/>
          <path class="cls-12" d="M170,120.18a17.5,17.5,0,0,0,3.57,7.62H201a17.5,17.5,0,0,0,3.57-7.62Z"/>
        </g>
        <g>
          <ellipse class="cls-13" cx="151.82" cy="115.84" rx="7.66" ry="7.61"/>
          <path class="cls-14" d="M145.56,111.48h12.53a7.79,7.79,0,0,0-2.2-2.08h-8.13A7.28,7.28,0,0,0,145.56,111.48Z"/>
          <path class="cls-8" d="M144.17,115.84a7.83,7.83,0,0,0,.14,1.45h15a7.83,7.83,0,0,0,.14-1.45v-.63H144.2Q144.17,115.53,144.17,115.84Z"/>
          <path class="cls-15" d="M144.2,115.2h15.25a7.45,7.45,0,0,0-1.36-3.72H145.56A7.45,7.45,0,0,0,144.2,115.2Z"/>
          <path class="cls-16" d="M144.31,117.29a7.48,7.48,0,0,0,1.55,3.31h11.93a7.59,7.59,0,0,0,1.55-3.31Z"/>
        </g>
        <g>
          <path class="cls-17" d="M133.56,115.84a12.63,12.63,0,1,1-12.72-12.54h.1a12.58,12.58,0,0,1,12.62,12.54Z"/>
          <path class="cls-18" d="M113.13,113.2s1-.24,2.24,1.31.88,1.39,2,1.67,1.92.83,1.68,1.35-.52,1.43-.76,2.14-.88.16-1.24.56a5,5,0,0,0-1.24,2.07c-.56,1.42-.72,2.1-.32,2.62s.12.79-.28.19a5.3,5.3,0,0,1-1.12-3.29,6.64,6.64,0,0,0-1.2-4c-.72-1.15-1.24-.8-.72-2.23S112.26,113,113.13,113.2Z"/>
          <path class="cls-19" d="M108.94,111.93a1.41,1.41,0,0,1,.35.75c0,.66.08.23.74.76s1.41,1,1.45.81a8.85,8.85,0,0,1-.64-1.64c-.13-.61-.07.52-.65-.25s-.35-1.38.42-1,.88,0,1.33-1.25a3.62,3.62,0,0,1,1.58-1.93c.36-.26.39-.83.68-.67s.85-.26.85-.68-.84-.66-2-.84A12.61,12.61,0,0,0,108.94,111.93Z"/>
          <path class="cls-18" d="M126.05,115.28a1.92,1.92,0,0,1-2.43-.35c-1.16-1.19-1.29-1.13-1.32-1.74a4.05,4.05,0,0,1,.51-1.86c.2-.29.62-1.22,1.2-1.22s2.36.09,2.91.64,1.85.51,2.4.58.23,1.35,1,2.28,1.71.89.71,2-.61.93-.87,2.41a4.56,4.56,0,0,1-1.81,3c-.46.13-.26-.45-.94-1.71a3.19,3.19,0,0,1-.52-2.47C126.92,115.67,126.32,115.14,126.05,115.28Z"/>
          <path class="cls-18" d="M131.2,113c.3.42.19-.11.43-.83s-.41-.79-.76-1.58.73.34,1.47.32a.33.33,0,0,0,.19-.06,12.65,12.65,0,0,0-1.42-2.47c0,.42,0,.7-.3.27a1.87,1.87,0,0,1-.41-1.14,12.64,12.64,0,0,0-2.92-2.43.51.51,0,0,1-.4.4c-.76.14-1.12.39-.81-.1.19-.28.49-.42.61-.64a13.1,13.1,0,0,0-2-.86.49.49,0,0,0,.32.52c.73.33,1,.84.29,1s-.75-.84-1.33-1.08-1.68,0-1.12.63,1.41.5,1.48,1.25-.94,1-1.14,1-.17.82-.17.82.83,1.06,1.29.46.24-1.79,2-.82,2.52.51,2.89,1.46.2,1.36.74,2.19A11,11,0,0,0,131.2,113Z"/>
          <path class="cls-19" d="M115.27,104.64a1.35,1.35,0,0,0,.86.11c.63-.17.46.38.61.67s.55,0,.65-.54a1.26,1.26,0,0,1,.54-1,.46.46,0,0,0,.19-.3A12.53,12.53,0,0,0,115.27,104.64Z"/>
          <path class="cls-18" d="M121.58,128.35a12.52,12.52,0,0,0-1.32-.8c-1.34-.7-.27-1.13-.73-1.52s-1.58-.24-1.34.19a2,2,0,0,1,.32,1.38.83.83,0,0,0,.18.57,13.07,13.07,0,0,0,2.25.2Z"/>
          <path class="cls-18" d="M130,124.55c-.81.29-2.12,1.21-2.93,1.26a3.49,3.49,0,0,0-2.59.92c-1.13.84-.29.61-.9,1.09a1.82,1.82,0,0,0-.34.34A12.73,12.73,0,0,0,130,124.55Z"/>
        </g>
      </g>
      <path id="white" class="cls-20" d="M183.27,59.26c1,2.82-1.14,4-4,5L140.58,80.59a5.49,5.49,0,0,1-7-3.23h0a5.43,5.43,0,0,1,3.2-7l.06,0L177,58c2.84-1,5.25-1.59,6.29,1.23Zm-4,1.45c-1-2.59-3.17-2.08-5.79-1.13L136.55,70.94a5,5,0,0,0-3,6.4v0h0a5,5,0,0,0,6.39,3l.07,0,35.6-15c2.62-1,4.61-2,3.66-4.64Zm-5.72,2.08c-.84-2.27-2.77-1.82-5.06-1l-32.32,9.94a4.37,4.37,0,0,0-2.63,5.59v0h0a4.42,4.42,0,0,0,5.66,2.6l31.15-13.11c2.28-.83,4-1.79,3.19-4.06Zm-9.81,3.58c-.64-1.71-2.1-1.38-3.82-.75l-24.39,7.5a3.29,3.29,0,0,0-2,4.21v0h0a3.32,3.32,0,0,0,4.26,2h0l23.51-9.89c1.72-.63,3-1.35,2.41-3.06Zm-27,4a5.39,5.39,0,0,0-3.26,6.89l0,0a5.45,5.45,0,0,0,7,3.21,5.39,5.39,0,0,0,3.26-6.89l0,0a5.45,5.45,0,0,0-7-3.19Zm-27.15,87.49c-.64-1.73-2.12-1.39-3.86-.75L81,164.7A3.33,3.33,0,0,0,79,169v0h0a3.38,3.38,0,0,0,4.32,2l23.79-10c1.75-.63,3.08-1.36,2.44-3.1Zm-2.46.9c-.58-1.6-1.94-1.28-3.55-.7l-22.7,7a3.07,3.07,0,0,0-1.8,3.94h0a3.1,3.1,0,0,0,4,1.84h0L105,161.62c1.6-.59,2.83-1.26,2.24-2.85ZM103.62,160c-.51-1.4-1.7-1.12-3.11-.61l-19.86,6.11A2.67,2.67,0,0,0,79.07,169v0h0a2.71,2.71,0,0,0,3.47,1.6l19.15-8.06c1.4-.51,2.48-1.1,2-2.49Zm-6,2.19c-.39-1-1.29-.84-2.35-.46l-15,4.61a2,2,0,0,0-1.21,2.55.14.14,0,0,0,0,.07h0a2,2,0,0,0,2.55,1.23l.07,0,14.45-6.08c1.06-.38,1.87-.82,1.48-1.88ZM81.05,164.7a3.33,3.33,0,1,0,4.29,2,3.33,3.33,0,0,0-4.29-2Zm91.64-17.27c-.44-1.19-1.46-1-2.66-.52l-17,5.23a2.29,2.29,0,0,0-1.41,2.91l0,.09h0a2.34,2.34,0,0,0,3,1.37L171,149.59c1.2-.44,2.12-.94,1.68-2.14Zm-1.69.62c-.41-1.1-1.34-.88-2.45-.48l-15.62,4.8a2.13,2.13,0,0,0-1.27,2.72h0a2.15,2.15,0,0,0,2.74,1.26L169.46,150c1.11-.4,1.95-.86,1.55-2Zm-2.42.88c-.35-1-1.17-.77-2.14-.42l-13.67,4.2a1.87,1.87,0,0,0-1.11,2.38h0a1.88,1.88,0,0,0,2.4,1.1l13.17-5.54c1-.36,1.71-.76,1.35-1.72Zm-4.15,1.51c-.27-.72-.88-.58-1.61-.31L152.5,153.3a1.39,1.39,0,0,0-.84,1.79h0a1.43,1.43,0,0,0,1.81.83l9.94-4.18c.73-.27,1.29-.57,1-1.3Zm-11.4,1.7a2.5,2.5,0,1,0,.07,0l-.1,0Z"/>
      <g id="Stars">
        <path class="cls-21" d="M137.79,148.24a2.12,2.12,0,1,1-2.14-2.1h0a2.1,2.1,0,0,1,2.12,2.1Z"/>
        <path class="cls-21" d="M121.21,9.8a2.12,2.12,0,1,1-2.14-2.1h0a2.1,2.1,0,0,1,2.12,2.1Z"/>
        <path class="cls-21" d="M87.84,44.26a1.1,1.1,0,1,1-1.1-1.1h0a1.09,1.09,0,0,1,1.1,1.08Z"/>
        <path class="cls-21" d="M103.7,68a1.1,1.1,0,1,1-1.11-1.09h0A1.11,1.11,0,0,1,103.7,68Z"/>
        <path class="cls-21" d="M211,72.32a1.1,1.1,0,1,1-1.1-1.1,1.1,1.1,0,0,1,1.1,1.1Z"/>
        <ellipse class="cls-21" cx="198.8" cy="35.98" rx="1.1" ry="1.09"/>
        <path class="cls-21" d="M46.21,198.63a1.1,1.1,0,1,1-1.1-1.1,1.1,1.1,0,0,1,1.1,1.1Z"/>
        <ellipse class="cls-21" cx="126.86" cy="186.08" rx="1.1" ry="1.09"/>
        <path class="cls-21" d="M132.68,57.07A1.1,1.1,0,1,1,131.57,56h0A1.11,1.11,0,0,1,132.68,57.07Z"/>
        <ellipse class="cls-21" cx="193.59" cy="168.94" rx="1.1" ry="1.09"/>
        <path class="cls-21" d="M51.07,15.1A1.11,1.11,0,1,1,50,14h0A1.1,1.1,0,0,1,51.07,15.1Z"/>
        <circle class="cls-21" cx="89.87" cy="46.45" r="0.69"/>
        <path class="cls-21" d="M139.6,95.4a1.1,1.1,0,1,1-1.1-1.1,1.1,1.1,0,0,1,1.1,1.1Z"/>
        <path class="cls-21" d="M206,79.52a1.1,1.1,0,1,1-1.11-1.09h0A1.11,1.11,0,0,1,206,79.52Z"/>
        <path class="cls-21" d="M142.33,97.59a.7.7,0,1,1-.71-.69h0a.69.69,0,0,1,.69.69Z"/>
        <path class="cls-21" d="M41.29,172.3a1.11,1.11,0,1,1-1.12-1.1h0a1.1,1.1,0,0,1,1.11,1.09Z"/>
        <circle class="cls-21" cx="43.32" cy="174.48" r="0.69"/>
        <path class="cls-21" d="M190.87,197.53a1.11,1.11,0,1,1-1.13-1.09h0A1.1,1.1,0,0,1,190.87,197.53Z"/>
        <path class="cls-21" d="M193.59,199.72a.69.69,0,1,1-.69-.69.69.69,0,0,1,.69.69Z"/>
        <circle class="cls-21" cx="48.86" cy="21.78" r="0.69"/>
      </g>
    </g>
  </g>
</svg>
