<svg id="base" xmlns="http://www.w3.org/2000/svg" viewBox="0 0 225 223.55">
  <defs>
    <style>
      .cls-1 {
        fill: #045478;
      }

      .cls-2 {
        fill: #0a6382;
      }

      .cls-3 {
        fill: #f1f1f1;
      }

      .cls-4 {
        fill: #edc887;
      }

      .cls-5 {
        fill: #fcebc7;
      }

      .cls-6 {
        fill: #ca7447;
      }

      .cls-7 {
        fill: #040000;
      }

      .cls-21, .cls-7 {
        opacity: 0.1;
      }

      .cls-18, .cls-21, .cls-25, .cls-26, .cls-27, .cls-28, .cls-29, .cls-30, .cls-31, .cls-32, .cls-33, .cls-34, .cls-35, .cls-36, .cls-37, .cls-38, .cls-39, .cls-40, .cls-41, .cls-42, .cls-43, .cls-44, .cls-45, .cls-46, .cls-47, .cls-48, .cls-49, .cls-50, .cls-51, .cls-52, .cls-53, .cls-54, .cls-55, .cls-56, .cls-57, .cls-58, .cls-59, .cls-60, .cls-61, .cls-62, .cls-63, .cls-64, .cls-65, .cls-66, .cls-67, .cls-68, .cls-69, .cls-7, .cls-70, .cls-71, .cls-72, .cls-73, .cls-74, .cls-75, .cls-76, .cls-77, .cls-78, .cls-79, .cls-8, .cls-80, .cls-81, .cls-82, .cls-83 {
        isolation: isolate;
      }

      .cls-15, .cls-18, .cls-21, .cls-25, .cls-26, .cls-27, .cls-28, .cls-29, .cls-30, .cls-31, .cls-32, .cls-33, .cls-34, .cls-35, .cls-36, .cls-37, .cls-38, .cls-39, .cls-40, .cls-41, .cls-42, .cls-43, .cls-44, .cls-45, .cls-46, .cls-47, .cls-48, .cls-49, .cls-50, .cls-51, .cls-52, .cls-53, .cls-54, .cls-55, .cls-56, .cls-57, .cls-58, .cls-59, .cls-60, .cls-61, .cls-62, .cls-63, .cls-64, .cls-65, .cls-66, .cls-67, .cls-68, .cls-69, .cls-70, .cls-71, .cls-72, .cls-73, .cls-74, .cls-75, .cls-76, .cls-77, .cls-78, .cls-79, .cls-8, .cls-80, .cls-81, .cls-82, .cls-83 {
        fill: #fff;
      }

      .cls-8 {
        opacity: 0.5;
      }

      .cls-9 {
        fill: #a21f26;
      }

      .cls-10 {
        fill: #e9e8e8;
      }

      .cls-11 {
        fill: #ea5841;
      }

      .cls-12 {
        fill: #1b2f5f;
      }

      .cls-13 {
        fill: #dcdcdd;
      }

      .cls-14 {
        fill: #bf3436;
      }

      .cls-16 {
        fill: #e5934a;
      }

      .cls-17 {
        fill: #f6d247;
      }

      .cls-18 {
        opacity: 0.2;
      }

      .cls-19 {
        fill: #f18e62;
      }

      .cls-20 {
        fill: #01375b;
      }

      .cls-22 {
        fill: #ec6849;
      }

      .cls-23 {
        fill: #f0efef;
      }

      .cls-24 {
        fill: #fad0a0;
      }

      .cls-25 {
        opacity: 0.8;
      }

      .cls-26 {
        opacity: 0.7;
      }

      .cls-27 {
        opacity: 0.69;
      }

      .cls-28 {
        opacity: 0.68;
      }

      .cls-29 {
        opacity: 0.67;
      }

      .cls-30 {
        opacity: 0.66;
      }

      .cls-31 {
        opacity: 0.65;
      }

      .cls-32 {
        opacity: 0.64;
      }

      .cls-33 {
        opacity: 0.63;
      }

      .cls-34 {
        opacity: 0.62;
      }

      .cls-35 {
        opacity: 0.61;
      }

      .cls-36 {
        opacity: 0.6;
      }

      .cls-37 {
        opacity: 0.59;
      }

      .cls-38 {
        opacity: 0.58;
      }

      .cls-39 {
        opacity: 0.57;
      }

      .cls-40 {
        opacity: 0.56;
      }

      .cls-41 {
        opacity: 0.55;
      }

      .cls-42 {
        opacity: 0.54;
      }

      .cls-43 {
        opacity: 0.53;
      }

      .cls-44 {
        opacity: 0.52;
      }

      .cls-45 {
        opacity: 0.51;
      }

      .cls-46 {
        opacity: 0.49;
      }

      .cls-47 {
        opacity: 0.48;
      }

      .cls-48 {
        opacity: 0.47;
      }

      .cls-49 {
        opacity: 0.46;
      }

      .cls-50 {
        opacity: 0.45;
      }

      .cls-51 {
        opacity: 0.44;
      }

      .cls-52 {
        opacity: 0.43;
      }

      .cls-53 {
        opacity: 0.42;
      }

      .cls-54 {
        opacity: 0.41;
      }

      .cls-55 {
        opacity: 0.4;
      }

      .cls-56 {
        opacity: 0.39;
      }

      .cls-57 {
        opacity: 0.38;
      }

      .cls-58 {
        opacity: 0.37;
      }

      .cls-59 {
        opacity: 0.36;
      }

      .cls-60 {
        opacity: 0.35;
      }

      .cls-61 {
        opacity: 0.34;
      }

      .cls-62 {
        opacity: 0.33;
      }

      .cls-63 {
        opacity: 0.32;
      }

      .cls-64 {
        opacity: 0.31;
      }

      .cls-65 {
        opacity: 0.3;
      }

      .cls-66 {
        opacity: 0.29;
      }

      .cls-67 {
        opacity: 0.28;
      }

      .cls-68 {
        opacity: 0.27;
      }

      .cls-69 {
        opacity: 0.26;
      }

      .cls-70 {
        opacity: 0.25;
      }

      .cls-71 {
        opacity: 0.24;
      }

      .cls-72 {
        opacity: 0.23;
      }

      .cls-73 {
        opacity: 0.22;
      }

      .cls-74 {
        opacity: 0.21;
      }

      .cls-75 {
        opacity: 0.19;
      }

      .cls-76 {
        opacity: 0.18;
      }

      .cls-77 {
        opacity: 0.17;
      }

      .cls-78 {
        opacity: 0.16;
      }

      .cls-79 {
        opacity: 0.15;
      }

      .cls-80 {
        opacity: 0.14;
      }

      .cls-81 {
        opacity: 0.13;
      }

      .cls-82 {
        opacity: 0.12;
      }

      .cls-83 {
        opacity: 0.11;
      }

      #blue:hover {
  fill: Teal !important;
}
#light_blue:hover {
  fill: BlueViolet  !important;
}
#yellow:hover {
  fill: DeepPink  !important;
}
#orange:hover {
  fill: Crimson  !important;
}

#newBadge hover { cursor: pointer;}
    </style>
  </defs>
  <title>画板 1</title>
  <g id="Space_Flight" data-name="Space Flight">
    <g id="Background">
      <path id="blue" class="cls-1" d="M225,223.55H-.41V-.35H225Z"/>
      <ellipse id="light_blue" data-name="light blue" class="cls-2" cx="112.97" cy="109.25" rx="74.95" ry="74.45"/>
    </g>
    <g id="Space_Flight-2" data-name="Space Flight-2">
      <path class="cls-3" d="M80.22,208.48c1.1,0,1.64-.37,1.64-1.12a1.08,1.08,0,0,0-.14-.58,1.34,1.34,0,0,0-.4-.42,2.35,2.35,0,0,0-.56-.31l-.68-.26a5.28,5.28,0,0,1-.78-.31,2.72,2.72,0,0,1-.64-.42,1.76,1.76,0,0,1-.43-.58,1.84,1.84,0,0,1-.15-.8,1.87,1.87,0,0,1,.67-1.53,2.85,2.85,0,0,1,1.85-.55,5.19,5.19,0,0,1,1.24.15,2.59,2.59,0,0,1,.81.32l-.33.84a2.84,2.84,0,0,0-.68-.27,3.76,3.76,0,0,0-1-.13,2.6,2.6,0,0,0-.56.06,1.54,1.54,0,0,0-.46.19,1.08,1.08,0,0,0-.31.33,1.12,1.12,0,0,0-.11.47,1.08,1.08,0,0,0,.12.5,1.14,1.14,0,0,0,.33.36,3.2,3.2,0,0,0,.51.29l.63.26c.32.13.62.25.89.38a2.83,2.83,0,0,1,.71.47,2.09,2.09,0,0,1,.46.64,2.26,2.26,0,0,1,.16.89,1.76,1.76,0,0,1-.72,1.51,3.38,3.38,0,0,1-2,.52,5.66,5.66,0,0,1-.82-.06,5.13,5.13,0,0,1-.66-.13c-.2-.06-.36-.12-.51-.18l-.33-.15.32-.86a5.51,5.51,0,0,0,.76.31A4.19,4.19,0,0,0,80.22,208.48Z"/>
      <path class="cls-3" d="M86.22,201.7a4.16,4.16,0,0,1,2.43.6,2,2,0,0,1,.85,1.78,2.44,2.44,0,0,1-.23,1.1,1.84,1.84,0,0,1-.67.74,3.17,3.17,0,0,1-1.07.41,6.67,6.67,0,0,1-1.41.13h-.84v2.76h-1v-7.34a5.6,5.6,0,0,1,1-.14C85.59,201.71,85.92,201.7,86.22,201.7Zm.09.91a8.34,8.34,0,0,0-1,0v2.92h.79a5.61,5.61,0,0,0,1-.07,2.41,2.41,0,0,0,.73-.24,1.17,1.17,0,0,0,.46-.45,1.49,1.49,0,0,0,.16-.75,1.23,1.23,0,0,0-.62-1.15,2,2,0,0,0-.67-.23A6,6,0,0,0,86.31,202.61Z"/>
      <path class="cls-3" d="M95.28,209.22c-.12-.32-.24-.64-.35-.95s-.22-.63-.33-1H91.2l-.68,1.9H89.43l.81-2.18c.25-.67.5-1.31.74-1.91s.48-1.18.72-1.73.49-1.09.75-1.63h1c.26.54.51,1.09.75,1.63s.47,1.13.71,1.73.49,1.24.75,1.91l.81,2.18Zm-1-2.76c-.23-.62-.46-1.23-.69-1.81s-.46-1.14-.71-1.68q-.37.81-.72,1.68c-.23.58-.45,1.19-.68,1.81Z"/>
      <path class="cls-3" d="M100.46,209.38a3.94,3.94,0,0,1-1.44-.25,3.14,3.14,0,0,1-1.11-.76,3.43,3.43,0,0,1-.72-1.22,5,5,0,0,1-.25-1.66,4.46,4.46,0,0,1,.28-1.66,3.49,3.49,0,0,1,.78-1.22,3.19,3.19,0,0,1,1.13-.75,3.85,3.85,0,0,1,1.39-.26,5.26,5.26,0,0,1,1.49.22,2.35,2.35,0,0,1,.44.17l.24.13-.3.86-.28-.14-.42-.15a4.7,4.7,0,0,0-.51-.12,2.53,2.53,0,0,0-.55,0,2.66,2.66,0,0,0-1.08.2,2.39,2.39,0,0,0-.81.59,2.87,2.87,0,0,0-.51.94,4,4,0,0,0-.18,1.24,4.22,4.22,0,0,0,.16,1.22,2.6,2.6,0,0,0,.47.94,2.21,2.21,0,0,0,.78.61,2.6,2.6,0,0,0,1.1.21,4,4,0,0,0,1.2-.15,4.44,4.44,0,0,0,.72-.27l.27.86a1.74,1.74,0,0,1-.27.14,4,4,0,0,1-.49.15c-.2.05-.42.09-.68.13A6,6,0,0,1,100.46,209.38Z"/>
      <path class="cls-3" d="M104,209.22v-7.45h4.57v.9H105v2.21h3.13v.87H105v2.58h3.79v.89Z"/>
      <path class="cls-3" d="M112.62,209.22v-7.45h4.53v.9h-3.48v2.24h3.09v.88h-3.09v3.43Z"/>
      <path class="cls-3" d="M123,208.32v.9h-4.52v-7.45h1v6.55Z"/>
      <path class="cls-3" d="M124.05,201.77h1v7.45h-1Z"/>
      <path class="cls-3" d="M131.54,205.56h1.05V209l-.38.1-.56.1-.7.1h-.77a3.88,3.88,0,0,1-1.43-.25,3.18,3.18,0,0,1-1.12-.76,3.39,3.39,0,0,1-.72-1.21,5,5,0,0,1-.25-1.66,4.46,4.46,0,0,1,.28-1.66,3.74,3.74,0,0,1,.78-1.22,3.1,3.1,0,0,1,1.14-.75,4,4,0,0,1,1.4-.26,5.46,5.46,0,0,1,.9.07,3.93,3.93,0,0,1,.68.15,3.61,3.61,0,0,1,.46.17l.24.13-.33.87a2.85,2.85,0,0,0-.83-.34,4.29,4.29,0,0,0-1.07-.13,2.66,2.66,0,0,0-1,.2,2.22,2.22,0,0,0-.8.59,2.87,2.87,0,0,0-.51.94,3.74,3.74,0,0,0-.19,1.24,4.22,4.22,0,0,0,.16,1.22,2.4,2.4,0,0,0,.48.94,2.21,2.21,0,0,0,.78.61,2.64,2.64,0,0,0,1.11.21,6.81,6.81,0,0,0,.78-.05,3.4,3.4,0,0,0,.46-.09Z"/>
      <path class="cls-3" d="M139,201.77h1v7.45h-1v-3.44h-3.67v3.44h-1.05v-7.45h1.05v3.11H139Z"/>
      <path class="cls-3" d="M146.87,201.77v.91h-2.36v6.54h-1v-6.54H141.1v-.91Z"/>
    </g>
    <g id="Space_Flight-3" data-name="Space Flight-3">
      <g id="Planet">
        <path id="yellow" class="cls-4" d="M146,89.43c0,35.41-28.9,64.12-64.55,64.12S16.87,124.84,16.87,89.43,45.78,25.31,81.43,25.31,146,54,146,89.43Z"/>
        <path class="cls-5" d="M134.67,53.17c-6.18,3.66-28.77,15.93-48.55,14.58,0,0,33.43,6.32,56.34.79A63.89,63.89,0,0,0,134.67,53.17Z"/>
        <path class="cls-5" d="M123.45,40.77c-.43-.36-.86-.73-1.29-1.08-8.06,4.39-23.3,12-37.61,15.15-20.7,4.57-27.6,9-23,14s15.38-1.52,22.51-8.65C89.65,54.63,113.44,44.77,123.45,40.77Z"/>
        <g>
          <path class="cls-5" d="M17.29,82.19a67.29,67.29,0,0,0-.42,7.24c0,1.84.1,3.65.25,5.45,16.11,0,44.83-14.31,52.51-18.3C57.5,82.15,28.9,82.34,17.29,82.19Z"/>
          <path class="cls-5" d="M69.63,76.58a15.45,15.45,0,0,0,1.94-1Z"/>
        </g>
        <path id="dark_orange" data-name="dark orange" class="cls-6" d="M34,46c12.79,1.38,32.26,2.08,47.48-3.4,0,0-31.36,15.28-57.9,18.47A63.86,63.86,0,0,1,34,46Zm11.62,54.29c-5.23-.3-8.33-.58-8.33-.58q4.13.5,8.28.58ZM146,88.46a63.48,63.48,0,0,0-2.16-15.57c-14.5,7-61.4,28.16-98.23,27.4C66,101.46,119.14,102.86,146,88.46ZM19.45,107.34a62.67,62.67,0,0,0,4.84,11.93C88.38,123.58,133.5,94.88,133.5,94.88s-15.77,7.11-39.42,10.7C74.32,108.58,33.94,107.71,19.45,107.34Z"/>
        <path class="cls-6" d="M46.93,70.34a3.78,3.78,0,1,1-3.81-3.75h0a3.76,3.76,0,0,1,3.77,3.75Z"/>
        <path class="cls-6" d="M95.89,129.18a3.78,3.78,0,1,1-3.81-3.75h0a3.76,3.76,0,0,1,3.78,3.74Z"/>
        <path class="cls-6" d="M81.73,36.57A2.63,2.63,0,1,1,79,34h.06A2.62,2.62,0,0,1,81.73,36.57Z"/>
        <path class="cls-6" d="M99.33,41.46a5.59,5.59,0,1,1-5.63-5.55h0a5.56,5.56,0,0,1,5.58,5.54Z"/>
        <path class="cls-6" d="M83.24,80.46a4.93,4.93,0,1,1-5-4.9h0a4.91,4.91,0,0,1,4.93,4.89Z"/>
        <path class="cls-6" d="M64.84,132.93a6.18,6.18,0,1,1-6.22-6.14h0a6.16,6.16,0,0,1,6.18,6.14Z"/>
        <path class="cls-6" d="M81.43,153.55a64.59,64.59,0,0,0,58.23-36.41c-13.61,6.45-61.29,28.49-83,31.53A64.76,64.76,0,0,0,81.43,153.55Z"/>
        <path class="cls-6" d="M63.44,125.9s60.22-5.6,79.3-16.39a63,63,0,0,0,2.51-10.4C140,101.78,107,118.38,86.12,122Z"/>
        <path class="cls-7" d="M146,88.45c0-1.24-.08-2.48-.16-3.7a2.24,2.24,0,0,0-.05-.58c-.09-1.06-.2-2.11-.34-3.15a1.65,1.65,0,0,0-.07-.58c-.08-.54-.16-1.09-.25-1.63-.06-.34-.12-.68-.19-1-.14-.78-.3-1.56-.47-2.33l-.27-1.15c-.11-.47-.23-.94-.35-1.4h0c-.39-1.48-.84-2.92-1.34-4.35h0a61.67,61.67,0,0,0-2.39-5.9l-.06-.14c-.27-.59-.56-1.17-.85-1.75l-.26-.51c-.52-1-1.06-2-1.63-3l-.31-.53c-.27-.46-.56-.91-.84-1.37-.19-.29-.38-.59-.58-.88s-.56-.86-.85-1.28h0a65.31,65.31,0,0,0-12.5-13.48h0A64.54,64.54,0,0,0,84,25.36c16.11,24.31,42.65,75.48,20.67,123.89.6-.22,1.19-.45,1.78-.69l.47-.21c.71-.3,1.41-.62,2.11-.95l.76-.36c.69-.34,1.38-.69,2.06-1l.45-.23c.8-.44,1.59-.89,2.37-1.36.23-.13.44-.27.67-.41.59-.36,1.18-.73,1.76-1.12l.67-.44c.75-.51,1.5-1,2.22-1.57l.33-.25c.63-.48,1.25-1,1.85-1.45l.68-.55c.54-.46,1.08-.92,1.6-1.39l.51-.44c.66-.6,1.31-1.22,1.94-1.84l.55-.56c.48-.48,1-1,1.41-1.46l.6-.65c.57-.64,1.14-1.28,1.68-1.94l.25-.3c.52-.63,1-1.28,1.53-1.93l.54-.73c.4-.53.79-1.08,1.17-1.63l.46-.65c.49-.74,1-1.48,1.44-2.24l.39-.65c.35-.58.69-1.17,1-1.76l.45-.82c.36-.67.71-1.35,1-2,.08-.15.15-.29.22-.44h0a63,63,0,0,0,3.08-7.63h0c.26-.77.49-1.54.72-2.31a2.06,2.06,0,0,1,.13-.47c.19-.68.38-1.37.55-2.07.08-.32.15-.66.23-1,.13-.56.26-1.13.37-1.7s.24-1.27.35-1.91a6.37,6.37,0,0,1,.16-.94h0a64,64,0,0,0,.73-9.68v-1Z"/>
      </g>
      <g id="Rocket">
        <path class="cls-8" d="M143.79,52.89S97.33,79.4,26.05,63.61c0,0,72.65,35.13,124.87-4Z"/>
        <polygon class="cls-9" points="167.04 56.77 151.44 37.19 153.39 35.65 163.62 39.26 167.74 44.42 168.99 55.24 167.04 56.77"/>
        <path class="cls-10" d="M159.13,51.54c2.74,0,6.71-2,13.71-7.58,13.09-10.46,11.84-17,11.84-17s-6.17-2.72-19.43,7.52c-7.1,5.49-9.92,8.87-10.58,11.52Z"/>
        <path class="cls-11" d="M169,32.75a2.85,2.85,0,0,0-.63-.57c-1,.67-2,1.42-3.1,2.25-.43.33-.84.65-1.23,1a2.67,2.67,0,0,0,.47.88l6,7.49a2.94,2.94,0,0,0,1.42,1l1-.76c1-.78,1.87-1.54,2.7-2.28a2.8,2.8,0,0,0-.6-1.44Z"/>
        <path class="cls-12" d="M171.78,41.24a3.34,3.34,0,0,1-4.65-.54,3.3,3.3,0,1,1,4.65.54Z"/>
        <path class="cls-13" d="M171,40.29a2.1,2.1,0,0,1-2.94-.34,2.06,2.06,0,0,1,.31-2.9l0,0a2.1,2.1,0,0,1,2.94.34,2.06,2.06,0,0,1-.31,2.9Z"/>
        <path class="cls-14" d="M183.37,32.13c1.66-3.34,1.31-5.22,1.31-5.22s-1.76-.78-5.42.06Z"/>
        <g>
          <path class="cls-15" d="M154.1,37.24c4.74-3.78,4.29-6.17,4.29-6.17s-2.24-1-7,2.72c-4,3.12-4.25,4.37-3.61,5.64C148.85,40.35,150.12,40.43,154.1,37.24Z"/>
          <path class="cls-14" d="M157.91,33a3.4,3.4,0,0,0,.48-1.89,3.41,3.41,0,0,0-2,0Z"/>
          <path class="cls-14" d="M149.52,35.32c-2.25,2-2.3,3.07-1.77,4.11.9.75,1.91.94,4.43-.76Z"/>
        </g>
        <g>
          <path class="cls-15" d="M170,57.22c4.73-3.78,4.28-6.16,4.28-6.16s-2.23-1-7,2.72c-4,3.12-4.25,4.36-3.6,5.63C164.78,60.33,166,60.41,170,57.22Z"/>
          <path class="cls-14" d="M173.84,53a3.31,3.31,0,0,0,.47-1.89,3.41,3.41,0,0,0-2,0Z"/>
          <path class="cls-14" d="M165.44,55.31c-2.24,2-2.29,3.06-1.76,4.1.9.76,1.91.94,4.43-.76Z"/>
        </g>
        <g>
          <path class="cls-16" d="M161.21,64.16c-4.42,3.41-6.59,2.37-6.59,2.37s-.52-2.33,3.84-5.82c3.68-2.94,4.88-2.82,6-1.88C165.09,60.09,164.93,61.28,161.21,64.16Z"/>
          <path class="cls-17" d="M161.92,63c-3.45,2.66-5.14,1.85-5.14,1.85s-.4-1.81,3-4.53c2.86-2.3,3.8-2.2,4.65-1.47C164.94,59.81,164.82,60.74,161.92,63Z"/>
        </g>
        <g>
          <path class="cls-16" d="M145.29,44.17c-4.43,3.42-6.59,2.38-6.59,2.38s-.52-2.33,3.84-5.82c3.67-2.94,4.88-2.82,6-1.89C149.17,40.1,149,41.3,145.29,44.17Z"/>
          <path class="cls-17" d="M146,43c-3.45,2.66-5.14,1.85-5.14,1.85s-.4-1.82,3-4.54c2.87-2.29,3.81-2.19,4.65-1.47C149,39.82,148.9,40.76,146,43Z"/>
        </g>
        <path class="cls-18" d="M158.58,43.23a.49.49,0,0,1-.69-.07h0a.49.49,0,0,1,.06-.68h0l5.45-4.29a.5.5,0,0,1,.7.08h0a.5.5,0,0,1-.08.7Z"/>
        <path class="cls-14" d="M159.13,51.54c2,0,4.53-1,8.4-3.62l-7.38-9.26c-3.44,3.14-5,5.4-5.48,7.29Z"/>
        <g>
          <path class="cls-16" d="M149.83,60.47c-9.73,7.5-14.48,5.22-14.48,5.22s-1.15-5.12,8.44-12.8c8.07-6.46,10.73-6.2,13.11-4.14C158.36,51.51,158,54.15,149.83,60.47Z"/>
          <path class="cls-17" d="M151.38,57.88C143.8,63.73,140.09,62,140.09,62s-.89-4,6.59-10c6.29-5,8.36-4.83,10.22-3.23C158,50.9,157.77,53,151.38,57.88Z"/>
        </g>
        <path class="cls-7" d="M158.73,51l.4.5c2.74,0,6.71-2,13.71-7.58,10.52-8.41,11.78-14.32,11.87-16.32-.88,2.37-4.79,9.15-22.33,20.9C161,49.47,159.77,50.3,158.73,51Z"/>
      </g>
      <g id="Astronot">
        <path class="cls-15" d="M155.53,142.41l-.26-.11-13.38-5.59-14.33,33.8,11.22,4.69s13.52-28.65,15.51-30.2c.25,2.53-10.93,32.16-10.93,32.16l11.22,4.69L168.9,148Z"/>
        <path id="orange" class="cls-19" d="M175.94,125.61a12.43,12.43,0,0,1-16.23,6.58h0a12.28,12.28,0,0,1-6.66-16l0-.09L163.6,91.24c2.66-6.27,8.62-6.12,14.93-3.48h0c6.31,2.63,10.72,6.41,8.06,12.68Zm5.74-14.42-11.11-4.64-11.11-4.65s-13.81-3-30.86,27.89L138.79,137s8-12.61,8-12.14-5.09,12-5.09,12l13.64,5.7h0L169,148.27s4.77-11.66,5.09-12-3.17,14.13-3.17,14.13l12.31,2.19c10.26-33.67-1.53-41.4-1.53-41.4Z"/>
        <path class="cls-15" d="M183.21,104.27a10.78,10.78,0,0,1-14.09,5.7A10.66,10.66,0,0,1,163.35,96l0-.07a10.78,10.78,0,0,1,14.09-5.7,10.67,10.67,0,0,1,5.76,14Z"/>
        <path class="cls-20" d="M181.94,103.74a9.41,9.41,0,0,1-12.29,5,9.3,9.3,0,0,1-5-12.16l0,0a9.41,9.41,0,0,1,12.29-5,9.3,9.3,0,0,1,5,12.16Z"/>
        <path class="cls-21" d="M180.79,103.05a8.74,8.74,0,0,1-11.42,4.62,8.63,8.63,0,0,1-4.68-11.27l0-.07a8.73,8.73,0,0,1,11.41-4.62A8.63,8.63,0,0,1,180.82,103Z"/>
        <path class="cls-15" d="M168.43,98a.73.73,0,0,1-.94.38h0a.72.72,0,0,1-.4-.92v0l1.3-3.08a.74.74,0,0,1,.95-.38h0a.72.72,0,0,1,.39.94Z"/>
        <path class="cls-15" d="M166.85,96.63a.55.55,0,0,1-.72.29h0a.55.55,0,0,1-.29-.71l1-2.32a.55.55,0,0,1,.71-.29h0a.53.53,0,0,1,.29.71h0Z"/>
        <path class="cls-20" d="M137.53,177.29a3.5,3.5,0,0,1-4.57,1.85l-4.68-1.95a3.46,3.46,0,0,1-1.87-4.52v0h0a3.5,3.5,0,0,1,4.57-1.85l4.68,2a3.47,3.47,0,0,1,1.87,4.52v0Z"/>
        <path class="cls-20" d="M153.64,184a3.51,3.51,0,0,1-4.58,1.85l-4.67-2a3.44,3.44,0,0,1-1.87-4.5v0h0a3.49,3.49,0,0,1,4.57-1.85l4.67,1.95a3.48,3.48,0,0,1,1.87,4.55Z"/>
        <polygon class="cls-20" points="168.33 149.36 141.31 138.06 141.89 136.71 168.9 148 168.33 149.36"/>
        <polygon class="cls-20" points="170.2 134.97 163.03 131.97 165.96 125.05 173.13 128.05 170.2 134.97"/>
        <polygon class="cls-20" points="175.46 122.55 168.29 119.55 169.02 117.82 176.19 120.82 175.46 122.55"/>
        <polygon class="cls-22" points="161.75 118.86 154.58 115.86 156.04 112.4 163.22 115.4 161.75 118.86"/>
        <polygon class="cls-23" points="160.9 120.87 153.72 117.87 154.59 115.83 161.76 118.83 160.9 120.87"/>
        <path class="cls-24" d="M185.09,115.88s-3.13,2.17-1.29,4.73,3.07,1.28,3.07,1.28A46.56,46.56,0,0,0,185.09,115.88Z"/>
        <path class="cls-20" d="M130.21,130.93s-2.23,3.1-1.9,4.47,4.16,6.25,6.51,4.08,1.61-2.47,1.11-2.62.4-1.68.4-1.68Z"/>
        <path class="cls-20" d="M180.91,152.19s-.68,3.75-1.9,4.47-7.4,1.41-7.48-1.77.65-2.87,1.11-2.62.93-1.46.93-1.46Z"/>
        <polygon class="cls-20" points="145.02 162.24 133.17 157.29 133.88 155.6 145.73 160.55 145.02 162.24"/>
        <polygon class="cls-20" points="160.18 168.58 148.33 163.63 149.05 161.94 160.9 166.89 160.18 168.58"/>
      </g>
      <g id="Clouds">
        <path class="cls-25" d="M3.7,114.88s-1.21-2.42,0-4.14A4.58,4.58,0,0,1,9,108.89s-.6-2.54,1.3-3.88a5.77,5.77,0,0,1,6.29-.26l.83-.09s-.22-3.23,3.68-2.19c0,0,2.57-5.59,7-.84h0l6.62,1.4h0s2.52-1.4,2.84,1-.32,2-.32,2a5.34,5.34,0,0,1,6,2.52,5.18,5.18,0,0,1-1.1,6.34Z"/>
        <path class="cls-25" d="M58.48,150.61s-1.21-2.41,0-4.13a4.6,4.6,0,0,1,5.29-1.86s-.6-2.54,1.31-3.87a5.75,5.75,0,0,1,6.28-.26l.83-.09s-.22-3.23,3.69-2.2c0,0,2.56-5.58,7-.83h0l6.62,1.4h0s2.52-1.4,2.84,1-.32,2-.32,2a5.34,5.34,0,0,1,6,2.52,5.16,5.16,0,0,1-1.1,6.33Z"/>
        <path class="cls-25" d="M115.87,79.45s-1.08-2.09,0-3.58a4.14,4.14,0,0,1,4.71-1.61,3.3,3.3,0,0,1,1.15-3.35,5.25,5.25,0,0,1,5.6-.23l.73-.07s-.19-2.8,3.28-1.91c0,0,2.28-4.84,6.22-.72h0l5.89,1.21h0s2.24-1.21,2.52.86-.28,1.73-.28,1.73A4.83,4.83,0,0,1,151,74a4.41,4.41,0,0,1-1,5.48Z"/>
        <path class="cls-25" d="M40.37,41.54s-1.22-2.42,0-4.14a4.58,4.58,0,0,1,5.29-1.85S45.05,33,47,31.67a5.77,5.77,0,0,1,6.29-.26l.82-.08s-.21-3.24,3.69-2.2c0,0,2.57-5.59,7-.84h0l6.63,1.4h0s2.51-1.4,2.84,1-.33,2-.33,2a5.35,5.35,0,0,1,6,2.52,5.17,5.17,0,0,1-1.11,6.34Z"/>
      </g>
      <g id="Comets">
        <g>
          <ellipse class="cls-26" cx="54.13" cy="183.14" rx="1.82" ry="1.81"/>
          <path class="cls-27" d="M56.2,182.91a1.82,1.82,0,1,1-1.84-1.8h0a1.81,1.81,0,0,1,1.82,1.8Z"/>
          <path class="cls-28" d="M56.44,182.69a1.81,1.81,0,1,1-1.83-1.79h0A1.81,1.81,0,0,1,56.44,182.69Z"/>
          <path class="cls-28" d="M56.69,182.47a1.8,1.8,0,1,1-1.81-1.79h0A1.8,1.8,0,0,1,56.69,182.47Z"/>
          <path class="cls-29" d="M56.93,182.25a1.79,1.79,0,1,1-1.8-1.78h0A1.8,1.8,0,0,1,56.93,182.25Z"/>
          <ellipse class="cls-30" cx="55.39" cy="182.03" rx="1.79" ry="1.78"/>
          <path class="cls-31" d="M57.42,181.81A1.78,1.78,0,1,1,55.64,180a1.78,1.78,0,0,1,1.78,1.81Z"/>
          <path class="cls-32" d="M57.67,181.58a1.78,1.78,0,1,1-1.8-1.76h0A1.77,1.77,0,0,1,57.67,181.58Z"/>
          <path class="cls-32" d="M57.91,181.36a1.77,1.77,0,1,1-1.79-1.75h0A1.76,1.76,0,0,1,57.91,181.36Z"/>
          <path class="cls-33" d="M58.16,181.14a1.76,1.76,0,1,1-1.77-1.75h0a1.75,1.75,0,0,1,1.76,1.74Z"/>
          <path class="cls-34" d="M58.4,180.92a1.75,1.75,0,1,1-1.76-1.74h0a1.74,1.74,0,0,1,1.75,1.73Z"/>
          <ellipse class="cls-35" cx="56.9" cy="180.7" rx="1.75" ry="1.74"/>
          <path class="cls-35" d="M58.89,180.48a1.74,1.74,0,1,1-1.75-1.73h0a1.72,1.72,0,0,1,1.74,1.72Z"/>
          <path class="cls-36" d="M59.14,180.25a1.74,1.74,0,1,1-1.76-1.72h0a1.72,1.72,0,0,1,1.74,1.72Z"/>
          <path class="cls-37" d="M59.38,180a1.73,1.73,0,1,1-1.75-1.71h0A1.72,1.72,0,0,1,59.38,180Z"/>
          <path class="cls-38" d="M59.63,179.81a1.72,1.72,0,1,1-1.73-1.71h0A1.72,1.72,0,0,1,59.63,179.81Z"/>
          <path class="cls-39" d="M59.87,179.59a1.71,1.71,0,1,1-1.72-1.7h0a1.7,1.7,0,0,1,1.71,1.69Z"/>
          <path class="cls-39" d="M60.12,179.37a1.71,1.71,0,1,1-1.72-1.7h0A1.71,1.71,0,0,1,60.12,179.37Z"/>
          <path class="cls-40" d="M60.36,179.15a1.7,1.7,0,1,1-1.71-1.69h0a1.69,1.69,0,0,1,1.7,1.68Z"/>
          <path class="cls-41" d="M60.61,178.92a1.7,1.7,0,1,1-1.72-1.68h0A1.69,1.69,0,0,1,60.61,178.92Z"/>
          <path class="cls-42" d="M60.85,178.7a1.69,1.69,0,1,1-1.68-1.7,1.68,1.68,0,0,1,1.68,1.68Z"/>
          <path class="cls-43" d="M61.1,178.48a1.68,1.68,0,1,1-1.69-1.67h0A1.69,1.69,0,0,1,61.1,178.48Z"/>
          <path class="cls-43" d="M61.34,178.26a1.67,1.67,0,1,1-1.68-1.66h0a1.66,1.66,0,0,1,1.67,1.65Z"/>
          <path class="cls-44" d="M61.59,178a1.67,1.67,0,1,1-1.68-1.66h0A1.66,1.66,0,0,1,61.59,178Z"/>
          <path class="cls-45" d="M61.83,177.82a1.66,1.66,0,1,1-1.67-1.65h0a1.65,1.65,0,0,1,1.66,1.64Z"/>
          <path class="cls-8" d="M62.08,177.59A1.66,1.66,0,1,1,60.35,176h.08A1.65,1.65,0,0,1,62.08,177.59Z"/>
          <path class="cls-46" d="M62.32,177.37a1.65,1.65,0,1,1-1.67-1.63h0a1.63,1.63,0,0,1,1.64,1.62Z"/>
          <path class="cls-46" d="M62.57,177.15a1.64,1.64,0,1,1-1.65-1.63h0A1.65,1.65,0,0,1,62.57,177.15Z"/>
          <path class="cls-47" d="M62.81,176.93a1.63,1.63,0,1,1-1.64-1.62h0A1.63,1.63,0,0,1,62.81,176.93Z"/>
          <path class="cls-48" d="M63.06,176.71a1.63,1.63,0,1,1-1.64-1.62h0a1.63,1.63,0,0,1,1.63,1.61Z"/>
          <path class="cls-49" d="M63.3,176.49a1.62,1.62,0,1,1-1.63-1.61h0a1.61,1.61,0,0,1,1.62,1.6Z"/>
          <path class="cls-49" d="M63.55,176.26a1.62,1.62,0,1,1-1.64-1.6h0a1.6,1.6,0,0,1,1.61,1.59Z"/>
          <path class="cls-50" d="M63.79,176a1.61,1.61,0,1,1-1.63-1.59h0A1.6,1.6,0,0,1,63.79,176Z"/>
          <path class="cls-51" d="M64,175.82a1.6,1.6,0,1,1-1.61-1.59h0A1.6,1.6,0,0,1,64,175.82Z"/>
          <path class="cls-52" d="M64.28,175.6a1.59,1.59,0,1,1-1.59-1.6,1.59,1.59,0,0,1,1.59,1.6Z"/>
          <ellipse class="cls-53" cx="62.94" cy="175.38" rx="1.58" ry="1.57"/>
          <path class="cls-53" d="M64.77,175.16a1.58,1.58,0,1,1-1.59-1.57h0a1.56,1.56,0,0,1,1.57,1.55Z"/>
          <path class="cls-54" d="M65,174.93a1.57,1.57,0,1,1-1.58-1.56h0A1.56,1.56,0,0,1,65,174.92Z"/>
          <path class="cls-55" d="M65.26,174.71a1.57,1.57,0,1,1-1.59-1.55h0A1.56,1.56,0,0,1,65.26,174.71Z"/>
          <path class="cls-56" d="M65.51,174.49a1.56,1.56,0,1,1-1.57-1.55H64A1.56,1.56,0,0,1,65.51,174.49Z"/>
          <ellipse class="cls-57" cx="64.2" cy="174.27" rx="1.55" ry="1.54"/>
          <path class="cls-57" d="M66,174.05a1.55,1.55,0,1,1-1.56-1.54h0A1.54,1.54,0,0,1,66,174Z"/>
          <path class="cls-58" d="M66.24,173.83a1.54,1.54,0,1,1-1.55-1.53h0A1.54,1.54,0,0,1,66.24,173.83Z"/>
          <path class="cls-59" d="M66.49,173.6A1.53,1.53,0,1,1,65,172.08h0A1.53,1.53,0,0,1,66.49,173.6Z"/>
          <path class="cls-60" d="M66.73,173.38a1.52,1.52,0,1,1-1.53-1.51h0A1.52,1.52,0,0,1,66.73,173.38Z"/>
          <path class="cls-61" d="M67,173.16a1.52,1.52,0,1,1-1.53-1.51h0A1.52,1.52,0,0,1,67,173.16Z"/>
          <path class="cls-61" d="M67.22,172.94a1.51,1.51,0,1,1-1.52-1.5h0a1.5,1.5,0,0,1,1.51,1.49Z"/>
          <path class="cls-62" d="M67.47,172.72a1.51,1.51,0,1,1-1.52-1.5h0a1.5,1.5,0,0,1,1.51,1.49Z"/>
          <path class="cls-63" d="M67.71,172.49A1.5,1.5,0,1,1,66.2,171h0a1.49,1.49,0,0,1,1.49,1.49Z"/>
          <path class="cls-64" d="M68,172.27a1.49,1.49,0,1,1-1.5-1.48h0A1.49,1.49,0,0,1,68,172.27Z"/>
          <path class="cls-64" d="M68.2,172.05a1.48,1.48,0,1,1-1.49-1.47h0A1.47,1.47,0,0,1,68.2,172Z"/>
          <path class="cls-65" d="M68.45,171.83A1.48,1.48,0,1,1,67,170.36h0A1.47,1.47,0,0,1,68.45,171.83Z"/>
          <path class="cls-66" d="M68.69,171.61a1.47,1.47,0,1,1-1.48-1.46h0a1.46,1.46,0,0,1,1.47,1.45Z"/>
          <ellipse class="cls-67" cx="67.48" cy="171.39" rx="1.46" ry="1.45"/>
          <path class="cls-68" d="M69.18,171.17a1.46,1.46,0,1,1-1.47-1.45h0A1.45,1.45,0,0,1,69.18,171.17Z"/>
          <path class="cls-68" d="M69.43,170.94A1.45,1.45,0,1,1,68,169.5h0A1.44,1.44,0,0,1,69.43,170.94Z"/>
          <path class="cls-69" d="M69.67,170.72a1.44,1.44,0,1,1-1.45-1.43h0a1.43,1.43,0,0,1,1.44,1.42Z"/>
          <path class="cls-70" d="M69.92,170.5a1.44,1.44,0,1,1-1.45-1.43h0a1.43,1.43,0,0,1,1.44,1.42Z"/>
          <path class="cls-71" d="M70.16,170.28A1.43,1.43,0,1,1,68.85,169,1.44,1.44,0,0,1,70.16,170.28Z"/>
          <path class="cls-72" d="M70.41,170.06A1.43,1.43,0,1,1,69,168.64h0A1.42,1.42,0,0,1,70.41,170.06Z"/>
          <path class="cls-72" d="M70.65,169.83a1.42,1.42,0,1,1-1.44-1.4h0A1.42,1.42,0,0,1,70.65,169.83Z"/>
          <path class="cls-73" d="M70.9,169.61a1.41,1.41,0,1,1-1.42-1.4h0a1.4,1.4,0,0,1,1.41,1.39Z"/>
          <path class="cls-74" d="M71.14,169.39A1.4,1.4,0,1,1,69.73,168h0a1.39,1.39,0,0,1,1.4,1.38Z"/>
          <path class="cls-18" d="M71.39,169.17A1.4,1.4,0,1,1,70,167.78h0a1.39,1.39,0,0,1,1.4,1.38Z"/>
          <ellipse class="cls-75" cx="70.24" cy="168.95" rx="1.39" ry="1.38"/>
          <ellipse class="cls-75" cx="70.5" cy="168.73" rx="1.38" ry="1.37"/>
          <path class="cls-76" d="M72.12,168.5a1.38,1.38,0,1,1-1.4-1.36h0A1.38,1.38,0,0,1,72.12,168.5Z"/>
          <path class="cls-77" d="M72.37,168.28A1.37,1.37,0,1,1,71,166.92h0a1.36,1.36,0,0,1,1.37,1.35Z"/>
          <path class="cls-78" d="M72.61,168.06a1.36,1.36,0,1,1-1.37-1.35h0a1.34,1.34,0,0,1,1.36,1.34Z"/>
          <path class="cls-78" d="M72.86,167.84a1.36,1.36,0,1,1-1.37-1.35h0a1.34,1.34,0,0,1,1.36,1.34Z"/>
          <path class="cls-79" d="M73.1,167.62a1.35,1.35,0,1,1-1.36-1.34h0a1.34,1.34,0,0,1,1.35,1.33Z"/>
          <path class="cls-80" d="M73.35,167.4A1.34,1.34,0,1,1,72,166.06a1.34,1.34,0,0,1,1.35,1.34Z"/>
          <path class="cls-81" d="M73.59,167.17a1.34,1.34,0,1,1-1.36-1.32h0a1.32,1.32,0,0,1,1.33,1.31Z"/>
          <path class="cls-82" d="M73.84,167a1.33,1.33,0,1,1-1.34-1.32h0A1.33,1.33,0,0,1,73.84,167Z"/>
          <path class="cls-82" d="M74.08,166.73a1.32,1.32,0,1,1-1.33-1.31h0a1.31,1.31,0,0,1,1.32,1.3Z"/>
          <path class="cls-83" d="M74.33,166.51A1.32,1.32,0,1,1,73,165.2a1.32,1.32,0,0,1,1.33,1.31Z"/>
          <path class="cls-21" d="M74.57,166.29a1.31,1.31,0,1,1-1.32-1.3h0a1.3,1.3,0,0,1,1.3,1.3Z"/>
        </g>
        <g>
          <path class="cls-26" d="M102.32,170.11a1.83,1.83,0,1,1-1.85-1.81h0a1.81,1.81,0,0,1,1.83,1.81Z"/>
          <path class="cls-27" d="M102.56,169.89a1.82,1.82,0,1,1-1.83-1.81h0A1.81,1.81,0,0,1,102.56,169.89Z"/>
          <path class="cls-28" d="M102.81,169.66a1.81,1.81,0,1,1-1.83-1.79h0a1.81,1.81,0,0,1,1.81,1.79Z"/>
          <path class="cls-28" d="M103.05,169.44a1.8,1.8,0,1,1-1.81-1.79h0A1.8,1.8,0,0,1,103.05,169.44Z"/>
          <path class="cls-29" d="M103.3,169.22a1.8,1.8,0,1,1-1.82-1.78h0a1.79,1.79,0,0,1,1.8,1.78Z"/>
          <path class="cls-30" d="M103.54,169a1.79,1.79,0,1,1-1.8-1.78h0a1.78,1.78,0,0,1,1.79,1.77Z"/>
          <ellipse class="cls-31" cx="102" cy="168.78" rx="1.78" ry="1.77"/>
          <ellipse class="cls-32" cx="102.26" cy="168.56" rx="1.77" ry="1.76"/>
          <path class="cls-32" d="M104.28,168.33a1.77,1.77,0,1,1-1.79-1.75h0A1.77,1.77,0,0,1,104.28,168.33Z"/>
          <path class="cls-33" d="M104.52,168.11a1.76,1.76,0,1,1-1.77-1.75h0a1.75,1.75,0,0,1,1.76,1.74Z"/>
          <path class="cls-34" d="M104.77,167.89a1.76,1.76,0,1,1-1.78-1.74h0a1.75,1.75,0,0,1,1.76,1.74Z"/>
          <path class="cls-35" d="M105,167.67a1.75,1.75,0,1,1-1.76-1.74h0a1.72,1.72,0,0,1,1.75,1.71Z"/>
          <path class="cls-35" d="M105.26,167.45a1.75,1.75,0,1,1-1.77-1.73h0a1.74,1.74,0,0,1,1.75,1.73Z"/>
          <path class="cls-36" d="M105.5,167.23a1.74,1.74,0,1,1-1.75-1.73h0A1.72,1.72,0,0,1,105.5,167.23Z"/>
          <path class="cls-37" d="M105.75,167a1.73,1.73,0,1,1-1.75-1.71h0A1.73,1.73,0,0,1,105.75,167Z"/>
          <path class="cls-38" d="M106,166.78a1.72,1.72,0,1,1-1.73-1.71h0a1.72,1.72,0,0,1,1.72,1.7Z"/>
          <path class="cls-39" d="M106.24,166.56a1.72,1.72,0,1,1-1.74-1.7h0a1.72,1.72,0,0,1,1.72,1.7Z"/>
          <path class="cls-39" d="M106.48,166.34a1.71,1.71,0,1,1-1.72-1.7h0a1.7,1.7,0,0,1,1.71,1.69Z"/>
          <path class="cls-40" d="M106.73,166.12a1.7,1.7,0,1,1-1.71-1.69h0A1.71,1.71,0,0,1,106.73,166.12Z"/>
          <path class="cls-41" d="M107,165.9a1.7,1.7,0,1,1-1.71-1.69h0A1.69,1.69,0,0,1,107,165.9Z"/>
          <path class="cls-42" d="M107.22,165.67a1.69,1.69,0,1,1-1.71-1.67h0A1.68,1.68,0,0,1,107.22,165.67Z"/>
          <path class="cls-43" d="M107.46,165.45a1.68,1.68,0,1,1-1.69-1.67h0A1.69,1.69,0,0,1,107.46,165.45Z"/>
          <path class="cls-43" d="M107.71,165.23a1.68,1.68,0,1,1-1.7-1.66h0a1.67,1.67,0,0,1,1.68,1.66Z"/>
          <path class="cls-44" d="M108,165a1.67,1.67,0,1,1-1.68-1.66h0A1.66,1.66,0,0,1,108,165Z"/>
          <path class="cls-45" d="M108.2,164.79a1.66,1.66,0,1,1-1.67-1.65h0A1.67,1.67,0,0,1,108.2,164.79Z"/>
          <path class="cls-8" d="M108.44,164.57a1.65,1.65,0,1,1-1.65-1.65h0A1.65,1.65,0,0,1,108.44,164.57Z"/>
          <path class="cls-46" d="M108.69,164.34a1.65,1.65,0,1,1-1.67-1.63h0a1.63,1.63,0,0,1,1.65,1.63Z"/>
          <path class="cls-46" d="M108.93,164.12a1.64,1.64,0,1,1-1.65-1.63h0a1.63,1.63,0,0,1,1.64,1.62Z"/>
          <path class="cls-47" d="M109.18,163.9a1.64,1.64,0,1,1-1.66-1.62h0a1.63,1.63,0,0,1,1.64,1.62Z"/>
          <path class="cls-48" d="M109.42,163.68a1.63,1.63,0,1,1-1.64-1.62h0a1.63,1.63,0,0,1,1.63,1.61Z"/>
          <path class="cls-49" d="M109.66,163.46a1.62,1.62,0,1,1-1.63-1.61h0a1.61,1.61,0,0,1,1.61,1.61Z"/>
          <path class="cls-49" d="M109.91,163.24a1.61,1.61,0,1,1-1.61-1.61,1.61,1.61,0,0,1,1.61,1.61Z"/>
          <path class="cls-50" d="M110.15,163a1.6,1.6,0,1,1-1.61-1.59h0A1.6,1.6,0,0,1,110.15,163Z"/>
          <path class="cls-51" d="M110.4,162.79a1.6,1.6,0,1,1-1.61-1.59h0A1.6,1.6,0,0,1,110.4,162.79Z"/>
          <path class="cls-52" d="M110.64,162.57A1.59,1.59,0,1,1,109,161h0A1.6,1.6,0,0,1,110.64,162.57Z"/>
          <ellipse class="cls-53" cx="109.31" cy="162.35" rx="1.58" ry="1.57"/>
          <path class="cls-53" d="M111.13,162.13a1.58,1.58,0,1,1-1.59-1.57h0a1.56,1.56,0,0,1,1.57,1.55Z"/>
          <path class="cls-54" d="M111.38,161.91a1.57,1.57,0,1,1-1.57-1.57,1.57,1.57,0,0,1,1.57,1.57Z"/>
          <path class="cls-55" d="M111.62,161.68a1.56,1.56,0,1,1-1.57-1.55h0A1.56,1.56,0,0,1,111.62,161.68Z"/>
          <path class="cls-56" d="M111.87,161.46a1.56,1.56,0,1,1-1.57-1.55h0a1.54,1.54,0,0,1,1.56,1.54Z"/>
          <ellipse class="cls-57" cx="110.56" cy="161.24" rx="1.55" ry="1.54"/>
          <ellipse class="cls-57" cx="110.82" cy="161.02" rx="1.54" ry="1.53"/>
          <path class="cls-58" d="M112.6,160.8a1.54,1.54,0,1,1-1.55-1.53h0a1.52,1.52,0,0,1,1.53,1.51Z"/>
          <path class="cls-59" d="M112.85,160.57a1.53,1.53,0,1,1-1.54-1.52h0A1.53,1.53,0,0,1,112.85,160.57Z"/>
          <path class="cls-60" d="M113.09,160.35a1.52,1.52,0,1,1-1.53-1.51h0A1.52,1.52,0,0,1,113.09,160.35Z"/>
          <path class="cls-61" d="M113.34,160.13a1.52,1.52,0,1,1-1.53-1.51h0A1.52,1.52,0,0,1,113.34,160.13Z"/>
          <path class="cls-61" d="M113.58,159.91a1.51,1.51,0,1,1-1.52-1.5h0a1.5,1.5,0,0,1,1.51,1.49Z"/>
          <path class="cls-62" d="M113.83,159.69a1.51,1.51,0,1,1-1.53-1.49h0A1.51,1.51,0,0,1,113.83,159.69Z"/>
          <path class="cls-63" d="M114.07,159.47a1.5,1.5,0,1,1-1.51-1.49h0a1.49,1.49,0,0,1,1.49,1.49Z"/>
          <path class="cls-64" d="M114.32,159.24a1.49,1.49,0,1,1-1.51-1.47h0A1.48,1.48,0,0,1,114.32,159.24Z"/>
          <path class="cls-64" d="M114.56,159a1.48,1.48,0,1,1-1.49-1.47h0A1.49,1.49,0,0,1,114.56,159Z"/>
          <path class="cls-65" d="M114.81,158.8a1.48,1.48,0,1,1-1.5-1.46h0a1.47,1.47,0,0,1,1.48,1.46Z"/>
          <path class="cls-66" d="M115.05,158.58a1.47,1.47,0,1,1-1.48-1.46h0a1.46,1.46,0,0,1,1.46,1.46Z"/>
          <path class="cls-67" d="M115.3,158.36a1.47,1.47,0,1,1-1.49-1.45h0A1.47,1.47,0,0,1,115.3,158.36Z"/>
          <path class="cls-68" d="M115.54,158.14a1.46,1.46,0,1,1-1.47-1.45h0A1.45,1.45,0,0,1,115.54,158.14Z"/>
          <path class="cls-68" d="M115.79,157.91a1.45,1.45,0,1,1-1.47-1.43h0a1.43,1.43,0,0,1,1.45,1.43Z"/>
          <path class="cls-69" d="M116,157.69a1.44,1.44,0,1,1-1.45-1.43h0A1.44,1.44,0,0,1,116,157.69Z"/>
          <path class="cls-70" d="M116.28,157.47a1.44,1.44,0,1,1-1.46-1.42h0a1.43,1.43,0,0,1,1.44,1.42Z"/>
          <path class="cls-71" d="M116.52,157.25a1.43,1.43,0,1,1-1.44-1.42h0A1.44,1.44,0,0,1,116.52,157.25Z"/>
          <path class="cls-72" d="M116.77,157a1.42,1.42,0,1,1-1.43-1.41h0A1.42,1.42,0,0,1,116.77,157Z"/>
          <path class="cls-72" d="M117,156.81a1.42,1.42,0,1,1-1.43-1.41h0a1.41,1.41,0,0,1,1.41,1.41Z"/>
          <path class="cls-73" d="M117.26,156.58a1.41,1.41,0,1,1-1.43-1.39h0a1.4,1.4,0,0,1,1.41,1.39Z"/>
          <path class="cls-74" d="M117.5,156.36a1.4,1.4,0,1,1-1.41-1.39h0A1.4,1.4,0,0,1,117.5,156.36Z"/>
          <path class="cls-18" d="M117.75,156.14a1.4,1.4,0,1,1-1.42-1.38h0A1.39,1.39,0,0,1,117.75,156.14Z"/>
          <ellipse class="cls-75" cx="116.61" cy="155.92" rx="1.39" ry="1.38"/>
          <path class="cls-75" d="M118.24,155.7a1.38,1.38,0,1,1-1.39-1.37h0a1.37,1.37,0,0,1,1.38,1.36Z"/>
          <path class="cls-76" d="M118.48,155.48a1.38,1.38,0,1,1-1.39-1.37h0a1.36,1.36,0,0,1,1.37,1.35Z"/>
          <path class="cls-77" d="M118.73,155.25a1.37,1.37,0,1,1-1.39-1.35h0a1.36,1.36,0,0,1,1.37,1.35Z"/>
          <path class="cls-78" d="M119,155a1.36,1.36,0,1,1-1.37-1.35h0A1.34,1.34,0,0,1,119,155Z"/>
          <path class="cls-78" d="M119.22,154.81a1.36,1.36,0,1,1-1.38-1.34h0A1.36,1.36,0,0,1,119.22,154.81Z"/>
          <ellipse class="cls-79" cx="118.12" cy="154.59" rx="1.35" ry="1.34"/>
          <path class="cls-80" d="M119.71,154.37a1.34,1.34,0,1,1-1.35-1.33h0A1.34,1.34,0,0,1,119.71,154.37Z"/>
          <path class="cls-81" d="M120,154.15a1.33,1.33,0,1,1-1.33-1.33,1.32,1.32,0,0,1,1.33,1.31Z"/>
          <path class="cls-82" d="M120.2,153.92a1.33,1.33,0,1,1-1.35-1.31h0a1.32,1.32,0,0,1,1.33,1.31Z"/>
          <path class="cls-82" d="M120.44,153.7a1.32,1.32,0,1,1-1.33-1.31h0a1.31,1.31,0,0,1,1.32,1.3Z"/>
          <ellipse class="cls-83" cx="119.38" cy="153.48" rx="1.31" ry="1.3"/>
          <path class="cls-21" d="M120.93,153.26a1.31,1.31,0,1,1-1.32-1.3h0a1.3,1.3,0,0,1,1.3,1.3Z"/>
        </g>
        <g>
          <path class="cls-26" d="M168.73,78.51a1.83,1.83,0,1,1-1.85-1.81h0A1.82,1.82,0,0,1,168.73,78.51Z"/>
          <path class="cls-27" d="M169,78.29a1.82,1.82,0,1,1-1.84-1.8h0A1.81,1.81,0,0,1,169,78.29Z"/>
          <path class="cls-28" d="M169.22,78.07a1.81,1.81,0,1,1-1.82-1.8h0a1.81,1.81,0,0,1,1.81,1.79Z"/>
          <path class="cls-28" d="M169.46,77.84a1.8,1.8,0,1,1-1.82-1.78h0a1.79,1.79,0,0,1,1.8,1.78Z"/>
          <path class="cls-29" d="M169.71,77.62a1.8,1.8,0,1,1-1.82-1.78h0a1.79,1.79,0,0,1,1.8,1.78Z"/>
          <path class="cls-30" d="M170,77.4a1.79,1.79,0,1,1-1.81-1.77h0A1.79,1.79,0,0,1,170,77.4Z"/>
          <path class="cls-31" d="M170.2,77.18a1.78,1.78,0,1,1-1.79-1.77h0A1.78,1.78,0,0,1,170.2,77.18Z"/>
          <path class="cls-32" d="M170.44,77a1.78,1.78,0,1,1-1.8-1.76h0A1.76,1.76,0,0,1,170.44,77Z"/>
          <path class="cls-32" d="M170.69,76.74a1.77,1.77,0,1,1-1.8-1.74h0A1.75,1.75,0,0,1,170.69,76.74Z"/>
          <path class="cls-33" d="M170.93,76.51a1.76,1.76,0,1,1-1.78-1.74h0a1.75,1.75,0,0,1,1.76,1.74Z"/>
          <path class="cls-34" d="M171.18,76.29a1.76,1.76,0,1,1-1.78-1.74h0a1.75,1.75,0,0,1,1.76,1.74Z"/>
          <path class="cls-35" d="M171.42,76.07a1.75,1.75,0,1,1-1.77-1.73h0A1.74,1.74,0,0,1,171.42,76.07Z"/>
          <path class="cls-35" d="M171.67,75.85a1.74,1.74,0,1,1-1.75-1.73h0A1.74,1.74,0,0,1,171.67,75.85Z"/>
          <path class="cls-36" d="M171.91,75.63a1.73,1.73,0,1,1-1.74-1.72h0a1.72,1.72,0,0,1,1.73,1.71Z"/>
          <path class="cls-37" d="M172.16,75.41a1.73,1.73,0,1,1-1.74-1.72h0A1.73,1.73,0,0,1,172.16,75.41Z"/>
          <path class="cls-38" d="M172.4,75.18a1.72,1.72,0,1,1-1.74-1.7h0a1.72,1.72,0,0,1,1.72,1.7Z"/>
          <ellipse class="cls-39" cx="170.93" cy="74.96" rx="1.71" ry="1.7"/>
          <path class="cls-39" d="M172.89,74.74a1.71,1.71,0,1,1-1.73-1.69h0A1.71,1.71,0,0,1,172.89,74.74Z"/>
          <path class="cls-40" d="M173.14,74.52a1.7,1.7,0,1,1-1.71-1.69h0A1.7,1.7,0,0,1,173.14,74.52Z"/>
          <path class="cls-41" d="M173.38,74.3a1.69,1.69,0,1,1-1.7-1.68h0A1.69,1.69,0,0,1,173.38,74.3Z"/>
          <path class="cls-42" d="M173.63,74.08a1.69,1.69,0,1,1-1.7-1.68h0a1.68,1.68,0,0,1,1.69,1.67Z"/>
          <path class="cls-43" d="M173.87,73.85a1.68,1.68,0,1,1-1.7-1.66h0a1.67,1.67,0,0,1,1.68,1.66Z"/>
          <ellipse class="cls-43" cx="172.44" cy="73.63" rx="1.67" ry="1.66"/>
          <path class="cls-44" d="M174.36,73.41a1.67,1.67,0,1,1-1.69-1.65h0a1.65,1.65,0,0,1,1.66,1.64Z"/>
          <path class="cls-45" d="M174.61,73.19a1.66,1.66,0,1,1-1.67-1.65H173A1.66,1.66,0,0,1,174.61,73.19Z"/>
          <ellipse class="cls-8" cx="173.2" cy="72.97" rx="1.65" ry="1.64"/>
          <ellipse class="cls-46" cx="173.45" cy="72.75" rx="1.65" ry="1.63"/>
          <path class="cls-46" d="M175.34,72.52a1.64,1.64,0,1,1-1.66-1.62h0a1.63,1.63,0,0,1,1.64,1.62Z"/>
          <path class="cls-47" d="M175.59,72.3a1.64,1.64,0,1,1-1.66-1.62H174A1.63,1.63,0,0,1,175.59,72.3Z"/>
          <path class="cls-48" d="M175.83,72.08a1.63,1.63,0,1,1-1.65-1.61h0A1.62,1.62,0,0,1,175.83,72.08Z"/>
          <path class="cls-49" d="M176.08,71.86a1.62,1.62,0,1,1-1.63-1.61h0A1.62,1.62,0,0,1,176.08,71.86Z"/>
          <path class="cls-49" d="M176.32,71.64A1.61,1.61,0,1,1,174.7,70h0A1.61,1.61,0,0,1,176.32,71.64Z"/>
          <path class="cls-50" d="M176.57,71.41a1.61,1.61,0,1,1-1.63-1.59H175A1.6,1.6,0,0,1,176.57,71.41Z"/>
          <path class="cls-51" d="M176.81,71.19a1.6,1.6,0,1,1-1.62-1.58h0a1.59,1.59,0,0,1,1.6,1.58Z"/>
          <path class="cls-52" d="M177.06,71a1.6,1.6,0,1,1-1.62-1.58h0A1.6,1.6,0,0,1,177.06,71Z"/>
          <ellipse class="cls-53" cx="175.72" cy="70.75" rx="1.58" ry="1.57"/>
          <path class="cls-53" d="M177.55,70.53A1.58,1.58,0,1,1,175.92,69H176A1.59,1.59,0,0,1,177.55,70.53Z"/>
          <path class="cls-54" d="M177.79,70.31a1.57,1.57,0,1,1-1.58-1.56h0a1.56,1.56,0,0,1,1.57,1.55Z"/>
          <path class="cls-55" d="M178,70.09a1.57,1.57,0,1,1-1.58-1.56h0A1.56,1.56,0,0,1,178,70.08Z"/>
          <path class="cls-56" d="M178.28,69.86a1.56,1.56,0,1,1-1.58-1.54h0a1.54,1.54,0,0,1,1.56,1.54Z"/>
          <path class="cls-57" d="M178.53,69.64A1.55,1.55,0,1,1,177,68.1h0A1.56,1.56,0,0,1,178.53,69.64Z"/>
          <path class="cls-57" d="M178.77,69.42a1.55,1.55,0,1,1-1.57-1.53h0a1.53,1.53,0,0,1,1.54,1.52Z"/>
          <path class="cls-58" d="M179,69.2a1.54,1.54,0,1,1-1.55-1.53h0A1.53,1.53,0,0,1,179,69.19Z"/>
          <path class="cls-59" d="M179.26,69a1.53,1.53,0,1,1-1.54-1.52h0A1.52,1.52,0,0,1,179.26,69Z"/>
          <path class="cls-60" d="M179.51,68.75A1.53,1.53,0,1,1,178,67.24h0A1.53,1.53,0,0,1,179.51,68.75Z"/>
          <path class="cls-61" d="M179.75,68.53a1.52,1.52,0,1,1-1.54-1.5h0A1.52,1.52,0,0,1,179.75,68.53Z"/>
          <ellipse class="cls-61" cx="178.49" cy="68.31" rx="1.51" ry="1.5"/>
          <path class="cls-62" d="M180.24,68.09a1.5,1.5,0,1,1-1.51-1.49h0A1.51,1.51,0,0,1,180.24,68.09Z"/>
          <path class="cls-63" d="M180.49,67.87A1.5,1.5,0,1,1,179,66.38h0a1.49,1.49,0,0,1,1.5,1.48Z"/>
          <path class="cls-64" d="M180.73,67.65a1.49,1.49,0,1,1-1.5-1.48h0A1.49,1.49,0,0,1,180.73,67.65Z"/>
          <path class="cls-64" d="M181,67.42A1.49,1.49,0,1,1,179.44,66h.05A1.5,1.5,0,0,1,181,67.42Z"/>
          <path class="cls-65" d="M181.22,67.2a1.48,1.48,0,1,1-1.5-1.46h0A1.47,1.47,0,0,1,181.22,67.2Z"/>
          <path class="cls-66" d="M181.47,67A1.47,1.47,0,1,1,180,65.52,1.46,1.46,0,0,1,181.47,67Z"/>
          <path class="cls-67" d="M181.71,66.76a1.46,1.46,0,1,1-1.47-1.45h0a1.45,1.45,0,0,1,1.46,1.44Z"/>
          <path class="cls-68" d="M182,66.54a1.46,1.46,0,1,1-1.47-1.45h0A1.45,1.45,0,0,1,182,66.53Z"/>
          <path class="cls-68" d="M182.2,66.32a1.45,1.45,0,1,1-1.46-1.44h0A1.45,1.45,0,0,1,182.2,66.32Z"/>
          <path class="cls-69" d="M182.45,66.09A1.45,1.45,0,1,1,181,64.66h0a1.43,1.43,0,0,1,1.45,1.43Z"/>
          <path class="cls-70" d="M182.69,65.87a1.44,1.44,0,1,1-1.46-1.42h0A1.43,1.43,0,0,1,182.69,65.87Z"/>
          <path class="cls-71" d="M182.94,65.65a1.43,1.43,0,1,1-1.44-1.42h0A1.43,1.43,0,0,1,182.94,65.65Z"/>
          <path class="cls-72" d="M183.18,65.43A1.42,1.42,0,1,1,181.76,64a1.43,1.43,0,0,1,1.42,1.43Z"/>
          <path class="cls-72" d="M183.43,65.21A1.42,1.42,0,1,1,182,63.8a1.41,1.41,0,0,1,1.43,1.39Z"/>
          <path class="cls-73" d="M183.67,65a1.41,1.41,0,1,1-1.42-1.4h0A1.42,1.42,0,0,1,183.67,65Z"/>
          <path class="cls-74" d="M183.92,64.76a1.41,1.41,0,1,1-1.43-1.39h0A1.41,1.41,0,0,1,183.92,64.76Z"/>
          <path class="cls-18" d="M184.16,64.54a1.4,1.4,0,1,1-1.42-1.38h0A1.4,1.4,0,0,1,184.16,64.54Z"/>
          <path class="cls-75" d="M184.41,64.32A1.39,1.39,0,1,1,183,62.94a1.39,1.39,0,0,1,1.41,1.38Z"/>
          <path class="cls-75" d="M184.65,64.1a1.38,1.38,0,1,1-1.39-1.37h0a1.37,1.37,0,0,1,1.38,1.36Z"/>
          <path class="cls-76" d="M184.9,63.88a1.38,1.38,0,1,1-1.39-1.37h0a1.37,1.37,0,0,1,1.38,1.36Z"/>
          <path class="cls-77" d="M185.14,63.66a1.37,1.37,0,1,1-1.38-1.36h0a1.36,1.36,0,0,1,1.37,1.35Z"/>
          <path class="cls-78" d="M185.39,63.43A1.37,1.37,0,1,1,184,62.08a1.37,1.37,0,0,1,1.39,1.35Z"/>
          <path class="cls-78" d="M185.63,63.21a1.36,1.36,0,1,1-1.38-1.34h0A1.36,1.36,0,0,1,185.63,63.21Z"/>
          <ellipse class="cls-79" cx="184.53" cy="62.99" rx="1.35" ry="1.34"/>
          <path class="cls-80" d="M186.12,62.77a1.34,1.34,0,1,1-1.35-1.33h0A1.34,1.34,0,0,1,186.12,62.77Z"/>
          <path class="cls-81" d="M186.37,62.55A1.34,1.34,0,1,1,185,61.22a1.34,1.34,0,0,1,1.37,1.33Z"/>
          <path class="cls-82" d="M186.61,62.33A1.33,1.33,0,1,1,185.28,61a1.32,1.32,0,0,1,1.33,1.31Z"/>
          <path class="cls-82" d="M186.86,62.1a1.32,1.32,0,1,1-1.33-1.31h0A1.34,1.34,0,0,1,186.86,62.1Z"/>
          <path class="cls-83" d="M187.1,61.88a1.32,1.32,0,1,1-1.34-1.3h0A1.31,1.31,0,0,1,187.1,61.88Z"/>
          <path class="cls-21" d="M187.35,61.66a1.31,1.31,0,1,1-1.32-1.3h0A1.31,1.31,0,0,1,187.35,61.66Z"/>
        </g>
        <g>
          <path class="cls-26" d="M127.82,27.55A1.83,1.83,0,1,1,126,25.74h0A1.82,1.82,0,0,1,127.82,27.55Z"/>
          <path class="cls-27" d="M128.06,27.32a1.82,1.82,0,1,1-1.84-1.8h0A1.81,1.81,0,0,1,128.06,27.32Z"/>
          <path class="cls-28" d="M128.31,27.1a1.81,1.81,0,1,1-1.83-1.79h0A1.81,1.81,0,0,1,128.31,27.1Z"/>
          <path class="cls-28" d="M128.55,26.88a1.8,1.8,0,1,1-1.81-1.79h0A1.8,1.8,0,0,1,128.55,26.88Z"/>
          <path class="cls-29" d="M128.8,26.66A1.8,1.8,0,1,1,127,24.88h0a1.79,1.79,0,0,1,1.8,1.78Z"/>
          <path class="cls-30" d="M129,26.44a1.79,1.79,0,1,1-1.8-1.78h0A1.78,1.78,0,0,1,129,26.43Z"/>
          <ellipse class="cls-31" cx="127.5" cy="26.22" rx="1.78" ry="1.77"/>
          <ellipse class="cls-32" cx="127.76" cy="25.99" rx="1.77" ry="1.76"/>
          <path class="cls-32" d="M129.77,25.77A1.77,1.77,0,1,1,128,24a1.77,1.77,0,0,1,1.77,1.77Z"/>
          <path class="cls-33" d="M130,25.55a1.76,1.76,0,1,1-1.77-1.75h0A1.75,1.75,0,0,1,130,25.54Z"/>
          <path class="cls-34" d="M130.26,25.33a1.75,1.75,0,1,1-1.76-1.74h0a1.74,1.74,0,0,1,1.75,1.73Z"/>
          <path class="cls-35" d="M130.51,25.11a1.75,1.75,0,1,1-1.76-1.74h0a1.72,1.72,0,0,1,1.75,1.71Z"/>
          <path class="cls-35" d="M130.75,24.89A1.74,1.74,0,1,1,129,23.16a1.72,1.72,0,0,1,1.75,1.69Z"/>
          <path class="cls-36" d="M131,24.66a1.74,1.74,0,1,1-1.76-1.72h0A1.73,1.73,0,0,1,131,24.66Z"/>
          <path class="cls-37" d="M131.24,24.44a1.73,1.73,0,1,1-1.75-1.71h0A1.72,1.72,0,0,1,131.24,24.44Z"/>
          <path class="cls-38" d="M131.49,24.22a1.72,1.72,0,1,1-1.73-1.71h0A1.72,1.72,0,0,1,131.49,24.22Z"/>
          <path class="cls-39" d="M131.73,24A1.71,1.71,0,1,1,130,22.3a1.72,1.72,0,0,1,1.73,1.7Z"/>
          <path class="cls-39" d="M132,23.78a1.71,1.71,0,1,1-1.72-1.7h0A1.7,1.7,0,0,1,132,23.77Z"/>
          <path class="cls-40" d="M132.22,23.56a1.7,1.7,0,1,1-1.71-1.69h0a1.69,1.69,0,0,1,1.69,1.69Z"/>
          <path class="cls-41" d="M132.47,23.33a1.7,1.7,0,1,1-1.72-1.68h0A1.69,1.69,0,0,1,132.47,23.33Z"/>
          <path class="cls-42" d="M132.71,23.11A1.69,1.69,0,1,1,131,21.44a1.68,1.68,0,0,1,1.71,1.65Z"/>
          <path class="cls-43" d="M133,22.89a1.68,1.68,0,1,1-1.69-1.67h0A1.69,1.69,0,0,1,133,22.89Z"/>
          <path class="cls-43" d="M133.2,22.67A1.67,1.67,0,1,1,131.53,21h0a1.66,1.66,0,0,1,1.67,1.65Z"/>
          <path class="cls-44" d="M133.45,22.45a1.67,1.67,0,1,1-1.68-1.66h0a1.66,1.66,0,0,1,1.67,1.65Z"/>
          <path class="cls-45" d="M133.69,22.23A1.66,1.66,0,1,1,132,20.58a1.64,1.64,0,0,1,1.69,1.59Z"/>
          <path class="cls-8" d="M133.94,22a1.65,1.65,0,1,1-1.66-1.64h0A1.63,1.63,0,0,1,133.94,22Z"/>
          <path class="cls-46" d="M134.18,21.78a1.65,1.65,0,1,1-1.67-1.63h0a1.63,1.63,0,0,1,1.64,1.62Z"/>
          <path class="cls-46" d="M134.43,21.56a1.64,1.64,0,1,1-1.65-1.63h0a1.63,1.63,0,0,1,1.64,1.62Z"/>
          <path class="cls-47" d="M134.67,21.34A1.63,1.63,0,1,1,133,19.72a1.63,1.63,0,0,1,1.67,1.62Z"/>
          <path class="cls-48" d="M134.92,21.12a1.63,1.63,0,1,1-1.64-1.62h0a1.63,1.63,0,0,1,1.63,1.61Z"/>
          <path class="cls-49" d="M135.16,20.9a1.62,1.62,0,1,1-1.63-1.61h0a1.61,1.61,0,0,1,1.61,1.61Z"/>
          <path class="cls-49" d="M135.41,20.67a1.61,1.61,0,1,1-1.62-1.6h0a1.6,1.6,0,0,1,1.61,1.59Z"/>
          <path class="cls-50" d="M135.65,20.45A1.6,1.6,0,1,1,134,18.86h0A1.6,1.6,0,0,1,135.65,20.45Z"/>
          <path class="cls-51" d="M135.9,20.23a1.6,1.6,0,1,1-1.61-1.59h0A1.6,1.6,0,0,1,135.9,20.23Z"/>
          <path class="cls-52" d="M136.14,20a1.59,1.59,0,1,1-1.6-1.58h0A1.6,1.6,0,0,1,136.14,20Z"/>
          <ellipse class="cls-53" cx="134.81" cy="19.79" rx="1.58" ry="1.57"/>
          <path class="cls-53" d="M136.63,19.57A1.58,1.58,0,1,1,135,18h0a1.56,1.56,0,0,1,1.57,1.55Z"/>
          <path class="cls-54" d="M136.88,19.34a1.57,1.57,0,1,1-1.58-1.56h0a1.56,1.56,0,0,1,1.57,1.55Z"/>
          <path class="cls-55" d="M137.12,19.12a1.56,1.56,0,1,1-1.57-1.55h0A1.56,1.56,0,0,1,137.12,19.12Z"/>
          <path class="cls-56" d="M137.37,18.9a1.56,1.56,0,1,1-1.57-1.55h0A1.56,1.56,0,0,1,137.37,18.9Z"/>
          <ellipse class="cls-57" cx="136.06" cy="18.68" rx="1.55" ry="1.54"/>
          <ellipse class="cls-57" cx="136.32" cy="18.46" rx="1.54" ry="1.53"/>
          <path class="cls-58" d="M138.1,18.24a1.54,1.54,0,1,1-1.55-1.53h0a1.52,1.52,0,0,1,1.53,1.51Z"/>
          <path class="cls-59" d="M138.35,18a1.53,1.53,0,1,1-1.54-1.52h0A1.53,1.53,0,0,1,138.35,18Z"/>
          <path class="cls-60" d="M138.59,17.79a1.52,1.52,0,1,1-1.53-1.51h0A1.52,1.52,0,0,1,138.59,17.79Z"/>
          <path class="cls-61" d="M138.84,17.57a1.52,1.52,0,1,1-1.53-1.51h0A1.52,1.52,0,0,1,138.84,17.57Z"/>
          <path class="cls-61" d="M139.08,17.35a1.51,1.51,0,1,1-1.52-1.5h0a1.5,1.5,0,0,1,1.51,1.49Z"/>
          <path class="cls-62" d="M139.33,17.13a1.51,1.51,0,1,1-1.52-1.5h0A1.5,1.5,0,0,1,139.33,17.13Z"/>
          <path class="cls-63" d="M139.57,16.9a1.5,1.5,0,1,1-1.52-1.48h0A1.49,1.49,0,0,1,139.57,16.9Z"/>
          <path class="cls-64" d="M139.82,16.68a1.49,1.49,0,1,1-1.5-1.48h0A1.49,1.49,0,0,1,139.82,16.68Z"/>
          <path class="cls-64" d="M140.06,16.46a1.48,1.48,0,1,1-1.5-1.46h0a1.47,1.47,0,0,1,1.48,1.46Z"/>
          <path class="cls-65" d="M140.31,16.24a1.48,1.48,0,1,1-1.49-1.47h0a1.47,1.47,0,0,1,1.48,1.46Z"/>
          <path class="cls-66" d="M140.55,16a1.47,1.47,0,1,1-1.48-1.46h0A1.46,1.46,0,0,1,140.55,16Z"/>
          <path class="cls-67" d="M140.8,15.8a1.47,1.47,0,1,1-1.48-1.46h0a1.46,1.46,0,0,1,1.46,1.46Z"/>
          <path class="cls-68" d="M141,15.57a1.46,1.46,0,1,1-1.48-1.44h0A1.45,1.45,0,0,1,141,15.57Z"/>
          <path class="cls-68" d="M141.29,15.35a1.45,1.45,0,1,1-1.46-1.44h0a1.43,1.43,0,0,1,1.45,1.43Z"/>
          <path class="cls-69" d="M141.53,15.13a1.44,1.44,0,1,1-1.45-1.43h0a1.43,1.43,0,0,1,1.44,1.42Z"/>
          <path class="cls-70" d="M141.78,14.91a1.44,1.44,0,1,1-1.45-1.43h0a1.43,1.43,0,0,1,1.44,1.42Z"/>
          <ellipse class="cls-71" cx="140.6" cy="14.69" rx="1.43" ry="1.42"/>
          <path class="cls-72" d="M142.27,14.47a1.42,1.42,0,1,1-1.42-1.42h0A1.43,1.43,0,0,1,142.27,14.47Z"/>
          <path class="cls-72" d="M142.51,14.24a1.42,1.42,0,1,1-1.44-1.4h0A1.42,1.42,0,0,1,142.51,14.24Z"/>
          <path class="cls-73" d="M142.76,14a1.41,1.41,0,1,1-1.42-1.4h0A1.4,1.4,0,0,1,142.76,14Z"/>
          <path class="cls-74" d="M143,13.8a1.4,1.4,0,1,1-1.41-1.39h0a1.39,1.39,0,0,1,1.4,1.38Z"/>
          <path class="cls-18" d="M143.25,13.58a1.4,1.4,0,1,1-1.41-1.39h0a1.39,1.39,0,0,1,1.4,1.38Z"/>
          <ellipse class="cls-75" cx="142.11" cy="13.36" rx="1.39" ry="1.38"/>
          <path class="cls-75" d="M143.74,13.14a1.38,1.38,0,1,1-1.38-1.38,1.38,1.38,0,0,1,1.38,1.38Z"/>
          <path class="cls-76" d="M144,12.91a1.38,1.38,0,1,1-1.4-1.36h0A1.38,1.38,0,0,1,144,12.91Z"/>
          <path class="cls-77" d="M144.23,12.69a1.37,1.37,0,1,1-1.38-1.36h0a1.36,1.36,0,0,1,1.37,1.35Z"/>
          <path class="cls-78" d="M144.47,12.47a1.36,1.36,0,1,1-1.37-1.35h0a1.34,1.34,0,0,1,1.36,1.34Z"/>
          <path class="cls-78" d="M144.72,12.25a1.36,1.36,0,1,1-1.37-1.35h0a1.34,1.34,0,0,1,1.36,1.34Z"/>
          <ellipse class="cls-79" cx="143.62" cy="12.03" rx="1.35" ry="1.34"/>
          <path class="cls-80" d="M145.21,11.81a1.34,1.34,0,1,1-1.34-1.34h0A1.34,1.34,0,0,1,145.21,11.81Z"/>
          <path class="cls-81" d="M145.45,11.58a1.33,1.33,0,1,1-1.34-1.32h0a1.32,1.32,0,0,1,1.33,1.31Z"/>
          <path class="cls-82" d="M145.7,11.36A1.33,1.33,0,1,1,144.37,10a1.32,1.32,0,0,1,1.33,1.31Z"/>
          <path class="cls-82" d="M145.94,11.14a1.32,1.32,0,1,1-1.33-1.31h0a1.31,1.31,0,0,1,1.32,1.3Z"/>
          <path class="cls-83" d="M146.19,10.92a1.32,1.32,0,1,1-1.33-1.31h0A1.31,1.31,0,0,1,146.19,10.92Z"/>
          <path class="cls-21" d="M146.43,10.7a1.31,1.31,0,1,1-1.32-1.3h0a1.3,1.3,0,0,1,1.3,1.3Z"/>
        </g>
      </g>
    </g>
  </g>
</svg>
